<svg width="100%" height="100%" viewBox="0 0 1150 1470" version="1.1" xmlns="http://www.w3.org/2000/svg" xmlns:xlink="http://www.w3.org/1999/xlink" xml:space="preserve" xmlns:serif="http://www.serif.com/" style="fill-rule:evenodd;clip-rule:evenodd;stroke-linejoin:round;stroke-miterlimit:7;">
    <g id="shadow">
        <g style="filter:url(#_Effect1);">
            <path d="M573.888,1173.49L898.887,1154.57L1033.69,1311.24C1033.69,1311.24 1076.87,1398.76 964.703,1398.76L183.072,1398.76C70.907,1398.76 114.083,1311.24 114.083,1311.24L248.888,1154.57L573.888,1173.49Z" style="fill-opacity:0.5;stroke:black;stroke-opacity:0.5;stroke-width:2.5px;"/>
        </g>
    </g>
    <g id="Body">
      <path id="Body1" serif:id="Body" d="M296.808,553.442L396.333,553.442L396.333,551.021L411.793,551.021L411.793,534.312L738.641,534.312L738.641,551.021L754.1,551.021L754.1,553.442L853.626,553.442C877.147,553.442 896.244,572.538 896.244,596.06L896.244,598.996L926.525,621.821L926.525,621.828L1070.93,685.735C1070.93,685.735 1157.52,711.283 1129.12,780.317C1122.04,797.522 1114.4,815.17 1106.93,831.972C1107.26,832.023 1107.44,832.046 1107.44,832.046C1107.44,832.046 1081.25,903.146 1072.14,907.334C1066.71,918.711 1063.38,925.51 1063.38,925.51C1063.38,925.51 1060.54,926.448 1054.1,925.997L1053.94,926.12L1055.1,926.12L1065.38,956.494L1052.18,986.937L993.784,1034.4L976.07,1025.43L991.392,999.129C991.392,999.129 1018.69,978.537 1030.17,967.217C1039.82,957.704 1033.25,946.718 1030.91,943.451L1022.47,949.803C1022.47,949.803 1018.96,948.968 1013.48,947.295L1001.99,970.288L1001.72,970.288L971.694,1022.35L947.065,1013.29L949.794,1004.87L950.231,1004.19L949.331,1003.68L982.937,935.299L982.336,934.996C962.867,925.113 959.473,920.684 959.473,920.684L958.578,914.923C955.915,915.451 952.153,916.272 947.972,917.413C939.867,919.624 938.908,931.126 938.908,931.126L944.27,989.207L949.483,994.531L942.525,1013.29L925.784,1006.02L922.198,974.497L922.198,1029.94L978.883,1150.08L978.869,1150.47C982.895,1154.02 986.474,1159.64 988.405,1168.46C994.668,1197.05 1018.18,1288.13 1018.18,1288.13C1018.18,1288.13 1018.57,1288.58 1018.55,1289.32C1020.17,1289.42 1022.78,1290.42 1023.98,1295.56C1025.77,1303.28 1028.32,1314.65 1028.32,1314.65C1028.32,1314.65 1026.91,1318.25 1018.53,1321.48C1018.66,1327.16 1019.16,1378.67 993.687,1378.67L842.144,1378.67C836.532,1378.67 832.18,1376.17 828.807,1372.21L824.52,1373.4L325.913,1373.4L321.626,1372.21C318.253,1376.17 313.902,1378.67 308.289,1378.67L156.747,1378.67C131.275,1378.67 131.772,1327.16 131.905,1321.48C123.523,1318.25 122.119,1314.65 122.119,1314.65C122.119,1314.65 124.661,1303.28 126.456,1295.56C127.65,1290.42 130.265,1289.42 131.88,1289.32C131.861,1288.58 132.256,1288.13 132.256,1288.13C132.256,1288.13 155.765,1197.05 162.028,1168.46C163.96,1159.64 167.538,1154.02 171.565,1150.47L171.551,1150.08L228.236,1029.94L228.236,972.071L224.374,1006.02L207.632,1013.29L200.675,994.531L205.887,989.207L211.249,931.126C211.249,931.126 210.29,919.624 202.185,917.413C198.005,916.272 194.243,915.451 191.579,914.923L190.685,920.684C190.685,920.684 187.291,925.113 167.821,934.996L167.22,935.299L200.826,1003.68L199.927,1004.19L200.363,1004.87L203.092,1013.29L178.463,1022.35L148.442,970.288L148.167,970.288L136.676,947.295C131.193,948.968 127.688,949.803 127.688,949.803L119.247,943.451C116.903,946.718 110.339,957.704 119.985,967.217C131.466,978.537 158.765,999.129 158.765,999.129L174.087,1025.43L156.373,1034.4L97.976,986.937L84.773,956.494L95.059,926.12L96.216,926.12L96.076,926.014C89.817,926.423 87.055,925.51 87.055,925.51C87.055,925.51 83.722,918.711 78.29,907.334C69.18,903.146 42.997,832.046 42.997,832.046C42.997,832.046 43.172,832.023 43.503,831.972C36.031,815.17 28.397,797.522 21.319,780.317C-7.084,711.283 79.499,685.735 79.499,685.735L223.908,621.828L223.908,621.821L254.19,598.996L254.19,596.06C254.19,572.538 273.286,553.442 296.808,553.442ZM231.049,947.345L254.19,926.12L254.19,802.384L215.474,756.018L216.472,740.146C210.14,741.823 202.559,736.847 202.559,736.847C202.559,736.847 176.83,746.358 164.535,751.502C152.24,756.645 158.535,766.392 158.535,766.392L205.357,873.383C205.357,873.383 202.741,875.809 197.003,880.01L196.159,885.445L224.374,896.776L233.949,921.852L231.049,947.345ZM869.627,1145.29L869.388,1144.62L869.244,1145.39C869.372,1145.35 869.5,1145.32 869.627,1145.29ZM280.807,1145.29C280.934,1145.32 281.061,1145.35 281.189,1145.39L281.045,1144.62L280.807,1145.29ZM953.119,879.781C947.598,875.721 945.077,873.383 945.077,873.383L991.898,766.392C991.898,766.392 998.193,756.645 985.898,751.502C973.604,746.358 947.874,736.847 947.874,736.847C947.874,736.847 940.293,741.823 933.961,740.146L934.959,756.018L896.244,802.384L896.244,926.12L919.077,947.062L916.209,921.852L925.784,896.776L953.999,885.445L953.119,879.781Z" style="fill:url(#_Linear2);"/>
        <path d="M565.965,1120.9L565.965,1120.66L575.217,1120.78L584.469,1120.66L584.469,1120.9L847.25,1124.61L870.362,1144.57L831.44,1345.96L318.993,1345.96L277.539,1144.57L303.184,1124.61L565.965,1120.9Z" style="fill:rgb(205,205,205);"/>
        <path d="M119.985,942.488C119.985,942.488 108.505,955.896 119.985,967.217C131.466,978.537 158.765,999.129 158.765,999.129L174.087,1025.43L156.373,1034.4L97.976,986.937L84.773,956.494L95.059,926.12L124.204,926.12L119.985,942.488Z" style="fill:url(#_Linear3);"/>
        <path d="M193.775,884.487L224.374,896.776L233.949,921.852L224.374,1006.02L207.632,1013.29L200.675,994.531L205.887,989.207L211.249,931.126C211.249,931.126 210.29,919.624 202.185,917.413C194.08,915.201 187.546,914.191 187.546,914.191L193.775,884.487Z" style="fill:url(#_Linear4);"/>
        <path d="M95.059,925.249L127.688,949.803C127.688,949.803 148.352,944.879 167.821,934.996C187.291,925.113 190.685,920.684 190.685,920.684L197.225,878.578L143.172,894.949L95.059,925.249Z" style="fill:url(#_Linear5);"/>
        <path d="M156.227,912.263L165.653,932.112L200.847,1004.08L203.092,1012.93L189.479,1012.61L153.761,934.239L156.227,912.263Z" style="fill:rgb(117,117,117);"/>
        <path d="M129.43,922.602L135.41,944.766L161.395,934.239L155.999,912.263L129.43,922.602Z" style="fill:rgb(232,232,232);"/>
        <rect x="411.928" y="534.312" width="326.713" height="38.26" style="fill:rgb(107,107,107);"/>
        <rect x="254.19" y="553.442" width="339.81" height="549.791" style="fill:none;"/>
        <path d="M754.1,657.494L396.333,657.494L396.333,551.021L415.745,551.021L415.745,620.814L734.689,620.814L734.689,551.021L754.1,551.021L754.1,657.494Z" style="fill:rgb(203,203,203);"/>
        <g>
            <path d="M39.855,823.73C63.683,877.833 87.055,925.51 87.055,925.51C87.055,925.51 103.155,930.832 145.721,910.022C188.287,889.211 205.357,873.383 205.357,873.383L160.464,770.8L39.855,823.73Z" style="fill:url(#_Radial6);"/>
            <path d="M168.587,749.841C181.718,744.551 202.559,736.847 202.559,736.847C202.559,736.847 210.74,742.216 217.202,739.92C223.664,737.625 224.374,621.622 224.374,621.622L130.457,663.184L168.587,749.841Z" style="fill:url(#_Linear7);"/>
            <path d="M126.498,664.936L79.499,685.735C79.499,685.735 -7.084,711.283 21.319,780.317C26.701,793.4 32.405,806.739 38.114,819.766L158.729,766.835L158.535,766.392C158.535,766.392 152.24,756.645 164.535,751.502C164.55,751.495 164.565,751.489 164.58,751.483L126.498,664.936Z" style="fill:url(#_Radial8);"/>
            <path d="M164.58,751.483L126.498,664.936L130.457,663.184L168.587,749.841C167.146,750.422 165.798,750.974 164.58,751.483Z" style="fill:rgb(179,179,179);"/>
            <path d="M38.114,819.766L158.729,766.835L160.464,770.8L39.855,823.73C39.275,822.412 38.694,821.091 38.114,819.766Z" style="fill:rgb(179,179,179);"/>
        </g>
        <path d="M254.19,598.996L223.908,621.821L215.474,756.018L254.19,802.384L254.19,598.996Z" style="fill:url(#_Linear9);"/>
        <circle cx="67.879" cy="763.031" r="16.834" style="fill:rgb(194,194,194);"/>
        <circle cx="64.383" cy="759.536" r="16.834" style="fill:rgb(226,226,226);"/>
        <path d="M42.997,832.046C42.997,832.046 55.035,830.479 67.879,824.144C80.723,817.808 95.984,814.929 100.496,825.544C105.007,836.158 125.28,880.879 125.28,880.879C125.28,880.879 129.506,892.307 116.443,898.371C101.95,905.099 87.406,909.665 78.687,907.476C69.968,905.288 42.997,832.046 42.997,832.046Z" style="fill:rgb(93,167,252);"/>
        <path d="M254.19,926.12L228.236,949.925L228.236,1081.39L254.19,1103.23L254.19,926.12Z" style="fill:rgb(194,194,194);"/>
        <path d="M228.236,1029.94L171.551,1150.08L174.02,1219.28L275.286,1160.72L308.416,1068.12L228.236,1029.94Z" style="fill:none;"/>
        <path d="M575.217,1120.78L303.184,1124.61L303.184,1103.23L847.25,1103.23L847.25,1124.61L575.217,1120.78Z" style="fill:rgb(156,156,156);"/>
        <path d="M831.88,1345.96L832.84,1371.1L824.52,1373.4L325.913,1373.4L317.594,1371.1L318.553,1345.96L831.88,1345.96Z" style="fill:rgb(170,170,170);"/>
        <path d="M858.52,657.494L858.316,675.691L292.117,675.691L291.914,657.494L858.52,657.494Z" style="fill:rgb(226,226,226);"/>
        <path d="M291.914,657.494L274.234,675.173L291.914,675.173L291.914,657.494Z" style="fill:white;"/>
        <path d="M291.914,675.691L291.914,1098.95L274.234,1075.39L274.234,675.691L291.914,675.691" style="fill:rgb(187,187,187);"/>
        <path d="M252.526,673.235L252.526,674.872C252.526,675.324 252.159,675.691 251.707,675.691L232.215,675.691C231.763,675.691 231.396,675.324 231.396,674.872L231.396,673.235C231.396,672.783 231.763,672.416 232.215,672.416L251.707,672.416C252.159,672.416 252.526,672.783 252.526,673.235Z" style="fill:rgb(93,167,252);"/>
        <path d="M252.526,689.393L252.526,691.03C252.526,691.482 252.159,691.849 251.707,691.849L232.215,691.849C231.763,691.849 231.396,691.482 231.396,691.03L231.396,689.393C231.396,688.941 231.763,688.575 232.215,688.575L251.707,688.575C252.159,688.575 252.526,688.941 252.526,689.393Z" style="fill:rgb(93,167,252);"/>
        <path d="M252.526,705.552L252.526,707.189C252.526,707.641 252.159,708.007 251.707,708.007L232.215,708.007C231.763,708.007 231.396,707.641 231.396,707.189L231.396,705.552C231.396,705.1 231.763,704.733 232.215,704.733L251.707,704.733C252.159,704.733 252.526,705.1 252.526,705.552Z" style="fill:rgb(93,167,252);"/>
        <path d="M252.526,721.71L252.526,723.347C252.526,723.799 252.159,724.166 251.707,724.166L232.215,724.166C231.763,724.166 231.396,723.799 231.396,723.347L231.396,721.71C231.396,721.258 231.763,720.891 232.215,720.891L251.707,720.891C252.159,720.891 252.526,721.258 252.526,721.71Z" style="fill:rgb(93,167,252);"/>
        <path d="M252.526,737.868L252.526,739.506C252.526,739.957 252.159,740.324 251.707,740.324L232.215,740.324C231.763,740.324 231.396,739.957 231.396,739.506L231.396,737.868C231.396,737.417 231.763,737.05 232.215,737.05L251.707,737.05C252.159,737.05 252.526,737.417 252.526,737.868Z" style="fill:rgb(93,167,252);"/>
        <path d="M135.411,944.766L148.167,970.288L172.111,960.903L161.233,934.239L135.411,944.766Z" style="fill:rgb(239,239,239);"/>
        <path d="M172.111,960.898L199.439,1007.72L203.092,1013.29L178.463,1022.35L148.442,970.288L172.111,960.898Z" style="fill:rgb(198,198,198);"/>
        <g>
            <path d="M232.518,1321.5L273.455,1313.02L333.117,1320.98C333.117,1320.98 335.245,1378.67 308.289,1378.67L156.747,1378.67C129.79,1378.67 131.919,1320.98 131.919,1320.98L191.581,1313.02L232.518,1321.5Z" style="fill:url(#_Linear10);"/>
            <path d="M231.886,1291.67L330.523,1289.45C330.523,1289.45 335.522,1287.84 337.317,1295.56C339.111,1303.28 341.654,1314.65 341.654,1314.65C341.654,1314.65 337.47,1325.37 300.441,1326.43C278.418,1327.07 250.719,1326.95 231.886,1326.75C213.053,1326.95 185.354,1327.07 163.331,1326.43C126.302,1325.37 122.119,1314.65 122.119,1314.65C122.119,1314.65 124.661,1303.28 126.456,1295.56C128.25,1287.84 133.249,1289.45 133.249,1289.45L231.886,1291.67Z" style="fill:url(#_Linear11);"/>
            <path d="M231.201,1146.03L270.53,1144.91C270.53,1144.91 294.112,1139.86 300.374,1168.46C306.637,1197.05 330.147,1288.13 330.147,1288.13C330.147,1288.13 341.269,1300.79 242.588,1302.12C240.87,1302.19 239.096,1302.23 237.265,1302.23C235.204,1302.23 233.183,1302.23 231.201,1302.22C229.219,1302.23 227.198,1302.23 225.137,1302.23C223.306,1302.23 221.532,1302.19 219.814,1302.12C121.133,1300.79 132.256,1288.13 132.256,1288.13C132.256,1288.13 155.765,1197.05 162.028,1168.46C168.291,1139.86 191.872,1144.91 191.872,1144.91L231.201,1146.03Z" style="fill:url(#_Linear12);"/>
        </g>
        <path d="M555.215,689.094L555.215,695.696C555.215,706.866 546.146,715.935 534.975,715.935C523.805,715.935 514.736,706.866 514.736,695.696L514.736,689.094C514.736,677.924 523.805,668.855 534.975,668.855C546.146,668.855 555.215,677.924 555.215,689.094Z" style="fill:rgb(40,40,40);"/>
        <path d="M1030.45,942.488C1030.45,942.488 1041.93,955.896 1030.45,967.217C1018.97,978.537 991.668,999.129 991.668,999.129L976.346,1025.43L994.061,1034.4L1052.46,986.937L1065.66,956.494L1055.37,926.12L1026.23,926.12L1030.45,942.488Z" style="fill:url(#_Linear13);"/>
        <path d="M956.659,884.487L926.06,896.776L916.485,921.852L926.06,1006.02L942.801,1013.29L949.759,994.531L944.546,989.207L939.184,931.126C939.184,931.126 940.143,919.624 948.249,917.413C956.354,915.201 962.887,914.191 962.887,914.191L956.659,884.487Z" style="fill:url(#_Linear14);"/>
        <path d="M1055.37,925.249L1022.75,949.803C1022.75,949.803 1002.08,944.879 982.612,934.996C963.143,925.113 959.749,920.684 959.749,920.684L953.208,878.578L1007.26,894.949L1055.37,925.249Z" style="fill:url(#_Linear15);"/>
        <path d="M994.206,912.263L984.78,932.112L949.586,1004.08L947.341,1012.93L960.955,1012.61L996.672,934.239L994.206,912.263Z" style="fill:rgb(117,117,117);"/>
        <path d="M1021,922.602L1015.02,944.766L989.038,934.239L994.434,912.263L1021,922.602Z" style="fill:rgb(232,232,232);"/>
        <rect x="556.433" y="553.442" width="339.81" height="549.791" style="fill:none;"/>
        <g>
            <path d="M1110.58,823.73C1086.75,877.833 1063.38,925.51 1063.38,925.51C1063.38,925.51 1047.28,930.832 1004.71,910.022C962.146,889.211 945.077,873.383 945.077,873.383L989.969,770.8L1110.58,823.73Z" style="fill:url(#_Radial16);"/>
            <path d="M981.846,749.841C968.715,744.551 947.874,736.847 947.874,736.847C947.874,736.847 939.694,742.216 933.231,739.92C926.769,737.625 926.06,621.622 926.06,621.622L1019.98,663.184L981.846,749.841Z" style="fill:url(#_Linear17);"/>
            <path d="M1023.94,664.936L1070.93,685.735C1070.93,685.735 1157.52,711.283 1129.12,780.317C1123.73,793.4 1118.03,806.739 1112.32,819.766L991.705,766.835L991.898,766.392C991.898,766.392 998.193,756.645 985.898,751.502C985.883,751.495 985.868,751.489 985.853,751.483L1023.94,664.936Z" style="fill:url(#_Radial18);"/>
            <path d="M985.853,751.483L1023.94,664.936L1019.98,663.184L981.846,749.841C983.287,750.422 984.636,750.974 985.853,751.483Z" style="fill:rgb(179,179,179);"/>
            <path d="M1112.32,819.766L991.705,766.835L989.969,770.8L1110.58,823.73C1111.16,822.412 1111.74,821.091 1112.32,819.766Z" style="fill:rgb(179,179,179);"/>
        </g>
        <path d="M896.244,598.996L926.525,621.821L934.959,756.018L896.244,802.384L896.244,598.996Z" style="fill:url(#_Linear19);"/>
        <circle cx="1082.56" cy="763.031" r="16.834" style="fill:rgb(194,194,194);"/>
        <circle cx="1086.05" cy="759.536" r="16.834" style="fill:rgb(226,226,226);"/>
        <path d="M1107.44,832.046C1107.44,832.046 1095.4,830.479 1082.56,824.144C1069.71,817.808 1054.45,814.929 1049.94,825.544C1045.43,836.158 1025.15,880.879 1025.15,880.879C1025.15,880.879 1020.93,892.307 1033.99,898.371C1048.48,905.099 1063.03,909.665 1071.75,907.476C1080.46,905.288 1107.44,832.046 1107.44,832.046Z" style="fill:rgb(93,167,252);"/>
        <path d="M896.244,926.12L922.198,949.925L922.198,1081.39L896.244,1103.23L896.244,926.12Z" style="fill:rgb(194,194,194);"/>
        <path d="M922.198,1029.94L978.883,1150.08L976.414,1219.28L875.147,1160.72L842.018,1068.12L922.198,1029.94Z" style="fill:none;"/>
        <path d="M858.52,657.494L876.199,675.173L858.52,675.173L858.52,657.494Z" style="fill:white;"/>
        <path d="M858.52,675.691L858.52,1098.95L876.199,1075.39L876.199,675.691L858.52,675.691" style="fill:rgb(187,187,187);"/>
        <path d="M897.907,673.235L897.907,674.872C897.907,675.324 898.274,675.691 898.726,675.691L918.219,675.691C918.67,675.691 919.037,675.324 919.037,674.872L919.037,673.235C919.037,672.783 918.67,672.416 918.219,672.416L898.726,672.416C898.274,672.416 897.907,672.783 897.907,673.235Z" style="fill:rgb(93,167,252);"/>
        <path d="M897.907,689.393L897.907,691.03C897.907,691.482 898.274,691.849 898.726,691.849L918.219,691.849C918.67,691.849 919.037,691.482 919.037,691.03L919.037,689.393C919.037,688.941 918.67,688.575 918.219,688.575L898.726,688.575C898.274,688.575 897.907,688.941 897.907,689.393Z" style="fill:rgb(93,167,252);"/>
        <path d="M897.907,705.552L897.907,707.189C897.907,707.641 898.274,708.007 898.726,708.007L918.219,708.007C918.67,708.007 919.037,707.641 919.037,707.189L919.037,705.552C919.037,705.1 918.67,704.733 918.219,704.733L898.726,704.733C898.274,704.733 897.907,705.1 897.907,705.552Z" style="fill:rgb(93,167,252);"/>
        <path d="M897.907,721.71L897.907,723.347C897.907,723.799 898.274,724.166 898.726,724.166L918.219,724.166C918.67,724.166 919.037,723.799 919.037,723.347L919.037,721.71C919.037,721.258 918.67,720.891 918.219,720.891L898.726,720.891C898.274,720.891 897.907,721.258 897.907,721.71Z" style="fill:rgb(93,167,252);"/>
        <path d="M897.907,737.868L897.907,739.506C897.907,739.957 898.274,740.324 898.726,740.324L918.219,740.324C918.67,740.324 919.037,739.957 919.037,739.506L919.037,737.868C919.037,737.417 918.67,737.05 918.219,737.05L898.726,737.05C898.274,737.05 897.907,737.417 897.907,737.868Z" style="fill:rgb(93,167,252);"/>
        <path d="M1015.02,944.766L1002.27,970.288L978.323,960.903L989.201,934.239L1015.02,944.766Z" style="fill:rgb(239,239,239);"/>
        <path d="M978.323,960.898L950.995,1007.72L947.341,1013.29L971.97,1022.35L1001.99,970.288L978.323,960.898Z" style="fill:rgb(198,198,198);"/>
        <g>
            <path d="M917.916,1321.5L876.979,1313.02L817.316,1320.98C817.316,1320.98 815.188,1378.67 842.144,1378.67L993.687,1378.67C1020.64,1378.67 1018.51,1320.98 1018.51,1320.98L958.852,1313.02L917.916,1321.5Z" style="fill:url(#_Linear20);"/>
            <path d="M918.547,1291.67L819.91,1289.45C819.91,1289.45 814.911,1287.84 813.117,1295.56C811.322,1303.28 808.78,1314.65 808.78,1314.65C808.78,1314.65 812.963,1325.37 849.992,1326.43C872.015,1327.07 899.715,1326.95 918.547,1326.75C937.38,1326.95 965.079,1327.07 987.103,1326.43C1024.13,1325.37 1028.32,1314.65 1028.32,1314.65C1028.32,1314.65 1025.77,1303.28 1023.98,1295.56C1022.18,1287.84 1017.18,1289.45 1017.18,1289.45L918.547,1291.67Z" style="fill:url(#_Linear21);"/>
            <path d="M919.232,1146.03L879.903,1144.91C879.903,1144.91 856.322,1139.86 850.059,1168.46C843.797,1197.05 820.287,1288.13 820.287,1288.13C820.287,1288.13 809.164,1300.79 907.845,1302.12C909.563,1302.19 911.337,1302.23 913.168,1302.23C915.229,1302.23 917.25,1302.23 919.232,1302.22C921.214,1302.23 923.235,1302.23 925.297,1302.23C927.127,1302.23 928.901,1302.19 930.62,1302.12C1029.3,1300.79 1018.18,1288.13 1018.18,1288.13C1018.18,1288.13 994.668,1197.05 988.405,1168.46C982.143,1139.86 958.561,1144.91 958.561,1144.91L919.232,1146.03Z" style="fill:url(#_Linear22);"/>
        </g>
        <path d="M555.215,605.985L555.215,648.616C555.215,659.786 546.146,668.855 534.975,668.855C523.805,668.855 514.736,659.786 514.736,648.616L514.736,605.985C514.736,594.815 523.805,585.746 534.975,585.746C546.146,585.746 555.215,594.815 555.215,605.985Z" style="fill:rgb(93,167,252);"/>
        <path d="M808.78,1139.39C808.78,1139.39 838.498,1138.64 832.84,1165.68C827.181,1192.73 799.941,1295.69 799.941,1295.69C799.941,1295.69 796.444,1317.43 775.268,1317.43L375.165,1317.43C353.99,1317.43 350.493,1295.69 350.493,1295.69C350.493,1295.69 323.253,1192.73 317.594,1165.68C311.935,1138.64 341.654,1139.39 341.654,1139.39L808.78,1139.39Z" style="fill:rgb(175,175,175);"/>
        <path d="M846.53,706.53L846.53,749.52L876.199,749.52L876.199,998.079L847.078,998.079L847.078,1103.23L303.355,1103.23L303.355,998.079L274.234,998.079L274.234,749.52L303.904,749.52L303.904,706.53L846.53,706.53Z" style="fill:rgb(40,40,40);"/>
        <path d="M449.676,712.337C449.676,725.469 460.337,736.131 473.469,736.131L665.215,736.131C678.347,736.131 689.008,725.469 689.008,712.337C689.008,699.206 678.347,688.544 665.215,688.544L473.469,688.544C460.337,688.544 449.676,699.206 449.676,712.337Z"/>
        <path d="M449.676,706.53C449.676,719.662 460.337,730.324 473.469,730.324L665.215,730.324C678.347,730.324 689.008,719.662 689.008,706.53C689.008,693.398 678.347,682.737 665.215,682.737L473.469,682.737C460.337,682.737 449.676,693.398 449.676,706.53Z" style="fill:rgb(40,40,40);"/>
        <g>
            <path d="M316.254,1065.01C316.254,1069.77 320.112,1073.62 324.865,1073.62L546.974,1073.62C551.727,1073.62 555.586,1069.77 555.586,1065.01C555.586,1060.26 551.727,1056.4 546.974,1056.4L324.865,1056.4C320.112,1056.4 316.254,1060.26 316.254,1065.01Z"/>
            <rect x="706.455" y="1044.02" width="115.204" height="29.6"/>
            <rect x="706.455" y="1037.84" width="115.204" height="29.6" style="fill:rgb(68,68,68);"/>
            <path d="M449.676,1056.02C449.676,1069.15 460.337,1079.81 473.469,1079.81L665.215,1079.81C678.347,1079.81 689.008,1069.15 689.008,1056.02C689.008,1042.89 678.347,1032.23 665.215,1032.23L473.469,1032.23C460.337,1032.23 449.676,1042.89 449.676,1056.02Z"/>
            <path d="M316.254,1058.82C316.254,1063.58 320.112,1067.44 324.865,1067.44L546.974,1067.44C551.727,1067.44 555.586,1063.58 555.586,1058.82C555.586,1054.07 551.727,1050.21 546.974,1050.21L324.865,1050.21C320.112,1050.21 316.254,1054.07 316.254,1058.82Z" style="fill:rgb(68,68,68);"/>
            <path d="M449.676,1050.21C449.676,1063.34 460.337,1074.01 473.469,1074.01L665.215,1074.01C678.347,1074.01 689.008,1063.34 689.008,1050.21C689.008,1037.08 678.347,1026.42 665.215,1026.42L473.469,1026.42C460.337,1026.42 449.676,1037.08 449.676,1050.21Z" style="fill:rgb(68,68,68);"/>
        </g>
        <rect x="274.234" y="749.581" width="17.814" height="248.374" style="fill:rgb(26,26,26);"/>
        <path d="M683.705,748.619L713.317,719.006L834.568,719.006L834.568,1026.42L711.767,1026.42L690.456,1005.11L460.366,1005.11L439.055,1026.42L316.254,1026.42L316.254,719.006L437.505,719.006L467.117,748.619L683.705,748.619Z" style="fill:rgb(68,68,68);"/>
        <rect x="858.386" y="749.581" width="17.814" height="248.374" style="fill:rgb(26,26,26);"/>
        <rect x="274.234" y="805.777" width="53.798" height="137.176" style="fill:rgb(93,167,252);"/>
        <rect x="822.401" y="805.777" width="53.798" height="137.176" style="fill:rgb(93,167,252);"/>
        <rect x="274.234" y="805.777" width="17.814" height="137.176" style="fill:rgb(42,132,236);"/>
        <rect x="858.386" y="805.777" width="17.814" height="137.176" style="fill:rgb(42,132,236);"/>
        <g>
            <path d="M498.423,853.654L542.6,853.654L501.493,806.272L559.278,806.934L597.882,851.261L636.525,806.885L677.862,806.885L691.854,806.793L691.854,816.385L691.854,908.302L814.006,908.302L773.485,948.823L683.114,948.823L682.858,948.541L637.116,948.541L598.207,902.892L559.065,948.541L505.633,948.541L544.035,901.515L498.423,901.515L498.423,901.756L379.866,901.756L379.866,908.302L498.45,908.302L498.45,948.541L338.107,948.541L338.107,888.263L356.771,869.599L337.464,869.599L337.464,834.354L365.777,806.514L470.536,806.514L498.423,834.401L498.423,853.654ZM379.069,860.158L456.669,860.158L456.669,847.836L379.069,847.836L379.069,860.158Z" style="fill:rgb(34,34,34);"/>
            <path d="M498.423,847.654L542.6,847.654L501.493,800.272L559.278,800.934L597.882,845.261L636.525,800.885L677.862,800.885L691.854,800.793L691.854,810.385L691.854,902.302L814.006,902.302L773.485,942.823L683.114,942.823L682.858,942.541L637.116,942.541L598.207,896.892L559.065,942.541L505.633,942.541L544.035,895.515L379.866,895.756L379.866,902.302L498.45,902.302L498.45,942.541L338.107,942.541L338.107,882.263L356.771,863.599L337.464,863.599L337.464,828.354L365.777,800.514L470.536,800.514L498.423,828.401L498.423,847.654ZM379.069,854.158L456.669,854.158L456.669,841.836L379.069,841.836L379.069,854.158Z" style="fill:url(#_Linear23);"/>
            <g>
                <path d="M346.964,832.336L346.964,854.099L369.569,854.099L369.569,832.336L466.169,832.336L466.169,863.658L370.147,863.658L347.607,886.198L347.607,933.041L488.95,933.041L488.95,911.802L370.366,911.802L370.366,886.256L488.923,886.256L488.923,832.336L466.601,810.014L369.665,810.014L346.964,832.336Z" style="fill:none;stroke:black;stroke-width:2.5px;"/>
                <path d="M522.521,810.014L575.889,871.527L525.656,933.041L554.697,933.041L598.228,882.272L641.501,933.041L671.699,933.041L619.065,871.527L670.875,810.385L640.849,810.385L597.883,859.726L554.911,810.385L522.521,810.014Z" style="fill:none;stroke:black;stroke-width:2.5px;"/>
                <path d="M682.354,810.385L682.354,911.802L791.071,911.802L769.55,933.323L687.322,933.323L658.686,901.76L658.686,839.213L682.354,810.385Z" style="fill:none;stroke:black;stroke-width:2.5px;"/>
                <path d="M500.153,886.015L550.374,886.015L561.842,871.846L549.727,857.154L500.498,857.154L500.153,886.015Z" style="fill:none;stroke:black;stroke-width:2.5px;"/>
            </g>
        </g>
        <g>
            <rect x="328.774" y="731.045" width="17.125" height="17.125" style="fill:rgb(40,40,40);"/>
            <rect x="328.774" y="994.359" width="17.125" height="17.125" style="fill:rgb(40,40,40);"/>
            <rect x="804.535" y="731.045" width="17.125" height="17.125" style="fill:rgb(40,40,40);"/>
            <rect x="804.535" y="994.359" width="17.125" height="17.125" style="fill:rgb(40,40,40);"/>
        </g>
        <g transform="matrix(18.0228,0,0,18.0228,482.75,643.671)">
        </g>
        <text x="434.006px" y="643.671px" style="font-family:'Arial-BoldItalicMT', 'Arial', sans-serif;font-weight:700;font-style:italic;font-size:18.023px;fill:rgb(68,68,68);">ST<tspan x="456.71px 470.729px " y="643.671px 643.671px ">OP</tspan></text>
        <g transform="matrix(18.0228,0,0,18.0228,638.234,643.671)">
        </g>
        <text x="592.517px" y="643.671px" style="font-family:'Arial-BoldItalicMT', 'Arial', sans-serif;font-weight:700;font-style:italic;font-size:18.023px;fill:rgb(68,68,68);">REW<tspan x="633.227px " y="643.671px ">.</tspan></text>
        <g transform="matrix(18.0228,0,0,18.0228,716.088,643.671)">
        </g>
        <text x="669.359px" y="643.671px" style="font-family:'Arial-BoldItalicMT', 'Arial', sans-serif;font-weight:700;font-style:italic;font-size:18.023px;fill:rgb(68,68,68);">PLA<tspan x="704.067px " y="643.671px ">Y</tspan></text>
        <g>
            <path d="M287.992,1283.6C287.992,1287.18 285.078,1290.1 281.49,1290.1L183.546,1290.1C179.957,1290.1 177.044,1287.18 177.044,1283.6C177.044,1280.01 179.957,1277.09 183.546,1277.09L281.49,1277.09C285.078,1277.09 287.992,1280.01 287.992,1283.6Z" style="fill:rgb(136,136,136);"/>
            <path d="M280.661,1266.6C280.661,1270.18 277.747,1273.1 274.159,1273.1L190.877,1273.1C187.288,1273.1 184.375,1270.18 184.375,1266.6C184.375,1263.01 187.288,1260.09 190.877,1260.09L274.159,1260.09C277.747,1260.09 280.661,1263.01 280.661,1266.6Z" style="fill:rgb(136,136,136);"/>
            <path d="M272.792,1249.69C272.792,1253.28 269.878,1256.19 266.289,1256.19L198.746,1256.19C195.158,1256.19 192.244,1253.28 192.244,1249.69C192.244,1246.1 195.158,1243.19 198.746,1243.19L266.289,1243.19C269.878,1243.19 272.792,1246.1 272.792,1249.69Z" style="fill:rgb(136,136,136);"/>
        </g>
        <g>
            <path d="M973.39,1284.1C973.39,1287.69 970.476,1290.6 966.887,1290.6L868.944,1290.6C865.355,1290.6 862.441,1287.69 862.441,1284.1C862.441,1280.51 865.355,1277.6 868.944,1277.6L966.887,1277.6C970.476,1277.6 973.39,1280.51 973.39,1284.1Z" style="fill:rgb(136,136,136);"/>
            <path d="M966.059,1267.1C966.059,1270.69 963.145,1273.6 959.556,1273.6L876.275,1273.6C872.686,1273.6 869.772,1270.69 869.772,1267.1C869.772,1263.51 872.686,1260.6 876.275,1260.6L959.556,1260.6C963.145,1260.6 966.059,1263.51 966.059,1267.1Z" style="fill:rgb(136,136,136);"/>
            <path d="M958.189,1250.19C958.189,1253.78 955.276,1256.7 951.687,1256.7L884.144,1256.7C880.555,1256.7 877.642,1253.78 877.642,1250.19C877.642,1246.61 880.555,1243.69 884.144,1243.69L951.687,1243.69C955.276,1243.69 958.189,1246.61 958.189,1250.19Z" style="fill:rgb(136,136,136);"/>
        </g>
        <g id="buttons_depressed">
            <g>
                <rect x="423.885" y="614.35" width="64.656" height="7.032" style="fill:rgb(93,167,252);"/>
                <path d="M423.885,621.381L423.885,609.882C423.885,606.777 426.405,604.257 429.509,604.257C432.613,604.257 435.134,606.777 435.134,609.882L435.134,621.381L423.885,621.381Z" style="fill:rgb(37,120,215);"/>
                <path d="M418.261,621.381L418.261,609.882C418.261,606.777 420.781,604.257 423.885,604.257C426.989,604.257 429.509,606.777 429.509,609.882L429.509,621.381L418.261,621.381Z" style="fill:rgb(93,167,252);"/>
                <path d="M477.292,621.381L477.292,609.882C477.292,606.777 479.812,604.257 482.916,604.257C486.02,604.257 488.541,606.777 488.541,609.882L488.541,621.381L477.292,621.381Z" style="fill:rgb(37,120,215);"/>
                <path d="M482.916,621.381L482.916,609.882C482.916,606.777 485.436,604.257 488.541,604.257C491.645,604.257 494.165,606.777 494.165,609.882L494.165,621.381L482.916,621.381Z" style="fill:rgb(93,167,252);"/>
            </g>
            <g>
                <rect x="582.841" y="614.35" width="64.656" height="7.032" style="fill:rgb(93,167,252);"/>
                <path d="M582.841,621.381L582.841,609.882C582.841,606.777 585.361,604.257 588.465,604.257C591.57,604.257 594.09,606.777 594.09,609.882L594.09,621.381L582.841,621.381Z" style="fill:rgb(37,120,215);"/>
                <path d="M577.217,621.381L577.217,609.882C577.217,606.777 579.737,604.257 582.841,604.257C585.945,604.257 588.465,606.777 588.465,609.882L588.465,621.381L577.217,621.381Z" style="fill:rgb(93,167,252);"/>
                <path d="M636.248,621.381L636.248,609.882C636.248,606.777 638.768,604.257 641.872,604.257C644.977,604.257 647.497,606.777 647.497,609.882L647.497,621.381L636.248,621.381Z" style="fill:rgb(37,120,215);"/>
                <path d="M641.872,621.381L641.872,609.882C641.872,606.777 644.393,604.257 647.497,604.257C650.601,604.257 653.121,606.777 653.121,609.882L653.121,621.381L641.872,621.381Z" style="fill:rgb(93,167,252);"/>
            </g>
            <g>
                <rect x="661.821" y="614.35" width="64.656" height="7.032" style="fill:rgb(93,167,252);"/>
                <path d="M661.821,621.381L661.821,609.882C661.821,606.777 664.342,604.257 667.446,604.257C670.55,604.257 673.07,606.777 673.07,609.882L673.07,621.381L661.821,621.381Z" style="fill:rgb(37,120,215);"/>
                <path d="M656.197,621.381L656.197,609.882C656.197,606.777 658.717,604.257 661.821,604.257C664.926,604.257 667.446,606.777 667.446,609.882L667.446,621.381L656.197,621.381Z" style="fill:rgb(93,167,252);"/>
                <path d="M715.228,621.381L715.228,609.882C715.228,606.777 717.749,604.257 720.853,604.257C723.957,604.257 726.477,606.777 726.477,609.882L726.477,621.381L715.228,621.381Z" style="fill:rgb(37,120,215);"/>
                <path d="M720.853,621.381L720.853,609.882C720.853,606.777 723.373,604.257 726.477,604.257C729.581,604.257 732.101,606.777 732.101,609.882L732.101,621.381L720.853,621.381Z" style="fill:rgb(93,167,252);"/>
            </g>
        </g>
        <g id="tracks_depressed">
            <g>
                <circle cx="427.68" cy="1289.4" r="22.086" style="fill:rgb(0,4,157);"/>
                <rect x="385.982" y="1185.11" width="83.396" height="104.295" style="fill:rgb(16,19,67);"/>
                <circle cx="427.68" cy="1289.4" r="11.152" style="fill:rgb(255,0,2);"/>
            </g>
            <g>
                <circle cx="526.083" cy="1289.4" r="22.086" style="fill:rgb(0,4,157);"/>
                <rect x="484.385" y="1185.11" width="83.396" height="104.295" style="fill:rgb(16,19,67);"/>
                <circle cx="526.083" cy="1289.4" r="11.152" style="fill:rgb(255,0,2);"/>
            </g>
            <g>
                <circle cx="624.486" cy="1289.4" r="22.086" style="fill:rgb(0,4,157);"/>
                <rect x="582.787" y="1185.11" width="83.396" height="104.295" style="fill:rgb(16,19,67);"/>
                <circle cx="624.486" cy="1289.4" r="11.152" style="fill:rgb(255,0,2);"/>
            </g>
            <g>
                <circle cx="722.888" cy="1289.4" r="22.086" style="fill:rgb(0,4,157);"/>
                <rect x="681.19" y="1185.11" width="83.396" height="104.295" style="fill:rgb(16,19,67);"/>
                <circle cx="722.888" cy="1289.4" r="11.152" style="fill:rgb(255,0,2);"/>
            </g>
            <path d="M768.102,1224.6L382.466,1224.6C360.662,1224.6 342.96,1206.89 342.96,1185.09C342.96,1163.29 360.662,1145.58 382.466,1145.58L768.102,1145.58C789.906,1145.58 807.609,1163.29 807.609,1185.09C807.609,1206.89 789.906,1224.6 768.102,1224.6Z" style="fill:rgb(0,4,157);"/>
            <path d="M768.229,1212.85L382.339,1212.85C367.019,1212.85 354.58,1200.41 354.58,1185.09C354.58,1169.77 367.019,1157.33 382.339,1157.33L768.229,1157.33C783.55,1157.33 795.988,1169.77 795.988,1185.09C795.988,1200.41 783.55,1212.85 768.229,1212.85Z" style="fill:rgb(74,74,74);"/>
            <g transform="matrix(18.0228,0,0,18.0228,482.012,1166.31)">
            </g>
            <text x="374.008px" y="1166.31px" style="font-family:'Arial-BoldMT', 'Arial', sans-serif;font-weight:700;font-size:18.023px;fill:rgb(255,226,0);">Q<tspan x="390.009px 405.007px 419.011px 433.014px 446.006px 452.996px 468.997px " y="1166.31px 1166.31px 1166.31px 1166.31px 1166.31px 1166.31px 1166.31px ">UESTION</tspan></text>
            <g transform="matrix(18.0228,0,0,18.0228,532.063,1166.31)">
            </g>
            <text x="519.047px" y="1166.31px" style="font-family:'Arial-BoldMT', 'Arial', sans-serif;font-weight:700;font-size:18.023px;fill:rgb(255,226,0);">A</text>
            <g transform="matrix(18.0228,0,0,18.0228,630.778,1166.31)">
            </g>
            <text x="617.762px" y="1166.31px" style="font-family:'Arial-BoldMT', 'Arial', sans-serif;font-weight:700;font-size:18.023px;fill:rgb(255,226,0);">B</text>
            <g transform="matrix(18.0228,0,0,18.0228,729.431,1166.31)">
            </g>
            <text x="716.416px" y="1166.31px" style="font-family:'Arial-BoldMT', 'Arial', sans-serif;font-weight:700;font-size:18.023px;fill:rgb(255,226,0);">C</text>
            <g transform="matrix(18.0228,0,0,18.0228,755.679,1270.15)">
            </g>
            <text x="689.667px" y="1270.15px" style="font-family:'Arial-BoldMT', 'Arial', sans-serif;font-weight:700;font-size:18.023px;fill:white;">F<tspan x="701.664px 716.662px 729.654px 743.657px " y="1270.15px 1270.15px 1270.15px 1270.15px ">ALSE</tspan></text>
            <g transform="matrix(18.0228,0,0,18.0228,727.94,1295.77)">
            </g>
            <text x="717.916px" y="1295.77px" style="font-family:'Arial-BoldMT', 'Arial', sans-serif;font-weight:700;font-size:18.023px;fill:white;">4</text>
            <g transform="matrix(18.0228,0,0,18.0228,652.245,1270.15)">
            </g>
            <text x="597.237px" y="1270.15px" style="font-family:'Arial-BoldMT', 'Arial', sans-serif;font-weight:700;font-size:18.023px;fill:white;">T<tspan x="610.228px 625.226px 640.224px " y="1270.15px 1270.15px 1270.15px ">RUE</tspan></text>
            <g transform="matrix(18.0228,0,0,18.0228,629.546,1295.77)">
            </g>
            <text x="619.522px" y="1295.77px" style="font-family:'Arial-BoldMT', 'Arial', sans-serif;font-weight:700;font-size:18.023px;fill:white;">3</text>
            <g transform="matrix(18.0228,0,0,18.0228,540.283,1270.15)">
            </g>
            <text x="511.267px" y="1270.15px" style="font-family:'Arial-BoldMT', 'Arial', sans-serif;font-weight:700;font-size:18.023px;fill:white;">N<tspan x="526.265px " y="1270.15px ">O</tspan></text>
            <g transform="matrix(18.0228,0,0,18.0228,530.787,1295.77)">
            </g>
            <text x="520.763px" y="1295.77px" style="font-family:'Arial-BoldMT', 'Arial', sans-serif;font-weight:700;font-size:18.023px;fill:white;">2</text>
            <g transform="matrix(18.0228,0,0,18.0228,448.147,1270.15)">
            </g>
            <text x="408.119px" y="1270.15px" style="font-family:'Arial-BoldMT', 'Arial', sans-serif;font-weight:700;font-size:18.023px;fill:white;">Y<tspan x="422.123px 436.126px " y="1270.15px 1270.15px ">ES</tspan></text>
            <g transform="matrix(18.0228,0,0,18.0228,433.444,1295.77)">
            </g>
            <text x="423.421px" y="1295.77px" style="font-family:'Arial-BoldMT', 'Arial', sans-serif;font-weight:700;font-size:18.023px;fill:white;">1</text>
            <g>
                <path d="M449.603,1192.08L449.603,1242.3C449.603,1248.35 444.692,1253.26 438.642,1253.26L416.718,1253.26C410.669,1253.26 405.757,1248.35 405.757,1242.3L405.757,1192.08C405.757,1186.03 410.669,1181.12 416.718,1181.12L438.642,1181.12C444.692,1181.12 449.603,1186.03 449.603,1192.08Z" style="fill:rgb(0,57,123);"/>
                <path d="M444.119,1189.34L444.119,1242.98C444.119,1247.52 440.436,1251.2 435.9,1251.2L419.46,1251.2C414.924,1251.2 411.241,1247.52 411.241,1242.98L411.241,1189.34C411.241,1184.8 414.924,1181.12 419.46,1181.12L435.9,1181.12C440.436,1181.12 444.119,1184.8 444.119,1189.34Z" style="fill:rgb(93,167,252);"/>
                <rect x="411.241" y="1196.39" width="32.879" height="5.484" style="fill:rgb(0,109,234);"/>
                <rect x="411.241" y="1213.42" width="32.879" height="5.484" style="fill:rgb(0,109,234);"/>
                <rect x="411.241" y="1230.44" width="32.879" height="5.484" style="fill:rgb(0,109,234);"/>
            </g>
            <g>
                <path d="M547.844,1192.08L547.844,1242.3C547.844,1248.35 542.932,1253.26 536.882,1253.26L514.959,1253.26C508.909,1253.26 503.997,1248.35 503.997,1242.3L503.997,1192.08C503.997,1186.03 508.909,1181.12 514.959,1181.12L536.882,1181.12C542.932,1181.12 547.844,1186.03 547.844,1192.08Z" style="fill:rgb(0,57,123);"/>
                <path d="M542.36,1189.34L542.36,1242.98C542.36,1247.52 538.677,1251.2 534.14,1251.2L517.701,1251.2C513.164,1251.2 509.481,1247.52 509.481,1242.98L509.481,1189.34C509.481,1184.8 513.164,1181.12 517.701,1181.12L534.14,1181.12C538.677,1181.12 542.36,1184.8 542.36,1189.34Z" style="fill:rgb(93,167,252);"/>
                <rect x="509.481" y="1196.39" width="32.879" height="5.484" style="fill:rgb(0,109,234);"/>
                <rect x="509.481" y="1213.42" width="32.879" height="5.484" style="fill:rgb(0,109,234);"/>
                <rect x="509.481" y="1230.44" width="32.879" height="5.484" style="fill:rgb(0,109,234);"/>
            </g>
            <g>
                <path d="M646.409,1192.08L646.409,1242.3C646.409,1248.35 641.497,1253.26 635.447,1253.26L613.524,1253.26C607.474,1253.26 602.562,1248.35 602.562,1242.3L602.562,1192.08C602.562,1186.03 607.474,1181.12 613.524,1181.12L635.447,1181.12C641.497,1181.12 646.409,1186.03 646.409,1192.08Z" style="fill:rgb(0,57,123);"/>
                <path d="M640.925,1189.34L640.925,1242.98C640.925,1247.52 637.242,1251.2 632.705,1251.2L616.266,1251.2C611.729,1251.2 608.046,1247.52 608.046,1242.98L608.046,1189.34C608.046,1184.8 611.729,1181.12 616.266,1181.12L632.705,1181.12C637.242,1181.12 640.925,1184.8 640.925,1189.34Z" style="fill:rgb(93,167,252);"/>
                <rect x="608.046" y="1196.39" width="32.879" height="5.484" style="fill:rgb(0,109,234);"/>
                <rect x="608.046" y="1213.42" width="32.879" height="5.484" style="fill:rgb(0,109,234);"/>
                <rect x="608.046" y="1230.44" width="32.879" height="5.484" style="fill:rgb(0,109,234);"/>
            </g>
            <g>
                <path d="M744.812,1192.08L744.812,1242.3C744.812,1248.35 739.9,1253.26 733.85,1253.26L711.927,1253.26C705.877,1253.26 700.965,1248.35 700.965,1242.3L700.965,1192.08C700.965,1186.03 705.877,1181.12 711.927,1181.12L733.85,1181.12C739.9,1181.12 744.812,1186.03 744.812,1192.08Z" style="fill:rgb(0,57,123);"/>
                <path d="M739.328,1189.34L739.328,1242.98C739.328,1247.52 735.645,1251.2 731.108,1251.2L714.669,1251.2C710.132,1251.2 706.449,1247.52 706.449,1242.98L706.449,1189.34C706.449,1184.8 710.132,1181.12 714.669,1181.12L731.108,1181.12C735.645,1181.12 739.328,1184.8 739.328,1189.34Z" style="fill:rgb(93,167,252);"/>
                <rect x="706.449" y="1196.39" width="32.879" height="5.484" style="fill:rgb(0,109,234);"/>
                <rect x="706.449" y="1213.42" width="32.879" height="5.484" style="fill:rgb(0,109,234);"/>
                <rect x="706.449" y="1230.44" width="32.879" height="5.484" style="fill:rgb(0,109,234);"/>
            </g>
        </g>
    </g>
    <g id="Head">
        <path d="M692.381,551.021L458.187,551.021C379.94,551.021 315.982,454.523 315.982,454.523L291.383,346.314L275.938,296.447L278.485,289.841L259.552,307.61C259.552,307.61 268.462,259.642 277.08,197.206C285.698,134.77 302.398,87.355 373.073,36.58C395.612,20.387 434.5,8.646 473.575,7.893C483.121,7.71 521.016,6.908 552.511,6.238L552.527,5.267C552.527,5.267 561.779,5.465 575.284,5.753C588.789,5.465 598.042,5.267 598.042,5.267L598.058,6.238C629.552,6.908 667.447,7.71 676.994,7.893C716.069,8.646 754.957,20.387 777.495,36.58C848.17,87.355 864.871,134.77 873.489,197.206C882.106,259.642 891.017,307.61 891.017,307.61L872.083,289.841L874.631,296.447L859.185,346.314L834.586,454.523C834.586,454.523 770.628,551.021 692.381,551.021ZM659.546,69.948L491.023,69.948C491.023,69.948 421.446,70.358 378.221,112.399C336.111,153.355 318.994,247.624 318.138,252.464C320.602,248.352 339.924,217.198 377.466,186.541C417.76,153.637 466.243,153.388 466.243,153.388L575.284,203.553L684.326,153.388C684.326,153.388 732.808,153.637 773.102,186.541C810.645,217.198 829.966,248.352 832.43,252.464C831.574,247.624 814.457,153.355 772.348,112.399C729.123,70.358 659.546,69.948 659.546,69.948ZM832.647,252.83L832.701,252.922L832.767,252.942L832.647,252.83ZM317.921,252.83L317.802,252.942L317.868,252.922L317.921,252.83Z" style="fill:url(#_Linear24);"/>
        <ellipse cx="575.284" cy="481.317" rx="50.433" ry="47.148" style="fill:rgb(174,174,174);"/>
        <ellipse cx="575.284" cy="485.375" rx="50.433" ry="43.089" style="fill:rgb(123,123,123);"/>
        <path d="M684.081,249.354L466.488,249.354L463.879,221.949L463.879,153.663L686.69,153.663L686.69,221.949L684.081,249.354Z" style="fill:rgb(93,167,252);"/>
        <path d="M686.69,168.158L463.879,168.158L463.879,166.004L686.69,166.004L686.69,168.158ZM686.69,183.387L463.879,183.387L463.879,181.233L686.69,181.233L686.69,183.387ZM686.69,198.616L463.879,198.616L463.879,196.462L686.69,196.462L686.69,198.616ZM686.69,213.844L463.879,213.844L463.879,211.69L686.69,211.69L686.69,213.844ZM686.69,229.073L463.879,229.073L463.879,226.919L686.69,226.919L686.69,229.073ZM686.69,244.302L463.879,244.302L463.879,242.147L686.69,242.147L686.69,244.302Z" style="fill:rgb(60,131,213);"/>
        <path d="M664.045,244.024L687.183,222.802L785.192,304.588L785.192,407.418C785.192,407.418 777.469,473.095 716.058,473.095L716.058,418.093L434.51,418.093L434.51,473.095C373.1,473.095 365.377,407.418 365.377,407.418L365.377,304.588L463.385,222.802L486.524,244.024L664.045,244.024Z"/>
        <ellipse cx="575.284" cy="486.169" rx="44.484" ry="37.306"/>
        <rect x="297.907" y="310.453" width="62.453" height="113.042" style="fill:rgb(147,147,147);"/>
        <rect x="287.901" y="311.655" width="62.453" height="110.638" style="fill:rgb(197,197,197);"/>
        <rect x="206.252" y="331.247" width="54.199" height="61.125" style="fill:url(#_Linear25);"/>
        <rect x="237.599" y="321.807" width="16.275" height="84.917" style="fill:url(#_Linear26);"/>
        <path d="M288.825,279.851L288.825,450.459L251.894,414.102L251.894,314.428L288.825,279.851Z" style="fill:url(#_Linear27);"/>
        <rect x="288.412" y="270.516" width="28.693" height="187.499" style="fill:url(#_Linear28);"/>
        <path d="M271.685,223.036L286.075,237.074L283.217,261.525L282.469,278.144L258.585,301.917L263.525,272.625L267.485,268.341L265.492,262.613L267.342,249.354L270.708,244.302L269.088,239.458L271.685,223.036Z" style="fill:rgb(119,119,119);"/>
        <g>
            <path d="M673.515,284.988C673.515,286.051 674.378,286.914 675.441,286.914L692.223,286.914C693.286,286.914 694.149,286.051 694.149,284.988C694.149,283.924 693.286,283.061 692.223,283.061L675.441,283.061C674.378,283.061 673.515,283.924 673.515,284.988Z" style="fill:url(#_Radial29);"/>
            <path d="M660.806,290.885C660.806,291.948 661.669,292.811 662.732,292.811L704.932,292.811C705.995,292.811 706.858,291.948 706.858,290.885C706.858,289.822 705.995,288.959 704.932,288.959L662.732,288.959C661.669,288.959 660.806,289.822 660.806,290.885Z" style="fill:url(#_Radial30);"/>
            <path d="M654.335,296.783C654.335,297.846 655.198,298.709 656.261,298.709L711.403,298.709C712.466,298.709 713.329,297.846 713.329,296.783C713.329,295.72 712.466,294.857 711.403,294.857L656.261,294.857C655.198,294.857 654.335,295.72 654.335,296.783Z" style="fill:url(#_Radial31);"/>
            <path d="M650.174,302.68C650.174,303.743 651.037,304.606 652.1,304.606L715.564,304.606C716.627,304.606 717.49,303.743 717.49,302.68C717.49,301.617 716.627,300.754 715.564,300.754L652.1,300.754C651.037,300.754 650.174,301.617 650.174,302.68Z" style="fill:url(#_Radial32);"/>
            <path d="M647.529,308.578C647.529,309.641 648.392,310.504 649.455,310.504L718.209,310.504C719.272,310.504 720.135,309.641 720.135,308.578C720.135,307.515 719.272,306.652 718.209,306.652L649.455,306.652C648.392,306.652 647.529,307.515 647.529,308.578Z" style="fill:url(#_Radial33);"/>
            <path d="M646.267,314.475C646.267,315.538 647.13,316.402 648.193,316.402L719.471,316.402C720.534,316.402 721.397,315.538 721.397,314.475C721.397,313.412 720.534,312.549 719.471,312.549L648.193,312.549C647.13,312.549 646.267,313.412 646.267,314.475Z" style="fill:url(#_Radial34);"/>
            <path d="M645.634,320.373C645.634,321.436 646.498,322.299 647.561,322.299L720.104,322.299C721.167,322.299 722.03,321.436 722.03,320.373C722.03,319.31 721.167,318.447 720.104,318.447L647.561,318.447C646.498,318.447 645.634,319.31 645.634,320.373Z" style="fill:url(#_Radial35);"/>
            <path d="M645.836,326.271C645.836,327.334 646.699,328.197 647.762,328.197L719.902,328.197C720.965,328.197 721.828,327.334 721.828,326.271C721.828,325.208 720.965,324.344 719.902,324.344L647.762,324.344C646.699,324.344 645.836,325.208 645.836,326.271Z" style="fill:url(#_Radial36);"/>
            <path d="M647.26,332.168C647.26,333.231 648.123,334.094 649.187,334.094L718.478,334.094C719.541,334.094 720.404,333.231 720.404,332.168C720.404,331.105 719.541,330.242 718.478,330.242L649.187,330.242C648.123,330.242 647.26,331.105 647.26,332.168Z" style="fill:url(#_Radial37);"/>
            <path d="M650.063,338.066C650.063,339.129 650.926,339.992 651.989,339.992L715.675,339.992C716.738,339.992 717.601,339.129 717.601,338.066C717.601,337.003 716.738,336.14 715.675,336.14L651.989,336.14C650.926,336.14 650.063,337.003 650.063,338.066Z" style="fill:url(#_Radial38);"/>
            <path d="M654.329,343.963C654.329,345.026 655.192,345.889 656.255,345.889L711.409,345.889C712.472,345.889 713.335,345.026 713.335,343.963C713.335,342.9 712.472,342.037 711.409,342.037L656.255,342.037C655.192,342.037 654.329,342.9 654.329,343.963Z" style="fill:url(#_Radial39);"/>
            <path d="M660.642,349.861C660.642,350.924 661.505,351.787 662.568,351.787L705.096,351.787C706.159,351.787 707.023,350.924 707.023,349.861C707.023,348.798 706.159,347.935 705.096,347.935L662.568,347.935C661.505,347.935 660.642,348.798 660.642,349.861Z" style="fill:url(#_Radial40);"/>
            <path d="M673.515,355.758C673.515,356.822 674.378,357.685 675.441,357.685L692.223,357.685C693.286,357.685 694.149,356.822 694.149,355.758C694.149,354.695 693.286,353.832 692.223,353.832L675.441,353.832C674.378,353.832 673.515,354.695 673.515,355.758Z" style="fill:url(#_Radial41);"/>
        </g>
        <g>
            <path d="M456.419,284.988C456.419,286.051 457.283,286.914 458.346,286.914L475.127,286.914C476.19,286.914 477.053,286.051 477.053,284.988C477.053,283.924 476.19,283.061 475.127,283.061L458.346,283.061C457.283,283.061 456.419,283.924 456.419,284.988Z" style="fill:url(#_Radial42);"/>
            <path d="M443.711,290.885C443.711,291.948 444.574,292.811 445.637,292.811L487.836,292.811C488.899,292.811 489.762,291.948 489.762,290.885C489.762,289.822 488.899,288.959 487.836,288.959L445.637,288.959C444.574,288.959 443.711,289.822 443.711,290.885Z" style="fill:url(#_Radial43);"/>
            <path d="M437.239,296.783C437.239,297.846 438.102,298.709 439.165,298.709L494.308,298.709C495.371,298.709 496.234,297.846 496.234,296.783C496.234,295.72 495.371,294.857 494.308,294.857L439.165,294.857C438.102,294.857 437.239,295.72 437.239,296.783Z" style="fill:url(#_Radial44);"/>
            <path d="M433.078,302.68C433.078,303.743 433.941,304.606 435.004,304.606L498.469,304.606C499.532,304.606 500.395,303.743 500.395,302.68C500.395,301.617 499.532,300.754 498.469,300.754L435.004,300.754C433.941,300.754 433.078,301.617 433.078,302.68Z" style="fill:url(#_Radial45);"/>
            <path d="M430.434,308.578C430.434,309.641 431.297,310.504 432.36,310.504L501.113,310.504C502.176,310.504 503.039,309.641 503.039,308.578C503.039,307.515 502.176,306.652 501.113,306.652L432.36,306.652C431.297,306.652 430.434,307.515 430.434,308.578Z" style="fill:url(#_Radial46);"/>
            <path d="M429.172,314.475C429.172,315.538 430.035,316.402 431.098,316.402L502.375,316.402C503.438,316.402 504.301,315.538 504.301,314.475C504.301,313.412 503.438,312.549 502.375,312.549L431.098,312.549C430.035,312.549 429.172,313.412 429.172,314.475Z" style="fill:url(#_Radial47);"/>
            <path d="M428.539,320.373C428.539,321.436 429.402,322.299 430.465,322.299L503.008,322.299C504.071,322.299 504.934,321.436 504.934,320.373C504.934,319.31 504.071,318.447 503.008,318.447L430.465,318.447C429.402,318.447 428.539,319.31 428.539,320.373Z" style="fill:url(#_Radial48);"/>
            <path d="M428.741,326.271C428.741,327.334 429.604,328.197 430.667,328.197L502.806,328.197C503.869,328.197 504.732,327.334 504.732,326.271C504.732,325.208 503.869,324.344 502.806,324.344L430.667,324.344C429.604,324.344 428.741,325.208 428.741,326.271Z" style="fill:url(#_Radial49);"/>
            <path d="M430.165,332.168C430.165,333.231 431.028,334.094 432.091,334.094L501.382,334.094C502.445,334.094 503.308,333.231 503.308,332.168C503.308,331.105 502.445,330.242 501.382,330.242L432.091,330.242C431.028,330.242 430.165,331.105 430.165,332.168Z" style="fill:url(#_Radial50);"/>
            <path d="M432.968,338.066C432.968,339.129 433.831,339.992 434.894,339.992L498.579,339.992C499.642,339.992 500.505,339.129 500.505,338.066C500.505,337.003 499.642,336.14 498.579,336.14L434.894,336.14C433.831,336.14 432.968,337.003 432.968,338.066Z" style="fill:url(#_Radial51);"/>
            <path d="M437.233,343.963C437.233,345.026 438.096,345.889 439.159,345.889L494.314,345.889C495.377,345.889 496.24,345.026 496.24,343.963C496.24,342.9 495.377,342.037 494.314,342.037L439.159,342.037C438.096,342.037 437.233,342.9 437.233,343.963Z" style="fill:url(#_Radial52);"/>
            <path d="M443.546,349.861C443.546,350.924 444.409,351.787 445.472,351.787L488.001,351.787C489.064,351.787 489.927,350.924 489.927,349.861C489.927,348.798 489.064,347.935 488.001,347.935L445.472,347.935C444.409,347.935 443.546,348.798 443.546,349.861Z" style="fill:url(#_Radial53);"/>
            <path d="M456.419,355.758C456.419,356.822 457.283,357.685 458.346,357.685L475.127,357.685C476.19,357.685 477.053,356.822 477.053,355.758C477.053,354.695 476.19,353.832 475.127,353.832L458.346,353.832C457.283,353.832 456.419,354.695 456.419,355.758Z" style="fill:url(#_Radial54);"/>
        </g>
        <rect x="790.208" y="310.453" width="62.453" height="113.042" style="fill:rgb(147,147,147);"/>
        <rect x="800.215" y="311.655" width="62.453" height="110.638" style="fill:rgb(197,197,197);"/>
        <rect x="890.117" y="331.247" width="54.199" height="61.125" style="fill:url(#_Linear55);"/>
        <rect x="896.694" y="321.807" width="16.275" height="84.917" style="fill:url(#_Linear56);"/>
        <path d="M861.744,279.851L861.744,450.459L898.674,414.102L898.674,314.428L861.744,279.851Z" style="fill:url(#_Linear57);"/>
        <rect x="833.463" y="270.516" width="28.693" height="187.499" style="fill:url(#_Linear58);"/>
        <path d="M878.883,223.036L864.493,237.074L867.351,261.525L868.1,278.144L891.983,301.917L887.043,272.625L883.083,268.341L885.077,262.613L883.227,249.354L879.86,244.302L881.481,239.458L878.883,223.036Z" style="fill:rgb(119,119,119);"/>
        <path d="M662.849,47.844L487.719,47.844C487.719,47.844 387.813,48.728 350.639,114.059C313.464,179.391 301.254,249.354 301.254,249.354L288.738,249.354C288.738,249.354 303.805,163.327 337.161,105.763C368.507,51.668 433.418,26.678 487.454,26.678L663.115,26.678C717.15,26.678 782.061,51.668 813.407,105.763C846.764,163.327 861.831,249.354 861.831,249.354L849.314,249.354C849.314,249.354 837.105,179.391 799.93,114.059C762.755,48.728 662.849,47.844 662.849,47.844Z" style="fill:rgb(168,168,168);"/>
        <path d="M401.503,371.166C401.503,371.166 395.938,337.096 417.904,305.68C439.869,274.264 448.48,252.509 481.69,264.33C514.901,276.15 550.514,273.318 550.514,273.318L636.287,268.421C636.287,268.421 688.847,268.931 670.894,283.061C652.942,297.192 644.472,296.719 594,306.834C543.528,316.949 505.099,320.844 477.496,342.023C449.893,363.202 416.68,407.806 401.503,371.166Z" style="fill:url(#_Linear59);"/>
    </g>
    <g id="buttons">
        <g id="button_stop">
            <rect x="423.885" y="581.928" width="64.656" height="38.93" style="fill:rgb(93,167,252);"/>
            <path d="M423.885,620.858L423.885,577.46C423.885,574.356 426.405,571.836 429.509,571.836C432.613,571.836 435.134,574.356 435.134,577.46L435.134,620.858L423.885,620.858Z" style="fill:rgb(37,120,215);"/>
            <path d="M418.261,620.858L418.261,577.46C418.261,574.356 420.781,571.836 423.885,571.836C426.989,571.836 429.509,574.356 429.509,577.46L429.509,620.858L418.261,620.858Z" style="fill:rgb(93,167,252);"/>
            <path d="M477.292,620.858L477.292,577.46C477.292,574.356 479.812,571.836 482.916,571.836C486.02,571.836 488.541,574.356 488.541,577.46L488.541,620.858L477.292,620.858Z" style="fill:rgb(37,120,215);"/>
            <path d="M482.916,620.858L482.916,577.46C482.916,574.356 485.436,571.836 488.541,571.836C491.645,571.836 494.165,574.356 494.165,577.46L494.165,620.858L482.916,620.858Z" style="fill:rgb(93,167,252);"/>
        </g>
        <g id="button_rewind">
            <rect x="582.841" y="581.928" width="64.656" height="38.93" style="fill:rgb(93,167,252);"/>
            <path d="M582.841,620.858L582.841,577.46C582.841,574.356 585.361,571.836 588.465,571.836C591.57,571.836 594.09,574.356 594.09,577.46L594.09,620.858L582.841,620.858Z" style="fill:rgb(37,120,215);"/>
            <path d="M577.217,620.858L577.217,577.46C577.217,574.356 579.737,571.836 582.841,571.836C585.945,571.836 588.465,574.356 588.465,577.46L588.465,620.858L577.217,620.858Z" style="fill:rgb(93,167,252);"/>
            <path d="M636.248,620.858L636.248,577.46C636.248,574.356 638.768,571.836 641.872,571.836C644.977,571.836 647.497,574.356 647.497,577.46L647.497,620.858L636.248,620.858Z" style="fill:rgb(37,120,215);"/>
            <path d="M641.872,620.858L641.872,577.46C641.872,574.356 644.393,571.836 647.497,571.836C650.601,571.836 653.121,574.356 653.121,577.46L653.121,620.858L641.872,620.858Z" style="fill:rgb(93,167,252);"/>
        </g>
        <g id="button_play">
            <rect x="661.821" y="581.928" width="64.656" height="38.93" style="fill:rgb(93,167,252);"/>
            <path d="M661.821,620.858L661.821,577.46C661.821,574.356 664.342,571.836 667.446,571.836C670.55,571.836 673.07,574.356 673.07,577.46L673.07,620.858L661.821,620.858Z" style="fill:rgb(37,120,215);"/>
            <path d="M656.197,620.858L656.197,577.46C656.197,574.356 658.717,571.836 661.821,571.836C664.926,571.836 667.446,574.356 667.446,577.46L667.446,620.858L656.197,620.858Z" style="fill:rgb(93,167,252);"/>
            <path d="M715.228,620.858L715.228,577.46C715.228,574.356 717.749,571.836 720.853,571.836C723.957,571.836 726.477,574.356 726.477,577.46L726.477,620.858L715.228,620.858Z" style="fill:rgb(37,120,215);"/>
            <path d="M720.853,620.858L720.853,577.46C720.853,574.356 723.373,571.836 726.477,571.836C729.581,571.836 732.101,574.356 732.101,577.46L732.101,620.858L720.853,620.858Z" style="fill:rgb(93,167,252);"/>
        </g>
    </g>
    <g id="tracks">
        <g id="button_track1">
            <path d="M449.603,1183.28L449.603,1242.3C449.603,1248.35 444.692,1253.26 438.642,1253.26L416.718,1253.26C410.669,1253.26 405.757,1248.35 405.757,1242.3L405.757,1183.28C405.757,1177.23 410.669,1172.32 416.718,1172.32L438.642,1172.32C444.692,1172.32 449.603,1177.23 449.603,1183.28Z" style="fill:rgb(0,77,166);"/>
            <path d="M444.119,1180.54L444.119,1234.18C444.119,1238.72 440.436,1242.4 435.9,1242.4L419.46,1242.4C414.924,1242.4 411.241,1238.72 411.241,1234.18L411.241,1180.54C411.241,1176 414.924,1172.32 419.46,1172.32L435.9,1172.32C440.436,1172.32 444.119,1176 444.119,1180.54Z" style="fill:rgb(93,167,252);"/>
            <rect x="411.241" y="1187.59" width="32.879" height="5.484" style="fill:rgb(0,109,234);"/>
            <rect x="411.241" y="1204.62" width="32.879" height="5.484" style="fill:rgb(0,109,234);"/>
            <rect x="411.241" y="1221.64" width="32.879" height="5.484" style="fill:rgb(0,109,234);"/>
        </g>
        <g id="button_track2">
            <path d="M548.006,1183.28L548.006,1242.3C548.006,1248.35 543.094,1253.26 537.045,1253.26L515.121,1253.26C509.071,1253.26 504.16,1248.35 504.16,1242.3L504.16,1183.28C504.16,1177.23 509.071,1172.32 515.121,1172.32L537.045,1172.32C543.094,1172.32 548.006,1177.23 548.006,1183.28Z" style="fill:rgb(0,77,166);"/>
            <path d="M542.522,1180.54L542.522,1234.18C542.522,1238.72 538.839,1242.4 534.303,1242.4L517.863,1242.4C513.327,1242.4 509.644,1238.72 509.644,1234.18L509.644,1180.54C509.644,1176 513.327,1172.32 517.863,1172.32L534.303,1172.32C538.839,1172.32 542.522,1176 542.522,1180.54Z" style="fill:rgb(93,167,252);"/>
            <rect x="509.644" y="1187.59" width="32.879" height="5.484" style="fill:rgb(0,109,234);"/>
            <rect x="509.644" y="1204.62" width="32.879" height="5.484" style="fill:rgb(0,109,234);"/>
            <rect x="509.644" y="1221.64" width="32.879" height="5.484" style="fill:rgb(0,109,234);"/>
        </g>
        <g id="button_track3">
            <path d="M646.409,1183.28L646.409,1242.3C646.409,1248.35 641.497,1253.26 635.447,1253.26L613.524,1253.26C607.474,1253.26 602.562,1248.35 602.562,1242.3L602.562,1183.28C602.562,1177.23 607.474,1172.32 613.524,1172.32L635.447,1172.32C641.497,1172.32 646.409,1177.23 646.409,1183.28Z" style="fill:rgb(0,77,166);"/>
            <path d="M640.925,1180.54L640.925,1234.18C640.925,1238.72 637.242,1242.4 632.705,1242.4L616.266,1242.4C611.729,1242.4 608.046,1238.72 608.046,1234.18L608.046,1180.54C608.046,1176 611.729,1172.32 616.266,1172.32L632.705,1172.32C637.242,1172.32 640.925,1176 640.925,1180.54Z" style="fill:rgb(93,167,252);"/>
            <rect x="608.046" y="1187.59" width="32.879" height="5.484" style="fill:rgb(0,109,234);"/>
            <rect x="608.046" y="1204.62" width="32.879" height="5.484" style="fill:rgb(0,109,234);"/>
            <rect x="608.046" y="1221.64" width="32.879" height="5.484" style="fill:rgb(0,109,234);"/>
        </g>
        <g id="button_track4">
            <path d="M744.812,1183.28L744.812,1242.3C744.812,1248.35 739.9,1253.26 733.85,1253.26L711.927,1253.26C705.877,1253.26 700.965,1248.35 700.965,1242.3L700.965,1183.28C700.965,1177.23 705.877,1172.32 711.927,1172.32L733.85,1172.32C739.9,1172.32 744.812,1177.23 744.812,1183.28Z" style="fill:rgb(0,77,166);"/>
            <path d="M739.328,1180.54L739.328,1234.18C739.328,1238.72 735.645,1242.4 731.108,1242.4L714.669,1242.4C710.132,1242.4 706.449,1238.72 706.449,1234.18L706.449,1180.54C706.449,1176 710.132,1172.32 714.669,1172.32L731.108,1172.32C735.645,1172.32 739.328,1176 739.328,1180.54Z" style="fill:rgb(93,167,252);"/>
            <rect x="706.449" y="1187.59" width="32.879" height="5.484" style="fill:rgb(0,109,234);"/>
            <rect x="706.449" y="1204.62" width="32.879" height="5.484" style="fill:rgb(0,109,234);"/>
            <rect x="706.449" y="1221.64" width="32.879" height="5.484" style="fill:rgb(0,109,234);"/>
        </g>
    </g>
    <g id="mouth" style="opacity:0;">
        <g>
            <path d="M564.967,455.754C564.967,456.668 565.709,457.41 566.623,457.41L583.946,457.41C584.86,457.41 585.601,456.668 585.601,455.754C585.601,454.841 584.86,454.099 583.946,454.099L566.623,454.099C565.709,454.099 564.967,454.841 564.967,455.754Z" style="fill:url(#_Radial60);"/>
            <path d="M552.258,460.822C552.258,461.736 553,462.478 553.914,462.478L596.655,462.478C597.568,462.478 598.31,461.736 598.31,460.822C598.31,459.909 597.568,459.167 596.655,459.167L553.914,459.167C553,459.167 552.258,459.909 552.258,460.822Z" style="fill:url(#_Radial61);"/>
            <path d="M545.787,465.891C545.787,466.804 546.529,467.546 547.442,467.546L603.126,467.546C604.04,467.546 604.782,466.804 604.782,465.891C604.782,464.977 604.04,464.235 603.126,464.235L547.442,464.235C546.529,464.235 545.787,464.977 545.787,465.891Z" style="fill:url(#_Radial62);"/>
            <path d="M541.626,470.959C541.626,471.873 542.368,472.614 543.281,472.614L607.287,472.614C608.201,472.614 608.942,471.873 608.942,470.959C608.942,470.045 608.201,469.304 607.287,469.304L543.281,469.304C542.368,469.304 541.626,470.045 541.626,470.959Z" style="fill:url(#_Radial63);"/>
            <path d="M538.981,476.027C538.981,476.941 539.723,477.683 540.637,477.683L609.932,477.683C610.845,477.683 611.587,476.941 611.587,476.027C611.587,475.114 610.845,474.372 609.932,474.372L540.637,474.372C539.723,474.372 538.981,475.114 538.981,476.027Z" style="fill:url(#_Radial64);"/>
            <path d="M537.719,481.096C537.719,482.009 538.461,482.751 539.375,482.751L611.194,482.751C612.108,482.751 612.849,482.009 612.849,481.096C612.849,480.182 612.108,479.44 611.194,479.44L539.375,479.44C538.461,479.44 537.719,480.182 537.719,481.096Z" style="fill:url(#_Radial65);"/>
            <path d="M537.087,486.164C537.087,487.077 537.828,487.819 538.742,487.819L611.827,487.819C612.74,487.819 613.482,487.077 613.482,486.164C613.482,485.25 612.74,484.509 611.827,484.509L538.742,484.509C537.828,484.509 537.087,485.25 537.087,486.164Z" style="fill:url(#_Radial66);"/>
            <path d="M537.288,491.232C537.288,492.146 538.03,492.887 538.944,492.887L611.625,492.887C612.538,492.887 613.28,492.146 613.28,491.232C613.28,490.318 612.538,489.577 611.625,489.577L538.944,489.577C538.03,489.577 537.288,490.318 537.288,491.232Z" style="fill:url(#_Radial67);"/>
            <path d="M538.713,496.3C538.713,497.214 539.454,497.956 540.368,497.956L610.201,497.956C611.114,497.956 611.856,497.214 611.856,496.3C611.856,495.387 611.114,494.645 610.201,494.645L540.368,494.645C539.454,494.645 538.713,495.387 538.713,496.3Z" style="fill:url(#_Radial68);"/>
            <path d="M541.516,501.369C541.516,502.282 542.257,503.024 543.171,503.024L607.398,503.024C608.311,503.024 609.053,502.282 609.053,501.369C609.053,500.455 608.311,499.713 607.398,499.713L543.171,499.713C542.257,499.713 541.516,500.455 541.516,501.369Z" style="fill:url(#_Radial69);"/>
            <path d="M545.781,506.437C545.781,507.35 546.523,508.092 547.436,508.092L603.132,508.092C604.046,508.092 604.788,507.35 604.788,506.437C604.788,505.523 604.046,504.782 603.132,504.782L547.436,504.782C546.523,504.782 545.781,505.523 545.781,506.437Z" style="fill:url(#_Radial70);"/>
            <path d="M552.094,511.505C552.094,512.419 552.836,513.16 553.749,513.16L596.819,513.16C597.733,513.16 598.475,512.419 598.475,511.505C598.475,510.592 597.733,509.85 596.819,509.85L553.749,509.85C552.836,509.85 552.094,510.592 552.094,511.505Z" style="fill:url(#_Radial71);"/>
            <path d="M564.967,516.573C564.967,517.487 565.709,518.229 566.623,518.229L583.946,518.229C584.86,518.229 585.601,517.487 585.601,516.573C585.601,515.66 584.86,514.918 583.946,514.918L566.623,514.918C565.709,514.918 564.967,515.66 564.967,516.573Z" style="fill:url(#_Radial72);"/>
        </g>
    </g>
    <g id="targets">
        <rect id="target_track1" x="389.728" y="1151.38" width="75.904" height="160.109" style="fill:rgba(236,0,140, 0);"/>
        <rect id="target_track2" x="488.131" y="1151.38" width="75.904" height="160.109" style="fill:rgba(236,0,140, 0);"/>
        <rect id="target_track3" x="586.533" y="1151.38" width="75.904" height="160.109" style="fill:rgba(236,0,140, 0);"/>
        <rect id="target_track4" x="684.936" y="1151.38" width="75.904" height="160.109" style="fill:rgba(236,0,140, 0);"/>
        <rect id="target_play" x="656.197" y="551.021" width="75.904" height="106.473" style="fill:rgba(236,0,140, 0);"/>
        <rect id="target_rewind" x="577.217" y="551.021" width="75.904" height="106.473" style="fill:rgba(236,0,140, 0);"/>
    <rect id="target_stop" x="418.261" y="551.021" width="75.904" height="106.473" style="fill:rgba(236,0,140, 0);"/>
    </g>
    <defs>
    <style>
        .pressed { opacity: 0; }
    </style>
        <filter id="_Effect1" filterUnits="userSpaceOnUse" x="-54.1573" y="994.498" width="1256.09" height="564.336">
            <feGaussianBlur in="SourceGraphic" stdDeviation="26.4701"/>
        </filter>
        <linearGradient id="_Linear2" x1="0" y1="0" x2="1" y2="0" gradientUnits="userSpaceOnUse" gradientTransform="matrix(4.91901e-14,-803.335,803.335,4.91901e-14,672.825,1354.36)"><stop offset="0" style="stop-color:rgb(197,197,197);stop-opacity:1"/><stop offset="0.31" style="stop-color:rgb(217,217,217);stop-opacity:1"/><stop offset="0.55" style="stop-color:rgb(226,226,226);stop-opacity:1"/><stop offset="0.79" style="stop-color:rgb(204,204,204);stop-opacity:1"/><stop offset="1" style="stop-color:rgb(132,132,132);stop-opacity:1"/></linearGradient>
        <linearGradient id="_Linear3" x1="0" y1="0" x2="1" y2="0" gradientUnits="userSpaceOnUse" gradientTransform="matrix(116.798,375.384,-375.384,116.798,146.142,864.014)"><stop offset="0" style="stop-color:rgb(197,197,197);stop-opacity:1"/><stop offset="0.39" style="stop-color:rgb(226,226,226);stop-opacity:1"/><stop offset="1" style="stop-color:rgb(132,132,132);stop-opacity:1"/></linearGradient>
        <linearGradient id="_Linear4" x1="0" y1="0" x2="1" y2="0" gradientUnits="userSpaceOnUse" gradientTransform="matrix(116.798,375.384,-375.384,116.798,146.142,864.014)"><stop offset="0" style="stop-color:rgb(197,197,197);stop-opacity:1"/><stop offset="0.39" style="stop-color:rgb(226,226,226);stop-opacity:1"/><stop offset="1" style="stop-color:rgb(132,132,132);stop-opacity:1"/></linearGradient>
        <linearGradient id="_Linear5" x1="0" y1="0" x2="1" y2="0" gradientUnits="userSpaceOnUse" gradientTransform="matrix(113.183,-40.8108,40.8108,113.183,104.544,930.795)"><stop offset="0" style="stop-color:rgb(197,197,197);stop-opacity:1"/><stop offset="0.39" style="stop-color:rgb(226,226,226);stop-opacity:1"/><stop offset="1" style="stop-color:rgb(132,132,132);stop-opacity:1"/></linearGradient>
        <radialGradient id="_Radial6" cx="0" cy="0" r="1" gradientUnits="userSpaceOnUse" gradientTransform="matrix(189.46,-94.0014,94.0014,189.46,59.639,889.284)"><stop offset="0" style="stop-color:rgb(197,197,197);stop-opacity:1"/><stop offset="0.39" style="stop-color:rgb(226,226,226);stop-opacity:1"/><stop offset="1" style="stop-color:rgb(132,132,132);stop-opacity:1"/></radialGradient>
        <linearGradient id="_Linear7" x1="0" y1="0" x2="1" y2="0" gradientUnits="userSpaceOnUse" gradientTransform="matrix(63.9094,138.696,-138.696,63.9094,160.464,632.104)"><stop offset="0" style="stop-color:rgb(197,197,197);stop-opacity:1"/><stop offset="0.39" style="stop-color:rgb(226,226,226);stop-opacity:1"/><stop offset="1" style="stop-color:rgb(132,132,132);stop-opacity:1"/></linearGradient>
        <radialGradient id="_Radial8" cx="0" cy="0" r="1" gradientUnits="userSpaceOnUse" gradientTransform="matrix(-188.332,-64.6126,64.6126,-188.332,205.357,802.384)"><stop offset="0" style="stop-color:rgb(132,132,132);stop-opacity:1"/><stop offset="0.61" style="stop-color:rgb(226,226,226);stop-opacity:1"/><stop offset="1" style="stop-color:rgb(197,197,197);stop-opacity:1"/></radialGradient>
        <linearGradient id="_Linear9" x1="0" y1="0" x2="1" y2="0" gradientUnits="userSpaceOnUse" gradientTransform="matrix(1.38299e-14,181.578,-225.86,1.11184e-14,230.839,610.111)"><stop offset="0" style="stop-color:rgb(197,197,197);stop-opacity:1"/><stop offset="0.39" style="stop-color:rgb(226,226,226);stop-opacity:1"/><stop offset="1" style="stop-color:rgb(132,132,132);stop-opacity:1"/></linearGradient>
        <linearGradient id="_Linear10" x1="0" y1="0" x2="1" y2="0" gradientUnits="userSpaceOnUse" gradientTransform="matrix(-2.70545,157.682,-1526.85,-26.197,161.416,1218.59)"><stop offset="0" style="stop-color:rgb(197,197,197);stop-opacity:1"/><stop offset="0.39" style="stop-color:rgb(226,226,226);stop-opacity:1"/><stop offset="1" style="stop-color:rgb(132,132,132);stop-opacity:1"/></linearGradient>
        <linearGradient id="_Linear11" x1="0" y1="0" x2="1" y2="0" gradientUnits="userSpaceOnUse" gradientTransform="matrix(4.94291e-15,80.7239,-1489.02,9.11764e-14,151.384,1283.49)"><stop offset="0" style="stop-color:rgb(197,197,197);stop-opacity:1"/><stop offset="0.39" style="stop-color:rgb(226,226,226);stop-opacity:1"/><stop offset="1" style="stop-color:rgb(132,132,132);stop-opacity:1"/></linearGradient>
        <linearGradient id="_Linear12" x1="0" y1="0" x2="1" y2="0" gradientUnits="userSpaceOnUse" gradientTransform="matrix(1.23109e-14,201.053,-800.166,4.8996e-14,158.36,1137.76)"><stop offset="0" style="stop-color:rgb(197,197,197);stop-opacity:1"/><stop offset="0.12" style="stop-color:rgb(226,226,226);stop-opacity:1"/><stop offset="1" style="stop-color:rgb(132,132,132);stop-opacity:1"/></linearGradient>
        <linearGradient id="_Linear13" x1="0" y1="0" x2="1" y2="0" gradientUnits="userSpaceOnUse" gradientTransform="matrix(-116.798,375.384,375.384,116.798,1004.29,864.014)"><stop offset="0" style="stop-color:rgb(197,197,197);stop-opacity:1"/><stop offset="0.39" style="stop-color:rgb(226,226,226);stop-opacity:1"/><stop offset="1" style="stop-color:rgb(132,132,132);stop-opacity:1"/></linearGradient>
        <linearGradient id="_Linear14" x1="0" y1="0" x2="1" y2="0" gradientUnits="userSpaceOnUse" gradientTransform="matrix(-116.798,375.384,375.384,116.798,1004.29,864.014)"><stop offset="0" style="stop-color:rgb(197,197,197);stop-opacity:1"/><stop offset="0.39" style="stop-color:rgb(226,226,226);stop-opacity:1"/><stop offset="1" style="stop-color:rgb(132,132,132);stop-opacity:1"/></linearGradient>
        <linearGradient id="_Linear15" x1="0" y1="0" x2="1" y2="0" gradientUnits="userSpaceOnUse" gradientTransform="matrix(-113.183,-40.8108,-40.8108,113.183,1045.89,930.795)"><stop offset="0" style="stop-color:rgb(197,197,197);stop-opacity:1"/><stop offset="0.39" style="stop-color:rgb(226,226,226);stop-opacity:1"/><stop offset="1" style="stop-color:rgb(132,132,132);stop-opacity:1"/></linearGradient>
        <radialGradient id="_Radial16" cx="0" cy="0" r="1" gradientUnits="userSpaceOnUse" gradientTransform="matrix(-189.46,-94.0014,-94.0014,189.46,1090.79,889.284)"><stop offset="0" style="stop-color:rgb(197,197,197);stop-opacity:1"/><stop offset="0.39" style="stop-color:rgb(226,226,226);stop-opacity:1"/><stop offset="1" style="stop-color:rgb(132,132,132);stop-opacity:1"/></radialGradient>
        <linearGradient id="_Linear17" x1="0" y1="0" x2="1" y2="0" gradientUnits="userSpaceOnUse" gradientTransform="matrix(-63.9094,138.696,138.696,63.9094,989.969,632.104)"><stop offset="0" style="stop-color:rgb(197,197,197);stop-opacity:1"/><stop offset="0.39" style="stop-color:rgb(226,226,226);stop-opacity:1"/><stop offset="1" style="stop-color:rgb(132,132,132);stop-opacity:1"/></linearGradient>
        <radialGradient id="_Radial18" cx="0" cy="0" r="1" gradientUnits="userSpaceOnUse" gradientTransform="matrix(188.332,-64.6126,-64.6126,-188.332,945.077,802.384)"><stop offset="0" style="stop-color:rgb(132,132,132);stop-opacity:1"/><stop offset="0.61" style="stop-color:rgb(226,226,226);stop-opacity:1"/><stop offset="1" style="stop-color:rgb(197,197,197);stop-opacity:1"/></radialGradient>
        <linearGradient id="_Linear19" x1="0" y1="0" x2="1" y2="0" gradientUnits="userSpaceOnUse" gradientTransform="matrix(-1.38299e-14,181.578,225.86,1.11184e-14,919.595,610.111)"><stop offset="0" style="stop-color:rgb(197,197,197);stop-opacity:1"/><stop offset="0.39" style="stop-color:rgb(226,226,226);stop-opacity:1"/><stop offset="1" style="stop-color:rgb(132,132,132);stop-opacity:1"/></linearGradient>
        <linearGradient id="_Linear20" x1="0" y1="0" x2="1" y2="0" gradientUnits="userSpaceOnUse" gradientTransform="matrix(2.70545,157.682,1526.85,-26.197,989.017,1218.59)"><stop offset="0" style="stop-color:rgb(197,197,197);stop-opacity:1"/><stop offset="0.39" style="stop-color:rgb(226,226,226);stop-opacity:1"/><stop offset="1" style="stop-color:rgb(132,132,132);stop-opacity:1"/></linearGradient>
        <linearGradient id="_Linear21" x1="0" y1="0" x2="1" y2="0" gradientUnits="userSpaceOnUse" gradientTransform="matrix(-4.94291e-15,80.7239,1489.02,9.11764e-14,999.049,1283.49)"><stop offset="0" style="stop-color:rgb(197,197,197);stop-opacity:1"/><stop offset="0.39" style="stop-color:rgb(226,226,226);stop-opacity:1"/><stop offset="1" style="stop-color:rgb(132,132,132);stop-opacity:1"/></linearGradient>
        <linearGradient id="_Linear22" x1="0" y1="0" x2="1" y2="0" gradientUnits="userSpaceOnUse" gradientTransform="matrix(-1.23109e-14,201.053,800.166,4.8996e-14,992.074,1137.76)"><stop offset="0" style="stop-color:rgb(197,197,197);stop-opacity:1"/><stop offset="0.12" style="stop-color:rgb(226,226,226);stop-opacity:1"/><stop offset="1" style="stop-color:rgb(132,132,132);stop-opacity:1"/></linearGradient>
        <linearGradient id="_Linear23" x1="0" y1="0" x2="1" y2="0" gradientUnits="userSpaceOnUse" gradientTransform="matrix(8.99007e-15,146.819,-146.819,8.99007e-15,429.731,800.272)"><stop offset="0" style="stop-color:rgb(177,177,177);stop-opacity:1"/><stop offset="0.39" style="stop-color:white;stop-opacity:1"/><stop offset="0.43" style="stop-color:rgb(170,164,179);stop-opacity:1"/><stop offset="0.71" style="stop-color:rgb(148,144,155);stop-opacity:1"/><stop offset="1" style="stop-color:rgb(84,84,84);stop-opacity:1"/></linearGradient>
        <linearGradient id="_Linear24" x1="0" y1="0" x2="1" y2="0" gradientUnits="userSpaceOnUse" gradientTransform="matrix(1.26556e-13,487.231,-2066.81,2.98343e-14,400.149,35.0908)"><stop offset="0" style="stop-color:rgb(197,197,197);stop-opacity:1"/><stop offset="0.39" style="stop-color:rgb(226,226,226);stop-opacity:1"/><stop offset="1" style="stop-color:rgb(132,132,132);stop-opacity:1"/></linearGradient>
        <linearGradient id="_Linear25" x1="0" y1="0" x2="1" y2="0" gradientUnits="userSpaceOnUse" gradientTransform="matrix(1.93611e-14,54.57,-316.192,3.34145e-15,227.762,334.587)"><stop offset="0" style="stop-color:rgb(197,197,197);stop-opacity:1"/><stop offset="0.39" style="stop-color:rgb(226,226,226);stop-opacity:1"/><stop offset="1" style="stop-color:rgb(132,132,132);stop-opacity:1"/></linearGradient>
        <linearGradient id="_Linear26" x1="0" y1="0" x2="1" y2="0" gradientUnits="userSpaceOnUse" gradientTransform="matrix(5.8139e-15,75.8113,-94.9482,4.6421e-15,244.058,326.447)"><stop offset="0" style="stop-color:rgb(197,197,197);stop-opacity:1"/><stop offset="0.39" style="stop-color:rgb(226,226,226);stop-opacity:1"/><stop offset="1" style="stop-color:rgb(132,132,132);stop-opacity:1"/></linearGradient>
        <linearGradient id="_Linear27" x1="0" y1="0" x2="1" y2="0" gradientUnits="userSpaceOnUse" gradientTransform="matrix(1.31924e-14,152.314,-215.448,9.32653e-15,266.55,289.174)"><stop offset="0" style="stop-color:rgb(197,197,197);stop-opacity:1"/><stop offset="0.39" style="stop-color:rgb(226,226,226);stop-opacity:1"/><stop offset="1" style="stop-color:rgb(132,132,132);stop-opacity:1"/></linearGradient>
        <linearGradient id="_Linear28" x1="0" y1="0" x2="1" y2="0" gradientUnits="userSpaceOnUse" gradientTransform="matrix(1.02499e-14,167.393,-167.393,1.02499e-14,299.799,280.762)"><stop offset="0" style="stop-color:rgb(197,197,197);stop-opacity:1"/><stop offset="0.39" style="stop-color:rgb(226,226,226);stop-opacity:1"/><stop offset="1" style="stop-color:rgb(132,132,132);stop-opacity:1"/></linearGradient>
        <radialGradient id="_Radial29" cx="0" cy="0" r="1" gradientUnits="userSpaceOnUse" gradientTransform="matrix(51.061,0,0,51.061,683.832,320.373)"><stop offset="0" style="stop-color:rgb(255,0,0);stop-opacity:1"/><stop offset="0.46" style="stop-color:rgb(182,0,0);stop-opacity:1"/><stop offset="1" style="stop-color:black;stop-opacity:1"/></radialGradient>
        <radialGradient id="_Radial30" cx="0" cy="0" r="1" gradientUnits="userSpaceOnUse" gradientTransform="matrix(51.061,0,0,51.061,683.832,320.373)"><stop offset="0" style="stop-color:rgb(255,0,0);stop-opacity:1"/><stop offset="0.46" style="stop-color:rgb(182,0,0);stop-opacity:1"/><stop offset="1" style="stop-color:black;stop-opacity:1"/></radialGradient>
        <radialGradient id="_Radial31" cx="0" cy="0" r="1" gradientUnits="userSpaceOnUse" gradientTransform="matrix(51.061,0,0,51.061,683.832,320.373)"><stop offset="0" style="stop-color:rgb(255,0,0);stop-opacity:1"/><stop offset="0.46" style="stop-color:rgb(182,0,0);stop-opacity:1"/><stop offset="1" style="stop-color:black;stop-opacity:1"/></radialGradient>
        <radialGradient id="_Radial32" cx="0" cy="0" r="1" gradientUnits="userSpaceOnUse" gradientTransform="matrix(51.061,0,0,51.061,683.832,320.373)"><stop offset="0" style="stop-color:rgb(255,0,0);stop-opacity:1"/><stop offset="0.46" style="stop-color:rgb(182,0,0);stop-opacity:1"/><stop offset="1" style="stop-color:black;stop-opacity:1"/></radialGradient>
        <radialGradient id="_Radial33" cx="0" cy="0" r="1" gradientUnits="userSpaceOnUse" gradientTransform="matrix(51.061,0,0,51.061,683.832,320.373)"><stop offset="0" style="stop-color:rgb(255,0,0);stop-opacity:1"/><stop offset="0.46" style="stop-color:rgb(182,0,0);stop-opacity:1"/><stop offset="1" style="stop-color:black;stop-opacity:1"/></radialGradient>
        <radialGradient id="_Radial34" cx="0" cy="0" r="1" gradientUnits="userSpaceOnUse" gradientTransform="matrix(51.061,0,0,51.061,683.832,320.373)"><stop offset="0" style="stop-color:rgb(255,0,0);stop-opacity:1"/><stop offset="0.46" style="stop-color:rgb(182,0,0);stop-opacity:1"/><stop offset="1" style="stop-color:black;stop-opacity:1"/></radialGradient>
        <radialGradient id="_Radial35" cx="0" cy="0" r="1" gradientUnits="userSpaceOnUse" gradientTransform="matrix(51.061,0,0,51.061,683.832,320.373)"><stop offset="0" style="stop-color:rgb(255,0,0);stop-opacity:1"/><stop offset="0.46" style="stop-color:rgb(182,0,0);stop-opacity:1"/><stop offset="1" style="stop-color:black;stop-opacity:1"/></radialGradient>
        <radialGradient id="_Radial36" cx="0" cy="0" r="1" gradientUnits="userSpaceOnUse" gradientTransform="matrix(51.061,0,0,51.061,683.832,320.373)"><stop offset="0" style="stop-color:rgb(255,0,0);stop-opacity:1"/><stop offset="0.46" style="stop-color:rgb(182,0,0);stop-opacity:1"/><stop offset="1" style="stop-color:black;stop-opacity:1"/></radialGradient>
        <radialGradient id="_Radial37" cx="0" cy="0" r="1" gradientUnits="userSpaceOnUse" gradientTransform="matrix(51.061,0,0,51.061,683.832,320.373)"><stop offset="0" style="stop-color:rgb(255,0,0);stop-opacity:1"/><stop offset="0.46" style="stop-color:rgb(182,0,0);stop-opacity:1"/><stop offset="1" style="stop-color:black;stop-opacity:1"/></radialGradient>
        <radialGradient id="_Radial38" cx="0" cy="0" r="1" gradientUnits="userSpaceOnUse" gradientTransform="matrix(51.061,0,0,51.061,683.832,320.373)"><stop offset="0" style="stop-color:rgb(255,0,0);stop-opacity:1"/><stop offset="0.46" style="stop-color:rgb(182,0,0);stop-opacity:1"/><stop offset="1" style="stop-color:black;stop-opacity:1"/></radialGradient>
        <radialGradient id="_Radial39" cx="0" cy="0" r="1" gradientUnits="userSpaceOnUse" gradientTransform="matrix(51.061,0,0,51.061,683.832,320.373)"><stop offset="0" style="stop-color:rgb(255,0,0);stop-opacity:1"/><stop offset="0.46" style="stop-color:rgb(182,0,0);stop-opacity:1"/><stop offset="1" style="stop-color:black;stop-opacity:1"/></radialGradient>
        <radialGradient id="_Radial40" cx="0" cy="0" r="1" gradientUnits="userSpaceOnUse" gradientTransform="matrix(51.061,0,0,51.061,683.832,320.373)"><stop offset="0" style="stop-color:rgb(255,0,0);stop-opacity:1"/><stop offset="0.46" style="stop-color:rgb(182,0,0);stop-opacity:1"/><stop offset="1" style="stop-color:black;stop-opacity:1"/></radialGradient>
        <radialGradient id="_Radial41" cx="0" cy="0" r="1" gradientUnits="userSpaceOnUse" gradientTransform="matrix(51.061,0,0,51.061,683.832,320.373)"><stop offset="0" style="stop-color:rgb(255,0,0);stop-opacity:1"/><stop offset="0.46" style="stop-color:rgb(182,0,0);stop-opacity:1"/><stop offset="1" style="stop-color:black;stop-opacity:1"/></radialGradient>
        <radialGradient id="_Radial42" cx="0" cy="0" r="1" gradientUnits="userSpaceOnUse" gradientTransform="matrix(51.061,0,0,51.061,466.736,320.373)"><stop offset="0" style="stop-color:rgb(255,0,0);stop-opacity:1"/><stop offset="0.46" style="stop-color:rgb(182,0,0);stop-opacity:1"/><stop offset="1" style="stop-color:black;stop-opacity:1"/></radialGradient>
        <radialGradient id="_Radial43" cx="0" cy="0" r="1" gradientUnits="userSpaceOnUse" gradientTransform="matrix(51.061,0,0,51.061,466.736,320.373)"><stop offset="0" style="stop-color:rgb(255,0,0);stop-opacity:1"/><stop offset="0.46" style="stop-color:rgb(182,0,0);stop-opacity:1"/><stop offset="1" style="stop-color:black;stop-opacity:1"/></radialGradient>
        <radialGradient id="_Radial44" cx="0" cy="0" r="1" gradientUnits="userSpaceOnUse" gradientTransform="matrix(51.061,0,0,51.061,466.736,320.373)"><stop offset="0" style="stop-color:rgb(255,0,0);stop-opacity:1"/><stop offset="0.46" style="stop-color:rgb(182,0,0);stop-opacity:1"/><stop offset="1" style="stop-color:black;stop-opacity:1"/></radialGradient>
        <radialGradient id="_Radial45" cx="0" cy="0" r="1" gradientUnits="userSpaceOnUse" gradientTransform="matrix(51.061,0,0,51.061,466.736,320.373)"><stop offset="0" style="stop-color:rgb(255,0,0);stop-opacity:1"/><stop offset="0.46" style="stop-color:rgb(182,0,0);stop-opacity:1"/><stop offset="1" style="stop-color:black;stop-opacity:1"/></radialGradient>
        <radialGradient id="_Radial46" cx="0" cy="0" r="1" gradientUnits="userSpaceOnUse" gradientTransform="matrix(51.061,0,0,51.061,466.736,320.373)"><stop offset="0" style="stop-color:rgb(255,0,0);stop-opacity:1"/><stop offset="0.46" style="stop-color:rgb(182,0,0);stop-opacity:1"/><stop offset="1" style="stop-color:black;stop-opacity:1"/></radialGradient>
        <radialGradient id="_Radial47" cx="0" cy="0" r="1" gradientUnits="userSpaceOnUse" gradientTransform="matrix(51.061,0,0,51.061,466.736,320.373)"><stop offset="0" style="stop-color:rgb(255,0,0);stop-opacity:1"/><stop offset="0.46" style="stop-color:rgb(182,0,0);stop-opacity:1"/><stop offset="1" style="stop-color:black;stop-opacity:1"/></radialGradient>
        <radialGradient id="_Radial48" cx="0" cy="0" r="1" gradientUnits="userSpaceOnUse" gradientTransform="matrix(51.061,0,0,51.061,466.736,320.373)"><stop offset="0" style="stop-color:rgb(255,0,0);stop-opacity:1"/><stop offset="0.46" style="stop-color:rgb(182,0,0);stop-opacity:1"/><stop offset="1" style="stop-color:black;stop-opacity:1"/></radialGradient>
        <radialGradient id="_Radial49" cx="0" cy="0" r="1" gradientUnits="userSpaceOnUse" gradientTransform="matrix(51.061,0,0,51.061,466.736,320.373)"><stop offset="0" style="stop-color:rgb(255,0,0);stop-opacity:1"/><stop offset="0.46" style="stop-color:rgb(182,0,0);stop-opacity:1"/><stop offset="1" style="stop-color:black;stop-opacity:1"/></radialGradient>
        <radialGradient id="_Radial50" cx="0" cy="0" r="1" gradientUnits="userSpaceOnUse" gradientTransform="matrix(51.061,0,0,51.061,466.736,320.373)"><stop offset="0" style="stop-color:rgb(255,0,0);stop-opacity:1"/><stop offset="0.46" style="stop-color:rgb(182,0,0);stop-opacity:1"/><stop offset="1" style="stop-color:black;stop-opacity:1"/></radialGradient>
        <radialGradient id="_Radial51" cx="0" cy="0" r="1" gradientUnits="userSpaceOnUse" gradientTransform="matrix(51.061,0,0,51.061,466.736,320.373)"><stop offset="0" style="stop-color:rgb(255,0,0);stop-opacity:1"/><stop offset="0.46" style="stop-color:rgb(182,0,0);stop-opacity:1"/><stop offset="1" style="stop-color:black;stop-opacity:1"/></radialGradient>
        <radialGradient id="_Radial52" cx="0" cy="0" r="1" gradientUnits="userSpaceOnUse" gradientTransform="matrix(51.061,0,0,51.061,466.736,320.373)"><stop offset="0" style="stop-color:rgb(255,0,0);stop-opacity:1"/><stop offset="0.46" style="stop-color:rgb(182,0,0);stop-opacity:1"/><stop offset="1" style="stop-color:black;stop-opacity:1"/></radialGradient>
        <radialGradient id="_Radial53" cx="0" cy="0" r="1" gradientUnits="userSpaceOnUse" gradientTransform="matrix(51.061,0,0,51.061,466.736,320.373)"><stop offset="0" style="stop-color:rgb(255,0,0);stop-opacity:1"/><stop offset="0.46" style="stop-color:rgb(182,0,0);stop-opacity:1"/><stop offset="1" style="stop-color:black;stop-opacity:1"/></radialGradient>
        <radialGradient id="_Radial54" cx="0" cy="0" r="1" gradientUnits="userSpaceOnUse" gradientTransform="matrix(51.061,0,0,51.061,466.736,320.373)"><stop offset="0" style="stop-color:rgb(255,0,0);stop-opacity:1"/><stop offset="0.46" style="stop-color:rgb(182,0,0);stop-opacity:1"/><stop offset="1" style="stop-color:black;stop-opacity:1"/></radialGradient>
        <linearGradient id="_Linear55" x1="0" y1="0" x2="1" y2="0" gradientUnits="userSpaceOnUse" gradientTransform="matrix(-1.93611e-14,54.57,316.192,3.34145e-15,922.807,334.587)"><stop offset="0" style="stop-color:rgb(197,197,197);stop-opacity:1"/><stop offset="0.39" style="stop-color:rgb(226,226,226);stop-opacity:1"/><stop offset="1" style="stop-color:rgb(132,132,132);stop-opacity:1"/></linearGradient>
        <linearGradient id="_Linear56" x1="0" y1="0" x2="1" y2="0" gradientUnits="userSpaceOnUse" gradientTransform="matrix(-5.8139e-15,75.8113,94.9482,4.6421e-15,906.511,326.447)"><stop offset="0" style="stop-color:rgb(197,197,197);stop-opacity:1"/><stop offset="0.39" style="stop-color:rgb(226,226,226);stop-opacity:1"/><stop offset="1" style="stop-color:rgb(132,132,132);stop-opacity:1"/></linearGradient>
        <linearGradient id="_Linear57" x1="0" y1="0" x2="1" y2="0" gradientUnits="userSpaceOnUse" gradientTransform="matrix(-1.31924e-14,152.314,215.448,9.32653e-15,884.018,289.174)"><stop offset="0" style="stop-color:rgb(197,197,197);stop-opacity:1"/><stop offset="0.39" style="stop-color:rgb(226,226,226);stop-opacity:1"/><stop offset="1" style="stop-color:rgb(132,132,132);stop-opacity:1"/></linearGradient>
        <linearGradient id="_Linear58" x1="0" y1="0" x2="1" y2="0" gradientUnits="userSpaceOnUse" gradientTransform="matrix(-1.02499e-14,167.393,167.393,1.02499e-14,850.77,280.762)"><stop offset="0" style="stop-color:rgb(197,197,197);stop-opacity:1"/><stop offset="0.39" style="stop-color:rgb(226,226,226);stop-opacity:1"/><stop offset="1" style="stop-color:rgb(132,132,132);stop-opacity:1"/></linearGradient>
        <linearGradient id="_Linear59" x1="0" y1="0" x2="1" y2="0" gradientUnits="userSpaceOnUse" gradientTransform="matrix(47.0065,148.608,-148.608,47.0065,437.418,222.802)"><stop offset="0" style="stop-color:white;stop-opacity:1"/><stop offset="1" style="stop-color:white;stop-opacity:0"/></linearGradient>
        <radialGradient id="_Radial60" cx="0" cy="0" r="1" gradientUnits="userSpaceOnUse" gradientTransform="matrix(51.061,0,0,43.8809,575.284,486.164)"><stop offset="0" style="stop-color:rgb(255,0,0);stop-opacity:1"/><stop offset="0.46" style="stop-color:rgb(182,0,0);stop-opacity:1"/><stop offset="1" style="stop-color:black;stop-opacity:1"/></radialGradient>
        <radialGradient id="_Radial61" cx="0" cy="0" r="1" gradientUnits="userSpaceOnUse" gradientTransform="matrix(51.061,0,0,43.8809,575.284,486.164)"><stop offset="0" style="stop-color:rgb(255,0,0);stop-opacity:1"/><stop offset="0.46" style="stop-color:rgb(182,0,0);stop-opacity:1"/><stop offset="1" style="stop-color:black;stop-opacity:1"/></radialGradient>
        <radialGradient id="_Radial62" cx="0" cy="0" r="1" gradientUnits="userSpaceOnUse" gradientTransform="matrix(51.061,0,0,43.8809,575.284,486.164)"><stop offset="0" style="stop-color:rgb(255,0,0);stop-opacity:1"/><stop offset="0.46" style="stop-color:rgb(182,0,0);stop-opacity:1"/><stop offset="1" style="stop-color:black;stop-opacity:1"/></radialGradient>
        <radialGradient id="_Radial63" cx="0" cy="0" r="1" gradientUnits="userSpaceOnUse" gradientTransform="matrix(51.061,0,0,43.8809,575.284,486.164)"><stop offset="0" style="stop-color:rgb(255,0,0);stop-opacity:1"/><stop offset="0.46" style="stop-color:rgb(182,0,0);stop-opacity:1"/><stop offset="1" style="stop-color:black;stop-opacity:1"/></radialGradient>
        <radialGradient id="_Radial64" cx="0" cy="0" r="1" gradientUnits="userSpaceOnUse" gradientTransform="matrix(51.061,0,0,43.8809,575.284,486.164)"><stop offset="0" style="stop-color:rgb(255,0,0);stop-opacity:1"/><stop offset="0.46" style="stop-color:rgb(182,0,0);stop-opacity:1"/><stop offset="1" style="stop-color:black;stop-opacity:1"/></radialGradient>
        <radialGradient id="_Radial65" cx="0" cy="0" r="1" gradientUnits="userSpaceOnUse" gradientTransform="matrix(51.061,0,0,43.8809,575.284,486.164)"><stop offset="0" style="stop-color:rgb(255,0,0);stop-opacity:1"/><stop offset="0.46" style="stop-color:rgb(182,0,0);stop-opacity:1"/><stop offset="1" style="stop-color:black;stop-opacity:1"/></radialGradient>
        <radialGradient id="_Radial66" cx="0" cy="0" r="1" gradientUnits="userSpaceOnUse" gradientTransform="matrix(51.061,0,0,43.8809,575.284,486.164)"><stop offset="0" style="stop-color:rgb(255,0,0);stop-opacity:1"/><stop offset="0.46" style="stop-color:rgb(182,0,0);stop-opacity:1"/><stop offset="1" style="stop-color:black;stop-opacity:1"/></radialGradient>
        <radialGradient id="_Radial67" cx="0" cy="0" r="1" gradientUnits="userSpaceOnUse" gradientTransform="matrix(51.061,0,0,43.8809,575.284,486.164)"><stop offset="0" style="stop-color:rgb(255,0,0);stop-opacity:1"/><stop offset="0.46" style="stop-color:rgb(182,0,0);stop-opacity:1"/><stop offset="1" style="stop-color:black;stop-opacity:1"/></radialGradient>
        <radialGradient id="_Radial68" cx="0" cy="0" r="1" gradientUnits="userSpaceOnUse" gradientTransform="matrix(51.061,0,0,43.8809,575.284,486.164)"><stop offset="0" style="stop-color:rgb(255,0,0);stop-opacity:1"/><stop offset="0.46" style="stop-color:rgb(182,0,0);stop-opacity:1"/><stop offset="1" style="stop-color:black;stop-opacity:1"/></radialGradient>
        <radialGradient id="_Radial69" cx="0" cy="0" r="1" gradientUnits="userSpaceOnUse" gradientTransform="matrix(51.061,0,0,43.8809,575.284,486.164)"><stop offset="0" style="stop-color:rgb(255,0,0);stop-opacity:1"/><stop offset="0.46" style="stop-color:rgb(182,0,0);stop-opacity:1"/><stop offset="1" style="stop-color:black;stop-opacity:1"/></radialGradient>
        <radialGradient id="_Radial70" cx="0" cy="0" r="1" gradientUnits="userSpaceOnUse" gradientTransform="matrix(51.061,0,0,43.8809,575.284,486.164)"><stop offset="0" style="stop-color:rgb(255,0,0);stop-opacity:1"/><stop offset="0.46" style="stop-color:rgb(182,0,0);stop-opacity:1"/><stop offset="1" style="stop-color:black;stop-opacity:1"/></radialGradient>
        <radialGradient id="_Radial71" cx="0" cy="0" r="1" gradientUnits="userSpaceOnUse" gradientTransform="matrix(51.061,0,0,43.8809,575.284,486.164)"><stop offset="0" style="stop-color:rgb(255,0,0);stop-opacity:1"/><stop offset="0.46" style="stop-color:rgb(182,0,0);stop-opacity:1"/><stop offset="1" style="stop-color:black;stop-opacity:1"/></radialGradient>
        <radialGradient id="_Radial72" cx="0" cy="0" r="1" gradientUnits="userSpaceOnUse" gradientTransform="matrix(51.061,0,0,43.8809,575.284,486.164)"><stop offset="0" style="stop-color:rgb(255,0,0);stop-opacity:1"/><stop offset="0.46" style="stop-color:rgb(182,0,0);stop-opacity:1"/><stop offset="1" style="stop-color:black;stop-opacity:1"/></radialGradient>
    </defs>
</svg>
