<?xml version="1.0" encoding="UTF-8" standalone="no"?>
<!DOCTYPE svg PUBLIC "-//W3C//DTD SVG 1.1//EN" "http://www.w3.org/Graphics/SVG/1.1/DTD/svg11.dtd">
<svg width="100%" height="100%" viewBox="0 0 128 109" version="1.1" xmlns="http://www.w3.org/2000/svg" xmlns:xlink="http://www.w3.org/1999/xlink" xml:space="preserve" xmlns:serif="http://www.serif.com/" style="fill-rule:evenodd;clip-rule:evenodd;stroke-linejoin:round;stroke-miterlimit:1.41421;">
    <rect id="Artboard1" x="0" y="0" width="128" height="108.259" style="fill:none;"/>
    <clipPath id="_clip1">
        <rect x="0" y="0" width="128" height="108.259"/>
    </clipPath>
    <g clip-path="url(#_clip1)">
        <g id="Layer-1" serif:id="Layer 1">
            <path d="M13.504,40.224C19.452,17.625 39.742,0.963 63.83,0.963C87.917,0.963 108.207,17.625 114.155,40.224L127.412,40.224L127.412,68.276L113.986,68.276C107.831,90.556 87.694,106.911 63.83,106.911C39.966,106.911 19.828,90.556 13.673,68.276L0.588,68.276L0.588,40.224L13.504,40.224Z" style="fill:white;"/>
            <path d="M115.017,68.613C108.722,91.268 88.242,107.873 63.929,107.873C39.619,107.873 19.14,91.268 12.846,68.613L0,68.613L0,39.55L12.765,39.55C18.962,16.748 39.515,0 63.929,0C88.347,0 108.899,16.748 115.098,39.55L128,39.55L128,68.613L115.017,68.613ZM113.24,41.533C108.989,23.721 95.506,8.755 76.875,3.756C49.821,-3.504 22,12.945 14.854,40.431C14.758,40.798 14.667,41.165 14.58,41.533L1.955,41.533L1.955,66.631L14.829,66.631C19.332,84.015 32.661,98.529 50.953,103.438C78.006,110.699 105.829,94.246 112.974,66.762L113.008,66.631L125.983,66.631L125.983,41.533L113.24,41.533ZM66.817,101.646C71.809,99.679 76.358,96.362 80.292,92.368C80.51,92.148 80.713,91.919 80.928,91.695C83.578,91.858 86.24,91.904 88.89,91.766C90.796,91.654 92.71,91.447 94.567,90.963C95.438,90.728 96.304,90.425 97.1,89.98C87.623,98.878 74.836,103.818 61.54,103.158C63.328,102.832 65.095,102.322 66.817,101.646ZM54.81,102.344C55.576,102.068 56.326,101.662 57.042,101.172C58.752,99.978 60.287,98.356 61.694,96.59C63.334,94.517 64.803,92.234 66.157,89.855C69.897,90.522 73.66,91.055 77.438,91.417C78.404,91.511 79.366,91.591 80.331,91.657C80.186,91.807 80.041,91.959 79.894,92.108C75.951,96.033 71.386,99.192 66.472,101.025C64.019,101.941 61.485,102.509 58.954,102.662C58.255,102.707 57.557,102.714 56.861,102.693C56.177,102.593 55.494,102.473 54.81,102.344ZM51.744,101.637C50.163,101.199 48.947,99.778 48.109,98.007C47.262,96.227 46.741,94.129 46.395,91.958C46.042,89.67 45.877,87.291 45.834,84.879C48.821,85.803 51.834,86.647 54.863,87.418C58.431,88.309 62.026,89.098 65.641,89.761C65.476,90.039 65.31,90.319 65.141,90.593C63.933,92.556 62.644,94.435 61.245,96.138C59.848,97.833 58.333,99.373 56.699,100.454C55.886,100.995 55.045,101.41 54.198,101.624C53.36,101.85 52.51,101.858 51.744,101.637ZM44.703,98.662C42.62,97.214 40.746,95.419 39.111,93.37C36.052,89.546 33.864,84.889 32.418,79.947C32.616,80.031 32.814,80.121 33.012,80.207C36.862,81.848 40.787,83.272 44.754,84.533C44.764,84.862 44.769,85.187 44.785,85.51C44.888,87.866 45.106,90.199 45.514,92.444C45.925,94.687 46.519,96.87 47.476,98.745C47.865,99.501 48.32,100.195 48.846,100.794C48.404,100.649 47.966,100.497 47.533,100.339C46.558,99.85 45.611,99.293 44.703,98.662ZM22.049,78.747C20.836,76.614 19.785,74.378 18.901,72.087C20.105,73.134 21.387,74.038 22.693,74.882C25.265,76.515 27.947,77.901 30.677,79.159C30.704,79.263 30.732,79.369 30.762,79.475C32.326,84.966 34.824,90.132 38.316,94.308C39.398,95.602 40.58,96.798 41.849,97.863C36.962,95.351 32.614,92.063 28.915,88.184C26.272,85.322 23.963,82.149 22.049,78.747ZM90.5,78.138C90.952,78.407 91.409,78.68 91.854,78.971C93.457,80.004 95.017,81.127 96.393,82.465C97.078,83.14 97.719,83.869 98.207,84.707C98.69,85.528 99.023,86.534 98.774,87.502C98.519,88.472 97.741,89.179 96.925,89.648C96.089,90.134 95.178,90.445 94.257,90.69C92.408,91.162 90.503,91.353 88.609,91.453C86.168,91.565 83.731,91.486 81.296,91.306C84.802,87.536 87.801,83.197 90.285,78.554C90.355,78.418 90.426,78.278 90.5,78.138ZM89.958,78.451C87.416,83.156 84.309,87.506 80.713,91.26C79.553,91.164 78.392,91.05 77.241,90.916C73.653,90.484 70.096,89.872 66.566,89.14C67.38,87.67 68.156,86.166 68.9,84.644C70.978,80.379 72.775,75.919 74.384,71.384C74.437,71.236 74.485,71.09 74.538,70.944C76.952,71.804 79.345,72.722 81.707,73.73C84.606,74.994 87.471,76.364 90.207,77.967C90.124,78.126 90.042,78.289 89.958,78.451ZM60.213,66.631C64.949,67.836 69.649,69.216 74.265,70.846C72.597,75.528 70.699,80.096 68.527,84.466C67.753,86.03 66.93,87.557 66.07,89.04C62.34,88.246 58.637,87.314 54.97,86.275C51.896,85.393 48.843,84.429 45.819,83.38C45.827,81.669 45.888,79.94 45.986,78.218C46.208,74.373 46.654,70.498 47.249,66.631L60.213,66.631ZM98.541,84.921C98.052,84.076 97.413,83.335 96.728,82.656C95.349,81.302 93.785,80.162 92.183,79.111C91.637,78.76 91.082,78.415 90.526,78.077C91.888,75.488 93.088,72.796 94.122,70.036C95.92,70.137 97.713,70.188 99.512,70.177C101.679,70.153 103.853,70.034 105.992,69.647C107.058,69.442 108.122,69.177 109.117,68.723C109.61,68.495 110.091,68.224 110.504,67.859C110.596,67.775 110.686,67.688 110.769,67.595C108.461,75.578 104.321,82.547 98.943,88.154C99.005,88.02 99.057,87.882 99.095,87.736C99.353,86.764 99.023,85.749 98.541,84.921ZM45.945,66.631C45.379,70.546 44.987,74.467 44.803,78.377C44.732,79.922 44.706,81.459 44.724,82.993C40.959,81.65 37.249,80.162 33.621,78.505C33.015,78.227 32.415,77.946 31.817,77.657C30.947,74.084 30.445,70.379 30.27,66.631L45.945,66.631ZM82.054,73.665C79.625,72.554 77.16,71.526 74.666,70.559C74.999,69.611 75.325,68.658 75.638,67.699C79.257,68.359 82.89,68.917 86.541,69.355C88.95,69.647 91.371,69.872 93.795,70.019C92.768,72.725 91.581,75.364 90.241,77.907C87.599,76.326 84.849,74.939 82.054,73.665ZM28.674,66.631C28.861,70.081 29.326,73.495 30.088,76.809C27.878,75.692 25.723,74.487 23.666,73.145C22.1,72.118 20.585,71.01 19.286,69.731C18.645,69.091 18.054,68.4 17.636,67.676C17.435,67.326 17.285,66.971 17.202,66.631L28.674,66.631ZM70.161,66.631C71.891,66.993 73.624,67.333 75.362,67.65C75.051,68.59 74.733,69.521 74.403,70.454C70.733,69.04 67.009,67.774 63.248,66.631L70.161,66.631ZM110.944,66.631C110.772,67.025 110.494,67.366 110.174,67.647C109.761,68.007 109.283,68.278 108.786,68.505C107.797,68.947 106.737,69.211 105.675,69.407C103.545,69.788 101.381,69.893 99.224,69.912C97.56,69.912 95.897,69.846 94.238,69.734C94.617,68.709 94.976,67.674 95.313,66.631L110.944,66.631ZM94.992,66.631C94.653,67.666 94.292,68.692 93.911,69.71C91.377,69.532 88.847,69.244 86.332,68.906C82.815,68.407 79.318,67.778 75.845,67.056L75.981,66.631L94.992,66.631ZM75.694,66.631C75.654,66.754 75.614,66.877 75.574,67C74.999,66.88 74.424,66.757 73.85,66.631L75.694,66.631ZM17.071,41.533C17.068,41.483 17.067,41.434 17.068,41.386C17.097,41.274 17.123,41.161 17.153,41.049C17.176,40.955 17.203,40.865 17.228,40.773C17.491,40.267 18.114,39.796 18.852,39.468C19.731,39.065 20.735,38.806 21.75,38.615C23.793,38.235 25.923,38.115 28.048,38.091C29.698,38.078 31.354,38.118 33.01,38.203C32.614,39.305 32.243,40.414 31.897,41.533L17.071,41.533ZM33.656,41.533C33.996,40.45 34.361,39.375 34.749,38.31C36.784,38.449 38.821,38.649 40.849,38.894C44.594,39.339 48.324,39.917 52.041,40.597C51.94,40.908 51.841,41.22 51.742,41.533L33.656,41.533ZM53.151,41.533C53.224,41.302 53.297,41.071 53.371,40.841C54.532,41.061 55.691,41.292 56.848,41.533L53.151,41.533ZM61.506,41.533C58.93,40.866 56.341,40.243 53.742,39.672C53.931,39.096 54.129,38.528 54.326,37.956C58.348,39.307 62.418,40.486 66.519,41.533L61.506,41.533ZM70.851,41.533C69.503,41.183 68.159,40.818 66.819,40.439C62.77,39.283 58.761,37.981 54.814,36.52C54.837,36.455 54.86,36.387 54.886,36.32C56.479,31.826 58.25,27.409 60.296,23.194C61.037,21.672 61.811,20.167 62.622,18.699C65.743,19.299 68.848,19.989 71.932,20.763C75.658,21.71 79.358,22.759 83.018,23.955C83.042,25.646 83.014,27.354 82.928,29.07C82.73,33.21 82.291,37.375 81.66,41.533L70.851,41.533ZM81.97,41.533C82.623,37.393 83.112,33.238 83.345,29.102C83.434,27.437 83.492,25.772 83.496,24.115C86.924,25.246 90.317,26.502 93.646,27.922C94.721,28.387 95.793,28.873 96.853,29.376C97.856,33.301 98.428,37.392 98.595,41.533L81.97,41.533ZM98.949,41.533C98.814,37.493 98.311,33.489 97.385,29.627C99.595,30.691 101.761,31.85 103.84,33.169C105.449,34.208 107.015,35.333 108.4,36.674C109.086,37.348 109.731,38.078 110.223,38.917C110.68,39.688 111,40.619 110.833,41.533L98.949,41.533ZM111.275,41.533L111.223,41.533C111.228,41.476 111.231,41.419 111.233,41.362L111.275,41.533ZM44.779,34.35C47.507,35.511 50.272,36.562 53.061,37.531C52.85,38.149 52.639,38.773 52.43,39.394C48.685,38.599 44.917,37.91 41.116,37.369C39.2,37.115 37.279,36.884 35.35,36.709C36.105,34.772 36.94,32.875 37.857,31.024C40.119,32.246 42.436,33.333 44.779,34.35ZM110.593,39.14C110.102,38.294 109.458,37.555 108.771,36.874C107.386,35.517 105.812,34.376 104.198,33.319C101.99,31.889 99.688,30.615 97.34,29.443C97.23,28.994 97.124,28.544 97.004,28.101C95.952,24.232 94.464,20.509 92.481,17.164C92.761,17.05 93.035,16.914 93.292,16.737C93.688,16.471 94.067,16.079 94.196,15.562C94.278,15.261 94.257,14.958 94.191,14.667C102.03,20.982 107.767,29.604 110.651,39.247C110.634,39.212 110.612,39.175 110.593,39.14ZM27.095,21.583C27.24,22.074 27.451,22.519 27.686,22.922C28.249,23.882 28.948,24.66 29.675,25.373C31.141,26.792 32.757,27.945 34.409,29.01C35.071,29.432 35.745,29.832 36.425,30.222C35.39,32.284 34.456,34.403 33.621,36.564C31.771,36.43 29.918,36.347 28.054,36.349C25.856,36.36 23.644,36.465 21.419,36.858C20.315,37.062 19.206,37.331 18.104,37.818C19.789,32.723 22.279,27.905 25.483,23.628C26.001,22.93 26.54,22.252 27.095,21.583ZM49.501,16.785C53.508,17.169 57.499,17.751 61.469,18.483C60.727,19.782 60.017,21.109 59.342,22.461C57.157,26.835 55.253,31.396 53.581,36.063C50.808,35.011 48.07,33.876 45.376,32.644C43.12,31.618 40.895,30.514 38.742,29.304C38.753,29.281 38.765,29.258 38.776,29.236C41.234,24.631 44.196,20.337 47.657,16.621C48.271,16.673 48.886,16.723 49.501,16.785ZM94.024,27.863C90.577,26.29 87.059,24.872 83.499,23.582C83.492,21.63 83.408,19.699 83.225,17.799C83.457,17.821 83.696,17.842 83.935,17.861C85.723,17.995 87.522,18.026 89.324,17.858C90.181,17.773 91.038,17.638 91.877,17.38C93.897,20.634 95.446,24.291 96.528,28.128C96.628,28.475 96.713,28.826 96.804,29.176C95.882,28.725 94.956,28.288 94.024,27.863ZM30.132,18.243C30.175,18.216 30.221,18.186 30.268,18.161C30.983,17.736 31.834,17.435 32.708,17.202C34.465,16.744 36.33,16.54 38.196,16.437C40.694,16.304 43.215,16.342 45.736,16.491C42.522,20.035 39.722,24.049 37.394,28.352C37.373,28.397 37.352,28.438 37.328,28.484C36.67,28.092 36.019,27.69 35.377,27.275C33.806,26.247 32.283,25.134 30.978,23.852C30.333,23.21 29.738,22.523 29.322,21.796C28.896,21.067 28.698,20.318 28.865,19.729C28.885,19.64 28.919,19.555 28.955,19.468C29.342,19.055 29.733,18.646 30.132,18.243ZM73.359,16.116C76.406,16.875 79.499,17.446 82.627,17.748C82.793,19.157 82.902,20.592 82.966,22.041C82.983,22.493 82.995,22.95 83.006,23.404C79.49,22.147 75.932,21.012 72.344,19.987C69.325,19.131 66.282,18.348 63.215,17.653C63.999,16.293 64.818,14.974 65.683,13.715C68.194,14.684 70.76,15.464 73.359,16.116ZM83.449,8.446C85.575,9.851 87.505,11.615 89.195,13.642C90.129,14.763 90.989,15.964 91.777,17.222C90.929,17.478 90.063,17.605 89.204,17.68C87.41,17.829 85.625,17.74 83.854,17.573C83.633,17.552 83.412,17.523 83.19,17.496C83.108,16.689 83.011,15.889 82.886,15.096C82.523,12.857 81.977,10.674 81.066,8.78C80.683,7.994 80.23,7.268 79.701,6.645C80.344,6.868 80.979,7.102 81.609,7.351C82.238,7.689 82.851,8.05 83.449,8.446ZM67.331,11.456C68.687,9.739 70.162,8.178 71.76,7.055C72.557,6.499 73.385,6.058 74.223,5.815C75.055,5.566 75.897,5.528 76.673,5.718C78.269,6.1 79.533,7.48 80.419,9.234C81.31,10.998 81.881,13.094 82.269,15.266C82.396,15.976 82.501,16.697 82.589,17.425C79.487,17.024 76.435,16.337 73.436,15.48C70.985,14.774 68.566,13.942 66.212,12.957C66.577,12.446 66.948,11.944 67.331,11.456ZM56.984,8.914C57.438,9.318 57.91,9.684 58.396,10.024C59.92,11.078 61.535,11.912 63.173,12.667C63.682,12.897 64.197,13.114 64.71,13.323C64.047,14.271 63.406,15.247 62.791,16.246C62.553,16.627 62.325,17.015 62.094,17.402C58.013,16.507 53.899,15.771 49.737,15.264C49.505,15.239 49.269,15.216 49.036,15.189C51.474,12.768 54.137,10.626 56.984,8.914ZM94.02,14.532C94.099,14.83 94.129,15.145 94.049,15.459C93.914,15.968 93.538,16.351 93.143,16.611C92.9,16.773 92.648,16.897 92.386,17.007C91.602,15.697 90.74,14.447 89.796,13.272C88.635,11.823 87.35,10.495 85.956,9.318C88.838,10.798 91.532,12.549 94.02,14.532ZM50.499,5.903C52.036,5.454 53.595,5.08 55.176,4.787C55.139,4.875 55.106,4.97 55.082,5.066C54.992,5.413 54.995,5.775 55.053,6.087C55.11,6.403 55.217,6.678 55.34,6.928C55.536,7.316 55.773,7.643 56.025,7.943C53.022,9.712 50.211,11.933 47.659,14.461C47.486,14.635 47.318,14.82 47.142,14.998C44.159,14.723 41.152,14.577 38.127,14.706C36.557,14.787 34.983,14.927 33.406,15.237C35.396,13.568 37.51,12.054 39.738,10.723C43.118,8.698 46.739,7.071 50.499,5.903ZM72.438,4.741C72.872,4.821 73.309,4.905 73.745,4.997C72.999,5.254 72.269,5.628 71.568,6.087C69.82,7.238 68.241,8.839 66.795,10.581C66.271,11.214 65.766,11.878 65.275,12.553C64.677,12.292 64.081,12.02 63.495,11.735C61.897,10.967 60.334,10.107 58.884,9.082C58.563,8.853 58.244,8.611 57.94,8.361C59.156,7.68 60.405,7.08 61.684,6.574C64.096,5.613 66.602,4.99 69.118,4.779C70.225,4.684 71.334,4.673 72.438,4.741ZM56.872,7.359C56.577,7.034 56.312,6.682 56.124,6.309C55.937,5.936 55.857,5.544 55.942,5.232C55.998,5.001 56.158,4.774 56.38,4.579C59.6,4.062 62.894,3.873 66.222,4.031C64.608,4.325 63.008,4.769 61.444,5.347C59.903,5.919 58.397,6.618 56.934,7.423C56.915,7.403 56.89,7.381 56.872,7.359Z" style="fill-rule:nonzero;"/>
            <g>
                <path d="M108.021,57.502C108.101,57.502 108.148,57.459 108.148,57.397C108.148,57.33 108.101,57.295 108.021,57.295L107.868,57.295L107.868,57.502L108.021,57.502ZM107.748,57.186L108.029,57.186C108.168,57.186 108.271,57.254 108.271,57.388C108.271,57.491 108.21,57.556 108.126,57.581L108.293,57.822L108.148,57.822L107.999,57.603L107.868,57.603L107.868,57.822L107.748,57.822L107.748,57.186ZM108.533,57.516L108.533,57.512C108.533,57.208 108.3,56.957 107.988,56.957C107.682,56.957 107.443,57.21 107.443,57.516L107.443,57.521C107.443,57.826 107.678,58.076 107.988,58.076C108.296,58.076 108.533,57.822 108.533,57.516M107.375,57.521L107.375,57.516C107.375,57.174 107.645,56.889 107.988,56.889C108.334,56.889 108.603,57.172 108.603,57.512L108.603,57.516C108.603,57.858 108.332,58.145 107.988,58.145C107.642,58.145 107.375,57.863 107.375,57.521" style="fill-rule:nonzero;"/>
                <rect x="19.059" y="56.811" width="0.698" height="6.176"/>
                <path d="M22.874,56.811L23.526,56.811L27.356,61.747L27.358,56.811L28.027,56.811L28.027,62.986L27.488,62.986L23.556,57.934L23.539,62.986L22.882,62.986L22.874,56.811Z" style="fill-rule:nonzero;"/>
                <path d="M32.699,57.461L30.661,57.461L30.661,56.815L35.442,56.815L35.439,57.457L33.4,57.457L33.4,62.992L32.705,62.992L32.699,57.461Z" style="fill-rule:nonzero;"/>
                <path d="M38.08,56.791L42.478,56.791L42.478,57.425L38.775,57.425L38.771,59.527L42.091,59.536L42.085,60.169L38.771,60.173L38.775,62.331L42.519,62.344L42.522,62.966L38.08,62.966L38.08,56.791Z" style="fill-rule:nonzero;"/>
                <path d="M47.639,59.97C48.946,59.974 49.37,59.365 49.384,58.617C49.294,58.005 49.024,57.447 47.669,57.447L45.936,57.458L45.934,59.958L47.639,59.97ZM45.252,56.811L47.685,56.811C48.602,56.811 49.217,57.012 49.622,57.442C49.805,57.636 50.069,58.147 50.069,58.589C50.069,59.621 49.489,60.263 48.427,60.463L50.294,62.987L49.444,62.987L47.675,60.592L45.948,60.592L45.937,62.987L45.254,62.987L45.252,56.811Z" style="fill-rule:nonzero;"/>
                <path d="M52.888,56.811L53.542,56.811L57.373,61.768L57.372,56.811L58.039,56.811L58.042,62.986L57.49,62.986L53.572,57.934L53.566,62.986L52.895,62.986L52.888,56.811Z" style="fill-rule:nonzero;"/>
                <path d="M65.054,60.72L63.678,57.584L62.285,60.72L65.054,60.72ZM63.363,56.766L64.005,56.766L66.776,62.986L66.04,62.986L65.338,61.364L62.018,61.359L61.296,62.986L60.59,62.986L63.363,56.766Z" style="fill-rule:nonzero;"/>
                <path d="M70.147,57.453L68.112,57.458L68.112,56.811L72.893,56.811L72.893,57.458L70.849,57.458L70.843,62.987L70.153,62.987L70.147,57.453Z" style="fill-rule:nonzero;"/>
                <rect x="75.591" y="56.811" width="0.685" height="6.176"/>
                <path d="M84.636,59.906L84.636,59.887C84.636,58.36 83.506,57.333 82.244,57.346C80.737,57.362 79.86,58.548 79.855,59.881L79.855,59.898C79.86,61.359 80.818,62.154 81.595,62.37C83.259,62.837 84.7,61.471 84.636,59.906M79.142,59.917L79.142,59.898C79.142,58.213 80.407,56.708 82.197,56.704C84.156,56.703 85.341,58.192 85.341,59.877C85.409,61.721 83.717,63.538 81.449,63.009C80.203,62.718 79.171,61.495 79.142,59.917" style="fill-rule:nonzero;"/>
                <path d="M88.145,56.811L88.791,56.811L92.62,61.761L92.623,56.811L93.297,56.811L93.297,62.986L92.746,62.986L88.821,57.93L88.815,62.986L88.149,62.986L88.145,56.811Z" style="fill-rule:nonzero;"/>
                <path d="M100.311,60.713L98.925,57.579L97.542,60.723L100.311,60.713ZM98.621,56.766L99.262,56.766L102.036,62.987L101.297,62.987L100.573,61.354L97.275,61.359L96.549,62.987L95.848,62.987L98.621,56.766Z" style="fill-rule:nonzero;"/>
                <path d="M104.586,56.811L105.272,56.811L105.269,62.346L108.699,62.351L108.695,62.986L104.586,62.986L104.586,56.811Z" style="fill-rule:nonzero;"/>
            </g>
            <g>
                <path d="M8.748,46.865L5.787,46.865L5.787,44.954L13.849,44.954L13.849,46.865L10.888,46.865L10.888,54.373L8.748,54.373L8.748,46.865Z" style="fill-rule:nonzero;"/>
                <path d="M22.743,49.691L22.743,49.664C22.743,48.048 21.519,46.702 19.796,46.702C18.073,46.702 16.877,48.021 16.877,49.637L16.877,49.664C16.877,51.279 18.102,52.624 19.823,52.624C21.548,52.624 22.743,51.306 22.743,49.691M14.641,49.691L14.641,49.664C14.641,46.986 16.822,44.792 19.823,44.792C22.826,44.792 24.981,46.96 24.981,49.637L24.981,49.664C24.981,52.34 22.799,54.535 19.796,54.535C16.794,54.535 14.641,52.369 14.641,49.691" style="fill-rule:nonzero;"/>
                <path d="M31.846,50.43L30.553,47.376L29.261,50.43L31.846,50.43ZM29.595,44.887L31.567,44.887L35.738,54.373L33.5,54.373L32.61,52.26L28.496,52.26L27.608,54.373L25.426,54.373L29.595,44.887Z" style="fill-rule:nonzero;"/>
                <path d="M36.432,53.001L37.698,51.534C38.572,52.234 39.49,52.678 40.601,52.678C41.477,52.678 42.005,52.34 42.005,51.791L42.005,51.763C42.005,51.239 41.671,50.97 40.047,50.566C38.086,50.081 36.822,49.555 36.822,47.685L36.822,47.658C36.822,45.949 38.239,44.821 40.226,44.821C41.644,44.821 42.852,45.249 43.839,46.017L42.728,47.577C41.866,47 41.019,46.649 40.2,46.649C39.378,46.649 38.949,47.012 38.949,47.47L38.949,47.497C38.949,48.116 39.366,48.318 41.048,48.734C43.019,49.233 44.132,49.919 44.132,51.561L44.132,51.588C44.132,53.459 42.658,54.509 40.56,54.509C39.087,54.509 37.601,54.01 36.432,53.001" style="fill-rule:nonzero;"/>
                <path d="M48.051,46.865L45.092,46.865L45.092,44.954L53.152,44.954L53.152,46.865L50.192,46.865L50.192,54.373L48.051,54.373L48.051,46.865Z" style="fill-rule:nonzero;"/>
                <path d="M54.791,44.955L57.099,44.955L59.655,48.938L62.214,44.955L64.52,44.955L64.52,54.374L62.394,54.374L62.394,48.225L59.655,52.248L59.6,52.248L56.89,48.265L56.89,54.374L54.791,54.374L54.791,44.955Z" style="fill-rule:nonzero;"/>
                <path d="M72.441,50.43L71.151,47.376L69.857,50.43L72.441,50.43ZM70.191,44.887L72.164,44.887L76.334,54.373L74.095,54.373L73.206,52.26L69.092,52.26L68.205,54.373L66.021,54.373L70.191,44.887Z" style="fill-rule:nonzero;"/>
                <path d="M77.028,53.001L78.293,51.534C79.168,52.234 80.085,52.678 81.197,52.678C82.073,52.678 82.602,52.34 82.602,51.791L82.602,51.763C82.602,51.239 82.267,50.97 80.643,50.566C78.682,50.081 77.417,49.555 77.417,47.685L77.417,47.658C77.417,45.949 78.834,44.821 80.823,44.821C82.241,44.821 83.449,45.249 84.435,46.017L83.324,47.577C82.463,47 81.615,46.649 80.795,46.649C79.974,46.649 79.544,47.012 79.544,47.47L79.544,47.497C79.544,48.116 79.962,48.318 81.643,48.734C83.616,49.233 84.728,49.919 84.728,51.561L84.728,51.588C84.728,53.459 83.254,54.509 81.156,54.509C79.683,54.509 78.196,54.01 77.028,53.001" style="fill-rule:nonzero;"/>
                <path d="M88.648,46.865L85.688,46.865L85.688,44.954L93.749,44.954L93.749,46.865L90.788,46.865L90.788,54.373L88.648,54.373L88.648,46.865Z" style="fill-rule:nonzero;"/>
                <path d="M95.387,44.955L102.726,44.955L102.726,46.797L97.514,46.797L97.514,48.709L102.101,48.709L102.101,50.552L97.514,50.552L97.514,52.531L102.794,52.531L102.794,54.374L95.387,54.374L95.387,44.955Z" style="fill-rule:nonzero;"/>
                <path d="M109.007,49.53C110.051,49.53 110.649,48.991 110.649,48.197L110.649,48.169C110.649,47.281 110.009,46.825 108.967,46.825L106.839,46.825L106.839,49.53L109.007,49.53ZM104.7,44.955L109.146,44.955C110.384,44.955 111.343,45.291 111.982,45.909C112.523,46.433 112.816,47.173 112.816,48.062L112.816,48.09C112.816,49.61 111.968,50.565 110.732,51.009L113.108,54.373L110.605,54.373L108.522,51.359L106.839,51.359L106.839,54.373L104.7,54.373L104.7,44.955Z" style="fill-rule:nonzero;"/>
                <path d="M114.081,53.001L115.346,51.534C116.219,52.234 117.139,52.678 118.25,52.678C119.127,52.678 119.653,52.34 119.653,51.791L119.653,51.763C119.653,51.239 119.319,50.97 117.694,50.566C115.734,50.081 114.469,49.555 114.469,47.685L114.469,47.658C114.469,45.949 115.886,44.821 117.875,44.821C119.292,44.821 120.501,45.249 121.488,46.017L120.377,47.577C119.514,47 118.666,46.649 117.847,46.649C117.027,46.649 116.597,47.012 116.597,47.47L116.597,47.497C116.597,48.116 117.013,48.318 118.695,48.734C120.668,49.233 121.781,49.919 121.781,51.561L121.781,51.588C121.781,53.459 120.307,54.509 118.208,54.509C116.734,54.509 115.248,54.01 114.081,53.001" style="fill-rule:nonzero;"/>
            </g>
        </g>
    </g>
</svg>
