<?xml version="1.0" encoding="UTF-8" standalone="no"?>
<!DOCTYPE svg PUBLIC "-//W3C//DTD SVG 1.1//EN" "http://www.w3.org/Graphics/SVG/1.1/DTD/svg11.dtd">
<svg width="100%" height="100%" viewBox="0 0 1280 800" version="1.1" xmlns="http://www.w3.org/2000/svg" xmlns:xlink="http://www.w3.org/1999/xlink" xml:space="preserve" xmlns:serif="http://www.serif.com/" style="fill-rule:evenodd;clip-rule:evenodd;stroke-linejoin:round;stroke-miterlimit:2;">
    <g>
        <path d="M602.032,562.235C602.032,550.187 592.25,540.405 580.202,540.405L412.402,540.405C400.354,540.405 390.572,550.187 390.572,562.235C390.572,574.284 400.354,584.066 412.402,584.066L580.202,584.066C592.25,584.066 602.032,574.284 602.032,562.235Z" style="fill:rgb(44,44,44);"/>
        <path d="M602.032,562.235C602.032,550.187 592.25,540.405 580.202,540.405L412.402,540.405C400.354,540.405 390.572,550.187 390.572,562.235C390.572,574.284 400.354,584.066 412.402,584.066L580.202,584.066C592.25,584.066 602.032,574.284 602.032,562.235Z" style="fill:rgb(27,27,27);"/>
        <path d="M591.167,562.235C591.167,555.826 585.963,550.622 579.554,550.622L413.05,550.622C406.641,550.622 401.437,555.826 401.437,562.235C401.437,568.645 406.641,573.849 413.05,573.849L579.554,573.849C585.963,573.849 591.167,568.645 591.167,562.235Z" style="fill:rgb(39,39,39);"/>
    </g>
    <g>
        <path d="M889.428,562.235C889.428,550.187 879.646,540.405 867.598,540.405L699.798,540.405C687.75,540.405 677.968,550.187 677.968,562.235C677.968,574.284 687.75,584.066 699.798,584.066L867.598,584.066C879.646,584.066 889.428,574.284 889.428,562.235Z" style="fill:rgb(44,44,44);"/>
        <path d="M889.428,562.235C889.428,550.187 879.646,540.405 867.598,540.405L699.798,540.405C687.75,540.405 677.968,550.187 677.968,562.235C677.968,574.284 687.75,584.066 699.798,584.066L867.598,584.066C879.646,584.066 889.428,574.284 889.428,562.235Z" style="fill:rgb(27,27,27);"/>
        <path d="M878.563,562.235C878.563,555.826 873.359,550.622 866.95,550.622L700.446,550.622C694.037,550.622 688.833,555.826 688.833,562.235C688.833,568.645 694.037,573.849 700.446,573.849L866.95,573.849C873.359,573.849 878.563,568.645 878.563,562.235Z" style="fill:rgb(39,39,39);"/>
    </g>
    <g>
        <path d="M342.959,109.763C359.714,109.764 373.316,123.366 373.316,140.119L373.316,220.016L453.212,220.016C469.966,220.016 483.568,233.618 483.568,250.372L483.568,311.084C483.568,327.838 469.966,341.441 453.212,341.441L373.316,341.441L373.316,421.337C373.316,438.091 359.713,451.693 342.959,451.693L282.247,451.693C265.493,451.693 251.891,438.091 251.891,421.337L251.891,341.441L171.994,341.441C155.24,341.441 141.638,327.838 141.638,311.084L141.638,250.372C141.638,233.618 155.24,220.016 171.994,220.016L251.891,220.016L251.891,140.119C251.891,123.366 265.493,109.764 282.247,109.763L342.959,109.763Z"/>
        <path d="M339.31,117.685C354.05,117.685 366.016,129.652 366.016,144.391L366.016,227.315L448.94,227.315C463.68,227.316 475.647,239.282 475.647,254.022L475.647,307.435C475.647,322.175 463.68,334.141 448.94,334.141L366.016,334.141L366.016,417.065C366.016,431.805 354.05,443.772 339.31,443.772L285.897,443.772C271.157,443.772 259.19,431.805 259.19,417.065L259.19,334.141L176.266,334.141C161.527,334.141 149.56,322.175 149.56,307.435L149.56,254.022C149.56,239.282 161.526,227.316 176.266,227.315L259.19,227.315L259.19,144.391C259.19,129.652 271.157,117.685 285.897,117.685L339.31,117.685Z" style="fill:rgb(26,26,26);"/>
        <ellipse cx="312.603" cy="280.728" rx="33.985" ry="34.549" style="fill:rgb(51,51,51);"/>
        <rect x="265.847" y="180.812" width="93.513" height="21.932" style="fill:rgb(51,51,51);"/>
        <rect x="265.847" y="150.812" width="93.513" height="21.932" style="fill:rgb(51,51,51);"/>
        <rect x="265.847" y="388.068" width="93.513" height="21.932" style="fill:rgb(51,51,51);"/>
        <rect x="265.847" y="358.068" width="93.513" height="21.932" style="fill:rgb(51,51,51);"/>
        <path d="M412.197,327.162L412.197,233.649L390.265,233.649L390.265,327.162L412.197,327.162Z" style="fill:rgb(51,51,51);"/>
        <path d="M442.197,327.162L442.197,233.649L420.265,233.649L420.265,327.162L442.197,327.162Z" style="fill:rgb(51,51,51);"/>
        <path d="M204.941,327.162L204.941,233.649L183.009,233.649L183.009,327.162L204.941,327.162Z" style="fill:rgb(51,51,51);"/>
        <path d="M234.941,327.162L234.941,233.649L213.009,233.649L213.009,327.162L234.941,327.162Z" style="fill:rgb(51,51,51);"/>
    </g>
    <g>
        <circle cx="724.723" cy="349.044" r="84.723" style="fill:rgb(171,0,0);"/>
        <circle cx="724.723" cy="349.044" r="76.8" style="fill:rgb(210,7,7);"/>
    </g>
    <g>
        <circle cx="940.009" cy="212.413" r="84.723" style="fill:rgb(171,0,0);"/>
        <circle cx="940.009" cy="212.413" r="76.8" style="fill:rgb(210,7,7);"/>
    </g>
    <path d="M312.603,280.728L483.568,109.763L312.603,58.765L141.638,109.763L312.603,280.728Z" style="fill:rgb(255,0,0);"/>
    <path d="M312.603,280.728L483.568,451.693L534.566,280.728L483.568,109.763L312.603,280.728Z" style="fill:rgb(17,255,0);"/>
    <path d="M312.603,280.728L141.638,451.693L312.603,502.691L483.568,451.693L312.603,280.728Z" style="fill:rgb(0,255,239);"/>
    <path d="M312.603,280.728L141.638,109.763L90.64,280.728L141.638,451.693L312.603,280.728Z" style="fill:rgb(0,4,255);"/>
</svg>
