]1;95;0c<?xml version="1.0" encoding="UTF-8" standalone="no"?>
<!DOCTYPE svg PUBLIC "-//W3C//DTD SVG 1.1//EN" "http://www.w3.org/Graphics/SVG/1.1/DTD/svg11.dtd">
<svg width="100%" height="100%" viewBox="0 0 1280 800" version="1.1" xmlns="http://www.w3.org/2000/svg" xmlns:xlink="http://www.w3.org/1999/xlink" xml:space="preserve" xmlns:serif="http://www.serif.com/" style="fill-rule:evenodd;clip-rule:evenodd;stroke-linejoin:round;stroke-miterlimit:2;">
    <g>
        <path d="M602.032,587.038C602.032,574.99 592.25,565.208 580.202,565.208L412.402,565.208C400.354,565.208 390.572,574.99 390.572,587.038C390.572,599.087 400.354,608.869 412.402,608.869L580.202,608.869C592.25,608.869 602.032,599.087 602.032,587.038Z" style="fill:#2c2c2c;"/>
        <path d="M602.032,587.038C602.032,574.99 592.25,565.208 580.202,565.208L412.402,565.208C400.354,565.208 390.572,574.99 390.572,587.038C390.572,599.087 400.354,608.869 412.402,608.869L580.202,608.869C592.25,608.869 602.032,599.087 602.032,587.038Z" style="fill:#1b1b1b;"/>
        <path d="M591.167,587.038C591.167,580.629 585.963,575.425 579.554,575.425L413.05,575.425C406.641,575.425 401.437,580.629 401.437,587.038C401.437,593.448 406.641,598.652 413.05,598.652L579.554,598.652C585.963,598.652 591.167,593.448 591.167,587.038Z" style="fill:#272727;"/>
    </g>
    <g>
        <path d="M889.428,587.038C889.428,574.99 879.646,565.208 867.598,565.208L699.798,565.208C687.75,565.208 677.968,574.99 677.968,587.038C677.968,599.087 687.75,608.869 699.798,608.869L867.598,608.869C879.646,608.869 889.428,599.087 889.428,587.038Z" style="fill:#2c2c2c;"/>
        <path d="M889.428,587.038C889.428,574.99 879.646,565.208 867.598,565.208L699.798,565.208C687.75,565.208 677.968,574.99 677.968,587.038C677.968,599.087 687.75,608.869 699.798,608.869L867.598,608.869C879.646,608.869 889.428,599.087 889.428,587.038Z" style="fill:#1b1b1b;"/>
        <path d="M878.563,587.038C878.563,580.629 873.359,575.425 866.95,575.425L700.446,575.425C694.037,575.425 688.833,580.629 688.833,587.038C688.833,593.448 694.037,598.652 700.446,598.652L866.95,598.652C873.359,598.652 878.563,593.448 878.563,587.038Z" style="fill:#272727;"/>
    </g>
    <g>
        <path d="M322.224,91.261C340.792,91.263 355.866,106.337 355.866,124.903L355.866,213.446L444.408,213.446C462.975,213.446 478.049,228.52 478.049,247.087L478.049,314.369C478.049,332.936 462.975,348.011 444.408,348.011L355.866,348.011L355.866,436.553C355.866,455.121 340.791,470.195 322.224,470.195L254.941,470.195C236.374,470.195 221.3,455.121 221.3,436.553L221.3,348.011L132.757,348.011C114.19,348.011 99.116,332.936 99.116,314.369L99.116,247.087C99.116,228.52 114.19,213.446 132.757,213.446L221.3,213.446L221.3,124.903C221.3,106.337 236.374,91.263 254.941,91.261L322.224,91.261Z"/>
        <path d="M318.18,100.041C334.515,100.041 347.776,113.303 347.776,129.637L347.776,221.535L439.674,221.535C456.009,221.536 469.271,234.797 469.271,251.132L469.271,310.325C469.271,326.66 456.009,339.921 439.674,339.921L347.776,339.921L347.776,431.819C347.776,448.154 334.515,461.416 318.18,461.416L258.986,461.416C242.651,461.416 229.389,448.154 229.389,431.819L229.389,339.921L137.491,339.921C121.157,339.921 107.895,326.66 107.895,310.325L107.895,251.132C107.895,234.797 121.156,221.536 137.491,221.535L229.389,221.535L229.389,129.637C229.389,113.303 242.651,100.041 258.986,100.041L318.18,100.041Z" style="fill:#1a1a1a;"/>
        <ellipse cx="288.583" cy="280.728" rx="37.663" ry="38.288" style="fill:#333;"/>
        <rect x="236.767" y="169.999" width="103.633" height="24.305" style="fill:#333;"/>
        <rect x="236.767" y="136.753" width="103.633" height="24.305" style="fill:#333;"/>
        <rect x="236.767" y="399.684" width="103.633" height="24.305" style="fill:#333;"/>
        <rect x="236.767" y="366.438" width="103.633" height="24.305" style="fill:#333;"/>
        <rect x="374.649" y="228.554" width="24.305" height="103.633" style="fill:#333;"/>
        <rect x="407.896" y="228.554" width="24.305" height="103.633" style="fill:#333;"/>
        <rect x="144.964" y="228.554" width="24.305" height="103.633" style="fill:#333;"/>
        <rect x="178.211" y="228.554" width="24.305" height="103.633" style="fill:#333;"/>
    </g>
    <g>
        <circle cx="782.495" cy="348.905" r="89.751" style="fill:#ab0000;"/>
        <circle cx="782.495" cy="348.905" r="81.358" style="fill:#d20707;"/>
        <path d="M749,341.322L764.476,341.322L738.028,372.18L711.581,341.322L726.471,341.322C730.184,313.481 754.05,291.976 782.899,291.976C814.319,291.976 839.828,317.485 839.828,348.905C839.828,380.325 814.319,405.834 782.899,405.834C767.189,405.834 752.957,399.457 742.652,389.152L758.345,373.459C764.632,379.746 773.315,383.637 782.899,383.637C802.068,383.637 817.63,368.074 817.63,348.905C817.63,329.736 802.068,314.174 782.899,314.174C766.335,314.174 752.463,325.795 749,341.322Z" style="fill:#ab0000;"/>
    </g>
    <g>
        <circle cx="998.909" cy="133.148" r="89.751" style="fill:#0eab00;"/>
        <circle cx="998.909" cy="133.148" r="81.358" style="fill:#1bd207;"/>
        <path d="M1033.7,125.564L1018.23,125.564L1044.67,156.422L1071.12,125.564L1056.23,125.564C1052.52,97.724 1028.65,76.218 999.803,76.218C968.383,76.218 942.874,101.727 942.874,133.148C942.874,164.568 968.383,190.077 999.803,190.077C1015.51,190.077 1029.75,183.7 1040.05,173.395L1024.36,157.702C1018.07,163.988 1009.39,167.879 999.803,167.879C980.634,167.879 965.072,152.316 965.072,133.148C965.072,113.979 980.634,98.416 999.803,98.416C1016.37,98.416 1030.24,110.037 1033.7,125.564Z" style="fill:#0eab00;"/>
    </g>
    <g>
        <circle cx="1078.01" cy="428.31" r="89.751" style="fill:#002eab;"/>
        <circle cx="1078.01" cy="428.31" r="81.358" style="fill:#073ad2;"/>
        <path d="M1077.93,472.936L1052.2,442.922L1067.18,442.922L1067.18,372.855L1088.84,372.855L1088.84,442.922L1103.81,442.922L1078.09,472.936L1103.81,472.936L1103.81,483.764L1052.2,483.764L1052.2,472.936L1077.93,472.936Z" style="fill:#002eab;"/>
    </g>
    <path d="M288.583,280.728L478.049,91.261L288.583,34.745L99.116,91.261L288.583,280.728Z" style="fill:#f00;"/>
    <path d="M288.583,280.728L478.049,470.195L534.566,280.728L478.049,91.261L288.583,280.728Z" style="fill:#1f0;"/>
    <path d="M288.583,280.728L99.116,470.195L288.583,526.711L478.049,470.195L288.583,280.728Z" style="fill:#00ffef;"/>
    <path d="M288.583,280.728L99.116,91.261L42.599,280.728L99.116,470.195L288.583,280.728Z" style="fill:#0004ff;"/>
    <circle cx="782.495" cy="348.905" r="144.214" style="fill:rgb(255,234,0);"/>
    <circle cx="1078.01" cy="430.263" r="144.214" style="fill:rgb(255,234,0);"/>
    <circle cx="998.909" cy="133.148" r="144.214" style="fill:rgb(255,234,0);"/>
</svg>
