<?xml version="1.0" encoding="UTF-8" standalone="no"?>
<!DOCTYPE svg PUBLIC "-//W3C//DTD SVG 1.1//EN" "http://www.w3.org/Graphics/SVG/1.1/DTD/svg11.dtd">
<svg width="100%" height="100%" viewBox="0 0 480 320" version="1.1" xmlns="http://www.w3.org/2000/svg" xmlns:xlink="http://www.w3.org/1999/xlink" xml:space="preserve" xmlns:serif="http://www.serif.com/" style="fill-rule:evenodd;clip-rule:evenodd;stroke-linejoin:round;stroke-miterlimit:1.41421;">
    <path d="M0,-0.93L5.479,-0.93L5.479,-0.923C11.587,-0.707 16.479,4.319 16.479,10.479C16.479,16.776 11.367,21.889 5.07,21.889C4.765,21.889 4.463,21.877 4.165,21.853L0,21.853L0,-0.93Z" style="fill:rgb(208,195,224);"/>
    <path d="M10.479,0C4.694,0.002 0,4.697 0,10.479L0,5.822L0,0L10.479,0Z" style="fill:rgb(255,170,0);"/>
    <path d="M0,18.28L0,18.221C0.032,8.184 8.17,0.041 18.28,0L69.794,0L69.794,36.56L0,36.56L0,18.28Z" style="fill:rgb(255,207,109);"/>
</svg>
