<?xml version="1.0" encoding="UTF-8" standalone="no"?>
<!DOCTYPE svg PUBLIC "-//W3C//DTD SVG 1.1//EN" "http://www.w3.org/Graphics/SVG/1.1/DTD/svg11.dtd">
<svg width="100%" height="100%" viewBox="0 0 480 320" version="1.1" xmlns="http://www.w3.org/2000/svg" xmlns:xlink="http://www.w3.org/1999/xlink" xml:space="preserve" xmlns:serif="http://www.serif.com/" style="fill-rule:evenodd;clip-rule:evenodd;stroke-linejoin:round;stroke-miterlimit:1.41421;">
    <rect id="Artboard3" x="0" y="0" width="480" height="320" style="fill:none;"/>
    <clipPath id="_clip1">
        <rect id="Artboard31" serif:id="Artboard3" x="0" y="0" width="480" height="320"/>
    </clipPath>
    <g clip-path="url(#_clip1)">
        <rect x="0" y="0" width="480" height="320"/>
        <path d="M10,142L10,124L80,124L80,140C80,146.623 85.377,152 92,152L470,152L470,160L80,160L28,160C18.066,160 10,151.934 10,142Z" style="fill:rgb(255,30,30);"/>
        <path d="M10,294L10,276L80,276L80,292C80,298.623 85.377,304 92,304L470,304L470,312L80,312L28,312C18.066,312 10,303.934 10,294Z" style="fill:rgb(255,30,30);"/>
        <path d="M10,180L10,198L80,198L80,182C80,175.377 85.377,170 92,170L470,170L470,162L80,162L28,162C18.066,162 10,170.066 10,180Z" style="fill:rgb(50,255,30);"/>
        <rect x="10" y="48" width="70" height="36" style="fill:rgb(27,15,255);"/>
        <path d="M470,300C470,293.377 464.623,288 458,288L412,288C405.377,288 400,293.377 400,300C400,306.623 405.377,312 412,312L458,312C464.623,312 470,306.623 470,300Z" style="fill:rgb(27,15,255);"/>
        <path d="M395,300C395,293.377 389.623,288 383,288L337,288C330.377,288 325,293.377 325,300C325,306.623 330.377,312 337,312L383,312C389.623,312 395,306.623 395,300Z" style="fill:rgb(27,15,255);"/>
        <rect x="10" y="200" width="70" height="36" style="fill:rgb(27,15,255);"/>
        <rect x="10" y="86" width="70" height="36" style="fill:rgb(27,15,255);"/>
        <rect x="10" y="238" width="70" height="36" style="fill:rgb(27,15,255);"/>
        <circle cx="336.998" cy="299.998" r="2.998"/>
        <path d="M461.058,10C465.999,10.032 470,14.052 470,19C470,23.967 465.967,28 461,28C461,28 92,28 92,28C85.377,28 80,33.377 80,40L80,46L28,46L10,46L10,28C10,18.066 18.065,10 28,10L461,10L461.058,10Z" style="fill:rgb(255,203,15);"/>
        <rect x="384.42" y="10" width="67.428" height="18"/>
    </g>
</svg>
