<?xml version="1.0" encoding="UTF-8" standalone="no"?>
<!DOCTYPE svg PUBLIC "-//W3C//DTD SVG 1.1//EN" "http://www.w3.org/Graphics/SVG/1.1/DTD/svg11.dtd">
<svg width="100%" height="100%" viewBox="0 0 480 320" version="1.1" xmlns="http://www.w3.org/2000/svg" xmlns:xlink="http://www.w3.org/1999/xlink" xml:space="preserve" xmlns:serif="http://www.serif.com/" style="fill-rule:evenodd;clip-rule:evenodd;stroke-linecap:round;stroke-linejoin:round;stroke-miterlimit:1.5;">
    <rect x="0" y="0" width="480" height="320"/>
    <path d="M29.192,245.242L98.986,245.242L98.986,320L29.192,320L29.192,245.242ZM98.986,243.157L29.192,243.157L29.192,206.597L98.986,206.597L98.986,243.157ZM98.986,204.512L29.192,204.512L29.192,167.952L98.986,167.952L98.986,204.512ZM98.986,165.867L29.192,165.867L29.192,129.308L98.986,129.308L98.986,165.867ZM480,45.789L109.465,45.789C103.68,45.791 98.986,50.486 98.986,56.269L98.986,127.223L29.192,127.223L29.192,45.782C29.192,33.212 39.397,23.007 51.968,23.006L480,23.006L480,45.789Z" style="fill:rgb(255,170,0);"/>
    <g transform="matrix(1,0,0,1,-1.25613,0.0966254)">
        <path d="M66.131,264.192C67.176,264.315 67.686,265.466 68.231,266.451C72.385,273.961 74.829,282.392 77.242,290.785C78.911,296.589 80.435,302.434 81.772,308.318C81.772,308.318 81.858,308.933 81.782,309.207C81.764,309.272 81.721,309.326 81.681,309.38C81.078,310.19 79.694,309.723 79.222,308.61C77.164,303.763 75.288,298.81 72.345,294.503C71.466,293.217 70.34,291.963 68.92,291.72C67.136,291.415 65.563,292.924 64.121,294.303C59.847,298.388 56.536,303.398 53.353,308.439C52.381,309.992 50.212,310.317 50.322,308.471C50.322,308.471 50.506,307.634 50.644,307.042C53.652,294.263 56.891,281.308 62.3,269.612C63.095,267.893 63.791,266.02 65.083,264.706C65.361,264.423 65.545,264.168 66.131,264.192ZM66.05,265.513C65.919,265.635 65.803,265.772 65.694,265.914C64.175,267.886 63.298,270.338 62.308,272.711C57.551,284.111 54.417,296.217 51.635,308.308L51.585,308.529C52.061,308.536 52.263,307.82 52.598,307.291C56.182,301.692 59.764,295.76 65.063,291.854C66.345,290.909 67.956,290.067 69.627,290.608C72.295,291.471 73.943,294.513 75.33,297.189C77.177,300.754 78.815,304.448 80.374,308.122C80.408,308.2 80.432,308.28 80.474,308.358C80.548,308.487 80.361,307.77 80.258,307.327C77.194,294.313 74.074,281.187 68.197,269.108C67.583,267.846 67.07,266.447 66.071,265.513C66.071,265.513 66.07,265.495 66.05,265.513ZM75.689,302.793C75.853,303.147 76.018,303.507 76.185,303.869C73.046,304.946 69.457,305.558 65.645,305.558C62.591,305.558 59.68,305.165 57.03,304.456C57.268,304.114 57.507,303.773 57.748,303.434C60.185,304.056 62.851,304.399 65.645,304.399C69.285,304.399 72.708,303.817 75.689,302.793ZM57.782,277.961C57.62,278.403 57.46,278.847 57.303,279.292C49.902,281.309 44.728,285.928 44.728,291.304C44.728,295.037 47.223,298.405 51.226,300.79C51.128,301.2 51.03,301.609 50.932,302.018C46.276,299.406 43.337,295.574 43.337,291.304C43.337,285.2 49.342,279.993 57.782,277.961ZM74.503,278.218C82.416,280.408 87.952,285.443 87.952,291.304C87.952,295.338 85.33,298.981 81.114,301.574C81.016,301.154 80.918,300.735 80.82,300.316C84.378,297.969 86.562,294.796 86.562,291.304C86.562,286.177 81.855,281.738 74.998,279.588C74.836,279.13 74.671,278.674 74.503,278.218Z" style="fill-rule:nonzero;"/>
    </g>
    <g transform="matrix(6.80826,0,0,7.77154,-1213.13,-1094.86)">
        <text x="205.869px" y="165.707px" style="font-family:'ArialMT', 'Arial', sans-serif;font-size:12px;fill:rgb(255,170,0);">12:00</text>
    </g>
    <g transform="matrix(6.80826,0,0,7.77154,-1185.36,-1046.07)">
        <text x="205.869px" y="165.707px" style="font-family:'ArialMT', 'Arial', sans-serif;font-size:2.316px;fill:rgb(255,170,0);">Monday Feb 15, 2019</text>
    </g>
    <path d="M407.327,212.245C407.327,207.513 403.486,203.672 398.755,203.672L194.847,203.672C190.116,203.672 186.275,207.513 186.275,212.245C186.275,216.976 190.116,220.817 194.847,220.817L398.755,220.817C403.486,220.817 407.327,216.976 407.327,212.245Z" style="fill:rgb(255,170,0);stroke:black;stroke-width:1.25px;"/>
    <g transform="matrix(6.80826,0,0,7.77154,-1082.78,-1246.24)">
        <text x="216.817px" y="165.707px" style="font-family:'ArialMT', 'Arial', sans-serif;font-size:2.316px;">LCARS 1.0</text>
    </g>
</svg>
