<?xml version="1.0" encoding="UTF-8" standalone="no"?>
<!DOCTYPE svg PUBLIC "-//W3C//DTD SVG 1.1//EN" "http://www.w3.org/Graphics/SVG/1.1/DTD/svg11.dtd">
<svg width="100%" height="100%" viewBox="0 0 480 320" version="1.1" xmlns="http://www.w3.org/2000/svg" xmlns:xlink="http://www.w3.org/1999/xlink" xml:space="preserve" xmlns:serif="http://www.serif.com/" style="fill-rule:evenodd;clip-rule:evenodd;stroke-linejoin:round;stroke-miterlimit:1.41421;">
    <path d="M435.157,249.391C436.202,249.514 436.712,250.665 437.257,251.65C441.411,259.16 443.855,267.591 446.268,275.984C447.937,281.788 449.461,287.634 450.798,293.518C450.798,293.518 450.884,294.133 450.808,294.407C450.79,294.471 450.747,294.526 450.707,294.579C450.104,295.39 448.72,294.923 448.248,293.81C446.19,288.962 444.314,284.01 441.371,279.702C440.492,278.416 439.366,277.162 437.946,276.919C436.162,276.614 434.589,278.123 433.147,279.502C428.873,283.587 425.562,288.598 422.379,293.639C421.407,295.192 419.238,295.517 419.348,293.671C419.348,293.671 419.532,292.834 419.669,292.241C422.678,279.463 425.917,266.507 431.326,254.811C432.121,253.092 432.817,251.219 434.109,249.906C434.387,249.623 434.571,249.367 435.157,249.391ZM435.076,250.712C434.945,250.834 434.829,250.971 434.72,251.113C433.201,253.085 432.324,255.538 431.334,257.91C426.577,269.31 423.443,281.416 420.661,293.508L420.611,293.728C421.087,293.735 421.289,293.019 421.624,292.491C425.207,286.891 428.79,280.96 434.089,277.053C435.371,276.109 436.982,275.267 438.653,275.808C441.321,276.671 442.969,279.712 444.356,282.389C446.203,285.954 447.841,289.647 449.4,293.321C449.434,293.399 449.458,293.479 449.5,293.557C449.574,293.687 449.387,292.97 449.284,292.526C446.22,279.513 443.1,266.386 437.223,254.308C436.609,253.046 436.096,251.646 435.097,250.712C435.097,250.712 435.096,250.694 435.076,250.712ZM444.715,287.992C444.879,288.346 445.044,288.707 445.211,289.069C442.072,290.146 438.483,290.757 434.671,290.757C431.617,290.757 428.706,290.365 426.056,289.655C426.294,289.313 426.533,288.972 426.774,288.633C429.211,289.255 431.877,289.598 434.671,289.598C438.311,289.598 441.734,289.016 444.715,287.992ZM426.808,263.161C426.646,263.602 426.486,264.046 426.329,264.492C418.928,266.509 413.754,271.128 413.754,276.504C413.754,280.236 416.249,283.604 420.252,285.99C420.154,286.399 420.056,286.809 419.958,287.218C415.302,284.606 412.363,280.774 412.363,276.504C412.363,270.4 418.368,265.192 426.808,263.161ZM443.529,263.418C451.442,265.608 456.978,270.642 456.978,276.504C456.978,280.538 454.355,284.18 450.14,286.773C450.042,286.354 449.944,285.935 449.846,285.516C453.404,283.168 455.588,279.995 455.588,276.504C455.588,271.376 450.88,266.937 444.024,264.788C443.862,264.33 443.697,263.873 443.529,263.418Z" style="fill:rgb(124,124,124);fill-rule:nonzero;"/>
    <text x="181.483px" y="125.748px" style="font-family:'ArialMT', 'Arial', sans-serif;font-size:93.258px;fill:rgb(255,170,0);">1<tspan x="226.92px 272.357px 295.056px 340.493px " y="125.748px 125.748px 125.748px 125.748px ">2:00</tspan></text>
    <text x="209.253px" y="186.428px" style="font-family:'ArialMT', 'Arial', sans-serif;font-size:18px;fill:rgb(255,170,0);">M<tspan x="222.389px 231.159px 239.929px 248.698px 257.468px 265.353px 269.734px 279.366px 288.136px 296.906px 301.287px 310.057px 318.827px 323.208px 327.589px 336.359px 345.129px 353.899px " y="186.428px 186.428px 186.428px 186.428px 186.428px 186.428px 186.428px 186.428px 186.428px 186.428px 186.428px 186.428px 186.428px 186.428px 186.428px 186.428px 186.428px 186.428px ">onday Feb 15, 2019</tspan></text>
    <text x="364.665px" y="31.562px" style="font-family:'ArialMT', 'Arial', sans-serif;font-size:18px;">L<tspan x="373.435px 384.822px 395.34px 406.728px 417.246px 421.627px 430.397px 434.778px " y="31.562px 31.562px 31.562px 31.562px 31.562px 31.562px 31.562px 31.562px ">CARS 1.0</tspan></text>
    <path d="M442.793,13.006L448.272,13.006L448.272,13.013C454.38,13.229 459.272,18.256 459.272,24.416C459.272,30.713 454.16,35.825 447.863,35.825C447.558,35.825 447.257,35.813 446.958,35.789L442.793,35.789L442.793,13.006Z" style="fill:rgb(208,195,224);"/>
    <path d="M456.978,165.883L102.968,165.883C96.907,165.883 91.986,170.804 91.986,176.865L91.986,194.512L22.192,194.512L22.192,176.232L22.192,176.173C22.224,166.111 30.403,157.952 40.472,157.952L456.978,157.952L456.978,165.883Z" style="fill:rgb(151,120,142);"/>
    <path d="M456.978,147.936L102.968,147.936C96.907,147.936 91.986,143.016 91.986,136.954L91.986,119.308L22.192,119.308L22.192,137.587L22.192,137.647C22.224,147.708 30.403,155.867 40.472,155.867L456.978,155.867L456.978,147.936Z" style="fill:rgb(208,195,224);"/>
    <path d="M91.986,290.267C91.986,296.329 96.907,301.249 102.968,301.249L456.978,301.249L456.978,309.18L40.472,309.18C30.403,309.18 22.224,301.021 22.192,290.96L22.192,290.901L22.192,196.597L91.986,196.597L91.986,290.267Z" style="fill:rgb(255,207,109);"/>
    <text x="72.818px" y="129.423px" style="font-family:'ArialMT', 'Arial', sans-serif;font-size:7px;">TIME</text>
    <text x="71.389px" y="189.117px" style="font-family:'ArialMT', 'Arial', sans-serif;font-size:7px;">DA<tspan x="80.594px 84.87px " y="189.117px 189.117px ">TE</tspan></text>
    <path d="M138.869,13.006L138.869,35.789L102.465,35.789C96.68,35.791 91.986,40.486 91.986,46.269L91.986,117.223L22.192,117.223L22.192,35.782C22.192,23.212 32.397,13.007 44.968,13.006L138.869,13.006Z" style="fill:rgb(255,170,0);"/>
    <rect x="140.954" y="13.006" width="225.88" height="22.783" style="fill:rgb(255,207,109);"/>
</svg>
