<?xml version="1.0" encoding="UTF-8" standalone="no"?>
<!DOCTYPE svg PUBLIC "-//W3C//DTD SVG 1.1//EN" "http://www.w3.org/Graphics/SVG/1.1/DTD/svg11.dtd">
<svg width="100%" height="100%" viewBox="0 0 1025 997" version="1.1" xmlns="http://www.w3.org/2000/svg" xmlns:xlink="http://www.w3.org/1999/xlink" xml:space="preserve" xmlns:serif="http://www.serif.com/" style="fill-rule:evenodd;clip-rule:evenodd;stroke-linecap:round;stroke-linejoin:round;stroke-miterlimit:1.5;">
    <path id="Eye" d="M490,423l-16,8l-17,16l-5,10l10,12l18,10l24.939,4l28.061,-4l20,-13l4,-9l-9,-17l-18,-12l-22.442,-7l-17.558,2Z" style="fill:rgb(255,29,0);stroke:rgb(235,235,235);stroke-width:1px;"/>
    <path id="Outer" d="M866.704,168.306c12.806,15.82 13.085,15.574 14.069,17.043c16.297,24.339 20.189,21.507 33.615,45.379c7.303,12.986 7.811,12.682 8.285,13.886c2.848,7.231 23.018,40.307 28.054,54.068c16.662,45.521 19.874,44.024 21.015,48.062c3.308,11.706 3.219,11.576 7.018,23.012c4.648,13.99 5.366,22.151 5.383,22.204c8.461,25.228 4.846,25.87 9.016,52.05c2.197,13.79 1.701,13.842 2.003,15.016c1.32,5.115 1.555,6.026 0.767,66.022c-0.009,0.702 -1.855,7.122 -1.873,7.943c-0.282,13.212 -1.886,12.936 -3.093,26.076c-0.613,6.67 -7.912,52.172 -9.903,55.83c-5.703,10.476 -7.596,33.118 -11.626,43.24c-8.616,21.641 -9.041,21.271 -17.336,42.953c-13.194,34.486 -35.886,62.942 -39.729,72.156c-5.098,12.222 -9.238,9.631 -14.408,21.83c-2.48,5.853 -64.293,68.629 -69.867,71.86c-22.609,13.105 -20.399,16.032 -66.505,46.889c-26.211,17.542 -39.689,21.047 -42.009,23.032c-6.311,5.397 -6.963,4.123 -14.213,7.917c-5.865,3.069 -6.149,2.08 -12.196,4.642c-21.869,9.268 -22.132,8.211 -24.022,9.013c-23.883,10.13 -27.355,7.182 -34.03,10.018c-13.541,5.754 -81.257,18.622 -86.172,17.354c-7.998,-2.063 -7.633,2.205 -15.928,2.216c-28.741,0.037 -28.547,0.944 -31.03,0.932c-7.635,-0.035 -7.461,-0.803 -15.037,-0.984c-16.813,-0.403 -16.521,-1.9 -17.966,-1.929c-27.203,-0.536 -26.82,-4.347 -29.115,-3.844c-5.653,1.238 -5.127,-2.103 -10.955,-2.246c-5.719,-0.14 -5.53,0.752 -6.014,0.722c-4.103,-0.247 -2.958,-2.906 -6.922,-3.519c-16.954,-2.623 -16.609,-4.14 -18.094,-4.206c-1.817,-0.081 -3.14,-0.139 -22.125,-5.215c-2.514,-0.672 -21.859,-5.844 -30.716,-10.701c-8.507,-4.664 -10.396,0.945 -16.12,-3.731c-5.741,-4.69 -6.659,-3.109 -9.004,-5.018c-7.796,-6.345 -17.331,-7.98 -22.254,-10.582c-19.106,-10.097 -18.226,-11.455 -19.916,-12.257c-11.754,-5.577 -10.818,-8.795 -34.185,-19.707c-16.076,-7.507 -26.834,-17.341 -35.202,-22.948c-0.992,-0.665 -23.221,-19.66 -23.268,-19.727c-5.331,-7.672 -35.212,-35.424 -36.036,-36.967c-1.376,-2.577 -1.729,-3.238 -22.286,-28.935c-5.518,-6.898 -42.421,-53.03 -60.793,-92.169c-2.041,-4.347 -17.673,-40.422 -17.972,-42.87c-0.831,-6.805 -9.56,-28.22 -10.004,-33.028c-0.283,-3.066 -7.91,-29.817 -8.005,-32.03c-0.764,-17.791 -5.006,-35.178 -5.023,-48.022c-0.044,-33.289 -1.494,-33.321 -0.769,-36.119c1.445,-5.58 0.904,-5.507 1.862,-72.024c0.007,-0.515 2.952,-11.651 2.963,-11.994c0.095,-2.941 0.549,-16.949 7.512,-36.011c1.762,-4.824 0.144,-5.039 1.988,-10.016c1.131,-3.052 -4.82,-4.978 -0.933,-8.944c7.985,-8.148 4.283,-10.108 9.907,-20.105c1.113,-1.979 -1.872,-3.601 7.072,-24.991c5.952,-14.234 4.822,-14.618 5.402,-15.823c4.705,-9.772 3.598,-10.166 4.006,-11.009c10.51,-21.758 14.194,-27.899 15.593,-30.233c9.309,-15.521 13.55,-26.292 19.603,-34.393c0.799,-1.069 9.444,-12.641 9.712,-13.562c1.696,-5.828 3.668,-4.598 4.702,-7.108c5.58,-13.541 43.206,-48.573 45.716,-53.22c2.758,-5.104 4.834,-3.248 7.003,-7.02c4.48,-7.792 38.511,-32.503 43.973,-39.201c6.01,-7.369 7.53,-5.42 8.014,-6.062c8.019,-10.648 94.129,-62.22 150.631,-76.342c34.943,-8.734 34.907,-7.995 70.07,-15.023c41.402,-8.275 79.259,-6.296 114.071,-5.772c4.624,0.07 4.083,3.984 10.889,2.121c7.085,-1.939 6.761,3.955 38.162,4.884c0.444,0.013 6.445,2.82 8.987,2.96c13.811,0.76 68.445,19.432 76.175,22.245c2.112,0.768 1.136,1.828 3.073,2.932c1.155,0.658 12.468,7.103 14.743,7.667c6.576,1.63 20.192,8.283 21.897,9.116c12.636,6.174 13.904,4.473 13.871,5.672c-0.055,2.04 0.675,1.855 21.365,13.927c10.51,6.132 11.892,3.997 20.443,12.599c3.506,3.527 5.925,0.242 49.496,37.606c14.785,12.679 13.516,13.887 28.518,26.507l2.42,2.36l3.586,3.645Zm-757.126,302.824c10.414,-3.863 37.043,-10.578 37.247,-11.092c4.162,-10.489 -11.864,-5.23 -16.071,-2.864c-9.159,5.153 -19.699,4.621 -21.876,11.886c0.644,0.969 0.605,0.884 0.644,0.969c0.267,0.583 -0.181,0.584 0.056,1.101Zm0.111,-17.166c-2.21,2.434 -21.095,13.595 -23.107,15.993c-2.138,2.548 0.546,5.48 8.891,0.795c19.095,-10.72 19.747,-9.518 21.156,-10.793c7.678,-6.95 28.399,-8.369 29.237,-12.96c2.294,-12.569 -21.378,3.672 -28.942,2.671c0.23,-3.92 25.855,-11.714 29.707,-11.544c5.341,0.236 5.477,34.048 5.236,34.901c-0.668,2.366 -33.804,8.55 -33.845,8.511c-1.056,-1.005 -0.489,-2.474 16.689,-7.324c6.643,-1.875 14.49,0.848 14.257,-6.295c-0.292,-8.975 -55.607,10.942 -55.763,19.072c-0.076,3.925 3.964,-1.323 4.42,-1.362c4.535,-0.388 0.766,1.965 -2.233,5.239c-1.567,1.71 3.214,17.268 -11.953,8.369c-4.986,-2.925 -6.552,0.371 -9.202,2.26c-11.833,8.432 -8.446,-5.94 -10.094,-9.305c-0.908,-1.854 -8.174,-8.766 -8.662,-8.953c-0.609,-0.233 -2.216,-0.541 -2.471,7.763c-0.375,12.211 -2.733,37.829 0.434,43.086c2.744,4.556 -2.292,4.959 -0.602,12.872c2.836,13.28 -4.779,14.375 10.424,69.257c0.31,1.117 0.932,2.463 14.355,-1.997c13.569,-4.509 84.283,-22.989 86.846,-24.479c6.146,-3.575 -5.403,-32.507 -5.433,-56.721c-0.063,-50.155 -0.953,-89.655 11.133,-132.013c3.736,-13.095 8.36,-22.28 4.297,-23.691c-5.497,-1.908 -5.34,-2.142 -5.835,-2.198c-6.98,-0.793 -24.674,-10.675 -39.843,-15.656c-10.174,-3.341 -9.091,-5.396 -19.01,-8.997c-21.701,-7.878 -22.98,-12.802 -29.16,-12.387c-3.76,0.253 -17.171,53.94 -18.364,58.715c-2.15,8.605 -0.604,8.665 -2.391,17.183c-5.403,25.742 -3.54,25.812 -4.008,28.029c-0.65,3.074 -2.045,24.535 -1.862,35.937c0.072,4.496 4.422,-0.72 6.581,-0.884c13.918,-1.055 8.893,-18.207 15.946,-12.035c1.023,0.895 3.152,9.446 19.02,-5.129c5.616,-5.158 6.104,-4.129 13.103,-7.12c3.861,-5.055 6.231,-1.739 7.429,-1.488c-0.449,0.324 -1.386,1.001 -6.377,2.68Zm-0.547,30.78c-3.587,1.903 -2.365,-1.472 -1.501,-1.67c1.495,-0.344 1.475,0.124 1.501,1.67Zm42.145,-302.427c-3.457,3.752 -3.493,3.585 -5.623,8.378c-1.398,3.145 -1.846,2.73 -4.174,3.698c-3.571,1.484 -26.682,32.09 -27.456,33.547c-5.699,10.738 -7.912,9.146 -11.009,15.014c-2.648,5.018 -2.104,5.178 -5.006,10.01c-15.268,25.43 -20.582,40.255 -22.398,43.849c-10.435,20.661 -9.014,21.282 -10.072,22.989c-6.902,11.131 -6.636,18.284 -6.975,19.036c-3.085,6.854 -2.031,7.079 -5.304,13.888c-5.496,11.436 1.571,13.131 -0.907,15.964c-7.306,8.355 -3.815,9.852 -7.504,20.296c-4.98,14.099 -2.23,14.632 -6.629,28.832c-1.585,5.117 1.555,17.329 -3.008,31.028c-1.674,5.024 -4.69,56.668 -4.02,59.237c1.272,4.88 1.045,4.885 1.869,63.012c0.073,5.123 1.724,4.788 1.962,9.993c0.463,10.126 2.153,9.674 4.813,22.927c6.907,34.42 19.625,56.973 27.743,83.145c1.688,5.442 2.476,4.913 4.626,10.194c5.856,14.385 7.161,13.641 13.085,27.977c3.162,7.651 37.842,54.479 41.733,61.723c2.368,4.408 44.21,48.127 53.832,56.269l3.439,3.375l24.023,24.023c3.057,2.573 2.781,2.635 6.011,5.06c13.388,10.048 13.908,9.086 15.014,10.014c1.285,1.078 12.534,10.517 17.275,11.893c7.165,2.08 5.572,4.163 7.518,7.42c1.069,1.788 55.003,28.749 58.555,29.61c22.473,5.448 39.481,23.098 40.226,10.701c0.132,-2.188 -0.45,-2.51 -24.108,-13.011c-18.256,-8.103 -17.59,-9.064 -36.034,-17.02c-6.103,-2.632 -5.302,-3.785 -11.144,-6.708c-5.713,-2.859 -30.02,-18.182 -32.277,-19.876c-14.839,-11.137 -14.031,-11.975 -15.414,-12.784c-17.382,-10.176 -23.985,-18.193 -33.636,-26.312l-2.445,-2.38l-3.561,-3.626c-5.698,-5.673 -10.628,-10.852 -12.824,-12.021c-7.139,-3.797 -23.408,-26.149 -32.223,-35.024c-2.489,-2.506 -5.117,-4.88 -7.487,-7.499c-6.723,-7.433 -44.83,-65.172 -50.784,-77.16c-23.558,-47.428 -23.953,-48.991 -38.755,-100.807c-7.762,-27.172 -9.058,-58.08 -9.272,-63.184c-0.195,-4.643 -7.967,-5.592 -3.231,-8.684c3.715,-2.425 2.092,-3.644 3.317,-55.351c0.038,-1.611 0.408,-17.224 1.17,-20.107c2.21,-8.363 1.466,-18.522 2.008,-20.021c1.77,-4.902 0.667,-4.997 2.001,-10.009c2.458,-9.238 1.032,-9.312 2.622,-18.855c5.131,-30.794 7.06,-30.4 7.208,-33.107c0.081,-1.483 0.415,-7.623 4.506,-18.013c2.257,-5.733 9.026,-33.956 13.14,-38.937c4.182,-5.063 4.339,-13.337 6.035,-14.981c2.893,-2.803 1.538,-3.294 2.537,-7.243c0.079,-0.313 5.8,-13.216 6.396,-13.829c14.104,-14.498 5.363,-25.771 38.53,-62.51c7.1,-7.865 3.99,-10.49 36.29,-42.844c11.006,-11.025 10.299,-11.72 11.456,-12.419c8.705,-5.259 4.274,-12.69 11.722,-11.359c1.775,0.317 2.411,-3.236 4.082,-3.693c4.337,-1.184 2.221,-3.796 6.154,-5.984c5.081,-2.826 3.15,-5.349 7.667,-6.701c9.595,-2.873 7.994,-7.215 13.354,-10.313c0.63,-0.364 39.774,-29.123 47.814,-32.478c0.487,-0.203 3.468,-1.447 5.653,-3.405c3.12,-2.795 25.219,-13.731 27.475,-14.273c2.679,-0.643 1.46,-2.366 3.954,-3.255c8.141,-2.903 13.229,-5.35 31.202,-13.658c15.233,-7.042 16.021,-4.783 31.028,-12.016c11.465,-5.526 15.847,-3.322 36.914,-9.103c6.681,-1.833 2.619,-5.417 4.267,-6.235c5.355,-2.657 7.195,3.316 9.637,1.861c4.395,-2.62 11.076,-1.328 12.12,-1.637c12.704,-3.751 12.95,-1.621 14.016,-2.005c17.559,-6.315 26.083,-2.946 34.033,-5.009c9.214,-2.391 42.899,0.402 44.074,-0.087c2.119,-0.882 2.422,-7.299 6.224,-1.439c0.996,1.536 1.363,1.484 22.718,2.73c5.729,0.334 52.735,3.076 71.14,9.205c16.449,5.478 16.388,5.062 17.729,5.711c18.834,9.115 25.639,9.888 28.026,11.014c9.08,4.285 20.343,6.754 25.022,9.014c20.77,10.03 19.956,11.338 33.409,18.259c32.437,16.687 29.968,20.575 61.669,38.8c4.226,2.429 3.36,3.432 17.11,13.745c15.192,11.394 41.261,36.234 41.522,36.465c10.901,9.689 9.658,10.643 20.028,21.073c9.064,9.117 7.466,10.319 16.546,19.488c0.364,0.367 9.979,17.935 10.536,18.552c10.745,11.918 8.627,13.229 17.452,26.5c5.605,8.43 4.902,8.678 9.498,17.735c9.705,19.124 9.105,19.39 10.012,21.016c18.304,32.816 14.634,39.402 31.279,73.445c1.715,3.507 -0.196,4.146 0.418,5.806c4.627,12.522 2.529,12.968 4.355,16.842c6.403,13.583 5.705,37.828 6.338,40.293c3.263,12.696 1.627,12.948 2.005,14.016c5.019,14.184 2.235,76.402 1.628,78.093c-3.423,9.526 -1.947,29.15 -10.636,63.9c-11.988,47.944 -11.27,48.076 -12.401,52.218c-2.793,10.228 -11.53,31.43 -11.628,31.867c-2.164,9.719 -22.524,45.403 -26.764,55.104c-3.689,8.441 -5.559,7.316 -7.61,11.213c-5.941,11.29 -7.896,9.845 -8.317,10.855c-2.183,5.233 -6.237,14.95 -42.226,56.916c-11.825,13.788 -13.773,11.615 -26.064,25.136l-5.451,5.385c-17.12,13.876 -30.937,27.041 -33.523,29.506c-2.536,2.416 -3.382,0.824 -6.004,3.014c-14.31,11.954 -15.333,10.497 -16.527,11.584c-7.252,6.594 -7.167,6.644 -33.619,21.18c-25.701,14.123 -25.296,14.846 -27.691,15.711c-22.622,8.168 -22.052,9.44 -24.052,10.029c-21.015,6.19 -20.267,8.074 -22.15,8.249c-11.249,1.047 -9.932,5.03 -20.896,7.77c-19.327,4.83 -19.361,4.531 -21.023,5.007c-14.686,4.211 -14.911,3.022 -16.181,3.389c-6.645,1.921 -6.381,2.346 -13.016,4.003c-12.547,3.134 -12.66,1.746 -13.988,2.009c-2.365,0.468 -11.389,2.255 -30.005,2.835c-18.984,0.591 -18.525,4.055 -27.006,4.019c-3.852,-0.016 -45.235,-0.192 -48.138,-1.235c-9.527,-3.425 -9.939,-0.661 -15.014,-2.002c-19.934,-5.266 -20.267,-2.708 -21.919,-3.356c-6.943,-2.724 -6.909,-2.612 -17.121,-4.657c-40.897,-8.187 -40.308,-10.677 -43.925,-10.744c-15.204,-0.279 -14.84,-3.137 -16.104,-2.802c-4.406,1.167 -0.131,5.151 -0.498,6.115c-0.657,1.728 1.241,2.687 2.112,0.736c2.111,-4.728 4.361,-1.263 3.721,-0.53c-4.912,5.632 8.391,4.058 17.816,6.557c2.598,2.152 3.615,0.664 5.473,3.596c3.564,5.628 8.282,3.363 18.559,6.454c1.017,0.306 9.615,2.892 12.963,2.847c8.116,-0.109 7.812,2.871 15.961,2.045c1.143,-0.116 10.55,2.893 12.067,2.957c15.862,0.669 15.646,1.973 17.016,2.002c14.037,0.297 13.81,0.98 15.014,1.001c36.988,0.669 40.508,-0.088 43.945,-0.826c6.939,-1.491 9.771,4.218 12.342,-2.595c1.988,-5.267 4.61,3.871 10.845,2.207c8.409,-2.244 8.698,0.189 17.017,-2.006c11.4,-3.007 24.778,-2.143 28.028,-3.008c22.552,-5.997 22.997,-2.842 24.888,-3.526c25.206,-9.117 25.701,-6.953 51.193,-15.503c22.848,-7.663 21.825,-9.986 23.823,-10.583c6.303,-1.881 5.616,-3.554 6.138,-3.353c3.565,1.371 3.45,-0.049 6.972,-1.396c30.054,-11.495 97.227,-57.164 97.966,-58.161c5.257,-7.092 14.296,-9.573 30.535,-24.539l4.004,-4.004c7.137,-5.849 9.601,-10.948 19.012,-18.965c7.668,-6.532 9.621,-10.666 12.022,-13.065c24.768,-24.752 21.561,-27.222 23.785,-29.26c7.656,-7.016 6.985,-11.202 9.307,-13.785c7.668,-8.529 14.596,-23.656 17.185,-27.616c19.205,-29.37 16.19,-30.923 17.86,-33.456c1.978,-3 2.264,-2.772 8.551,-16.378c20.836,-45.088 18.33,-46.075 20.393,-49.859c8.03,-14.733 23.115,-93.694 23.363,-94.384c1.874,-5.202 0.099,-5.43 1.619,-10.815c5.166,-18.299 0.504,-93.341 -0.008,-95.27c-6.264,-23.581 -0.384,-45.654 -29.621,-112.893c-19.079,-43.879 -21.301,-42.707 -28.772,-61.178c-3.32,-8.208 -4.342,-7.575 -6.635,-12.211c-2.447,-4.947 -3.119,-4.41 -3.323,-4.833c-6.914,-14.282 -7.496,-13.752 -8.008,-15.014c-1.645,-4.047 -2.644,-3.299 -4.689,-7.167c-4.732,-8.948 -5.959,-8.057 -6.322,-8.847c-4.567,-9.943 -6.121,-9.011 -6.334,-9.929c-1.762,-7.604 -3.762,-6.468 -6.362,-11.254c-6.803,-12.52 -9.629,-10.183 -31.526,-35.732c-26.342,-30.735 -85.927,-70.417 -96.167,-76.791c-27.936,-17.39 -31.937,-20.569 -37.82,-21.169l-2.023,0.782l0.634,-2.806c-8.618,-4.326 -8.778,-3.583 -17.452,-7.59c-48.685,-22.494 -65.283,-23.352 -88.26,-31.678c-8.834,-3.201 -9.309,-0.647 -18.124,-3.696c-13.509,-4.674 -15.787,-1.416 -21.988,-3.008c-15.181,-3.897 -26.657,-2.154 -31.868,-3.627c-1.49,-0.421 -20.353,-0.228 -21.192,-0.01c-9.61,2.503 -26.706,-0.682 -31.865,0.626c-19.239,4.877 -19.553,1.899 -21.187,2.388c-13.509,4.043 -13.833,1.787 -14.856,2.423c-6.956,4.318 -11.708,1.93 -14.174,2.587c-7.412,1.974 -32.517,1.049 -31.008,5.333c1.385,3.932 -0.946,5.906 -3.588,2.704c-4.031,-4.887 -5.954,-1.568 -9.251,-0.403c-22.803,8.055 -23.388,6.526 -25.031,7.831c-6.055,4.809 -8.305,1.874 -14.233,4.582c-17.777,8.121 -18.224,6.8 -19.649,7.705c-2.453,1.557 -0.422,8.457 -5.603,3.981c-3.117,-2.693 -42.354,20.015 -49.5,23.048c-1.083,0.46 -10.878,4.618 -13.062,6.761c-8.732,8.567 -13.477,8.786 -16.905,11.271c-7.953,5.764 -8.462,4.983 -8.797,5.754c-2.88,6.612 -3.332,7.593 -10.5,6.928c-3.958,-0.367 -3.301,1.259 -6.755,3.256c-6.075,3.511 -14.47,11.262 -16.429,12.313c-4.469,2.398 -11.999,10.299 -16.557,13.776c-2.144,1.636 0.167,12.154 -3.138,5.43c-2.506,-5.099 -29.693,23.901 -34.544,29.822l-5.005,5.005Zm-91.736,470.818c1.005,-0.802 0.909,-0.84 1.005,-0.802c0.404,0.158 0.763,3.243 -1.005,0.802Zm205.431,252.352c-4.042,3.528 -2.355,-2.251 -1.304,-2.405c1.833,-0.27 1.146,0.641 1.304,2.405Zm117.855,49.906c5.925,-2.223 4.208,1.658 3.892,1.79c-2.379,0.997 -2.485,0.41 -3.892,-1.79Zm360.916,-196.626c-36.182,29.23 -36.64,28.66 -39.409,31.603c-0.887,0.943 1.896,2.459 2.057,2.755c6.152,11.344 6.031,11.364 7.168,12.876c12.657,16.832 10.931,17.831 23.013,35.039c1.392,1.983 10.899,15.523 16.595,25.338c13.088,22.555 19.626,0.988 35.244,-5.739c1.285,-0.553 0.945,-2.188 13.76,-12.439c26.618,-21.293 25.114,-22.74 27.508,-24.454c8.059,-5.769 23.645,-22.945 27.027,-26.025c1.362,-1.241 32.896,-41.21 32.952,-41.348c0.955,-2.356 1.042,-2.212 15.082,-27.976c24.491,-44.942 23.111,-45.553 25.267,-49.436c10.658,-19.196 -3.675,-15.81 -14.791,-20.43c-30.928,-12.855 -36.83,-11.217 -43.043,-14.015c-19.359,-8.72 -36.974,-12.688 -38.883,-12.451c-0.668,0.083 -0.536,0.358 -11.848,24.163c-6.602,13.893 -6.805,13.611 -14.486,26.77c-15.922,27.278 -16.795,26.552 -37.187,50.745l-13.013,13.013c-4.45,3.602 -7.393,6.418 -8.008,7.007l-5.005,5.005Zm87.21,14.487c-1.475,13.346 -15.677,4.358 -15.97,2.033c-0.1,-0.79 0.561,-0.723 -0.098,-9.953c-0.313,-4.386 -26.142,5.652 -14.125,-9.678c5.207,-6.643 17.403,-14.387 4.516,-14.433c-1.977,-0.007 -4.658,-4.579 -1.512,-7.51c20.392,-19.001 11.379,-29.484 20.563,-28.726c0.895,0.074 2.374,3.31 8.246,12.015c5.321,7.889 3.927,8.683 10.414,15.501c0.451,0.475 4.504,4.734 3.101,7.577c-1.84,3.729 -10.843,0.116 -6.095,6.429c10.35,13.762 16.873,14.826 10.218,19.555c-2.951,2.097 -11.923,-1.473 -12.891,-1.859c-6.983,-2.778 -5.962,1.648 -6.368,9.049Zm-4.155,2.731c0.235,-1.015 -1.017,-17.102 2.483,-17.163c9.824,-0.173 15.666,5.78 12.927,-0.541c-1.822,-4.205 -20.667,-26.534 -10.916,-25.015c4.227,0.658 5.959,6.275 5.989,1.948c0.002,-0.306 -11.255,-19.222 -12.246,-20.887c-2.762,-4.64 -4.692,10.992 -11.279,16.352c-4.583,3.729 4.883,1.3 5.956,4.356c2.664,7.589 -17.857,24.395 -11.414,24.034c6.094,-0.342 12.036,-3.054 11.663,6.165c-0.321,7.928 -1.027,10.494 6.838,10.751Zm-630.498,57.711c0.079,0.066 23.543,21.89 26.156,19.344c3.904,-3.803 25.771,-29.062 30.097,-38.872c0.922,-2.091 4.438,0.836 18.682,-21.615c3.268,-5.151 22.284,-19.439 15.458,-24.184c-4.443,-3.088 -47.044,-39.321 -59.656,-60.348c-8.609,-14.354 -10.795,-12.875 -16.707,-24.693c-0.937,-1.873 -13.19,-20.633 -14.322,-23.343c-7.898,-18.908 -12.637,-25.32 -17.12,-41.935c-0.384,-1.423 -1.123,-1.078 -7.67,-16.747c-3.455,-8.269 -13.201,1.243 -26.594,2.711c-2.995,0.328 -2.319,2.317 -36.053,10.887c-6.157,1.564 -41.811,12.016 -42.327,14.072c-2.208,8.798 31.932,86.519 39.961,92.69c2.365,1.818 12.842,25.48 31.982,47.967c1.298,1.525 1.118,1.64 15.857,19.372c5.293,6.368 17.673,19.958 19.234,21.672l6.006,6.006c5.362,6.157 8.761,7.293 15.015,15.015l2.002,2.002Zm15.674,-116.538c-4.504,-9.385 -6.632,-9.743 -41.313,-10.606c-9.729,-0.242 -5.747,-8.308 -5.707,-9.344c1.024,-26.085 -2.412,-25.631 -5.148,-29.146c-0.178,-0.228 -0.005,-3.372 -0.281,-3.826c-4.474,-7.374 -0.697,13.74 -9.043,11.384c-6.585,-1.859 -6.646,-6.893 -12.005,-2.627c-7.528,5.992 9.33,4.399 7.381,14.237c-1.653,8.346 0.221,67.055 1.037,67.624c4.231,2.95 4.067,-7.466 4.959,-8.465c3.137,-3.515 4.552,5.405 5.448,7.138c1.831,3.54 3.77,-6.758 3.894,-7.416c0.449,-2.387 4.738,-2.358 23.474,-2.191c4.637,0.041 4.271,1.266 5.7,5.419c2.847,8.278 9.285,-10.237 10.589,-3.227c1.393,7.487 2.309,10.883 2.95,11.526c-3.477,-0.226 -7.164,-1.454 -7.237,-1.436c-4.457,1.148 -6.189,3.123 -7.761,-2.011c-2.22,-7.251 -3.598,-8.243 -22.274,-7.094c-4.186,0.258 -1.628,13.959 -10.125,11.539c-8.699,-2.477 -10.398,2.982 -12.478,-0.656c-2.454,-4.293 -1.387,-4.505 -1.214,-61.799c0.027,-8.993 3.215,-11.863 -5.4,-14.604c-4.435,-1.411 -6.396,-10.311 -0.765,-12.35c6.387,-2.312 7.358,-1.719 9.923,-8.116c0.483,-1.205 4.216,-3.727 5.975,-2.786c4.13,2.207 4.633,0.207 8.807,2.289c3.421,1.706 -1.017,4.671 4.216,8.664c5.451,4.16 2.628,27.441 2.471,33.89l0.469,1.09c6.634,0.32 6.482,0.214 30.166,0.492c23.935,0.282 24.772,35.804 14.207,26.262l-2.139,1.223c-1.339,5.709 -0.576,13.732 -0.749,22.033c-0.06,2.848 -2.745,3.515 -5.689,3.39c1.917,-2.035 0.769,-36.74 6.373,-38.657c0.828,-0.851 0.767,-0.779 0.828,-0.851c0.396,-0.466 0.077,-0.538 0.462,-0.992Zm17.733,111.236c2.669,1.689 -2.353,2.436 -1.717,0.952c0.062,-0.144 -0,0 1.717,-0.952Zm278.279,-673.363c-43.464,0.046 -74.229,9.869 -79.056,9.983c-9.33,0.22 -8.575,3.035 -16.985,4.879c-1.462,0.321 -14.029,3.076 -18.186,4.397c-16.195,5.147 -15.408,6.748 -20.829,8.623c-21.982,7.604 -28.111,14.104 -32.326,16.355c-19.567,10.45 -18.153,12.477 -19.877,13.307c-8.169,3.933 -7.097,5.319 -15.006,10.038c-16.383,9.775 -25.076,21.799 -34.033,28.026c-18.443,12.82 -29.489,32.647 -33.81,34.56c-1.331,0.59 -22.651,30.605 -22.692,30.747c-3.367,11.74 -9.115,12.935 -19.549,35.876c-3.071,6.751 -3.332,6.536 -3.464,7.159c-1.04,4.9 -2.607,4.099 -4.009,8.997c-5.578,19.484 -8.081,18.508 -13.277,37.969c-8.332,31.213 -10.913,51.813 -10.866,107.053c0.006,7.625 0.843,7.392 0.979,14.991c0.319,17.763 2.669,17.467 3.001,27.028c0.325,9.361 3.865,8.466 4.002,14.014c0.038,1.554 0.249,10.081 3.269,19.159c12.38,37.212 13.86,36.559 14.619,39.87c2.776,12.115 4.102,11.503 17.363,37.311c7.47,14.538 14.158,23.359 15.014,25.026c5.586,10.869 8.282,9.299 10.327,12.867c6.656,11.614 5.959,12.027 15.61,21.469c2.186,2.138 25.093,24.549 27.595,26.448c50.933,38.643 50.931,38.597 90.824,58.553c74.913,37.475 97.313,29.145 105.374,31.384c17.295,4.804 80.884,1.626 88.153,-0.394c13.533,-3.76 17.39,1.496 20.151,-7.316c3.004,-9.586 6.95,0.666 10.776,0.219c10.759,-1.258 20.365,-5.511 22.04,-6.253c3.935,-1.742 39.014,-14.602 41.172,-15.707c8.084,-4.139 40.117,-23.255 40.656,-23.722c5.72,-4.955 6.233,-4.034 12.195,-8.734c95.16,-75.021 103.252,-124.526 107.254,-127.921c3.495,-2.966 1.625,-3.899 3.34,-6.938c6.696,-11.861 15.213,-36.116 16.342,-39.331c3.783,-10.772 2.934,-10.989 3.408,-11.854c6.205,-11.312 6.317,-27.703 8.006,-30.01c5.141,-7.02 1.357,-8.04 2.618,-12.171c12.62,-41.327 0.311,-94.542 -0.177,-115.04c-0.049,-2.069 -9.508,-28.532 -10.005,-35.033c-0.551,-7.208 -28.641,-71.39 -32.713,-77.051c-9.183,-12.765 -12.046,-19.525 -14.016,-22.019c-11.84,-14.988 -11.259,-15.412 -12.432,-16.585c-1.402,-1.403 -11.566,-11.574 -16.42,-18.573c-5.749,-8.291 -6.804,-7.166 -10.133,-10.929c-6.856,-7.749 -8.066,-6.209 -15.563,-13.467c-33.119,-32.066 -106.55,-65.389 -126.621,-70.396c-17.42,-4.346 -16.746,-6.188 -34.086,-10.737c-8.29,-2.175 -8.442,0.544 -16.964,-1.279c-23.583,-5.044 -23.529,-4.846 -50.996,-4.846Zm-333.991,307.512c0.018,-0.829 0.036,-1.685 0.051,-2.573c0.024,-1.319 0.265,-2.11 0.572,-2.746c-0.221,1.769 -0.429,3.542 -0.623,5.319Zm2.719,-19.577c0.202,-1.444 0.436,-2.746 0.692,-3.955c-0.238,1.316 -0.469,2.634 -0.692,3.955Zm5.045,-24.337c0.136,-1.71 0.23,-3.602 0.271,-5.723c0.158,-8.258 12.437,-34.477 15.138,-43.929c2.607,-9.123 20.165,-41.518 31.633,-56.837c-21.448,32.051 -37.555,67.974 -47.041,106.49Zm-7.976,115.833c-0.907,-3.994 -1.749,-10.329 -1.759,-22.462c-0.002,-2.198 0.008,-4.209 0.027,-6.065c0.18,9.612 0.763,19.126 1.732,28.527Zm-103.795,-41.482c0.414,2.639 0.218,4.263 2.469,2.811c10.848,-6.992 12.371,0.288 16.101,-1.855c1.932,-1.11 -2.112,-5.574 2.07,-10.928c7.547,-9.661 -7.551,-1.798 -11.61,-6.458c-1.593,-1.829 -4.419,-10.686 -5.206,-2.521c-0.809,8.389 -13.233,5.976 -7.313,12.005c2.871,2.923 3.166,2.815 3.488,6.946Zm875,-132.123c-0.938,-3.682 -1.229,-3.474 -2.577,-7.012c-0.819,-2.151 -9.924,-26.05 -10.413,-26.821c-6.376,-10.051 -7.037,-15.592 -9.011,-19.017c-5.084,-8.823 -4.602,-8.85 -9.007,-18.029c-10.884,-22.68 -11.723,-22.228 -12.564,-24.244c-3.776,-9.053 -7.236,-9.578 -9.06,-13.985c-6.814,-16.464 -19.712,-26.384 -29.426,-43.836c-1.578,-2.835 -39.773,-42.178 -50.762,-52.119c-1.52,-1.375 -5.635,-8.34 -17.143,5.649c-6.488,7.886 -20.027,21.623 -20.253,21.966c-5.784,8.758 -7.121,7.444 -13.184,13.591c-22.863,23.184 -24.107,24.683 -26.022,26.991c-3.282,3.955 0.021,4.329 16.173,20.234c13.024,12.825 12.551,13.236 13.718,14.311c18.357,16.921 20.118,26.511 31.329,37.737c4.907,4.914 2.982,5.9 4.623,8.451c15.583,24.222 14.654,24.799 16.333,26.652c8.253,9.106 4.37,11.459 5.988,14.249c3.831,6.604 10.899,25.238 17.256,38.409c1.967,4.075 5.982,22.461 15.018,16.394c6.865,-4.609 16.347,-5.898 19.311,-6.639c20.942,-5.243 62.668,-21.369 65.109,-21.795c7.543,-1.316 6.446,-3.785 4.565,-11.137Zm-65.024,-87.09c-0.023,39.607 -0.795,40.007 -2.923,41.632c-0.301,0.23 -0.283,0.884 -19.721,0.64c-5.537,-0.07 -5.286,-1.117 -10.997,-0.977c-5.615,0.138 -5.41,1.018 -11.018,0.986c-1.288,-0.007 -10.789,-0.062 -15.926,-2.4c-5.082,-2.313 0.015,-11.127 -2.301,-22.842c-0.837,-4.235 4.403,-4.652 0.993,-24.024c-0.536,-3.042 1.049,-2.971 0.288,-6.047c-0.11,-0.445 0.565,-19.351 0.625,-21.034c0.246,-6.904 7.231,3.262 9.078,1.689c4.096,-3.491 4.641,-6.41 9.637,-2.116c4.373,3.759 9.375,-8.151 13.361,1.581c1.718,4.195 4.229,-5.165 12.323,-5.744c8.341,-0.597 16.368,0.848 16.554,3.653c0.16,2.419 0.086,2.336 0.029,35.004Zm-3.028,-20.02c1.325,-9.103 2.536,-12.72 -6.596,-12.7c-8.97,0.019 -11.717,-3.754 -15.133,4.641c-1.894,4.654 -3.314,1.453 -6.982,-1.832c-3.123,-2.797 -6.246,5.039 -12.529,0.415c-4.467,-3.287 -4.562,5.173 -9.346,2.366c-2.622,-1.538 -3.246,-0.942 -4.139,2.08c-2.988,10.105 -0.539,12.327 10.092,12.333c37.831,0.023 43.414,4.453 44.633,-7.302Zm-1.974,28.028c-0.019,-11.032 0.608,-11.15 -0.439,-13.141c-0.767,-1.458 -3.828,-1.568 -4.186,-1.581c-13.817,-0.497 -18.827,0.992 -19.012,0.985c-25.001,-0.822 -24.819,-1.046 -26.975,-0.919c-3.594,0.213 -4.302,24.142 0.92,24.801c4.366,0.551 43.331,-0.785 47.097,-0.914c4.246,-0.146 2.136,-2.215 2.595,-9.232Zm-22.437,-8.704c0.68,-0.626 12.163,-9.442 7.637,8.663c-0.589,2.358 3.834,3.255 1.013,4.794c-11.659,6.358 -8.715,-12.485 -8.65,-13.456Zm-1.972,-0.445c-0.125,0.647 -1.46,7.586 -1.231,8.146c0.185,0.451 2.036,4.974 -1.002,6.009c-9.979,3.399 -8.581,-2.558 -8.329,-13.048c0.053,-2.196 6.52,-5.301 10.563,-1.107Zm-19.602,7.146c0.205,-2.776 0.283,-2.564 0.924,-5.074c2.721,-10.664 4.849,1.899 5.023,3.102c0.072,0.496 -2.639,20.689 -5.947,1.972Zm44.011,24.024c0.162,-2.65 0.131,-2.49 0.306,-5.01c0.264,-3.811 -1.924,-3.943 -47.962,-3.689c-8.065,0.045 -5.756,3.601 -5.348,11.727c0.177,3.515 10.769,4.361 49.385,4.225c4.99,-0.018 3.178,-2.324 3.619,-7.253Zm-774.961,-15.014c-1.161,11.55 -26.219,43.801 -11.46,45.324c1.373,0.142 30.25,12.106 32.867,13.19c12.219,5.063 11.52,6.25 24.019,11.01c1.203,0.458 0.871,1.103 14.408,7.158c7.135,3.191 7.738,1.614 14.135,5.958c5.1,3.463 4.255,-1.194 10.568,-11.645c1.259,-2.083 0.71,-7.986 4.683,-12.387c7.081,-7.844 12.995,-25.709 24.231,-38.797c0.484,-0.564 4.184,-8.713 8.741,-13.318c10.511,-10.624 7.148,-13.519 36.04,-42.036c24.485,-24.167 30.217,-27.266 33.323,-28.945c1.301,-0.704 0.962,-1.151 14.803,-11.084c5.595,-4.015 -1.788,-8.824 -6.583,-21.52c-1.104,-2.923 -24.334,-42.297 -37.347,-66.899c-4.17,-7.884 -14.108,-0.328 -15.068,0.402c-1.645,1.251 -1.969,0.733 -21.017,15.017c-3.672,2.754 -13.203,9.901 -41.536,39.574c-2.742,2.872 3.541,3.25 2.458,5.743c-2.341,5.392 -4.895,-3.724 -8.486,-0.702c-28.552,24.033 -46.376,52.332 -50.957,55.28c-6.25,4.022 -27.093,41.271 -27.823,48.675Zm62.566,-3.018c-1.633,1.544 -2.249,-1.355 -0.868,-1.294c0.124,0.006 0,0 0.868,1.294Zm3.457,-37.021c-0.494,-4.103 0.009,-4.041 -0.97,-8.065c-2.708,-11.131 13.193,-32.972 27.612,-15.945c6.193,7.313 9.196,-0.805 12.163,-1.522c9.88,-2.39 10.417,-3.108 19.009,2.323c13.09,8.274 -1.257,37.359 -4.548,39.739c-12.159,8.793 -20.257,20.403 -21.686,22.452c-0.824,1.182 -4.31,6.179 -15.068,-9.86c-11.828,-17.633 -15.119,-16.266 -16.511,-29.121Zm28.009,33.608c1.181,0.017 1.138,0.102 1.181,0.017c1.378,-2.753 14.467,-14.58 23.008,-24.029c4.092,-4.527 11.346,-21.771 5.241,-26.343c-19.089,-14.299 -25.183,9.226 -27.937,2.847c-4.288,-9.93 -14.52,-11.845 -17.012,-10.448c-27.093,15.19 9.756,49.905 15.518,57.956Zm1.656,-36.314c2.151,-0.392 1.957,-0.45 3.972,-1.359c4.602,-2.076 0.68,4.506 1.237,5.984c1.6,4.241 7.748,-2.429 6.819,2.09c-0.787,3.832 0.427,3.542 2.669,6.205c2.002,2.378 -3.325,2.937 -3.927,4.676c-2.283,6.598 -2.494,-1.657 -2.501,-1.908c-0.139,-5.416 -10.878,-5.484 -13.175,-11.028c-1.155,-2.787 -4.943,-0.296 -5.834,-1.31c-3.622,-4.121 -2.291,-4.943 -5.983,-8.918c-4.775,-5.14 5.586,-2.528 5.957,-3.603c3.126,-9.052 1.287,7.945 10.764,9.171Zm304.29,712.966c4.764,-0.672 6.929,-0.977 60.1,-2.091c1.207,-0.025 5.254,-2.793 7.939,-2.891c9.643,-0.35 9.194,-1.973 10.01,-2.002c6.17,-0.223 5.878,-1.559 12.036,-2.02c0.31,-0.023 13.742,-2.543 13.949,-2.675c5.44,-3.456 6.533,-0.144 11.008,-3.006c7.227,-4.623 14.56,-2.923 33.109,-9.891c12.793,-4.806 13.131,-3.203 14.13,-3.812c10.699,-6.517 23.366,-9.184 25.018,-9.92c26.773,-11.915 26.544,-12.366 28.897,-13.34c5.489,-2.27 5.029,-2.89 10.212,-5.609c2.42,-1.269 23.892,-12.532 28.731,-18.472c3.172,-3.893 -8.739,-17.675 -9.857,-18.969c-4.594,-5.316 -19.055,-29.549 -19.282,-29.795c-12.521,-13.61 -9.39,-15.629 -14.015,-21.019c-0.481,-0.561 -2.706,-3.153 -5.407,-7.485c-5.97,-9.572 -7.207,-14.391 -16.312,-7.607c-13.094,9.755 -55.442,28.809 -61.252,30.425c-26.973,7.503 -26.669,8.413 -29.026,9.008c-47.917,12.098 -72.576,12.123 -78.968,12.13c-13.325,0.014 -17.642,-1.871 -19.046,11.374c-4.514,42.558 -5.924,42.333 -5.954,46.048c-0.316,40.055 -12.286,50.708 3.98,51.617Zm99.097,-96.034c5.144,-0.339 5.232,-0.891 7.215,-5.548c3.62,-8.502 7.854,-23.685 11.396,-17.735c5.536,9.299 9.287,23.18 13.437,23.269c2.476,0.053 30.294,0.65 30.767,3.44c0.71,4.194 -21.738,15.796 -20.106,21.064c3.125,10.089 17.78,29.006 6.265,27.328c-2.099,-0.306 -30.609,-24.46 -32.866,-9.334c-0.17,1.137 -2.392,-2.789 -13.038,6.032c-1.91,1.582 -14.941,14.015 -16.134,4.914c-0.9,-6.865 15.736,-29.008 8.92,-33.846c-9.714,-6.894 -33.711,-15.846 -19.984,-18.709c1.891,-0.394 1.851,-0.237 24.129,-0.877Zm18.278,11.986c-5.314,-1.396 -4.294,6.713 0.757,6.995c2.345,0.131 3.321,-1.164 4.824,2.394c-1.317,2.476 -11.564,1.945 -14.214,-4.845c-3.555,-9.108 -4.068,2.928 -1.167,5.481c1.054,0.927 11.547,6.6 12.477,6.8c4.978,1.072 16.214,-13.885 11.122,-13.545c-3.507,0.235 -2.378,2.512 -6.024,3.697c-2.588,-3.732 -0.88,-5.295 -5.094,-6.918c-0.836,3.81 -0.881,3.816 -1.202,3.854c-2.663,0.318 -1.37,-1.233 -1.48,-3.912Zm24.764,-5.984c-20.595,0.458 -2.176,8.82 -1.912,8.75c0.804,-0.213 1.206,-0.319 8.697,-5.689c0.163,-0.117 1.569,-1.125 0.779,-2.381c-0.484,-0.769 -0.712,-0.43 -7.564,-0.68Zm-43.197,38.916c8.204,-5.095 7.986,-5.202 15.442,-11.278c0.627,-0.511 1.389,-1.8 -7.526,-6.756c-8.209,-4.564 -7.289,4.577 -11.079,15.424c-0.52,1.487 -1.804,5.113 3.162,2.61Zm18.172,-44.919c4.218,-0.098 6.509,0.455 5.096,-3.662c-0.335,-0.976 -6.504,-18.945 -8.163,-9.99c-0.148,0.799 -1.489,8.036 -2.279,9.903c-2.311,5.459 1.778,3.614 5.346,3.749Zm-23.023,6c-8.492,-1.737 -7.247,1.845 -6.867,2.282c0.218,0.251 9.048,5.737 9.863,5.707c0.652,-0.024 1.608,-0.06 4.718,-6.65c0.267,-0.566 0.232,-2.166 -7.714,-1.339Zm41.162,31.959c0.961,0.373 13.883,10.768 7.975,2.408c-3.665,-5.186 -3.969,-15.413 -9.154,-12.048c-0.91,0.59 -3.206,0.765 -4.792,3.177c-3.079,4.682 1.025,3.633 5.972,6.463Zm-161.279,56.076c7.646,0.284 7.561,0.957 8.169,0.712c0.896,-0.361 1.965,-7.363 1.815,-8.285c-1.024,-6.272 6.124,-17.784 2.45,-22.329c-2.536,-3.138 -1.611,-3.492 0.433,-6.784c4.298,-6.922 10.215,-63.53 10.089,-66.973c-0.181,-4.904 -23.155,-3.026 -25.089,-3.637c-13.758,-4.344 -14.589,0.134 -36.021,-5.989c-5.183,-1.481 -50.099,-14.312 -63.777,-21.737c-16.329,-8.864 -16.895,-7.725 -18.14,-8.747c-0.924,-0.759 -7.209,-5.92 -12.282,-8.509c-23.391,-11.934 -30.277,-20.075 -41.041,-26.023c-8.641,-4.774 -9.564,1.771 -15.137,8.3c-2.131,2.496 -24.072,28.2 -26.199,31.571c-8.876,14.064 -12.654,12.051 -13.978,21.626c-0.146,1.059 -2.484,0.33 -4.271,2.349c-6.411,7.241 -5.718,7.634 -11.975,14.995c-2.58,3.035 15.436,15.289 16.732,15.814c8.761,3.548 7.19,6.111 14.892,9.334c10.585,4.429 25.411,15.789 31.165,18.669c25.089,12.563 24.783,13.047 26.982,14.093c21.298,10.132 24.9,15.24 39.096,15.553c2.893,0.064 1.63,3.987 34.079,12.12c18.184,4.558 18.466,2.549 20.018,3.009c6.88,2.039 6.64,2.678 13.972,2.882c1.805,0.05 4.402,2.443 4.872,0.358c1.499,-6.655 3.781,-2.171 3.904,-1.849c2.786,7.27 6.781,3.715 10.285,4.618c14.31,3.687 14.139,4.544 28.959,4.859Zm-131.697,-125.458c0.135,-15.973 9.637,-5.199 11.511,-5.678c7.653,-1.956 7.275,0.568 9.335,4.293c1.315,2.378 10.568,-1.097 10.843,3.137c1.967,30.355 -2.299,35.62 3.868,33.876c8.194,-2.318 8.217,4.401 8.22,5.178c0.075,21.116 -1.043,39.135 -29.099,46.453c-1.315,0.343 -22.645,2.467 -31.55,-20.26c-8.477,-21.638 -2.268,-55.656 -1.648,-56.299c2.423,-2.516 6.925,0.751 7.264,-2.903c0.646,-6.965 0.798,-8.138 7.818,-9.087c0.18,-0.024 -0,0 1.849,1.322l1.589,-0.031Zm31.606,73.844c0.43,-1.806 0.379,-1.667 0.43,-1.806c2.681,-7.32 8.452,-5.981 7.666,-31.257c-0.052,-1.682 -3.548,-1.786 -3.861,1.062c-0.734,6.671 -2.596,5.914 -3.8,9.168c-2.633,7.12 -4.18,1.119 -4.228,0.778c-2.211,-15.873 1.175,-15.673 0.874,-17.001c-0.333,-1.471 -2.524,-11.149 -0.634,-18.843c0.231,-0.94 1.94,-7.899 0.4,-12.095c-2.096,-5.712 -2.152,0.892 -3,6.877c-2.017,14.229 -3.462,13.871 -3.601,15.105c-3.45,30.661 -5.463,-28.7 -5.47,-28.719l-0.729,-0.17c-3.14,5.189 -3.975,38.442 -6.938,33.736c-4.094,-6.502 0.597,-51.112 -5.655,-30.736c-0.773,2.521 0.28,2.625 -2.272,32.879c-0.286,3.39 -2.779,3.115 -2.979,1.878c-0.667,-4.12 -1.854,-42.207 -5.54,-30.033c-0.124,0.409 0.5,42.492 -4.318,28.012c-0.26,-0.78 -0.878,-23.589 -4.06,-18.64c-0.94,1.462 2.176,1.844 -1.681,21.666c-0.013,0.067 1.316,20.417 1.924,22.277c12.331,37.717 40.972,24.337 44.329,17.821c-0.059,-0.249 -1.203,-5.036 1.147,-2.988c0.928,0.808 0.966,0.499 1.997,1.03Zm2.945,-16.367c-4.762,-2.318 0.67,-3.773 1.048,-2.654c0.509,1.504 -0.048,1.319 -1.048,2.654Zm9.033,-37.583c1.531,1.705 -1.47,2.288 -1.398,0.8c0.006,-0.129 0,0 1.398,-0.8Zm38.035,28.024c1.141,3.075 -0.822,1.978 -0.964,1.885c-1.321,-0.868 -0.362,-1.078 0.964,-1.885Zm-43.89,-50.728c1.741,0.699 2.513,1.349 0.742,2.255c-3.57,1.826 -0.851,-2.099 -0.742,-2.255Zm-127.488,10.819c0.137,2.102 -0.213,3.229 -1.859,1.876c-0.163,-0.134 -2.342,-2.283 1.859,-1.876Zm522.234,-712.28c-72.329,-51.721 -84.077,-47.448 -103.586,-56.702c-10.69,-5.07 -19.508,-8.202 -49.954,-17.331c-24.526,-7.354 -51.46,-7.816 -57.255,-10.404c-7.532,-3.364 -7.791,-2.409 -15.834,-0.022c-3.452,1.025 -11.461,-3.563 -13.889,-1.917c-7.758,5.262 -4.044,7.232 -4.291,16.646c-0.098,3.732 -1.657,3.322 -1.889,7.02c-0.684,10.925 -2.028,14.078 -2.046,16.013c-0.265,27.882 -5.213,31.867 -4.999,64.063c0.034,5.074 36.374,4.236 59.178,10.631c56.002,15.705 54.999,18.396 59.889,19.621c13.271,3.324 14.582,6.413 24.101,10.748c20.108,9.158 20.641,11.358 25.218,13.629c21.254,10.547 20.362,13.262 35.038,22.015c5.235,3.122 23.469,-20.601 44.104,-41.339c25.291,-25.418 24.694,-25.928 27.024,-27.991c8.038,-7.117 -6.005,-12.317 -20.811,-24.681Zm-127.608,-58.276c11.731,0.737 25.551,14.748 10.683,38.419c-0.648,1.032 -8.727,7.91 -8.788,11.197c-0.405,21.817 -2.356,21.474 -2.74,24.06c-0.407,2.741 4.348,3.445 -1.528,12.761c-0.557,0.883 -6.439,10.209 -12.463,-3.857c-3.649,-8.521 11.186,-10.428 8.423,-15.715c-1.382,-2.644 -5.012,2.215 -6.131,0.31c-9.871,-16.811 13.961,-48.72 16.177,-42.421c1.806,5.132 -13.758,9.443 -14.798,28.846c-0.019,0.355 -2.525,5.265 1.12,5.41c6.244,0.249 8.11,0.833 8.768,-5.424c1.375,-13.08 5.807,-10.985 12.852,-22.235c6.002,-9.583 -0.361,-37.127 -26.434,-22.471c-7.251,4.076 -10.945,17.671 -9.352,18.151c8.652,2.606 9.476,1.055 9.845,0.358c4.337,-8.176 2.278,-10.818 11.262,-13.185c2.59,-0.682 11.254,4.245 2.119,3.908c-12.886,-0.476 -5.029,21.476 -20.019,15.458c-3.924,-1.575 -10.814,-3.52 -3.575,-19.769c0.478,-1.073 1.668,-3.744 9.938,-10.812c6.023,-5.148 6.834,-2.82 14.642,-2.987Zm-10.016,81.655c4.904,6.089 7.467,-5.136 1.988,-5.751c-2.344,-0.263 -3.187,2.332 -3.292,2.654c-0.608,1.87 0.227,1.603 1.304,3.097Zm138.046,-20.014c-0.018,0.247 -0.848,11.627 -2.414,1.938c-0.208,-1.286 0.041,-1.082 0.641,-2.813l0.532,-1.271l1.241,2.145Zm195.846,356.336c-0.354,-13.861 -7.049,-81.183 -16.572,-103.103c-5.132,-11.814 -12.844,-2.142 -28.066,1.906c-17.038,4.531 -16.453,6.128 -17.972,6.216c-7.095,0.411 -13.5,2.394 -43.09,13.793c-9.87,3.802 -13.601,1.319 -13.364,9.14c0.036,1.198 0.393,12.954 1.546,14.899c3.924,6.621 2.514,19.373 4.814,23.138c6.334,10.365 1.335,87.954 -2.183,102.024c-15.16,60.628 -17.119,59.97 -18.412,65.236c-2.655,10.807 28.305,13.52 41.619,18.99c1.825,0.75 20.679,8.495 23.084,8.679c10.993,0.843 27.285,8.607 31.027,9.004c7.309,0.775 6.883,-6.031 10.309,-15.657c18.086,-50.813 18.194,-80.393 19.407,-84.272c3.187,-10.195 2.727,-10.193 2.855,-20.949c0.088,-7.405 4.95,-8.181 4.999,-49.045Zm-13.004,24.023c-0.524,25.593 -1.608,33.854 -9.55,26.995c-11.17,-9.647 -11.722,-0.532 -22.492,9.588c-0.721,0.678 -1.446,-0.576 -10.764,6.103c-1.42,1.018 -26.549,3.812 -35.373,-13.892c-3.851,-7.728 -2.892,-15.849 2.467,-13.565c10.33,4.403 18.952,9.348 33.213,1.98c1.437,-0.743 4.471,-9.258 3.259,-13.303c-3.221,-10.748 -6.112,-8.957 -17.384,-8.902c-9.217,0.045 -27.377,7.318 -16.454,-6.412c14.651,-18.416 45.303,-24.766 55.505,1.394c0.131,0.335 -1.347,8.621 7.806,1.769c2.623,-1.963 1.514,-2.938 4.333,-4.52c0.324,-0.182 3.789,-2.127 4.54,-1.01c1.362,2.024 0.677,2.203 0.893,13.777Zm-66.115,29.413c1.345,0.822 9.018,13.417 24.742,1.908c0.717,-0.525 1.112,0.396 9.665,-5.484c5.943,-4.085 8.508,-19.791 22.148,-7.84c3.101,2.718 2.239,-4.788 3.331,-9.895c1.244,-5.818 0.67,-9.065 -4.45,-6.279c-16.655,9.061 -10.144,-7.082 -15.958,-13.803c-16.948,-19.594 -35.38,-0.195 -34.256,0.181c2.84,0.95 18.391,-6.633 26.243,5.825c0.301,0.478 2.26,18.992 1.409,22.089c-0.576,2.096 -3.522,12.808 -23.391,13.831c-5.153,0.265 -18.631,-7.538 -11.821,-1.118c0.86,0.811 0.851,0.448 2.338,0.585Zm-399.909,-499.425c-9.355,0.216 -9.34,-0.04 -10.1,0.234c-8.886,3.194 -28.233,3.182 -31.043,4.026c-1.179,0.354 -12.538,3.766 -14.914,3.811c-20.478,0.396 -19.986,3.15 -40.13,7.188c-2.634,0.528 -44.104,12.53 -61.759,21.738c-24.754,12.909 -65.882,29.068 -67.637,36.55c-0.023,0.098 44.8,87.504 50.395,91.2c1.708,1.128 15.44,-8.356 15.586,-8.489c6.954,-6.302 61.814,-30.844 64.534,-31.189c14.331,-1.821 48.284,-17.561 115.132,-19.04c3.084,-0.068 3.862,-31.1 4.996,-42.408c2.043,-20.37 2.807,-20.259 2.89,-22.035c0.921,-19.708 3.287,-31.739 2.124,-38.033c-1.061,-5.74 -3.662,-3.433 -30.075,-3.552Zm-59.342,78.703c-1.997,3.671 -2.021,-0.49 -1.575,-0.759c0.12,-0.072 0,-0 1.575,0.759Zm-47.539,-1.825c-1.354,6.865 -4.655,-2.61 -6.193,-1.215c-1.011,0.917 4.122,22.509 -12.99,27.251c-4.72,1.308 -4.84,3.136 -9.032,0.684c-0.525,-0.307 -11.256,-0.704 -14.607,-9.117c-2.471,-6.206 -3.78,-5.321 -7.051,-11.068c-3.375,-5.93 0.096,-6.565 14.7,-18.685c1.59,-1.32 1.872,-0.787 21.017,-15.018c2.907,-2.161 12.547,-6.533 16.259,-10.849c6.302,-7.327 26.912,11.465 17.683,10.893c-1.467,-0.091 -9.251,-8.444 -11.993,-7.133c-17.17,8.211 -16.32,9.434 -31.865,20.243c-4.613,3.208 6.536,1.276 12.775,2.968c10.177,2.761 18.072,-8.157 25.081,-7.84c1.699,0.077 1.31,-2.696 21.051,-2.984c8.636,-0.126 31.235,-29.457 37.613,-23.971c0.944,0.812 16.558,14.244 7.395,13.704c-4.711,-0.277 -5.749,-15.319 -17.539,-3.678c-12.249,12.094 -16.566,9.691 -18.45,23.561c-3.083,22.699 -7.922,24.476 -9.959,25.225c-5.326,1.957 -4.518,3.857 -10.071,4.215c-0.08,0.005 -11.951,2.977 -12.595,-2.481c-0.494,-4.189 -4.143,-1.835 -6.537,-7.912c-1.695,-4.302 -0.036,-6.129 -4.692,-6.791Zm-17.24,2.154c-2.102,0.055 -27.994,0.727 -24.533,9.436c8.142,20.485 32.702,9.29 30.671,-5.846c-0.558,-4.159 -1.93,-3.331 -6.138,-3.59Zm47.773,-16.823c-0.291,-0.327 0.264,-0.985 -0.027,-1.312c-1.942,-2.179 -17.793,2.352 -19.265,4.05c-3.097,3.573 9.668,-2.077 19.293,-2.738Zm-56.763,11.842c5.556,-1.368 5.389,-1.499 10.975,-1.803c8.239,-0.449 -2.658,-4.846 -15.95,0.43c-3.929,1.559 0.857,1.134 4.976,1.373Zm54.034,-7.023c-0.6,0.03 -5.976,-0.671 -16.828,4.962c-4.806,2.495 -1.832,3.817 0.383,8.852c8.803,20.013 27.282,6.257 26.525,-9.224c-0.335,-6.855 -3.216,-4.823 -10.08,-4.59Zm-145.033,819.027c-0.906,-1.451 -1.484,-1.314 -0.809,-2.444c0.94,-1.571 5.085,1.909 0.809,2.444Zm731.887,-111.639c1.597,-0.766 1.464,-0.816 1.597,-0.766c0.975,0.363 -0.63,4.145 -1.597,0.766Zm-978.624,-303.178c-0.083,3.65 -2.583,0.375 -1.758,-0.38c0.106,-0.097 -0,-0 1.758,0.38Z"/>
    <path id="Inner" d="M172.06,505.935c0.201,-19.439 1.467,-21.852 1.944,-43.392c0.194,-1.777 0.402,-3.55 0.623,-5.319c0.563,-1.171 1.344,-1.818 1.385,-4.26c0.069,-4.056 0.331,-7.279 0.711,-9.998c0.223,-1.321 0.454,-2.639 0.692,-3.955c1.445,-6.817 3.579,-10.671 4.353,-20.382c9.486,-38.516 25.593,-74.438 47.041,-106.49c2.161,-2.887 4.106,-5.167 5.693,-6.572c1.028,-0.909 0.727,-1.032 10.122,-13.857c1.023,-1.396 7.786,-8.493 8.6,-9.457l4.004,-4.004c4.465,-4.662 4.136,-4.735 8.294,-9.726c0.438,-0.526 0.998,0.188 6.721,-5.289l2.002,-2.002c6.651,-5.621 5.528,-6.948 13.309,-10.929c2.421,-1.239 1.036,-2.873 26.176,-21.696c3.091,-2.314 17.381,-13.013 40.285,-26.583c2.855,-1.692 71.103,-30.755 94.944,-31.97c16.177,-0.825 15.906,-2.689 32.033,-3.042c5.417,-0.118 66.587,-8.347 132.147,17.572c46.317,18.312 47.423,16 63.1,27c9.266,6.502 19.714,10.281 33.411,22.68c8.892,8.05 10.365,6.241 33.581,29.484c50.956,51.018 49.796,67.338 57.059,75.07c1.972,2.099 18.222,31.151 21.408,43.929c0.886,3.552 17.639,44.419 18.285,74.217c0.004,0.205 3.762,5.62 2.961,60.018c-0.054,3.635 -3.739,29.4 -4.104,31.951c-7.858,54.932 -38.819,114.911 -53.101,130.696c-4.661,5.151 -2.78,6.372 -8.01,12.01c-0.304,0.328 -17.296,25.93 -45.764,54.368c-2.457,2.455 -8.312,8.303 -33.694,27.382c-30.188,22.691 -70.612,37.938 -94.145,46.988c-2.878,1.107 -24.291,5.454 -31.028,8.014c-12.985,4.935 -22.658,0.214 -33.956,3.334c-7.37,2.035 -70.633,0.794 -90.159,-4.616c-4.925,-1.365 -5.029,0.196 -9.95,-1.278c-4.576,-1.371 -46.896,-10.581 -81.024,-30.866c-41.778,-24.832 -42.052,-24.236 -47.669,-29.254c-3.746,-3.346 -4.256,-2.472 -8.009,-6.006c-6.297,-5.931 -8.82,-2.518 -17.564,-12.469c-10.436,-11.877 -16.057,-9.087 -45.163,-47.971c-3.87,-5.17 -24.367,-32.554 -39.975,-70.123c-8.715,-20.979 -8.815,-20.808 -14.349,-42.953c-4.616,-18.471 -8.796,-23.453 -9.269,-42.183c-0.089,-3.513 -1.197,-5.036 -2.221,-9.547c-0.969,-9.4 -1.552,-18.915 -1.732,-28.527Zm135.734,-257.26c-8.096,-3.911 -8.027,2.951 -11.092,4.946c-16.01,10.421 -34.231,29.335 -36.949,32.157c-10.4,10.796 -10.67,10.49 -11.514,11.48c-0.968,1.135 -11.437,13.406 -11.881,14.376c-2.987,6.537 -3.315,6.151 -8.137,11.646c-5.083,5.791 4.767,8.699 5.847,10.42c3.545,5.648 -2.09,0.284 -8.282,-2.09c-5.236,-2.007 -26.994,40.121 -36.615,75.397c-11.14,40.844 -13.097,104.54 -9.017,124.915c0.287,1.433 0.181,1.27 3.006,18.016c2.278,13.504 4.799,23.795 6.005,31.026c2.069,12.397 25.224,61.23 27.989,69.039c1.11,3.134 16.493,28.52 18.441,31.253c1.627,2.282 18.362,25.754 21.184,27.904c6.856,5.225 5.341,6.541 11.686,12.385l2.244,-2.075c2.557,0.397 0.315,1.277 -1.441,3.004c2.891,3.23 3.208,2.726 5.945,6.252c1.592,2.052 4.406,-3.285 4.824,0.407c0.554,4.891 1.019,4.684 4.726,8.102c24.385,22.484 24.462,22.323 53.224,38.72c4.431,2.526 4.219,-1.195 30.697,-43.088c2.865,-4.457 4.486,-10.214 6.382,-12.48c6.171,-7.375 14.446,-24.427 16.831,-24.427c3.816,-0 -3.364,9.591 -3.891,10.296c-9.419,12.583 -10.889,19.122 -16.602,26.53c-1.531,3.539 -2.013,4.653 -24.115,41.733c-5.079,8.522 2.158,8.279 11.326,13.209c1.486,0.799 12.273,6.599 18.276,10.518c11.839,7.728 12.26,-12.495 16.915,-17.434l0.121,-0.461l1.112,-2.133c0.052,-5.948 18.36,-49.709 18.194,-38.062c-0.064,4.516 -14.891,36.28 -16.372,39.068c-1.352,1.993 -1.25,1.829 -1.352,1.993c-0.314,0.503 -0.049,0.514 -0.353,1.002c-0.52,6.419 -1.418,6.096 -4.58,13.921c-4.186,10.362 4.03,7.951 7.08,9.609c31.095,16.9 50.714,15.688 53.329,16.362c2.102,0.542 10.865,2.802 26.981,2.85c21.38,0.064 21.347,4.235 29.937,1.883c5.982,-1.637 12.34,-0.736 12.964,-1.012c2.149,-0.951 -0.886,-41.906 -0.06,-64.657c1.241,-34.157 4.923,63.157 4.971,63.262c1.393,3.027 51.886,-1.813 65.409,-9.955c3.076,-1.852 4.385,2.58 17.97,-5.073c8.563,-0.203 60.455,-21.237 88.812,-44.47c3.569,-2.924 -2.164,-8.066 2.242,-6.929c4.83,1.245 6.143,2.282 26.018,-15.786l5.005,-5.005l0.523,-0.457c5.327,-6.221 7.145,-7.668 1.394,-13.519c-0.727,-0.739 -8.865,-9.018 -8.458,-9.814c0.603,-1.178 1.683,-1.321 12.638,10.672c1.184,1.296 4.161,4.167 17.047,-13.815c5.217,-7.279 17.476,-14.878 30.348,-40.901c2.551,-5.157 12.424,-15.681 13.961,-22.122c0.294,-1.233 3.385,-14.191 4.56,-15.18c6.866,-5.777 5.836,-6.49 8.835,-15.044c18.102,-51.639 14.426,-52.581 16.034,-57.04c8.401,-23.29 2.134,-27.462 4.153,-31.011c2.842,-4.996 1.509,-11.87 1.856,-13.032c4.272,-14.311 0.959,-34.407 1.155,-35.988c1.918,-15.46 -2.873,-14.691 -2.61,-15.958c1.243,-6.005 1.653,-5.964 0.442,-12.021c-2.166,-10.84 -8.807,-4.628 -16.905,-5.782c-9.912,-1.414 14.329,-3.795 14.452,-4.061c4.406,-9.572 -47.337,5.579 -51.395,5.841c-26.178,1.693 -112.142,21.003 -116.139,20.021c-8.291,-2.038 2.766,-2.468 54.026,-13.235c50.615,-10.632 50.746,-9.728 55.064,-10.967c14.934,-4.288 30.02,-3.907 33.018,-5.043c15.207,-5.763 25.082,0.342 22.873,-10.797c-3.694,-18.625 -6.044,-29.038 -12.965,-25.326c-4.671,2.505 -11.323,2.077 -20.879,5.22c-20.113,6.615 -20.495,4.392 -38.061,9.004c-2.756,1.155 -2.719,1.243 -2.977,1.248c-0.31,0.005 -3.749,-2.183 2.03,-3.305c2.44,-0.255 2.44,-0.193 2.635,-0.276c22.003,-9.391 55.107,-11.66 60.053,-16.965c2.621,-2.811 -14.764,-42.094 -24.981,-61.572c-0.832,-1.587 -3.536,-3.711 -5.565,-7.253c-11.217,-19.587 -13.089,-18.289 -13.982,-20.027c-2.015,-3.924 -2.86,-3.176 -5.035,-7.001c-12.791,-22.497 -20.978,-25.608 -26.922,-32.166c-6.22,-6.864 -6.728,-6.183 -7.236,-6.792c-13.054,-15.631 -14.953,-13.406 -24.571,-22.478c-16.048,-15.137 -88.173,-46.807 -89.352,-44.375c-0.133,0.275 -7.182,14.83 -3.401,1.733c1.159,-4.014 0.499,-6.347 -29.932,-15.472c-0.671,-0.201 -25.649,-3.1 -28.87,-4.601c-10.715,-4.993 -33.06,-4.108 -35.135,-4.69c-12.128,-3.399 -62.085,1.835 -72.97,4.014c-22.329,4.469 -21.022,8.796 -22.941,8.423c-12.803,-2.493 -12.237,2.297 -25.046,4.864c-13.837,2.774 -34.863,14.387 -35.723,15.744c-1.774,2.8 -0.101,2.91 6.218,14.988c5.026,9.607 4.002,9.96 8.85,19.606c20.179,40.156 20.538,39.899 22.252,43.404c10.906,22.301 12.052,21.752 12.5,23.86c2.374,11.184 -13.635,-19.508 -22.65,-35.688c-9.739,-17.481 -30.543,-58.932 -32.671,-61.311c-3.849,-4.302 -43.064,25.236 -44.424,26.499c-5.004,4.649 -10.676,4.684 -7.635,10.464c0.136,0.151 5.014,5.564 0.217,2.537c-0.133,-0.084 -0,-0 -1.142,-1.6Zm178.907,530.423c0.472,1.135 1.726,1.64 4.319,1.171c0.015,-1.993 0.167,-22.473 1.259,-24.883c3.71,-8.193 -0.274,-53.974 1.657,-55.277c3.111,-2.1 1.959,17.534 1.869,19.063l-0.001,1.102c0.436,2.702 0.467,2.682 0.47,2.918c0.379,26.138 -1.806,25.97 -2.197,52.069c-0.044,2.958 -0.545,36.454 -1.16,36.967c-1.786,1.489 -3.214,-0.602 -1.742,-29.01l-2.167,0.153c-1.838,0.173 -2.557,0.637 -3.091,1.966l0.083,-1.335l0.7,-4.902Zm66.054,15.875c0.76,-1.021 1.342,-0.345 1.888,1.235c-0.096,0.057 -1.484,0.88 -2.201,0.853l0.313,-2.088Zm-141.079,-404.306c-1.232,-0.019 -1.572,0.562 -1.983,-0.678c-0.518,-1.564 2.612,-2.205 1.983,0.678Zm0,0c1.716,1.958 1.911,1.897 1.854,2.114c-0.058,0.217 -2.779,2.442 -1.854,-2.114Zm193.223,340.443c-1.588,-3.246 -2.347,-2.641 -2.364,-2.943c-0.018,-0.329 1.376,-2.677 3.514,2.139c2.84,3.109 -0.574,5.058 -1.176,3.001c-0.049,-0.169 0,0 0.025,-2.197Zm88.584,-420.043c-4.164,1.805 -1.14,-2.035 -1.083,-2.003c0.664,0.368 0.419,1.635 1.083,2.003Zm-92.853,466.838c0.232,-1.118 0.412,-1.15 1.473,-0.665c0.028,0.137 1.69,4.909 0.929,5.991c-2.204,3.133 -2.391,-4.859 -2.402,-5.326Zm-54.794,-533.257c-4.702,2.655 -1.411,-1.93 -0.806,-1.896c1.378,0.077 0.714,0.567 0.806,1.896Zm99.257,212.364c-0.695,-0.908 -1.319,-0.8 -0.637,-1.825c0.783,-1.177 4.157,1.31 0.637,1.825Zm-113.521,347.1c1.122,-5.793 2.136,0.365 2.189,0.553c1.72,0.817 6.928,-0.764 4.023,7.539c-0.27,0.77 -4.372,3.593 -6.211,-8.092Zm277.718,-311.831c-0.514,-0.002 -13.88,-0.052 -5.999,-2.29c1.415,-0.402 11.162,-0.33 12.037,-0.098c7.612,2.02 -5.519,2.373 -6.038,2.387Zm-233.468,-279.465c0.497,2.449 0.045,2.339 -0.479,4.881c-1.269,6.153 0.446,8.882 -3.838,7.958c0.686,-8.079 1.935,-7.812 2.391,-14.119l1.282,-1.81c0.675,-3.863 -0.852,-6.899 2.465,-5.004l-0.474,6.079c-0.885,0.919 -0.825,0.836 -0.885,0.919c-0.375,0.523 -0.075,0.556 -0.462,1.095Zm-67.323,552.405c-0.363,7.413 0.367,28.99 -3.578,26.131c-0.952,-0.69 1.444,-25.29 1.205,-26.172c-0.032,-0.406 -0.566,-7.131 1.723,-4.796c0.273,0.279 0.307,0.313 0.649,4.837Zm33.221,-511.473c1.108,-24.635 4.081,10.105 -0.769,11.87c-0.894,0.325 -1.851,-0.478 0.769,-11.87Zm122.107,493.47c-0.981,-2.072 -1.68,-1.604 -15.412,-24.158c-1.353,-2.222 -1.88,-1.815 -18.053,-27.041c-7.596,-11.848 -6.979,-12.129 -15.977,-23.042c-1.327,-1.61 -0.121,-4.581 2.363,-1.517c2.179,2.688 7.138,8.805 24.773,35.446c11.654,17.606 21.932,35.701 23.731,38.869c8.89,8.345 6.775,10.2 5.839,10.16c-1.258,-0.054 -5.29,-3.579 -7.263,-8.718Zm-401.217,-347.14c4.949,3.01 36.586,16.264 24.174,14.783c-4.468,-0.533 -82.111,-35.189 -57.011,-28.159c8.219,2.302 27.167,11.181 32.837,13.376Zm311.428,-67.315c-1.086,1.781 -0.937,1.704 -1.086,1.781c-0.199,0.103 -3.193,-0.419 0.456,-2.764l-0.026,-1c1.135,-7.987 2.898,-7.292 5.883,-14.88c0.352,-0.895 3.843,-9.77 4.975,-10.949c7.281,-7.586 -8.896,25.694 -9.176,26.877l-1.026,0.935Zm-282.268,-8.128l-1.635,-0.283c-7.784,-6.743 2.357,-0.614 2.527,-0.496c1.818,1.113 1.731,0.966 1.818,1.113c0.111,0.188 -0.347,3.327 -2.71,-0.334Zm60.099,118.037l-0.955,-1.699c0.62,-0.942 4.409,0.078 0.955,1.699Zm445.299,-70.216c-4.922,-0.203 -0.308,-3.127 0.727,-2.201c0.883,0.789 0.206,0.808 -0.727,2.201Zm-484.287,235.3c3.299,3.777 -1.828,2.306 -1.884,1.322c-0.075,-1.307 0.439,-0.826 1.884,-1.322Zm382.16,43.34c0.973,-0.875 0.908,-1.599 1.928,-0.734c0.806,0.684 -0.631,4.748 -1.928,0.734Zm-426.23,-268.263c-0.056,5.202 -2.135,0.359 -1.961,0.083c0.084,-0.133 0,0 1.961,-0.083Zm376.296,50.841c-3.639,-1.845 0.405,-2.557 0.969,-1.72c0.088,0.131 0,-0 -0.969,1.72Zm-35.012,374.365c-0.566,-1.463 -1.229,-1.79 -0.126,-1.972c1.656,-0.274 0.933,0.627 0.126,1.972Zm25.986,-385.17c1.979,0.121 2.971,0.322 1.78,1.828c-0.127,0.16 -3.329,2.936 -1.78,-1.828Zm-27.062,279.331c0.865,-1.303 0.995,-2.232 2.071,-1.012c0.203,0.231 0.922,5.726 -2.071,1.012Zm-51.094,-335.412c-0.227,-0.757 -1.898,-0.294 -2.125,-1.051c-0.049,-0.162 3.887,-4.905 2.125,1.051Zm85.241,55.184c-4.293,1.217 -1.188,-4.517 0.762,-2.733c0.93,0.851 -0.61,2.564 -0.762,2.733Zm60.028,-92.155c-0.293,-3.187 0.736,-2.792 0.951,-2.71c2.354,0.905 2.031,6.436 -0.951,2.71Zm-382.603,328.103c0.396,-0.329 4.567,-3.794 5.941,-2.486c1.534,1.46 -1.646,4.211 -1.94,4.465c-1.499,1.297 -16.531,14.299 -19.043,15.844c-16.899,10.387 13.644,-16.588 15.042,-17.823Zm275.748,-406.131c1.644,-0.86 1.518,-0.94 1.644,-0.86c1.029,0.654 -0.271,4.095 -1.644,0.86Zm91.802,337.539c2.068,3.742 -1.01,2.011 -1.125,1.879c-0.991,-1.14 -0.319,-1.206 1.125,-1.879Zm-431.361,-260.688c-0.854,-0.76 -1.434,-0.664 -0.806,-1.672c0.366,-0.588 4.621,-0.149 0.806,1.672Zm194.751,-122.841c0.047,-3.211 -4.83,-30.192 0.02,-20.975c0.488,0.928 -1.852,1.222 2.251,12.918c1.35,3.85 0.662,3.826 -0.019,7.879c-0.024,0.746 -0.986,30.328 -2.412,9.019c-0.047,-0.706 0.012,-0.655 0.16,-8.841Zm268.824,503.371c0.701,-1.35 0.58,-1.336 0.701,-1.35c1.959,-0.213 0.518,2.814 -0.701,1.35Zm-423.534,-290.507c-0.894,-1.675 -0.977,-1.548 -0.894,-1.675c0.62,-0.939 4.219,0.174 0.894,1.675Zm388.326,-115.02c-4.17,-2.306 0.583,-2.109 0.86,-1.726c0.746,1.032 0.125,0.934 -0.86,1.726Zm-388.509,407.567c-3.011,5.967 -1.8,-0.962 -1.799,-0.963c1.075,-0.905 1.063,-0.213 1.799,0.963Zm273.003,-475.458c-0.01,0.202 -2.6,10.406 -2.315,1.001c0.055,-1.822 0.635,-1.976 2.315,-1.001Zm-125.963,-37.065c-0.671,5.599 -3.697,-1.737 -1.556,-2.578c1.127,-0.443 0.78,0.253 1.556,2.578Zm327.579,236.991c-0.216,-0.028 -3.104,-0.4 -2.047,-1.785c0.643,-0.842 9.27,-0.575 2.047,1.785Zm-134.918,-110.833c0.785,-1.011 0.698,-1.516 1.697,-0.898c0.731,0.452 0.127,4.614 -1.697,0.898Zm-34.997,-0.848c0.317,1.295 1.259,0.457 1.556,1.671c0.024,0.099 0.087,0.353 -0.936,0.862c-2.79,1.388 -0.722,-2.35 -0.621,-2.533Zm-312.588,115.672c-4.798,-2.332 0.718,-2.287 1.084,-1.785c0.856,1.173 0.169,1.095 -1.084,1.785Zm491.53,21.003c-1.315,-0.684 -1.968,-0.607 -1.121,-1.797c0.357,-0.501 6.032,-0.658 1.121,1.797Zm14.011,100.651c1.387,0.698 2.088,0.365 1.633,1.565c-0.488,1.285 -5.402,0.704 -1.633,-1.565Zm-432.634,206.941c-2.928,5.668 -1.925,-0.962 -1.826,-1.034c1.232,-0.893 1.078,-0.102 1.826,1.034Zm-92.885,-442.097c-6.124,-2.38 -10.395,-9.152 -6.011,-7.392c0.746,0.299 3.546,1.423 8.06,5.993c0.549,0.421 0.503,0.322 7.077,4.964c0.588,0.59 36.335,25.114 23.825,21.28c-0.793,-0.243 -22.892,-17.853 -24.951,-18.896c-4.824,-1.529 -3.759,-3.034 -8,-5.949Zm35.867,376.995c-1.187,1.442 -2.613,-1.409 -0.751,-1.235c0.115,0.011 0,-0 0.751,1.235Zm-6.01,-397.336c-2.147,3.865 -2.155,-0.52 -1.7,-0.839c1.033,-0.722 0.919,-0.098 1.7,0.839Zm-65.063,291.143c-0.048,2.926 -2.249,2.326 -2.003,1.042c0.034,-0.177 -0,0 2.003,-1.042Zm548.656,61.38c0.074,0.162 1.924,4.225 -1.098,1.939c-1.349,-1.02 -0.245,-1.138 1.098,-1.939Zm5.083,2.747c-1.26,1.315 -1.626,2.92 -2.203,1.169c-0.606,-1.837 0.359,-1.765 2.203,-1.169Zm-536.53,-313.453l-0.725,-1.602c0.459,-0.756 3.901,0.121 0.725,1.602Zm112.846,87.215c-4.605,2.008 -0.888,-1.486 -0.86,-1.482c0.136,0.019 0,0 0.86,1.482Zm-38.01,4.01c-3.274,1.375 -2.044,-0.913 -1.944,-1.058c0.962,-1.393 1.14,-0.319 1.944,1.058Zm-19.006,-8.004c-3.245,1.345 -2.04,-0.902 -1.939,-1.047c0.917,-1.322 1.132,-0.321 1.939,1.047Zm289.713,336.369c0.028,-0.214 0.397,-3.087 1.786,-2.022c1.137,0.872 -0.026,7.001 -1.786,2.022Zm203.944,-310.558c-6.076,-0.752 -0.192,-2.353 -0.006,-2.334c3.731,0.384 0.171,2.247 0.006,2.334Zm-478.447,29.635c-4.154,-1.657 0.373,-3.193 1.506,-1.903c1.147,1.305 0.181,1.298 -1.506,1.903Zm90.063,303.946c-2.946,4.096 -2.752,-2.291 -1.026,-2.39c1.711,-0.098 1.053,0.669 1.026,2.39Zm26.924,-400.28c0.736,3.75 -2.229,2.107 -2.104,0.873c0.154,-1.511 0.689,-0.918 2.104,-0.873Zm321.557,183.974c-2.335,-1.442 -11.86,-3.391 -5.129,-3.919c2.015,-0.158 4.728,1.493 6.003,1.992c0.219,0.045 2.406,0.495 2.53,1.182c0.303,1.683 -3.133,0.813 -3.403,0.745Zm-109.396,-245.356c-0.227,0.164 -6.872,4.974 -3.479,0.394c0.358,-0.484 2.439,-2.425 2.547,-2.443c1.68,-0.27 1.134,0.506 0.933,2.048Zm-209.287,458.677c-2.416,7.224 -2.605,-1.446 -1.792,-2.063c1.398,-1.059 1.764,1.846 1.792,2.063Zm-56.643,-452.666c-0.179,-1.536 -0.634,-2.285 0.942,-2.049c0.104,0.016 2.187,1.968 2.536,2.44c3.343,4.518 -3.251,-0.227 -3.479,-0.39Zm-4.002,-6.006c-0.2,-1.556 -0.728,-2.32 0.935,-2.048c0.415,0.068 4.552,5.9 -0.935,2.048Zm-59.458,356.383c-1.91,0.239 -2.812,-0.246 -1.564,-1.563c0.199,-0.211 2.377,-2.51 3.208,-1.689c0.791,0.782 0.138,0.829 -1.643,3.252Zm29.421,-425.438c-0.026,-0.279 0.312,-3.726 3.479,0.409c0.17,0.222 -0.2,2.876 -3.479,-0.409Zm329.866,325.925c0.155,0.121 6.692,6.649 -0.603,2.387c-0.231,-0.135 -4.695,-3.648 0.603,-2.387Zm39.144,137.977c0.021,0.179 0.396,3.412 -2.069,0.903c-5.679,-5.782 1.94,-1.029 2.069,-0.903Zm-334.047,-53.25c-1.271,1.559 -12.511,19.943 -9.134,9.961c2.373,-7.015 22.256,-36.355 10.588,-13.164c-0.527,1.048 -0.928,2.156 -1.455,3.203Zm-133.221,-81.243c5.976,-1.823 7.528,-1.027 9.132,-1.208c6.58,-0.742 -6.918,6.557 -23.137,9.477c-6.474,1.166 -0.572,-4.387 14.005,-8.27Zm457.222,148.492c-2.262,-2.57 -17.128,-19.458 -27.263,-32.981c-14.078,-18.783 -37.138,-41.97 -37.019,-44.408c0.222,-4.54 8.639,5.628 9.209,6.316c10.752,12.988 22.947,25.856 25.015,28.037c18.444,19.461 16.091,21.287 34.032,41.036c0.239,0.263 2.878,8.343 -3.974,1.999Zm-494.253,-240.449c13.585,-0 66.974,-1.054 50.947,3.75c-4.134,1.239 -4.242,0.468 -53.95,0.252c-1.451,-0.006 -14.224,-0.062 -18.023,-2.009c-5.78,-2.962 17.95,-2.005 21.026,-1.994Zm420.606,-141.191c-0.827,3.244 -56.237,66.577 -54.337,56.081c0.129,-0.713 6.954,-9.241 7.403,-9.533c13.265,-8.628 10.678,-11.254 21.952,-22.227c3.398,-3.307 2.823,-3.674 6.029,-7.015c16.558,-17.258 16.597,-17.107 17.617,-18.605c0.29,-0.412 1.783,-2.533 4.266,-4.628c4.217,-6.56 40.052,-45.463 39.092,-39.046c-0.118,0.79 -0.711,0.245 -7.036,7.076c-1.352,1.46 -1.092,1.654 -16.354,18.743c-10.883,12.186 -13.475,14.09 -14.839,15.092l-3.793,4.063Zm39.844,94.254c-21.844,3.648 -30.177,8.271 -24.791,3.118c2.817,-2.696 95.638,-21.738 54.877,-10.784c-15.106,4.06 -15.119,3.346 -30.086,7.666Zm-406.282,-103.346c-3.887,-2.702 -2.728,-3.339 -2.632,-3.444c1.238,-1.356 7.21,3.54 7.476,4.579c0.771,3.003 -4.524,-0.899 -4.845,-1.135Zm-16.94,92.922c-4.45,-2.471 -6.362,-2.385 -5.227,-3.746c2.044,-2.452 14.725,6.41 5.227,3.746Zm543.334,189.764c4.172,1.98 -0.469,2.928 -1.995,1.71c-1.737,-1.388 1.785,-1.692 1.995,-1.71Zm-239.465,-261.405c0.228,2.125 0.929,2.463 -0.884,3.618c-0.592,0.377 -4.161,-4.217 0.884,-3.618Zm40.402,-36.091c1.823,-2.976 2.344,-2.732 2.612,-2.606c2.434,1.143 -3.884,9.085 -2.612,2.606Zm-191.545,346.23c-0.217,0.272 -10.323,12.93 -3.909,1.897c2.636,-4.534 3.758,-2.21 3.909,-1.897Zm267.414,-347.684c-5.395,-1.835 3.261,-5.223 2.921,-2.664c-0.106,0.797 -0.331,0.631 -2.921,2.664Zm105.895,316.613c0.107,-0.21 1.25,-2.457 2.264,-1.875c2.181,1.251 -2.087,6.842 -2.264,1.875Zm-167.167,103.081c-6.529,-11.203 -2.534,-12.405 -1.777,-11.821c0.952,0.734 1.067,1.719 1.087,1.892c0.494,4.222 1.023,3.963 2.049,7.941c17.434,35.662 17.095,38.811 13.871,38.325c-0.953,-0.144 -3.306,-9.853 -9.13,-21.136c-0.601,-1.164 -4.77,-9.24 -6.1,-15.201Zm-160.92,-504.12c-0.988,-1.1 -1.464,-0.94 -0.974,-2.303c0.073,-0.202 2.502,-2.497 1.885,1.91c4.179,5.149 1.942,6.703 2.587,11.091c1.873,12.747 2.048,12.732 1.83,14.096c-2.289,14.304 -2.392,-6.933 -5.328,-24.793Zm-12.278,551.832c-0.615,1.422 -1.728,5.156 -1.845,5.272c-4.725,4.668 0.019,-5.454 0.219,-5.88c-0.742,-6.553 2.178,-4.861 2.449,-4.549c0.934,1.075 -0.658,4.774 -0.823,5.157Zm351.661,-271.847c-6.143,-0.708 -5.1,-2.541 -4.842,-2.912c1.251,-1.8 4.407,-0.994 4.784,-0.897c18.124,4.63 25.121,2.514 33.039,4.937c16.486,5.046 -14.87,0.951 -32.981,-1.128Zm-92.081,69.308c2.009,0.629 3.538,-0.261 2.679,1.592c-0.681,1.47 -8.985,0.519 -2.679,-1.592Zm-74.183,-189.591c-6.364,1.152 -0.309,-3.762 1.042,-2.734c1.399,1.064 0.167,1.168 -1.042,2.734Zm-317.1,291.61c3.228,-0.713 2.725,0.558 2.644,0.763c-0.52,1.315 -6.235,4.176 -2.644,-0.763Zm75.426,-402.383c0.68,-0.14 2.678,-0.552 6.217,6.06c14.627,27.332 15.694,26.683 16.923,29.078c12.679,24.707 13.998,23.792 15.091,25.928c9.704,18.95 15.221,25.374 16.58,30.913c-3.913,3.138 -14.954,-24.136 -24.892,-37.311c-5.831,-7.729 -29.588,-52.499 -29.918,-54.669Zm242.948,91.092c0.144,-0.113 9.617,-8.146 10.921,-8.979c11.056,-7.068 -12.913,14.88 -13.087,14.894c-4.016,0.314 1.812,-5.557 2.167,-5.915Zm-381.415,168.006c-3.854,4.559 -6.628,1.646 -26.285,6.632c-30.352,7.699 19.911,-13.653 26.285,-6.632Zm176.758,-313.971c-9.17,-19.135 -7.242,-43.36 -3.749,-26.365c2.992,14.553 2.206,14.686 4.982,22.028c1.48,3.913 -0.536,8.458 -1.233,4.337Zm198.434,22.546l1.004,2.123c-0.671,1.248 -10.244,20.761 -10.476,21.292c-10.177,23.356 -1.379,-13.156 9.472,-23.415Zm176.219,238.649c-0.523,-0.005 -35.196,-2.471 -6.012,-2.558c0.523,-0.002 35.002,1.37 6.012,2.558Zm-477.245,-243.722c1.923,2.892 5.432,12.26 0.983,7.918c-1.039,-1.014 -11.077,-16.088 -0.983,-7.918Zm-81.862,79.423l1.586,-0.319c4.834,2.441 4.895,2.215 5.864,3.267c10.964,11.905 -7.346,0.097 -7.45,-2.948Zm463.014,138.702c-0.588,-0.044 -21.662,-1.621 -6.991,-2.344c0.589,-0.029 35.057,-1.727 6.991,2.344Zm-86.417,-229.438c-1.455,-2.553 -1.342,-2.692 0.115,-6.576c1.817,-4.843 1.647,-5.196 3.257,-5.607c0.98,-0.25 2.581,0.871 -3.372,12.183Zm-261.821,464.006c-5.444,6.23 -2.82,-1.576 -2.683,-1.795c0.356,-0.572 4.517,-7.258 6.575,-5.256c0.628,0.61 0.248,0.814 -3.892,7.051Zm-84.424,-405.21c-2.101,-2.233 -2.196,-2.157 -2.269,-2.412c-0.15,-0.523 1.353,-4.604 6.42,2.233c6.905,9.319 -3.895,0.39 -4.151,0.179Zm-60.813,147c0.312,0.086 5.698,1.566 2.914,2.8c-0.716,0.317 -2.642,1.171 -9.782,-0.284c-5.995,-1.222 6.558,-2.427 6.868,-2.515Zm408.554,-242.079c-1.075,4.156 -1.904,4.014 -2.263,3.953c-0.426,-0.073 -2.712,-0.678 1.366,-5.231c0.06,-2.191 -1.072,-2.678 0.845,-3.615c0.352,-0.172 3.018,-0.105 0.052,4.893Zm-241.236,231.726c-2.244,-2.23 -5.347,-3.195 -2.175,-3.787c1.184,-0.221 6.366,3.042 7.762,4.257c0.865,0.753 -0.35,2.801 -5.587,-0.47Zm-73.232,174.408c-2.998,-1.919 0.576,-3.795 1.55,-1.814c0.623,1.266 -0.169,0.963 -1.55,1.814Zm34.404,-313.497c0.948,4.667 -3.283,0.643 -2.254,-0.73c0.944,-1.261 1.063,-0.276 2.254,0.73Zm436.034,274.051c-0.236,-0.043 -10.624,-1.917 -1.931,-2.296c2.274,-0.099 3.08,0.336 1.931,2.296Zm-503.457,-123.968c-0.167,-0.084 -3.997,-2.02 0.006,-2.334c0.186,-0.015 6.063,1.532 -0.006,2.334Zm522.482,106.643c5.09,2.631 -1.486,2.574 -2.064,1.78c-1.014,-1.394 1.848,-1.753 2.064,-1.78Zm-192.932,-343.598c0.731,-1.976 2.118,-2.17 2.32,0.01c0.017,0.185 -1.577,6.137 -2.32,-0.01Zm83.855,90.082c2.054,-0.045 1.96,-0.18 2.054,-0.045c0.28,0.405 -1.471,4.792 -2.054,0.045Zm-345.71,380.335c-3.285,2.322 -2.361,-0.499 -2.252,-0.651c1.027,-1.427 1.485,-0.833 2.252,0.651Zm262.462,-299.119c0.185,-1.517 -0.495,-2.367 1.117,-2.033c0.182,0.038 3.021,1.624 -1.117,2.033Zm7.815,33.575c-5.065,1.027 -0.947,-2.02 -0.589,-1.985c1.396,0.139 0.704,0.641 0.589,1.985Zm1.396,-43.338c-2.937,-3.053 0.504,-2.162 0.627,-2.044c0.965,0.92 0.225,0.946 -0.627,2.044Zm23.616,24.316c-5.004,0.942 -0.903,-1.987 -0.576,-1.949c1.319,0.151 0.674,0.619 0.576,1.949Zm-312.537,287.7c-3.706,2.433 -2.344,-0.824 -2.237,-0.988c0.893,-1.376 1.039,-0.191 2.237,0.988Zm417.829,-37.064c1.269,-1.577 1.107,-1.587 1.269,-1.577c0.706,0.046 2.368,4.214 -1.269,1.577Zm-130.966,136.343c2.268,3.36 -0.917,1.856 -1.006,1.724c-0.75,-1.106 -0.185,-1.006 1.006,-1.724Zm2.734,4.945c-0.023,3.313 -2.781,0.604 -1.766,-0.278c0.108,-0.094 0,0 1.766,0.278Zm-278.657,-192.246c-0.926,2.741 -2.98,2.766 -2.598,0.701c0.2,-1.086 0.598,-0.518 2.598,-0.701Zm37.785,160.031c-0.192,0.258 -4.844,6.497 -3.901,0.981c0.538,-3.149 5.923,-6.885 3.901,-0.981Zm48.969,19.98c-2.595,7.006 -3.257,-0.754 -2.589,-1.722c4.513,-6.544 2.646,1.48 2.589,1.722Zm-66.071,-303.584c-0.352,-0.061 -8.02,-1.389 -3.864,-2.249c0.276,-0.057 7.214,-0.413 7.877,0.527c1.298,1.839 -0.604,1.147 -4.013,1.722Zm262.259,-104.813c-0.72,-0 -1.279,0.821 -1.999,0.821c-4.102,-0 9.122,-10.69 6.124,-4.773c-0.228,0.45 -3.785,3.647 -4.125,3.952Zm-321.58,282.958c17.911,-7.055 -1.427,4.065 -1.756,4.226c-4.682,2.292 1.499,-3.965 1.756,-4.226Zm185.744,43.384c-2.924,11.808 -2.463,-1.822 -2.435,-2.077c0.028,-0.255 1.758,-2.243 2.435,2.077Zm-140.592,-223.58c-2.624,0.254 -2.612,0.327 -2.833,0.274c-14.564,-3.46 -14.746,-1.743 -15.987,-2.094c-19.938,-5.634 -20.307,-3.483 -22.026,-3.986c-24.67,-7.221 -62.316,-9.922 -65.891,-11.33c-6.697,-2.637 -18.992,-1.492 -10.45,-3.85c9.23,-2.548 24.732,3.123 28.258,3.277c9.748,0.427 9.354,2.271 19.015,2.97c10.248,0.741 23.225,3.989 24.025,4.048c7.689,0.573 7.35,1.95 8.01,1.983c1.991,0.099 4.013,-0.16 5.978,0.177c2.726,0.467 2.251,1.609 5.036,1.757c19.229,1.023 18.803,3.586 27.271,4.837c1.273,-0.166 1.061,-0.463 2.736,-0.356c10.385,0.659 -2.833,2.256 -3.142,2.293Zm6.874,-210.599c-8.68,-17.292 -11.516,-15.983 -11.556,-20.282c-0.083,-8.91 15.659,19.655 26.551,39.234c13.66,24.554 -5.073,-2.991 -5.346,-3.419c-9.053,-14.2 -8.84,-14.315 -9.649,-15.533Zm13.185,189.415c-0.772,-0.309 -1.559,0.198 -4.61,-1.844c-0.395,-0.264 -0.386,-3.335 4.543,-0.293c2.058,-1.776 1.988,-1.905 2.223,-1.919c4.629,-0.263 -1.846,3.858 -2.156,4.055Zm-59.038,-181.521l-1.187,-2.246c0.027,-0.196 1.073,-2.435 2.226,1.088c1.452,1.31 1.496,1.206 1.599,1.337c0.709,0.909 -0.962,2.98 -2.637,-0.179Zm125.232,150.821c-28.272,-22.112 -31.242,-30.461 -36.125,-32.606c-5.593,-2.457 -60.355,-57.333 -64.877,-62.404c-1.728,-1.937 -0.043,-3.642 1.814,-1.816c27.451,26.975 28.679,25.592 30.752,28.208c10.489,13.24 12.391,11.228 22.137,20.979c43.399,43.421 43.961,42.788 47.434,46.835c-0.081,1.345 1.185,2.028 -0.114,1.883c-0.86,-0.096 -0.159,-0.983 -1.02,-1.08Zm211.014,-150.854c0.753,5.488 -31.737,61.521 -29.046,48.887c0.01,-0.045 10.98,-17.787 14.537,-25.841c2.281,-5.165 8.94,-13.435 12.44,-22.279c0.72,-1.82 2.044,-0.767 2.069,-0.767Zm-67.886,81.957c-0.11,0.204 -1.269,2.35 -1.448,2.505c-0.27,0.235 -3.431,0.227 0.064,-4.467c1.548,-8.428 8.729,-15.35 7.138,-10.12c-1.652,5.43 -3.694,4.49 -4.65,10.111c-0.03,0.178 -0.069,0.408 -1.104,1.97Zm197.851,283.415c-0.798,0.586 -2.927,2.149 -11.663,-4.155c-4.97,-3.587 -6.058,-1.465 -67.101,-36.978c-18.947,-11.023 4.675,-1.256 5.036,-1.058c19.838,10.832 20.172,10.221 21.719,11.431c11.658,9.115 47.642,27.728 52.009,30.761Zm-380.82,126.275c-0.61,0.693 -1.318,1.297 -1.928,1.99c-1.859,2.112 -1.616,5.037 -3.178,2.661c-2.01,-3.057 7.931,-15.583 7.418,-6.932c-0.015,0.259 -0.171,0.169 -2.312,2.281Zm-115.601,-153.268c-0.272,0.182 -0.581,0.38 -0.929,0.594c-2.26,1.388 -2.758,0.14 -30.659,12.623c-0.163,0.073 0,0 -2.175,0.469c-33.31,8.065 23.419,-13.868 33.751,-15.348c0.842,-0.564 2.005,-1.278 3.556,-2.169c0.185,-0.106 7.907,-3.119 8.814,-2.56c-0.071,-0.613 0.005,-1.327 0.142,-1.403c0.122,-0.068 0,0 1.619,0.66c-1.051,2.17 -1.542,1.825 -1.713,1.037c-0.249,0.523 -1.718,1.67 -5.215,3.805c-0.142,0.071 -4.582,1.704 -7.191,2.292Zm513.999,62.558c-0.647,0.402 -0.327,1.664 -0.974,2.066c-0.198,0.123 -3.069,-3.629 0.974,-2.066Zm-105.467,-420.223c-9.313,12.312 -23.141,24.143 -15.332,13.93c1.631,-2.132 19.065,-24.932 21.496,-25.763c1.755,-0.599 3.009,1.113 -0.036,3.937c-3.697,3.429 -2.799,4.029 -6.128,7.896Zm-80.929,-17.87c-11.235,34.114 -10.386,34.344 -11.611,37.212c-0.673,1.576 -7.848,18.37 -8.12,19.826c-2.995,16.022 -3.968,15.599 -7.938,27.174c-19.665,57.325 14.961,-61.24 25.386,-85.194c1.295,-6.695 1.82,-6.36 3.641,-12.906c0.875,-3.148 3.379,2.228 1.587,4.841c-2.764,4.031 -1.039,4.603 -2.944,9.046Zm177.173,157.304c4.673,-1.046 7.244,-3.566 11.041,-3.922c19.166,-1.798 -19.986,11.396 -22.207,12.441c-23.003,10.816 -53.914,21.052 -56.661,22.763c-14.468,9.01 -16.633,3.414 -41.553,15.182c-4.545,2.146 -67.397,28.639 -54.664,18.563c7.616,-6.027 108.437,-42.788 117.96,-46.261c9.667,-3.525 9.372,-4.18 10.218,-4.463c33.755,-11.3 32.932,-13.337 35.866,-14.303Zm-569.579,82.041c-4.02,-2.996 -0.23,-3.067 0.015,-3.064c0.789,0.01 7.225,3.219 -0.015,3.064Zm494.552,-165.771c-2.204,-3.895 5.827,-6.219 3.74,-2.592c-1.251,2.175 -1.465,1.792 -3.74,2.592Zm-352.135,411.046c-5.258,4.997 -1.227,-5.004 0.664,-3.975c2.045,1.112 0.419,1.521 -0.664,3.975Zm35.854,-432.516l1.014,-0.334c1.993,3.302 5.678,4.903 1.792,5.044c-0.318,0.011 -0.596,0.267 -0.914,0.278c-2.654,-3.209 -2.08,-3.453 -1.893,-4.988Zm154.371,398.328c0.544,-2.487 -0.18,-4.345 1.716,-3.027c1.286,0.894 0.799,11.459 -1.716,3.027Zm0,-389.377c0.619,-2.002 -0.249,-3.636 1.519,-2.592c1.872,1.105 0.878,1.518 0.828,3.578c-0.22,9.11 -2.306,-0.787 -2.348,-0.986Zm-261.281,77.783c-13.578,-9.369 -14.53,-7.596 -28.323,-16.691c-66.915,-44.122 128.161,70.468 131.755,73.5c8.071,6.81 37.356,19.171 33.531,20.709c-3.596,1.446 -10.114,-3.835 -10.169,-3.857c-0.866,-0.351 -8.624,-3.497 -10.683,-4.732c-106.56,-63.919 -106.925,-63.245 -116.111,-68.929Zm265.68,-101.808c0.321,-5.212 1.568,-4.736 1.897,-4.521c0.88,0.574 1.043,6.815 0.001,9.322c-2.628,6.32 -0.812,8.943 -1.854,12.083c-3.144,9.476 -2.71,-6.151 -0.043,-16.884Zm-142.603,156.907c-6.81,-4.194 -60.347,-42.134 -38.344,-29.625c5.421,3.082 5.514,2.679 5.912,3.031c6.608,5.848 34.869,24.216 37.964,26.228c20.111,13.071 -5.147,0.587 -5.531,0.366Zm377.45,148.122c0.867,-2.185 1.884,-2.102 28.694,6.342c7.436,2.342 10.893,7.204 6.12,5.672c-32.289,-10.367 -31.992,-11.165 -34.814,-12.013Zm-24.122,81.133c3.14,1.92 27.203,18.58 26.812,20.235c-1.207,5.114 -49.67,-33.579 -33.119,-24.799c2.173,1.153 2.013,1.271 6.308,4.564Zm-271.165,23.238c-0.013,0.316 -2.545,20.258 -2.559,3.015c-0,-0.316 0.921,-19.672 2.559,-3.015Zm89.44,111.108c0.4,-3.616 0.205,-3.687 0.432,-3.905c2.4,-2.309 2.181,8.278 2.166,9.02c-0.529,25.604 -2.578,-4.656 -2.597,-5.114Zm-181.076,-318.925c-8.07,-0.625 -7.849,-1.025 -15.872,-2.998c-2.491,-0.612 -22.713,-5.584 -30.932,-8.43c-31.935,-11.059 -69.792,-17.136 -71.901,-19.182c-9.744,-9.45 94.077,23.356 117.047,27.947c3.21,0.445 3.303,-0.194 5.781,1.414c0.289,0.188 1.297,3.277 -4.124,1.248Zm-47.814,31.654c-1.119,-0.074 -12.653,-0.841 -13.964,-1.193c-11.441,-3.07 5.339,-5.196 12.938,-3.688c11.151,2.213 37.05,0.134 40.111,0.694c11.653,2.133 -17.039,4.16 -39.086,4.187Zm311.544,-265.29c-6.004,12.543 -6.049,12.337 -12.779,24.38c-1.179,2.109 0.12,3.421 -2.309,3.48c-2.437,-5.187 7.153,-16.149 10.707,-24.891c2.079,-5.115 4.072,-3.257 4.381,-2.969Zm-431.645,360.757c1.944,0.608 2.594,1.433 0.825,2.301c-0.176,0.086 -4.449,1.204 -0.825,-2.301Zm446.446,-195.556c1.844,-0.888 3.098,-0.774 2.223,1.1c-0.084,0.18 -2.155,3.717 -2.223,-1.1Zm100.074,233.409c1.466,0.751 2.212,0.431 1.65,1.609c-0.365,0.766 -7.437,0.959 -1.65,-1.609Zm24.062,-180.182c-4.987,-1.549 0.208,-2.917 0.925,-2.156c1.045,1.11 0.224,1.113 -0.925,2.156Zm-518.618,125.506c1.419,0.464 2.151,-0.053 1.955,1.392c-0.038,0.284 -6.178,3.875 -1.955,-1.392Zm-22.993,-31.298c-0.986,-1.12 -1.955,-1.081 -0.816,-2.134c0.777,-0.718 5.521,0.703 0.816,2.134Zm444.62,76.603c2.18,3.306 -2.715,2.192 -2.362,0.05c0.17,-1.036 0.546,-0.436 2.362,-0.05Zm-401.521,68.243c1.943,-0.775 3.148,-0.776 2.307,1.137c-0.083,0.188 -2.144,3.833 -2.307,-1.137Zm127.058,29.198c0.067,0.162 1.557,3.756 -1.039,1.932c-1.279,-0.899 -0.356,-1.095 1.039,-1.932Zm-14.009,6.998c0.067,0.161 1.57,3.784 -1.031,1.922c-1.238,-0.886 -0.353,-1.073 1.031,-1.922Zm234.324,-57.024c1.308,0.628 1.293,0.513 1.308,0.628c0.078,0.595 -2.637,2.408 -1.308,-0.628Zm50.033,50.007l1.3,0.719c0.191,1.792 -2.56,0.571 -1.3,-0.719Zm-8.832,-105.211c1.622,-0.708 1.495,-0.771 1.622,-0.708c0.621,0.306 0.003,4.186 -1.622,0.708Zm-331.733,50.037c-1.907,3.693 -2.161,-0.467 -1.65,-0.733l1.65,0.733Zm-63.014,-355.42c-1.239,1.216 -2.584,-1.469 -0.748,-1.286c0.118,0.012 0,-0 0.748,1.286Zm364.549,-5.156c-0.703,-1.643 -0.771,-1.517 -0.703,-1.643c0.235,-0.434 4.534,-0.307 0.703,1.643Zm72.202,62.2c0.684,-1.322 0.565,-1.31 0.684,-1.322c0.261,-0.029 2.897,2.846 -0.684,1.322Zm-58.2,-129.221c-0.706,-0.752 -1.261,-0.703 -0.671,-1.649c0.079,-0.127 5.006,-0.769 0.671,1.649Zm-382.554,68.174c-1.238,1.218 -2.583,-1.461 -0.754,-1.281c0.118,0.012 0,0 0.754,1.281Zm-50.047,120.103c-0.161,0.063 -3.526,1.374 -1.92,-1.002c0.871,-1.288 1.075,-0.416 1.92,1.002Zm160.251,-73.245c-3.48,-1.639 0.43,-2.227 0.721,-1.628c0.062,0.128 -0,-0 -0.721,1.628Zm17.03,422.775c0.064,0.161 1.443,3.627 -1.004,1.914c-1.321,-0.925 -0.294,-1.114 1.004,-1.914Zm-18.212,-427.609c-2.285,1.055 -1.497,-1.401 -0.615,-1.26c0.111,0.018 0,0 0.615,1.26Zm335.728,319.394c1.656,-0.708 1.531,-0.779 1.656,-0.708c0.34,0.193 0.439,4.586 -1.656,0.708Zm-494.792,-252.323c-0.161,0.063 -3.547,1.387 -1.914,-0.998c0.92,-1.343 1.118,-0.315 1.914,0.998Zm50.033,243.313c-2.149,3.971 -1.932,-0.529 -1.652,-0.693c0.124,-0.072 0,0 1.652,0.693Zm374.56,-389.573c-0.683,-1.645 -0.755,-1.522 -0.683,-1.645c0.166,-0.284 4.674,-0.481 0.683,1.645Zm131.234,349.535l1.627,-0.649c0.183,0.111 0.568,4.827 -1.627,0.649Zm13.02,-52.043c1.591,-0.61 1.474,-0.68 1.591,-0.61c0.228,0.136 0.369,4.632 -1.591,0.61Zm6.004,2.001c1.592,-0.609 1.475,-0.68 1.592,-0.609c0.203,0.122 0.403,4.675 -1.592,0.609Zm-356.91,-287.957c-2.552,-7.492 -5.523,-28.649 -6.401,-31.472c-1.81,-5.817 -11.276,-57.141 -12.665,-61.857c-0.477,-1.62 0.686,-9.962 2.082,-5.967c6.005,17.188 11.596,62.659 16.796,85.83c4.998,22.271 4.073,24.247 2.606,23.103c-1.944,-1.515 -2.371,-8.844 -2.417,-9.637Zm259.641,371.192c0.137,0.11 2.428,1.942 0.132,2.19c-0.174,0.019 -4.274,-0.167 -0.132,-2.19Zm2.005,36.009c1.49,1.222 -1.571,2.59 -1.332,0.674c0.015,-0.118 0,0 1.332,-0.674Zm-396.331,-258.682c-0.917,-1.678 -1,-1.55 -0.917,-1.678c0.635,-0.974 4.214,0.189 0.917,1.678Zm311.232,-180.905c-0.08,1.606 -0.155,1.481 -1.012,2.843c-2.396,-1.467 -2.042,-2.579 0.555,-3.63c0.063,-0.337 -1.329,-1.351 0.577,-3.102c6.728,-6.181 0.055,3.632 -0.12,3.89Zm-223.217,123.101c-0.158,-0.291 -9.549,-19.787 0.234,-4.135c0.14,0.224 0.631,1.01 0.178,3.301c4.358,2.479 5.124,2.007 6.472,6.872c1.159,4.181 -3.443,0.35 -6.884,-6.038Zm180.613,392.014c0.396,1.069 17.321,55.632 7.561,37.436c-0.671,-1.251 0.798,-1.532 -4.94,-17.049c-4.891,-13.226 -4.989,-32.73 -2.603,-22.215c0.032,0.143 0,-0 -0.018,1.829Zm-205.57,-486.105l-1.311,-2.001l0.282,-0.818c1.307,-0.332 1.185,-0.078 1.989,0.84c1.153,2.616 1.5,2.532 0.812,5.245l-1.772,-3.266Zm231.432,518.527c0.686,-1.298 0.686,-1.958 1.827,-1.093c0.27,0.205 0.967,6.421 -1.827,1.093Zm-233.426,-525.561c-0.142,4.462 -2.027,1.223 -2.073,1.043c-0.435,-1.699 0.406,-1.513 2.073,-1.043Zm12.765,472.512c-2.821,5.547 -1.989,-0.913 -1.809,-1.045c1.098,-0.805 1.089,-0.223 1.809,1.045Zm-68.262,-47.193c1.724,-3.434 2.052,-3.738 2.323,-3.989c13.365,-12.367 -0.42,5.131 -0.693,5.478l-1.143,1.666c-1.061,1.408 -15.363,20.385 -16.137,15.005c-0.297,-2.063 6.147,-8.62 6.792,-9.276c0.516,-0.525 4.078,-4.15 6.076,-6.92c0.069,-0.096 -0,-0 1.161,-0.914l1.621,-1.051Zm-11.587,-347.226c-1.29,-0.981 -1.065,-0.994 -2.249,-1.863c0.882,-0.981 0.223,-2.335 1.307,-1.455c0.978,0.793 1.001,0.578 1.926,1.329c1.064,0.859 0.912,0.777 1.588,2.086c2.111,1.059 2.017,0.895 2.111,1.059c0.111,0.195 -0.541,3.161 -2.749,-0.567l-1.935,-0.589Zm21.409,-97.306c0.169,0.187 9.215,12.06 -0.31,3.134c-2.333,-2.186 -1.777,-4.826 0.31,-3.134Zm362.106,132.524c1.163,-0.661 14.046,-7.98 14.766,-7.843c4.231,0.806 -5.013,5.672 -5.593,5.977c-6.497,3.42 -13.345,7.579 -14.486,8.272c-0.336,0.204 -23.096,12.97 -4.904,0.393c5.115,-3.536 5.335,-3.003 10.216,-6.798Zm-500.577,108.596c-1.666,-3.071 0.59,-2.289 0.768,-2.227c2.692,0.933 -0.592,2.161 -0.768,2.227Zm488.581,104.43c0.713,-1.276 0.777,-2.012 1.876,-1.041c0.078,0.069 0.736,4.762 -1.876,1.041Zm97.963,-78.93c-7.048,-0.986 3.213,-4.506 4.604,-1.995c0.195,0.351 0.426,1.209 -4.604,1.995Zm-240.836,-295.004c0.645,4.816 -1.252,3.893 -1.52,3.715c-0.954,-0.636 -0.618,-6.188 0.359,-6.733c0.226,-0.126 3.125,-1.327 1.16,3.019Zm-140.784,490.063c-3.384,6.909 -0.637,-7.96 2.294,-5.091c0.319,0.312 0.754,0.739 -2.294,5.091Zm183.414,-516.686c-2.311,-2.105 0.363,-7.913 1.922,-5.796c2.2,2.987 -1.518,5.521 -1.922,5.796Zm-318.272,473.788c6.995,-1.475 0.981,2.459 0.79,2.556c-7.523,3.804 -0.964,-2.432 -0.79,-2.556Zm368.371,-465.586c-3.258,7.913 -3.375,10.213 -5.726,14.163c-12.733,21.392 2.354,-11.708 3.691,-15.14c0.142,-0.249 1.501,-2.634 2.004,-2.974c3.782,-2.558 0.189,3.678 0.031,3.952Zm8.186,524.526c-2.125,-2.985 -2.071,-3.653 -2.042,-4.012c0.335,-4.102 3.256,2.28 3.774,2.994c0.263,0.898 4.379,9.133 4.409,9.983c0.108,3.124 -3.16,1.197 -6.142,-8.965Zm-233.756,60.839c-0.076,0.214 -5.597,9.75 -2.832,0.187c1.844,-6.378 2.633,-6.257 3.183,-6.172c1.653,0.254 -0.192,5.533 -0.351,5.985Zm229.781,-464.985c-8.354,8.055 -2.222,-2.793 -2.015,-2.994c0.207,-0.201 6.007,-3.158 2.015,2.994Zm119.686,24.603c-0.407,0.202 -14.805,7.344 -5.673,0.327c2.224,-1.709 2.11,-1.727 4.825,-2.231c2.486,-1.822 4.357,-4.138 3.882,-0.987c-0.051,0.339 -2.779,2.673 -3.034,2.891Zm-141.768,427.266c-0.624,-1.915 -1.284,-3.001 0.758,-2.652c1.031,0.176 0.658,0.55 1.089,1.956c0.257,0.547 1.438,3.061 2.979,6.942c0.033,0.165 0.418,7.853 -1.805,1.076c-0.403,-0.6 -2.507,-5.404 -3.021,-7.322Zm35.839,0.268c-1.088,-1.851 -9.981,-16.988 -11.988,-24.015c-1.867,-6.538 -3.163,-5.787 -5.699,-12.158c-7.9,-19.847 -15.5,-33.917 -12.375,-33.967c3.746,-0.059 31.126,66.035 32.101,69.17c0.004,0.181 0.128,7.777 -2.039,0.97Zm-383.424,-341.567c-5.005,-2.48 0.78,-2.26 1.098,-1.801c0.846,1.223 0.041,1.077 -1.098,1.801Zm542.571,13.001c-1.228,-0.737 -1.912,-0.663 -1.124,-1.812c0.307,-0.447 6.235,-0.796 1.124,1.812Zm-420.471,12.985c-4.23,-1.832 0.539,-2.468 1.058,-1.715c0.092,0.133 0,-0 -1.058,1.715Zm214.007,306.732c0.364,-1.947 0.228,-1.866 0.364,-1.947c1.661,-0.977 2.282,3.314 -0.364,1.947Zm-307.081,-156.059c3.818,2.167 -1.171,2.65 -1.665,1.6c-0.577,-1.226 0.207,-0.883 1.665,-1.6Zm42.048,-350.705c-4.002,-0.908 0.109,-2.732 0.936,-1.786c0.872,0.998 0.256,1.008 -0.936,1.786Zm201.685,-44.046c-0.016,-0.561 -0.322,-11.582 2.055,-6.706c0.538,1.103 0.61,8.38 -2.055,6.706Zm112.799,191.48c6.14,-4.096 2.258,1.97 2.072,2.117c-0.186,0.147 -7.626,3.865 -2.072,-2.117Zm135.973,18.618c-0.308,-0.018 -15.155,-0.902 -3.187,-2.174c0.307,-0.033 19.075,-1.619 3.187,2.174Zm-154.499,236.679c-0.176,-0.287 -2.838,-4.616 -0.666,-4.157c2.811,0.593 5.66,10.947 0.666,4.157Zm-54.592,81.854c-3.052,-3.731 -1.757,-4.096 -1.866,-6.997c-0.089,-2.38 -2.146,-1.541 -1.973,-3.966c0.461,-6.476 4.665,5.282 5.39,9.368c1.854,3.662 2.976,14.384 2.93,14.453c-2.832,4.21 -4.376,-11.774 -4.481,-12.858Zm64.929,-316.538c-3.459,-1.701 0.357,-2.595 0.953,-1.71c0.088,0.13 0,0 -0.953,1.71Zm100.112,-72.826c-0.269,0.155 -6.45,3.711 -3.883,0.079c0.1,-0.141 0,0 1.893,-1.031c0.148,-0.096 8.028,-4.38 1.991,0.952Zm-353.158,-147.163c0.7,2.822 7.717,17.668 3.862,16.921c-0.394,-0.076 -13.743,-28.253 -4.454,-18.577c0.097,0.102 0,0 0.592,1.656Zm-76.097,104.153c-11.677,-10.302 -11.426,-11.855 -10.184,-12.094c0.922,-0.177 8.3,6.937 11.051,11.247c0.252,0.154 14.928,11.555 1.068,3.533c-1.551,-0.898 -1.223,-1.112 -1.936,-2.686Zm430.383,-7.965c-11.991,10.307 -31.982,24.847 -42.615,34.492c-0.676,0.613 -1.269,-0.345 -9.166,6.793c-23.796,21.507 -24.51,20.416 -49.516,40.614c-4.964,4.01 -5.608,1.199 -5.308,0.89c6.81,-7.011 51.374,-40.99 68.678,-57.585c1.769,-1.697 2.544,-0.688 24.023,-19.016c7.547,-6.44 11.635,-7.835 12.786,-8.228c2.833,-2.308 4.149,-3.113 4.765,-1.948c0.677,1.281 -3.28,3.76 -3.647,3.99Zm-516.623,214.122c-1.221,0.007 -82.202,-0.749 -15.083,-2.334c2.338,-0.055 2.197,-1.293 29.102,-2.746c2.947,-0.159 2.159,2.344 0.851,2.817c-3.341,1.208 -3.345,0.831 -14.87,2.263Zm159.947,228.257c-2.759,5.449 -1.992,-0.925 -1.816,-1.047c1.12,-0.776 1.061,-0.099 1.816,1.047Zm-64.875,-150.199c1.59,0.053 2.374,-0.496 2.07,1.048c-0.085,0.431 -1.884,1.765 -2.999,2.187c-6.76,2.555 0.714,-3.073 0.929,-3.234Zm251.178,-375.251c0.281,2.479 1.697,3.095 -0.893,4.627c-1.473,-1.008 -1.625,-1.046 -1.206,-2.772c0.704,-2.903 1.619,-1.795 2.099,-1.856Zm-272.176,498.405c-3.02,4.266 -3.899,1.348 -3.754,1.071c0.145,-0.277 7.496,-14.36 3.754,-1.071Zm33.117,-128.997c0.292,-0.071 5.058,-1.236 3.688,0.747c-1.592,2.304 -9.54,2.819 -3.688,-0.747Zm318.268,-360.277c-1.518,-1.279 -2.211,-1.53 -0.791,-3.008c8.593,-8.942 0.933,2.804 0.791,3.008Zm-69.27,166.739c-0.228,0.16 -7.049,4.943 -3.459,0.375c0.172,-0.219 4.309,-5.483 3.459,-0.375Zm-157.153,22.44c-0.979,-1.244 -1.3,-1.67 0.162,-2.278c0.361,-0.15 5.896,3.297 -0.162,2.278Zm187.247,-179.31c-0.029,4.025 -1.783,2.122 -1.932,1.961c-1.495,-1.622 -0.24,-1.929 1.932,-1.961Zm166.291,372.69c1.734,0.928 2.493,1.514 0.816,2.346c-0.178,0.088 -3.249,1.244 -0.816,-2.346Zm-485.425,62.713c0.319,-0.458 2.86,-4.113 5.851,-3.797c3.735,0.394 -8.491,11.571 -5.851,3.797Zm70.022,-224.331c-0.63,-1.688 -0.696,-1.56 -0.63,-1.688c0.771,-1.488 3.408,1.285 0.63,1.688Z"/>
    <path id="Bill" d="M485.917,785.335c-0.622,1.549 -0.992,4.273 -2.589,9.078c-0.698,2.101 -1.561,16.843 -5.959,11.45c-4.595,-5.635 2.287,-40.501 -2.368,-41.743c-20.08,-5.359 -40.791,-33.122 -40.94,-35.92c-1.068,-20.04 -2.03,-19.867 -2.03,-40.028c-0,-25.911 -0.327,-25.877 0.797,-31.056c0.523,-2.412 0.511,-12.891 -0.905,-12.99c-16.917,-1.184 -92.229,2.038 -93.678,-2.159c-2.259,-6.541 1.545,-6.144 38.467,-80.971c3.861,-7.824 -21.624,12.592 -60.815,-3.191c-4.529,-1.824 -8.829,-9.566 -11.028,-0.743c-7.188,28.846 -14.599,24.691 -15.827,22.839c-4.277,-6.451 11.615,-19.074 3.666,-15.137c-3.402,1.685 -2.523,6.154 -19.931,5.181c-2.12,-0.119 -8.496,-6.657 0.962,-9.062c11.741,-2.985 15.539,0.495 17.246,-8.815c0.776,-4.233 -3.82,0.865 -9.208,0.915c-2.185,0.02 -28.393,0.263 -24.474,-12.117c2.549,-8.052 10.766,4.95 23.522,1.333c5.838,-1.655 6.01,-0.52 11.763,-2.572c5.374,-1.917 6.742,-6.887 6.962,-7.687c1.622,-5.894 -11.466,-24.378 1.221,-22.82c11.82,1.451 7.256,28.815 7.958,29.957c10.393,16.909 46.269,26.265 71.448,7.389c16.182,-12.13 16.498,-25.06 54.419,-90.735c25.388,-43.968 25.915,-43.67 27.578,-47.756c3.562,-8.752 15.773,-27.471 17.278,-29.778c3.981,-6.103 2.622,-6.827 7.193,-12.552c12.753,-15.973 8.803,-18.111 7.257,-18.468c-1.741,-0.402 -51.848,2.684 -47.728,-4.248c3.081,-5.183 38.073,-0.075 38.71,-6.12c0.021,-0.198 0.142,-0.142 0.126,-124.101c-0.002,-15.361 -5.441,-26.986 11.072,-29.551c13.469,-2.092 17.396,-0.578 18.799,-0.037c9.717,3.748 11.623,3.858 10.337,9.632c-0.254,1.142 -0.224,1.152 -0.223,134.068c0,17.736 8.276,11.982 26.043,12.232c6.153,0.086 4.321,6.932 2.026,6.978c-39.153,0.792 -41.643,0.576 -40.709,3.71c0.838,2.812 2.219,2.064 18.054,31.924c1.196,2.255 1.991,1.715 16.613,27.245c4.482,7.825 5.973,6.761 15.962,26.051c8.486,16.389 10.027,15.377 18.386,31.844c3.603,7.097 4.815,6.3 15.231,25.487c12.554,23.126 13.559,22.408 27.849,47.504c1.759,3.089 6.273,7.434 6.882,8.02c3.473,3.343 24.43,13.709 42.961,7.553c9.922,-3.296 17.297,-0.498 26.978,-16.284c1.65,-2.691 -5.407,-15.962 7.691,-27.364c3.46,-3.012 12.761,1.386 4.638,8.678c-0.183,0.164 -3.441,7.424 -3.468,7.607c-2.014,13.29 22.816,16.662 28.024,14.788c1.678,-0.604 3.224,-1.527 4.855,-2.248c11.66,-5.155 11.338,2.934 7.826,7.12c-8.608,10.259 -24.608,5.183 -26.671,4.529c-6.722,-2.132 -4.434,3.917 -1.725,5.486c10.679,6.185 14.428,-0.709 17.569,4.502c5.908,9.801 -11.833,14.845 -24.175,0.256c-1.544,-1.826 -3.106,1.832 0.646,6.42c0.55,0.672 10.171,7.315 3.778,12.277c-4.774,3.705 -15.187,-13.369 -15.166,-28.079c0.006,-4.059 -5.793,3.752 -8.994,4.73c-48.529,14.824 -51.743,-0.863 -56.6,4.614c-1.698,1.914 19.171,32.844 30.569,54.751c0.058,0.112 14.182,19.994 11.135,25.003c-2.848,4.682 -95.9,-0.689 -97.065,2.999c-0.903,2.857 1.488,29.588 -2.035,43.024c-2.47,9.42 2.036,10.006 -1.746,19.129c-0.283,0.682 -0.489,4.454 -1.541,6.809c-18.814,42.142 -30.858,34.625 -34.717,48.139c-0.488,1.708 1.964,3.059 2.929,18.007c0.334,5.174 2.094,4.804 1.97,10.008c-0.342,14.373 2.897,19.738 -2.997,17.075c-0.93,-0.42 -9.092,-14.719 -11.132,-31.048c-0.317,-2.538 -4.863,-0.904 -4.874,-5.045c-0.046,-17.191 -0.142,-18.742 0.931,-17.803c5.332,4.665 6.56,-5.717 14.266,-10.996c2.537,-1.738 16.223,-11.114 23.59,-30.345c0.318,-0.83 -0.694,-0.966 2.579,-10.802c3.293,-9.895 1.767,-55.774 0.452,-56.812c-1.106,-0.873 -8.206,-6.478 -17.491,2.02c-1.207,1.105 -1.227,-2.553 -20.299,-2.554c-88.534,-0.007 -89.776,-0.371 -90.647,2.351c-1.317,4.116 1.102,18.063 -1.235,29.887c-0.152,0.77 -0.256,40.775 0.069,41.928c7.242,25.669 14.866,25.296 43.683,40.277c7.79,4.05 -0.911,16.556 0.809,20.695l-0.7,4.902l-0.083,1.335Zm66.524,11.725c-0.47,-0.018 -0.652,-0.401 0.009,-1.605c0.105,-0.191 0.206,-0.351 0.304,-0.483l-0.313,2.088Zm-167.671,-184.806c-0.943,-0.569 -22.357,-4.597 -26.085,0.731c-0.783,1.119 0.36,1.645 -8.196,14.978l2.39,1.881c2.995,2.882 2.548,9.381 5.762,4.046c1.949,-3.234 1.953,2.972 4.233,3.049c4.9,0.165 7.897,0.926 9.011,-2.81c0.824,-2.762 2.249,1.419 2.322,1.634c1.382,4.054 2.574,-6.866 3.779,-3.801c0.784,1.995 0.364,1.978 1.238,3.978c1.641,3.755 4.589,-2.773 5.649,-2.758c2.316,0.032 2.916,7.105 7.113,1.003c3.134,-4.556 4.331,2.177 5.041,2.598c5.734,3.395 0.599,-3.284 3.288,-9.436c2.644,-6.048 2.713,7.098 2.716,7.755c0.022,4.244 3.162,-1.101 6.802,1.113c4.259,2.59 4.35,-5.532 7.354,-2.42c2.375,2.46 2.391,3.303 5.629,2.11c3.769,-1.389 10.204,2.994 11.684,-1.049c0.205,-0.559 0.135,-1.216 0.431,-1.733c1.094,-1.908 1.278,-0.022 2.105,1.913c1.136,2.657 2.153,-1.494 2.207,-1.711c0.003,-0.017 -0.485,-14.695 1.702,-13.251c2.241,1.479 0.197,12.006 -0.002,13.029c1.566,1.603 1.314,4.224 2.13,2.179c0.029,-0.073 3.063,-22.28 0.839,-23.129c-0.025,-0.01 -15.129,-2.202 -17.933,-0.914c-2.684,1.233 -0.342,26.091 -3.34,18.077c-0.379,-1.013 0.938,-20.621 -3.498,-17.832c-4.717,2.966 -5.883,-2.633 -10.214,0.643c-2.632,1.991 -4.346,-2.871 -5.576,0.238c-1.439,3.639 -2.454,1.352 -4.631,0.072c-0.346,-0.204 -0.35,0.198 -4.856,-1.277c-3.996,-1.309 -6.639,0.475 -7.114,0.795l-0.492,1.608c0.94,7.954 2.708,7.967 0.328,15.463c-2.315,7.292 -2.01,-14.45 -1.992,-15.717l0.177,-1.053Zm259.606,20.673c4.69,16.607 5.173,-15.294 8.446,-11.534c0.955,1.097 -2.062,15.703 3.3,15.55c3.27,-0.094 -0.066,-13.261 3.904,-16.149c1.952,4.711 0.954,4.752 0.993,13.327c0.026,5.592 11.734,3.55 8.315,-2.121c-0.594,-0.986 -6.191,-10.273 -7.912,-12.026c-5.02,-6.019 -5.688,-13.894 -17.186,-6.716l0.174,1.048c0.007,0.417 0.19,11.432 -0.024,17.401c0.007,0.344 0.004,0.749 -0.01,1.22Zm-161.361,-20.904c-0.724,-0.31 -6.247,-2.679 -9.827,-0.539c-4.155,2.484 -4.423,-1.224 -9.217,-0.328c-2.781,0.52 -3.908,25.747 0.994,25.778c6.137,0.039 2.946,-5.173 3.427,-6.727c1.934,-6.252 1.613,6.591 5.577,6.718c3.084,0.099 2.909,-4.083 3.312,-4.352c0.508,-0.339 5.939,9.157 6.268,-0.84c0.603,-18.313 0.462,-18.486 -0.534,-19.709Zm119.169,22.988c6.829,6.375 4.59,-8.722 4.538,-17.909c-0.027,-4.735 -0.351,-7.198 -4.558,-4.879c-2.948,1.625 -9.715,-5.902 -9.901,5.881c-0.157,9.923 -0.643,18.791 1.829,18.844c3.788,0.081 4.09,0.67 6.335,-1.582c0.042,-0.137 1.334,-4.411 1.757,-0.356Zm-149.191,-23.001c-6.235,-2.689 -6.159,1.674 -5.957,21.107c0.044,4.261 3.737,4.746 4.764,-0.037c0.354,-1.651 3.758,-17.504 1.193,-21.07Zm162.285,0.935c-1.346,-1.495 -1.082,-2.059 -3.177,-1.815c-5.276,0.615 -2.573,25.504 -1.916,25.703c7.095,2.148 5.1,-16.288 5.093,-23.888Zm-176.252,-62.908c-0.211,8.291 -4.237,11.721 3.887,13.096c13.761,2.328 25.018,-0.389 25.076,-4.084c0.192,-12.112 -2.127,-13.83 2.006,-14.879c7.663,-1.946 19.712,15.743 40.996,12.789c7.52,-1.044 30.848,-18.995 30.982,-9.919c0.175,11.859 -2.569,13.421 2.146,15.752c0.041,0.021 17.151,1.701 18.446,-1.955c0.028,-0.08 2.204,-25.668 -1.563,-26.664c-1.141,-0.302 -112.391,-0.288 -114.034,-0.006c-5.032,0.861 -6.829,-0.85 -6.921,2.867c-0.165,6.682 -0.793,6.467 -1.023,13.006Zm136.325,82.833c0.376,4.629 4.325,5.268 4.353,1.214c0.011,-1.606 0.173,-25.689 -3.344,-19.801c-0.764,1.278 -0.233,1.338 -1.008,18.587Zm41.68,-20.839c1.847,7.31 -1.498,23.169 2.166,24.779c8.376,3.681 6.601,-14.368 6.728,-23.697c0.034,-2.489 -6.12,-3.433 -8.894,-1.081Zm-143.997,-7.073c0.886,0.263 24.913,1.297 25.782,-1.921c0.07,-0.26 2.068,-24.757 0.99,-26.911c-3.865,-7.727 -33.587,18.352 -33.763,8.936c-0.261,-13.995 1.437,-15.921 -2.086,-16.063c-3.513,-0.142 -41.713,-1.683 -43.934,1.133c-2.343,2.97 0.413,22.326 -1.862,31.004c-1.461,5.57 2.569,2.668 7.834,4.664c5.438,2.062 5.568,-1.192 15.949,-0.551c3.647,0.225 3.718,-1.928 7.061,-0.305c0.651,0.316 0.879,-1.655 9.008,0.87c2.728,0.848 12.128,-1.127 13.164,-1.345c-0.429,-2.238 -0.956,-2.033 -0.837,-4.365c0.984,-19.254 2.664,4.411 2.696,4.854Zm-29.8,-1.81c-2.201,-0.061 -2.133,0.102 -2.201,-0.061c-0.579,-1.386 2.736,-3.845 2.201,0.061Zm131.606,1.312c3.744,0.812 3.884,-1.663 7.458,0.133c2.404,1.208 3.135,-0.99 2.654,-33.528c-0.095,-6.421 -25.179,-0.993 -29.865,-2.229c-12.196,-3.217 -14.704,-0.448 -15.074,12.229c-0.748,25.62 -24.106,-12.967 -34.764,-6.603c-0.91,0.544 -2.46,12.275 -2.221,28.621c0.038,2.585 1.393,1.497 9.03,2.741c1.282,0.209 27.278,0.223 27.907,-0.006c4.866,-1.773 4.883,0.089 10.073,0.146c1.837,0.02 14.104,0.156 22.941,-1.112c0.03,-0.655 1.8,-39.336 2.676,-7.751c0.103,3.715 -0.385,3.481 -0.813,7.358Zm-52.803,6.303c-5.845,0.147 -6.188,-1.908 -11.238,1.101c-0.115,0.41 -0.868,23.219 1.099,24.379c0.119,0.07 7.962,-0.454 8.655,-1.5c1.607,-2.428 -0.109,-19.214 1.484,-23.98Zm0,0c2.889,3.91 1.788,15.569 1.226,22.167c-0.148,1.734 3.47,6.514 6.13,2.561c1.596,-2.372 1.963,2.451 6.55,1.32c5.085,-1.254 5.93,-21.311 5.873,-21.666c-0.864,-5.42 -4.462,-4.145 -19.778,-4.382Zm7.283,15.347c2.101,-15.124 3.658,4.45 1.527,5.759c-3.649,2.242 -0.915,-1.65 -1.527,-5.759Zm43.904,8.09c0.007,-0.581 1.161,-27.716 -3.421,-22.391c-0.768,0.893 -1.392,8.018 -3.157,1.467c-0.226,-0.839 -0.708,-2.63 -10.611,-2.287c-3.956,0.137 -3.257,8.885 -3.051,22.128c0.129,8.308 8.018,0.283 10.166,2.904c3.119,3.806 4.3,-4.593 5.911,-1.908c1.567,2.612 2.764,2.937 4.164,0.087Zm-30.037,-13.161c-0.195,13.528 -0.435,17.513 2.727,15.767c2.585,-1.427 2.494,-23.766 1.831,-24.413c-0.56,-0.546 -1.973,-0.753 -4.558,8.646Zm-109.161,-73.005c0.068,-8.646 4.669,-13.006 -4.092,-13.356c-25.345,-1.012 -25.517,-1.982 -28.753,-0.186c-2.345,1.302 -15.355,26.927 -15.459,27.544c-0.535,3.174 1.81,2.341 40.193,1.945c5.05,-0.052 7.463,-1.241 8.112,-15.947Zm171.063,56.932c2.02,0.203 26.518,0.966 29.071,-0.831c1.272,-0.895 1.479,-3.229 2.785,-0.865c2.534,4.589 5.036,-1.05 8.916,1.213c9.436,5.502 3.148,-5.41 1.555,-9.534c-3.067,-7.941 -5.405,-6.63 -8.553,-14.804c-6.435,-16.714 -25.416,-12.16 -25.766,-12.16c-7.435,0.002 -23.12,-0.908 -23.126,4.072c-0.015,12.685 0.475,17.062 -0.849,22.033c-1.979,7.424 -2.611,9.799 4.941,11.065c5.558,0.931 5.479,-0.051 11.027,-0.188Zm-42.041,-77.971c28.789,-0 39.763,0.636 40.746,-2.094c1.517,-4.21 -6.202,-9.763 -12.379,-23.061c-7.448,-16.036 -29.397,-52.088 -31.165,-54.096c-1.984,-2.252 -0.902,-2.894 -18.691,-32.528c-8.217,-13.688 -8.537,-13.336 -9.19,-14.548c-9.767,-18.152 -9.147,-18.476 -10.22,-19.909c-10.061,-13.436 -15.282,-28.165 -18.212,-28.596c-3.111,-0.458 -18.164,29.266 -19.517,31.938c-15.001,29.62 -19.459,31.328 -36.862,63.622c-18.211,33.793 -19.166,33.232 -20.402,36.327c-3.661,9.169 -14.233,29.293 -15.55,31.8c-1.28,2.437 -3.399,2.954 -4.223,4.472c-4.201,7.736 3.117,5.615 4.516,5.693c22.475,1.255 22.439,0.979 151.148,0.979Zm-49.048,-107.962c0.571,-0.021 6.589,-0.237 6.803,-2.175c0.129,-1.166 1.512,-13.709 5.201,-13.714c3.04,-0.004 0.12,5.733 -2.09,14.744c-2.427,9.892 26.457,4.572 35.909,40.11c1.079,4.058 -10.605,14.259 -14.53,16.437c-10.208,5.663 -1.494,10.918 -1.439,12.539c0.219,6.536 -5.389,-6.662 -16.798,-3.813c-18.184,4.541 -18.348,3.693 -19.872,4.259c-4.581,1.699 -4.583,12.915 -6.787,5.383c-2.639,-9.022 -6.421,-4.7 -21.255,-10.231c-12.049,-4.492 -10.189,6.599 -15.205,6.721c-0.745,0.018 -2.611,-1.097 3.647,-8.566c3.448,-4.116 -8.923,-7.782 -18.209,-20.061c-5.829,-7.707 15.719,-27.457 25.908,-34.262c10.129,-6.765 -5.521,-18.818 2.694,-19.095c2.847,-0.096 1.93,1.311 5.44,10.355c0.45,1.159 1.904,4.907 15.533,0.158c0.891,-0.311 3.462,-19.443 6.296,-8.981c1.343,4.959 -2.301,9.723 8.755,10.192Zm-17.017,5.995c-16.649,2.778 -15.752,5.144 -24.265,11.556c-1.845,1.39 -23.944,18.036 -17.484,22.973c22.297,17.041 29.809,24.851 65.744,19.29c2.656,-0.411 35.464,-13.372 31.976,-20.866c-3.389,-7.279 -11.285,-30.241 -43.963,-33.005c-4.566,-0.386 -4.492,-1.623 -9.032,-0.186c-0.228,0.072 -0.22,0.018 -2.976,0.237Zm-3.979,22.908c0.196,-5.708 0.193,-5.628 2.435,-10.809c0.363,-0.838 3.252,-7.514 6.189,-9.584c4.604,-3.245 5.654,1.056 7.93,4.67c10.122,16.071 -1.678,44.273 -6.721,45.363c-9.449,2.043 -9.802,-27.142 -9.832,-29.64Zm6,3.003c0.014,0.745 0.548,30.086 7.879,4.974c0.112,-0.385 1.611,-11.854 -2.93,-16.953c-4.131,-4.639 -4.898,10.943 -4.949,11.979Zm-43.063,161.15c-1.069,6.646 -0.895,18.414 -0.872,20.017c0.065,4.429 4.297,2.692 3.514,-0.88c-2.517,-11.487 4.167,-17.884 -2.642,-19.137Zm49.039,-0.956c-0.72,-0.013 -10.82,-1.86 -10.9,2.971c-0.309,18.697 -2.744,23.12 5.891,22.833c1.386,-0.046 4.735,-0.157 4.324,-16.789c-0.109,-4.412 0.514,-4.246 1.032,-8.529c3.367,13.272 -0.961,13.382 0.003,20.332c2.111,15.224 4.362,-7.725 2.914,-20.238c-1.61,-0.769 -1.575,-0.439 -3.264,-0.58Zm81.089,25.824c2.17,-0.132 2.983,1.099 3.576,-1.096c0.511,-1.893 0.166,-21.761 0.133,-23.653c-0.026,-1.525 -7.828,-2.756 -7.724,1.889c0.447,20.057 -1.153,22.621 4.015,22.86Zm-100.092,-24.846c-1.604,10.392 -0.109,10.296 -0.712,20.781c-0.237,4.125 7.334,6.424 6.076,-2.767c-0.03,-0.22 -0.361,-15.663 -0.39,-17.025c-0.072,-3.363 -1.653,-1.791 -4.974,-0.989Zm-94.097,-6.144c20.421,-0.899 21.878,0.032 22.118,-2.871c0.222,-2.683 2.632,-31.849 0.458,-33.643c-1.766,-1.458 -3.85,-3.178 -28.583,-1.467c-4.335,0.3 -4.951,1 -20.914,33.153c-0.2,0.402 -2.328,4.689 2.908,4.799c2.667,0.056 5.335,-0.001 8.002,0.049c4.114,0.076 4.114,0.836 7.99,-0.926c0.588,-0.267 0.476,0.571 8.021,0.906Zm235.147,-44.86c-1.265,-1.524 0.743,-2.721 -12.583,-21.317c-0.889,-1.24 -1.47,-4.703 -3.349,-4.775c-20.134,-0.776 -43.101,-3.988 -43.114,3.01c-0.021,11.109 -1.246,10.944 -0.997,22.023c0.009,0.398 0.087,3.877 3.076,3.913c24.247,0.286 24.346,-1.868 31.066,-0.111c3.184,0.833 24.664,-0.684 25.004,-0.68c0.479,-0.462 0.341,-0.454 0.898,-2.062Zm15.223,51.857c-9.843,-7.811 -3.538,17.849 -7.07,15.963c-0.691,-0.369 -1.267,-22.457 -5.764,-15.639c-0.568,0.862 -3.842,25.437 1.609,23.509c3.05,-1.079 3.105,-2.114 5.96,-0.467c3.979,2.295 5.261,-2.615 5.387,-3.096c0.005,-0.064 0.348,-1.159 0.75,-2.059c-0.205,-1.75 -0.44,-4.097 -0.709,-7.154c-0.495,-5.627 0.308,-8.947 0.326,-9.449l-0.488,-1.608Z"/>
</svg>
