<?xml version="1.0" encoding="UTF-8" standalone="no"?><!DOCTYPE svg PUBLIC "-//W3C//DTD SVG 1.1//EN" "http://www.w3.org/Graphics/SVG/1.1/DTD/svg11.dtd"><svg width="100%" height="100%" viewBox="0 0 256 256" version="1.1" xmlns="http://www.w3.org/2000/svg" xmlns:xlink="http://www.w3.org/1999/xlink" xml:space="preserve" xmlns:serif="http://www.serif.com/" style="fill-rule:evenodd;clip-rule:evenodd;stroke-linejoin:round;stroke-miterlimit:2;"><path d="M128,6.333c67.15,0 121.667,54.517 121.667,121.667c0,67.15 -54.517,121.667 -121.667,121.667c-67.15,0 -121.667,-54.517 -121.667,-121.667c0,-67.15 54.517,-121.667 121.667,-121.667Zm-14.576,167.312c3.295,6.884 11.432,10.112 18.607,7.217c7.464,-3.012 11.078,-11.517 8.067,-18.981c-0.078,-0.193 -0.722,-1.01 -1.105,-2.797c-1.495,-6.974 3.674,-10.627 8.643,-14.927c10.498,-9.085 23.195,-18.355 30.42,-32.309c14.137,-27.305 -0.256,-63.929 -34.035,-72.494c-23.587,-5.98 -45.576,-0.167 -58.224,13.878c-8.833,9.809 -13.786,23.853 -11.096,42.069c0.492,3.334 5.452,14.822 6.631,17.154l4.05,5.103c6.274,5.042 15.461,4.042 20.503,-2.232c3.796,-4.723 4.167,-11.098 1.441,-16.112l-3.877,-8.941c-0.964,-7.473 0.35,-13.445 4.022,-17.524c6.302,-6.998 17.628,-8.103 29.381,-5.123c14.511,3.679 21.376,19.082 15.303,30.811c-2.93,5.658 -7.429,9.963 -11.979,13.925c-6.22,5.416 -12.668,10.236 -17.723,15.432c-9.844,10.116 -15.388,21.504 -11.978,37.405c0.969,4.517 2.646,7.862 2.95,8.446Zm14.576,21.45c-8.463,0 -15.333,6.681 -15.333,14.91c0,8.229 6.871,14.91 15.333,14.91c8.463,-0 15.333,-6.681 15.333,-14.91c0,-8.229 -6.871,-14.91 -15.333,-14.91Z"/></svg>