<?xml version="1.0" encoding="UTF-8" standalone="no"?>
<!DOCTYPE svg PUBLIC "-//W3C//DTD SVG 1.1//EN" "http://www.w3.org/Graphics/SVG/1.1/DTD/svg11.dtd">
<svg width="100%" height="100%" viewBox="0 0 3718 1319" version="1.1" xmlns="http://www.w3.org/2000/svg" xmlns:xlink="http://www.w3.org/1999/xlink" xml:space="preserve" xmlns:serif="http://www.serif.com/" style="fill-rule:evenodd;clip-rule:evenodd;stroke-miterlimit:90;">
    <rect id="Artboard1" x="0" y="0" width="3717.47" height="1318.73" style="fill:none;"/>
    <clipPath id="_clip1">
        <rect x="0" y="0" width="3717.47" height="1318.73"/>
    </clipPath>
    <g clip-path="url(#_clip1)">
        <g id="Layer-1" serif:id="Layer 1">
            <path d="M581.636,347.195l52.184,-72.015l0,116.971c75.087,-90.528 188.427,-148.185 315.235,-148.185c130.232,-0 246.26,60.817 321.236,155.598l0,-375.492l372.429,529.491l0,-318.268l292.505,-0l-0,472.467l467.3,-664.374l-0,191.907l184.523,-0l-0,175.191l99.988,-143.2l59.402,81.394l0,-113.385l278.55,-0l39.502,-54.136l234.449,321.273l-179.613,257.589l34.232,48.429l538.121,-765.062l-0,1050.06l-186.582,-0l-134.509,189.944l-160.839,-225.001l-109.118,152.231l-152.887,-207.795l-201.306,279.716l0,-192.037l-86.095,120.117l-152.893,-207.797l-201.306,279.717l-0,-189.095l-90.201,-0l-134.509,189.944l-220.168,-307.998l-130.515,181.78l-169.835,-238.052l0,174.326l-290.625,-0l0,-186.322c-74.976,94.781 -191.004,155.597 -321.236,155.597c-129.805,-0 -245.497,-60.413 -320.494,-154.657l-275.645,383.911l-0,-462.352l-325.483,453.325l-0,-1047.65l193.37,-0l140.804,-189.619l220.029,301.519Zm367.559,159.578c-80.991,-0 -146.745,65.696 -146.745,146.615c-0,80.918 65.754,146.614 146.745,146.614c80.991,0 146.745,-65.696 146.745,-146.614c0,-80.919 -65.754,-146.615 -146.745,-146.615Zm1797.24,156.579l-67.406,96.669l67.406,95.361l0,-192.03Z"/>
            <path d="M384.166,732.515l-325.483,453.327l-0,-919.297l177.838,-0l124.867,-168.156l220.337,301.941l20.845,-28.767l0,130.125c58.441,-133.329 191.584,-226.472 346.485,-226.472c160.458,-0 297.573,99.949 352.486,240.983l0,-393.38l372.429,529.492l0,-385.766l230.005,-0l-0,539.965l467.3,-664.375l-0,124.41l184.523,-0l-0,243.282l131.8,-188.761l90.09,123.445l0,-177.966l218.4,-0l0,61.372l68.403,-93.744l196.063,268.672l-179.41,257.299l72.477,102.534l506.808,-720.543l-0,920.06l-171.494,-0l-118.467,167.289l-160.684,-224.785l-109.483,152.74l-152.836,-207.725l-169.777,235.906l0,-192.358l-117.676,164.178l-152.841,-207.726l-169.777,235.906l-0,-123.425l-137.613,-0l-118.467,167.289l-219.992,-307.752l-130.49,181.746l-201.166,-281.967l0,240.684l-228.125,-0l0,-271.708c-54.913,141.036 -192.029,240.983 -352.486,240.983c-154.901,-0 -288.044,-93.14 -346.485,-226.472l0,85.684l-218.404,304.187l0,-462.354Zm387.285,-79.174c-0,98.089 79.515,177.604 177.604,177.604c98.089,-0 177.604,-79.515 177.604,-177.604c0,-98.086 -79.515,-177.604 -177.604,-177.604c-98.089,-0 -177.604,79.518 -177.604,177.604Zm2228.19,-145.124l-16.057,-30.537l0.467,52.963l15.59,-22.426Zm432.661,436.218l-0,-122.924l-43.604,61.118l43.604,61.806Zm-3155.22,-575.968l-0,150.496l54.465,-75.86l-54.465,-74.636Zm2500.6,195.432l-136.838,196.245l136.838,193.587l0,-389.832Zm-634.538,380.536l-0,-122.924l-43.605,61.118l43.605,61.806Z" style="fill:rgb(236,28,36);"/>
            <g>
                <path d="M602.752,501.824c0.203,0.406 0.188,134.606 0.246,142.619c48.646,-128.696 196.336,-323.921 342.061,-323.921c38.85,-0 75.118,12.195 109.897,24.174c-0,-0.262 55.184,46.012 56.46,13.701c0.42,-10.625 -39.989,-59.642 -57.539,-68.407c-34.484,-10.633 -71.08,-16.387 -109.005,-16.387c-153.929,-0 -286.191,94.337 -342.12,228.221" style="fill:white;fill-rule:nonzero;"/>
                <path d="M3153.18,862.298l19.386,28.419l456.56,-649.561l31.305,-99.312l-507.251,720.454Z" style="fill:white;fill-rule:nonzero;"/>
                <path d="M2777.79,266.475l31.206,31.397l155.839,-0l31.27,-31.451l-218.315,0.054Z" style="fill:white;fill-rule:nonzero;"/>
                <path d="M2969.74,417.154l26.417,-89.402l68.289,-93.516l0.105,53.074l-94.811,129.844Z" style="fill:white;fill-rule:nonzero;"/>
                <path d="M2984.04,530.567l-19.005,78.44l67.761,-97.199l-33.152,-3.591l-15.604,22.35Z" style="fill:white;fill-rule:nonzero;"/>
                <path d="M2371.24,266.421l-0.011,31.451l153.321,-0l31.278,-31.451l-184.588,0Z" style="fill:white;fill-rule:nonzero;"/>
                <path d="M2687.69,321.318l0.731,53.507l-163.876,234.426l31.447,-99.926l131.698,-188.007Z" style="fill:white;fill-rule:nonzero;"/>
                <path d="M2339.76,242.164l31.459,-100.056l-467.124,663.756l-23.516,88.309l459.181,-652.009Z" style="fill:white;fill-rule:nonzero;"/>
                <path d="M58.683,266.257l31.404,31.758l155.867,0l-9.396,-31.544l-177.875,-0.214Z" style="fill:white;fill-rule:nonzero;"/>
                <path d="M258.472,289.949l-21.947,-23.414l124.978,-168.146l-0.277,52.832l-102.754,138.728Z" style="fill:white;fill-rule:nonzero;"/>
                <path d="M1673.98,266.421l31.261,31.451l167.486,-0l31.26,-31.328l-230.007,-0.123Z" style="fill:white;fill-rule:nonzero;"/>
                <path d="M415.766,683.063l-0,-48.06l186.986,-263.477l-31.367,96.652l-155.619,214.885Z" style="fill:white;"/>
            </g>
            <g>
                <path d="M266.033,289.784l111.812,153.221l-138.258,192.567l-0,-331.446l-143.404,0l-0,765.271l459.887,-640.525l-194.946,-267.146l-95.091,128.058Z" style="fill:url(#_Linear2);stroke:black;stroke-width:12.5px;"/>
                <path d="M1339.04,1024.78l153.125,0l0,-320.312l238.763,334.662l135.546,-188.787l-0,-546.213l-155.005,0l0,466.763l-372.429,-529.492l0,783.379Z" style="fill:url(#_Linear3);stroke:black;stroke-width:12.5px;"/>
                <path d="M1887.94,894.568l193.23,270.312l85.937,-121.354l-113.542,-160.937l127.084,-178.125l-0,320.312l153.125,0l-0,-764.062l-445.834,633.854Z" style="fill:url(#_Linear4);stroke:black;stroke-width:12.5px;"/>
                <path d="M3180.2,890.661l193.229,270.312l82.832,-117.447l-113.541,-160.937l127.083,-178.125l-0,320.312l153.125,0l-0,-764.062l-442.728,629.947Z" style="fill:url(#_Linear5);stroke:black;stroke-width:12.5px;"/>
                <path d="M2977.34,417.314l63.196,94.445l-81.946,117.359l0,-324.992l-143.4,0l0,765.271l131.942,-183.333l152.775,207.641l86.116,-120.141l-150.695,-213.192l179.166,-256.95l-150,-205.55l-87.154,119.442Z" style="fill:url(#_Linear6);stroke:black;stroke-width:12.5px;"/>
                <path d="M421.666,685.206l-0,393.218l143.404,-199.729l0,-391.39l-143.404,197.901Z" style="fill:url(#_Linear7);stroke:black;stroke-width:12.5px;"/>
                <path d="M2377.51,304.126l2.005,758.851l127.321,-176.913l152.78,207.641l86.112,-120.141l-150.696,-213.192l179.167,-256.95l-85.925,-117.738l-169.975,243.434l-0,-324.992l-140.789,0Z" style="fill:url(#_Linear8);stroke:black;stroke-width:12.5px;"/>
                <path d="M608.43,653.422c-0,-188.117 152.5,-340.625 340.625,-340.625c188.121,-0 340.625,152.508 340.625,340.625c-0,188.125 -152.504,340.629 -340.625,340.629c-188.125,0 -340.625,-152.504 -340.625,-340.629Zm125.521,-0c-0,118.8 96.304,215.104 215.104,215.104c118.8,0 215.104,-96.304 215.104,-215.104c0,-118.796 -96.304,-215.104 -215.104,-215.104c-118.8,-0 -215.104,96.308 -215.104,215.104Z" style="fill:url(#_Linear9);stroke:black;stroke-width:12.5px;"/>
            </g>
        </g>
    </g>
    <defs>
        <linearGradient id="_Linear2" x1="0" y1="0" x2="1" y2="0" gradientUnits="userSpaceOnUse" gradientTransform="matrix(-6.375e-05,-1003.16,1003.16,-6.375e-05,-1272.81,1164.88)"><stop offset="0" style="stop-color:white;stop-opacity:1"/><stop offset="0.35" style="stop-color:white;stop-opacity:1"/><stop offset="0.46" style="stop-color:rgb(0,50,255);stop-opacity:1"/><stop offset="0.55" style="stop-color:black;stop-opacity:1"/><stop offset="1" style="stop-color:black;stop-opacity:1"/></linearGradient>
        <linearGradient id="_Linear3" x1="0" y1="0" x2="1" y2="0" gradientUnits="userSpaceOnUse" gradientTransform="matrix(-6.375e-05,-1003.16,1003.16,-6.375e-05,1445.53,1164.88)"><stop offset="0" style="stop-color:white;stop-opacity:1"/><stop offset="0.35" style="stop-color:white;stop-opacity:1"/><stop offset="0.46" style="stop-color:rgb(0,50,255);stop-opacity:1"/><stop offset="0.55" style="stop-color:black;stop-opacity:1"/><stop offset="1" style="stop-color:black;stop-opacity:1"/></linearGradient>
        <linearGradient id="_Linear4" x1="0" y1="0" x2="1" y2="0" gradientUnits="userSpaceOnUse" gradientTransform="matrix(-6.375e-05,-1003.16,1003.16,-6.375e-05,2467.35,1164.88)"><stop offset="0" style="stop-color:white;stop-opacity:1"/><stop offset="0.35" style="stop-color:white;stop-opacity:1"/><stop offset="0.46" style="stop-color:rgb(0,50,255);stop-opacity:1"/><stop offset="0.55" style="stop-color:black;stop-opacity:1"/><stop offset="1" style="stop-color:black;stop-opacity:1"/></linearGradient>
        <linearGradient id="_Linear5" x1="0" y1="0" x2="1" y2="0" gradientUnits="userSpaceOnUse" gradientTransform="matrix(-6.375e-05,-1003.16,1003.16,-6.375e-05,5005.98,1164.88)"><stop offset="0" style="stop-color:white;stop-opacity:1"/><stop offset="0.35" style="stop-color:white;stop-opacity:1"/><stop offset="0.46" style="stop-color:rgb(0,50,255);stop-opacity:1"/><stop offset="0.55" style="stop-color:black;stop-opacity:1"/><stop offset="1" style="stop-color:black;stop-opacity:1"/></linearGradient>
        <linearGradient id="_Linear6" x1="0" y1="0" x2="1" y2="0" gradientUnits="userSpaceOnUse" gradientTransform="matrix(-6.375e-05,-1003.16,1003.16,-6.375e-05,4168.73,1164.88)"><stop offset="0" style="stop-color:white;stop-opacity:1"/><stop offset="0.35" style="stop-color:white;stop-opacity:1"/><stop offset="0.46" style="stop-color:rgb(0,50,255);stop-opacity:1"/><stop offset="0.55" style="stop-color:black;stop-opacity:1"/><stop offset="1" style="stop-color:black;stop-opacity:1"/></linearGradient>
        <linearGradient id="_Linear7" x1="0" y1="0" x2="1" y2="0" gradientUnits="userSpaceOnUse" gradientTransform="matrix(-1.86196e-13,-1003.16,1003.16,-1.86196e-13,-774.259,1173.91)"><stop offset="0" style="stop-color:white;stop-opacity:1"/><stop offset="0.35" style="stop-color:white;stop-opacity:1"/><stop offset="0.46" style="stop-color:rgb(0,50,255);stop-opacity:1"/><stop offset="0.55" style="stop-color:black;stop-opacity:1"/><stop offset="1" style="stop-color:black;stop-opacity:1"/></linearGradient>
        <linearGradient id="_Linear8" x1="0" y1="0" x2="1" y2="0" gradientUnits="userSpaceOnUse" gradientTransform="matrix(-6.375e-05,-1003.16,1003.16,-6.375e-05,3304.13,1164.88)"><stop offset="0" style="stop-color:white;stop-opacity:1"/><stop offset="0.35" style="stop-color:white;stop-opacity:1"/><stop offset="0.46" style="stop-color:rgb(0,50,255);stop-opacity:1"/><stop offset="0.55" style="stop-color:black;stop-opacity:1"/><stop offset="1" style="stop-color:black;stop-opacity:1"/></linearGradient>
        <linearGradient id="_Linear9" x1="0" y1="0" x2="1" y2="0" gradientUnits="userSpaceOnUse" gradientTransform="matrix(-6.375e-05,-1003.16,1003.16,-6.375e-05,144.61,1164.88)"><stop offset="0" style="stop-color:white;stop-opacity:1"/><stop offset="0.35" style="stop-color:white;stop-opacity:1"/><stop offset="0.46" style="stop-color:rgb(0,50,255);stop-opacity:1"/><stop offset="0.55" style="stop-color:black;stop-opacity:1"/><stop offset="1" style="stop-color:black;stop-opacity:1"/></linearGradient>
    </defs>
</svg>
