<?xml version="1.0" encoding="UTF-8" standalone="no"?>
<!DOCTYPE svg PUBLIC "-//W3C//DTD SVG 1.1//EN" "http://www.w3.org/Graphics/SVG/1.1/DTD/svg11.dtd">
<svg width="100%" height="100%" viewBox="0 0 204 202" version="1.1" xmlns="http://www.w3.org/2000/svg" xmlns:xlink="http://www.w3.org/1999/xlink" xml:space="preserve" xmlns:serif="http://www.serif.com/" style="fill-rule:evenodd;clip-rule:evenodd;stroke-linejoin:round;stroke-miterlimit:2;">
    <g id="Artboard8" transform="matrix(0.0720139,0,0,0.89631,0,0)">
        <g transform="matrix(13.8862,0,0,1.11569,0,0)">
            <path d="M145.882,72.061C137.414,51.74 122.432,44.287 106.428,42.997L106.428,42.997C93.288,41.938 83.299,46.879 75.891,53.681C75.866,53.439 75.838,53.198 75.808,52.957C74.894,45.536 71.915,38.108 65.881,33.742C61.749,30.753 56.147,29.047 48.549,29.98C39.142,31.134 33.697,35.002 30.51,39.52C23.228,49.843 28.363,64.871 28.363,64.871C29.298,67.468 32.164,68.817 34.761,67.883C37.358,66.949 38.707,64.082 37.773,61.485L37.773,61.485C37.773,61.485 36.473,57.817 36.482,53.377C36.487,50.741 36.927,47.772 38.681,45.284C40.606,42.556 44.087,40.602 49.767,39.905C54.237,39.356 57.589,40.086 60.02,41.844C63.83,44.601 65.306,49.493 65.883,54.179C66.554,59.629 65.931,64.986 65.001,67.415C61.544,73.488 59.599,84.466 60.37,95.619C61.164,107.117 64.856,118.66 71.757,125.303C73.043,126.542 74.409,127.685 75.844,128.733C72.713,134.069 68.933,143.313 70.656,155.072C72.181,165.477 79.165,170.88 85.874,173.596C92.109,176.119 97.994,176.202 97.994,176.202C100.753,176.252 103.033,174.052 103.083,171.293C103.132,168.534 100.933,166.254 98.174,166.204L98.174,166.204C98.174,166.204 94.027,166.107 89.626,164.326C85.698,162.737 81.443,159.713 80.55,153.622C79.217,144.524 82.265,137.444 84.561,133.604C97.371,138.902 113.122,138.346 126.963,131.508C136.474,126.809 143.708,122.361 147.843,115.588C152.048,108.701 153.35,99.247 149.738,84.11C149.604,83.549 149.467,82.995 149.326,82.449C154.11,82.819 160.043,82.821 164.879,81.395C170.457,79.75 174.685,76.376 176.084,70.855C178.244,62.332 175.177,48.283 168.552,38.254C163.718,30.935 157.045,25.885 149.72,25.474C146.965,25.32 144.602,27.431 144.448,30.187C144.293,32.942 146.405,35.304 149.16,35.459C153.609,35.708 157.272,39.32 160.208,43.765C165.236,51.377 168.03,61.929 166.39,68.398C166.027,69.833 164.905,70.653 163.59,71.243C162.182,71.874 160.545,72.232 158.848,72.448C154.166,73.044 149.055,72.53 145.882,72.061ZM136.722,76.202C129.975,60.168 118.348,53.99 105.625,52.965L105.625,52.965C89.262,51.646 79.455,62.743 73.816,72.149C73.8,72.178 73.783,72.206 73.765,72.235C70.936,77.003 69.724,85.926 70.346,94.93C70.961,103.836 73.347,112.954 78.692,118.099C80.265,119.613 81.988,120.938 83.831,122.074C84.801,122.21 85.741,122.631 86.517,123.343C86.656,123.472 86.787,123.606 86.909,123.746C97.403,128.732 110.843,128.318 122.533,122.542C130.039,118.834 136.044,115.722 139.308,110.377C142.502,105.145 142.755,97.93 140.011,86.431C139.455,84.1 138.823,81.916 138.121,79.875C137.193,78.911 136.665,77.59 136.722,76.202Z" style="fill:currentColor;"/>
        </g>
    </g>
</svg>
