<?xml version="1.0" encoding="UTF-8" standalone="no"?>
<!DOCTYPE svg PUBLIC "-//W3C//DTD SVG 1.1//EN" "http://www.w3.org/Graphics/SVG/1.1/DTD/svg11.dtd">
<svg width="100%" height="100%" viewBox="0 0 204 202" version="1.1" xmlns="http://www.w3.org/2000/svg" xmlns:xlink="http://www.w3.org/1999/xlink" xml:space="preserve" xmlns:serif="http://www.serif.com/" style="fill-rule:evenodd;clip-rule:evenodd;stroke-linejoin:round;stroke-miterlimit:2;">
    <g id="Artboard8" transform="matrix(0.0720139,0,0,0.89631,0,0)">
        <g transform="matrix(13.8862,0,0,1.11569,0,0)">
            <path d="M95.785,24.32L95.772,24.32C80.676,24.324 66.752,30.652 56.259,37.332C51.952,33.753 49.573,30.978 49.573,30.978C47.773,28.885 44.614,28.647 42.522,30.446C40.429,32.246 40.191,35.405 41.99,37.497C41.99,37.497 44.062,39.901 47.863,43.231C41.106,48.439 37.106,52.687 37.106,52.687C35.222,54.704 35.33,57.871 37.347,59.754C39.364,61.638 42.531,61.53 44.414,59.513C44.414,59.513 48.744,54.833 55.916,49.509C64.475,55.429 76.561,61.562 90.985,62.772C91.314,89.34 92.155,129.128 94.282,172.594C94.416,175.351 96.764,177.479 99.52,177.344C102.276,177.209 104.405,174.862 104.27,172.105C102.153,128.848 101.314,89.246 100.986,62.78C116.012,61.518 128.377,54.664 136.887,48.248C145.791,54.556 153.115,62.187 158.556,69.338C160.227,71.534 163.367,71.96 165.563,70.289C167.759,68.619 168.186,65.479 166.515,63.283C160.937,55.953 153.565,48.234 144.684,41.618C147.942,38.498 149.695,36.312 149.695,36.312C151.417,34.156 151.066,31.007 148.91,29.285C146.754,27.562 143.605,27.914 141.882,30.07C141.882,30.07 139.881,32.585 136.202,35.948C124.578,29.033 110.944,24.32 95.785,24.32ZM100.781,34.516C100.785,38.524 100.807,44.744 100.878,52.755C111.697,51.711 120.865,47.28 127.769,42.607C119.703,38.315 110.651,35.291 100.781,34.516ZM90.781,34.582C81.174,35.579 72.288,39.296 64.92,43.566C71.762,47.792 80.612,51.701 90.878,52.725C90.807,44.777 90.785,38.595 90.781,34.582Z" style="fill:currentColor;"/>
        </g>
    </g>
</svg>
