<?xml version="1.0" encoding="UTF-8" standalone="no"?>
<!DOCTYPE svg PUBLIC "-//W3C//DTD SVG 1.1//EN" "http://www.w3.org/Graphics/SVG/1.1/DTD/svg11.dtd">
<svg width="100%" height="100%" viewBox="0 0 204 202" version="1.1" xmlns="http://www.w3.org/2000/svg" xmlns:xlink="http://www.w3.org/1999/xlink" xml:space="preserve" xmlns:serif="http://www.serif.com/" style="fill-rule:evenodd;clip-rule:evenodd;stroke-linejoin:round;stroke-miterlimit:2;">
    <g id="Artboard8" transform="matrix(0.0720139,0,0,0.89631,0,0)">
        <g transform="matrix(13.8862,0,0,1.11569,0,0)">
            <path d="M87.187,43.745C86.581,43.373 85.966,43.027 85.346,42.706C78.801,39.314 71.8,38.826 70.482,38.763L70.503,38.765C69.437,38.666 63.932,38.269 58.069,39.884C54.349,40.908 50.521,42.691 47.432,45.699C45.771,46.653 44.354,47.009 43.093,46.758C40.825,46.307 39.336,44.287 38.208,42.513C36.59,39.97 35.821,37.48 35.821,37.48C35.02,34.839 32.225,33.346 29.585,34.147C26.944,34.948 25.45,37.742 26.251,40.383C26.251,40.383 28.034,46.239 31.893,50.773C34.169,53.446 37.123,55.629 40.671,56.464C40.978,56.536 41.289,56.599 41.606,56.652C41.553,56.905 41.503,57.161 41.456,57.421C38.34,74.696 52.03,84.505 66.418,86.285C66.904,93.725 68.031,109.89 69.821,129.441C64.95,132.071 59.689,132.445 55.025,131.962C46.694,131.098 40.102,127.48 40.102,127.48C37.687,126.145 34.642,127.022 33.307,129.438C31.973,131.853 32.85,134.898 35.265,136.232C35.265,136.232 43.53,140.824 53.995,141.908C59.31,142.459 65.155,142.107 70.819,139.956C71.786,149.786 72.905,160.179 74.18,170.549C74.517,173.288 77.014,175.238 79.753,174.901C82.492,174.565 84.442,172.068 84.105,169.329C82.633,157.351 81.369,145.342 80.31,134.215C85.723,129.362 89.74,122.349 93.349,114.455C98.893,102.322 103.497,87.932 113.384,78.487C116.708,75.312 119.516,72.781 121.908,70.852C124.107,69.079 126.643,67.716 127.717,67.173C128.085,67.984 128.751,69.549 129.116,70.948C130.045,74.508 128.097,79.071 125.834,84.362C121.47,94.564 115.097,106.635 113.912,118.45C112.925,128.281 110.881,138.462 111.578,144.592C112.06,148.833 113.809,151.71 116.31,153.229C117.983,154.245 120.12,154.793 122.888,154.405C125.412,154.052 128.808,152.777 133.195,150.105C143.916,143.574 150.712,133.034 155.583,125.171C156.878,123.081 158.024,121.209 159.083,119.726C160.328,122.665 159.964,125.928 160.186,129.353C160.59,135.588 161.821,142.274 168.698,149.253C170.634,151.218 173.803,151.242 175.768,149.305C177.734,147.368 177.757,144.199 175.821,142.234C170.067,136.395 170.259,130.745 170.01,125.696C169.76,120.623 169.131,115.966 165.91,111.71C164.026,109.221 161.972,108.335 160.123,108.158C157.736,107.929 154.904,109.011 152.247,112.211C150.189,114.69 147.819,118.841 144.812,123.52C140.863,129.665 135.677,136.884 127.992,141.565C126.152,142.686 124.581,143.498 123.232,144.012C122.737,144.2 122.128,144.339 121.69,144.423C121.643,144.255 121.601,144.074 121.576,143.922C121.407,142.867 121.387,141.628 121.438,140.251C121.651,134.525 123.116,126.885 123.862,119.449C124.948,108.621 131.029,97.644 135.028,88.295C138.342,80.547 140.152,73.637 138.793,68.424C137.904,65.016 136.824,62.447 135.556,60.738C134.143,58.834 132.438,57.7 130.472,57.193C128.182,56.603 125.224,56.879 121.495,58.968C117.938,60.961 113.107,64.922 106.476,71.256C97.386,79.941 92.082,92.263 87.069,103.902C84.511,109.841 82.099,115.615 79.05,120.35C77.729,105.101 76.862,92.706 76.435,86.217C85.688,84.98 92.74,81.013 96.213,74.844C98.765,70.311 99.569,64.449 97.535,57.166C97.119,55.678 96.582,54.306 95.944,53.042C95.23,50.005 96.429,46.959 97.905,44.323C100.747,39.245 105.077,35.526 105.077,35.526C107.171,33.729 107.413,30.569 105.616,28.475C103.819,26.381 100.659,26.139 98.565,27.936C98.565,27.936 92.896,32.796 89.178,39.439C88.41,40.812 87.732,42.255 87.187,43.745ZM71.323,76.586C72.117,76.578 72.902,76.538 73.671,76.467C80.004,75.885 85.192,74.036 87.499,69.938C88.952,67.358 89.062,64.002 87.904,59.856C86.411,54.511 82.048,51.889 78.196,50.464C73.89,48.872 70.006,48.751 70.006,48.751C69.863,48.747 69.721,48.737 69.579,48.721C69.579,48.721 65.309,48.263 60.723,49.525C56.736,50.623 52.388,53.147 51.297,59.196C49.116,71.287 60.692,76.551 70.915,76.587C71.052,76.581 71.189,76.581 71.323,76.586Z" style="fill:currentColor;"/>
        </g>
    </g>
</svg>
