<?xml version="1.0" encoding="UTF-8" standalone="no"?>
<!DOCTYPE svg PUBLIC "-//W3C//DTD SVG 1.1//EN" "http://www.w3.org/Graphics/SVG/1.1/DTD/svg11.dtd">
<svg width="100%" height="100%" viewBox="0 0 204 202" version="1.1" xmlns="http://www.w3.org/2000/svg" xmlns:xlink="http://www.w3.org/1999/xlink" xml:space="preserve" xmlns:serif="http://www.serif.com/" style="fill-rule:evenodd;clip-rule:evenodd;stroke-linejoin:round;stroke-miterlimit:2;">
    <g id="Artboard8" transform="matrix(0.0720139,0,0,0.89631,0,0)">
        <g transform="matrix(13.8862,0,0,1.11569,0,0)">
            <path d="M88.835,88.559L62.901,68.004C64.96,64.856 67.128,61.737 69.341,59.033C71.728,56.119 74.071,53.666 76.454,52.599C78.973,51.472 80.102,48.511 78.975,45.993C77.847,43.474 74.887,42.345 72.368,43.472C68.845,45.049 65.131,48.39 61.604,52.699C58.291,56.745 55.06,61.658 52.121,66.3C52.054,66.397 51.992,66.495 51.934,66.595C50.893,68.241 49.89,69.849 48.934,71.369C43.192,80.496 29.839,92.826 29.839,92.826C27.816,94.702 27.698,97.869 29.575,99.892C31.452,101.915 34.618,102.033 36.641,100.156C36.641,100.156 51.135,86.648 57.398,76.694L57.52,76.499L85.725,98.854L50.067,139.499C48.247,141.573 48.454,144.735 50.528,146.555C52.603,148.375 55.764,148.168 57.584,146.094L90.451,108.631C93.117,137.625 98.101,169.234 102.176,183.758C102.922,186.415 105.684,187.967 108.341,187.221C110.998,186.476 112.55,183.713 111.804,181.056C107.966,167.378 103.342,138.181 100.69,110.716L129.902,133.87C132.065,135.584 135.212,135.22 136.926,133.057C138.641,130.895 138.276,127.747 136.114,126.033L100.175,97.547L129.943,63.616C138.761,76.649 157.581,91.491 166.602,100.107C168.597,102.013 171.765,101.94 173.671,99.944C175.577,97.949 175.504,94.781 173.509,92.875C164.312,84.091 144.127,68.706 136.815,55.749C136.222,54.699 135.56,53.673 134.842,52.677C134.701,52.447 134.54,52.228 134.359,52.02C125.007,39.604 107.184,31.552 107.184,31.552C104.661,30.435 101.705,31.576 100.587,34.099C99.47,36.622 100.611,39.578 103.134,40.696C103.134,40.696 115.904,46.219 124.055,55.164L98.494,84.299C95.74,54.242 90.563,18.545 90.563,18.545C90.167,15.814 87.628,13.918 84.897,14.314C82.166,14.71 80.271,17.249 80.667,19.98C80.667,19.98 86.206,58.149 88.835,88.559Z" style="fill:currentColor;"/>
        </g>
    </g>
</svg>
