<?xml version="1.0" encoding="UTF-8" standalone="no"?>
<!DOCTYPE svg PUBLIC "-//W3C//DTD SVG 1.1//EN" "http://www.w3.org/Graphics/SVG/1.1/DTD/svg11.dtd">
<svg width="100%" height="100%" viewBox="0 0 204 202" version="1.1" xmlns="http://www.w3.org/2000/svg" xmlns:xlink="http://www.w3.org/1999/xlink" xml:space="preserve" xmlns:serif="http://www.serif.com/" style="fill-rule:evenodd;clip-rule:evenodd;stroke-linejoin:round;stroke-miterlimit:2;">
    <g id="Artboard8" transform="matrix(0.0720139,0,0,0.89631,0,0)">
        <g transform="matrix(13.8862,0,0,1.11569,0,0)">
            <path d="M91.956,67.21C85.812,60.706 77.864,55.298 68.762,54.628C59.144,53.921 51.351,59.285 45.649,66.339C38.031,75.764 34.282,87.966 34.282,87.966C33.473,90.604 34.959,93.403 37.598,94.211C40.236,95.02 43.035,93.534 43.843,90.896C43.843,90.896 46.993,80.584 53.426,72.625C57.093,68.089 61.843,64.146 68.028,64.601C74.679,65.091 80.292,69.402 84.767,74.162C88.781,78.433 91.884,83.174 93.883,86.618C94.916,97.222 95.897,107.648 96.666,116.531C98,131.926 97.809,142.848 97.902,151.614C95.155,147.429 92.239,143.302 89.357,139.763C77.526,125.233 61.44,118.347 61.44,118.347C58.904,117.259 55.962,118.433 54.873,120.969C53.784,123.505 54.959,126.447 57.495,127.536C57.495,127.536 71.376,133.518 81.603,146.077C92.363,159.292 103.599,181.126 103.599,181.126L103.621,181.169C103.63,181.185 103.639,181.201 103.647,181.218L103.67,181.258L103.681,181.279L103.7,181.312C104.102,182.019 104.655,182.593 105.297,183.014L105.312,183.023L105.343,183.043L105.366,183.058C106.122,183.537 107.003,183.811 107.918,183.834L107.928,183.834L107.954,183.834C108.574,183.846 109.203,183.742 109.809,183.513L109.85,183.497L109.855,183.495C110.132,183.388 110.397,183.256 110.647,183.104L110.675,183.086L110.687,183.079C111.281,182.71 111.774,182.231 112.153,181.682L112.164,181.666L112.182,181.641L112.199,181.616C112.566,181.066 112.829,180.439 112.957,179.761C112.957,179.761 116.873,159.086 129.878,140.097C143.835,119.716 149.831,105.935 149.831,105.935C150.936,103.406 149.779,100.456 147.251,99.352C144.722,98.247 141.772,99.403 140.667,101.932C140.667,101.932 134.92,115.036 121.627,134.446C115.429,143.497 111.122,152.9 108.235,160.636C108.08,158.691 107.998,156.655 107.949,154.48C107.734,145.044 108.149,133.214 106.629,115.668C106.035,108.811 105.315,101.037 104.543,92.976C105.479,92.046 106.037,90.755 106.017,89.36C106.017,89.36 105.898,80.794 109.205,72.804C110.968,68.546 113.712,64.372 118.348,62.236C121.48,60.793 125.421,60.323 130.358,61.152C156.901,65.609 159.254,86.856 159.254,86.856C159.511,89.604 161.95,91.626 164.698,91.37C167.445,91.113 169.468,88.674 169.211,85.926C169.211,85.926 166.898,57.148 132.014,51.29C124.666,50.057 118.824,51.006 114.163,53.154C108.523,55.753 104.54,60.172 101.799,65.15C99.45,41.889 97.358,22.304 97.358,22.304C97.065,19.56 94.599,17.57 91.855,17.863C89.111,18.156 87.121,20.622 87.414,23.366C87.414,23.366 89.569,43.529 91.956,67.21Z" style="fill:currentColor;"/>
        </g>
    </g>
</svg>
