<?xml version="1.0" encoding="UTF-8" standalone="no"?>
<!DOCTYPE svg PUBLIC "-//W3C//DTD SVG 1.1//EN" "http://www.w3.org/Graphics/SVG/1.1/DTD/svg11.dtd">
<svg width="100%" height="100%" viewBox="0 0 204 202" version="1.1" xmlns="http://www.w3.org/2000/svg" xmlns:xlink="http://www.w3.org/1999/xlink" xml:space="preserve" xmlns:serif="http://www.serif.com/" style="fill-rule:evenodd;clip-rule:evenodd;stroke-linejoin:round;stroke-miterlimit:2;">
    <g id="Artboard8" transform="matrix(0.0720139,0,0,0.89631,0,0)">
        <g transform="matrix(13.8862,0,0,1.11569,0,0)">
            <path d="M88.271,42.789C71.352,43.212 58.31,44.048 58.31,44.048C55.556,44.225 53.464,46.604 53.641,49.358C53.818,52.112 56.197,54.204 58.951,54.027C58.951,54.027 72.145,53.178 89.13,52.764C89.55,58.582 89.895,65.241 90.081,72.712C90.29,81.076 90.44,90.685 90.65,100.737C51.478,103.952 12.105,108.629 12.105,108.629C9.365,108.955 7.405,111.444 7.73,114.184C8.056,116.924 10.545,118.885 13.285,118.559C13.285,118.559 52.103,113.947 90.881,110.751C91.101,119.345 91.392,128.069 91.821,136.452C77.529,138.243 65.782,139.666 65.782,139.666C63.042,139.998 61.087,142.492 61.419,145.232C61.751,147.971 64.245,149.926 66.985,149.594C66.985,149.594 78.393,148.211 92.418,146.455C92.926,153.816 93.576,160.731 94.421,166.839C65.543,167.256 39.429,167.573 39.429,167.573C36.67,167.606 34.457,169.874 34.49,172.633C34.524,175.392 36.791,177.605 39.551,177.572C39.551,177.572 66.621,177.243 96.149,176.814C96.402,177.971 96.667,179.075 96.945,180.12C97.655,182.787 100.396,184.376 103.063,183.667C105.729,182.957 107.318,180.216 106.609,177.549C106.532,177.259 106.455,176.963 106.38,176.663C130.286,176.303 153.949,175.896 164.604,175.56C167.362,175.473 169.531,173.164 169.444,170.405C169.357,167.647 167.047,165.478 164.289,165.565C153.4,165.908 128.9,166.326 104.458,166.691C103.513,160.374 102.809,153.06 102.275,145.213C113.558,143.78 125.206,142.263 133.294,141.112C136.026,140.723 137.928,138.189 137.539,135.457C137.151,132.725 134.617,130.823 131.885,131.212C123.996,132.335 112.711,133.806 101.692,135.207C101.285,126.981 101.018,118.412 100.818,109.965C105.913,109.58 110.955,109.228 115.848,108.924C160.48,106.153 190.135,108.912 190.135,108.912C192.882,109.169 195.321,107.146 195.578,104.399C195.835,101.651 193.813,99.212 191.065,98.955C191.065,98.955 160.791,96.114 115.229,98.943C110.467,99.239 105.565,99.58 100.606,99.953C100.417,90.09 100.283,80.664 100.078,72.463C99.894,65.059 99.556,58.423 99.143,52.585C110.146,52.462 121.897,52.591 132.266,53.262C135.02,53.44 137.401,51.349 137.579,48.595C137.757,45.842 135.666,43.461 132.912,43.283C122.077,42.582 109.76,42.461 98.303,42.601C96.957,28.939 95.402,21.78 95.402,21.78C94.82,19.083 92.157,17.365 89.459,17.947C86.762,18.53 85.045,21.192 85.627,23.89C85.627,23.89 87.018,30.382 88.271,42.789Z" style="fill:currentColor;"/>
        </g>
    </g>
</svg>
