<?xml version="1.0" encoding="UTF-8" standalone="no"?>
<!DOCTYPE svg PUBLIC "-//W3C//DTD SVG 1.1//EN" "http://www.w3.org/Graphics/SVG/1.1/DTD/svg11.dtd">
<svg width="100%" height="100%" viewBox="0 0 204 202" version="1.1" xmlns="http://www.w3.org/2000/svg" xmlns:xlink="http://www.w3.org/1999/xlink" xml:space="preserve" xmlns:serif="http://www.serif.com/" style="fill-rule:evenodd;clip-rule:evenodd;stroke-linejoin:round;stroke-miterlimit:2;">
    <g id="Artboard8" transform="matrix(0.0720139,0,0,0.89631,0,0)">
        <g transform="matrix(13.8862,0,0,1.11569,0,0)">
            <path d="M94.73,70.639C93.721,74.46 92.613,79.936 91.852,87.352C91.4,91.758 91.356,97.621 91.427,104.096C62.34,101.355 52.069,96.705 52.069,96.705C50.86,96.142 49.476,96.086 48.225,96.548C46.974,97.011 45.96,97.954 45.408,99.168C45.408,99.168 38.969,113.342 37.286,128.104C36.042,139.02 37.586,150.118 44.72,157.151C49.177,161.544 53.384,162.736 57.019,162.385C60.697,162.031 64.072,159.974 66.883,156.776C73.242,149.542 76.697,136.021 76.697,136.021C77.36,133.342 75.724,130.629 73.046,129.965C70.367,129.302 67.654,130.938 66.99,133.617C66.99,133.617 65.107,141.283 61.482,147.241C60.557,148.761 59.526,150.172 58.341,151.216C57.639,151.835 56.912,152.349 56.06,152.432C54.716,152.561 53.389,151.654 51.741,150.029C46.678,145.038 46.338,136.984 47.222,129.236C48.197,120.684 50.957,112.354 52.787,107.532C58.843,109.375 70.936,112.259 91.583,114.15C91.813,128.151 91.915,142.959 89.421,151.481C84.861,167.066 85.516,193.135 85.516,193.135C85.591,195.894 87.891,198.072 90.65,197.997C93.409,197.922 95.587,195.621 95.512,192.863C95.512,192.863 94.797,168.718 99.019,154.289C101.641,145.326 101.57,129.602 101.403,114.923C103.489,115.062 105.649,115.191 107.884,115.308C133.593,116.651 147.76,116.593 155.141,116.303C153.315,125.165 150.201,141.371 148.912,154.603C146.825,176.032 152.799,184.168 152.799,184.168C154.343,186.455 157.453,187.058 159.741,185.514C162.028,183.97 162.631,180.86 161.087,178.573C161.087,178.573 157.248,172.178 158.865,155.573C160.691,136.821 166.297,111.934 166.297,111.934C166.665,110.299 166.189,108.587 165.028,107.377C163.868,106.166 162.179,105.618 160.529,105.917C160.529,105.917 151.04,107.549 108.406,105.321C105.943,105.193 103.576,105.05 101.304,104.895C101.273,98.513 101.352,92.745 101.8,88.372C102.465,81.891 103.395,77.141 104.22,73.866C110.809,75.416 116.411,75.204 121.022,73.938C132.325,70.833 138.242,61.419 139.003,52.795C140.151,39.8 144.091,9.912 112.135,4.576C92.352,1.273 82.319,7.173 78.267,18.587C74.442,29.364 66.069,57.658 93.998,70.313C94.242,70.424 94.486,70.533 94.73,70.639ZM106.366,64.109C111.05,65.238 115.045,65.209 118.374,64.295C125.029,62.467 128.594,56.993 129.042,51.915C129.424,47.596 130.354,40.958 129.582,34.263C129.077,29.878 127.842,25.434 124.909,21.827C121.993,18.241 117.403,15.594 110.488,14.44C97.536,12.277 90.344,14.459 87.691,21.932C84.816,30.032 77.134,51.693 98.125,61.205C98.395,61.327 98.664,61.446 98.93,61.562C100.375,60.628 102.265,60.466 103.909,61.299C105.107,61.907 105.955,62.932 106.366,64.109Z" style="fill:currentColor;"/>
        </g>
    </g>
</svg>
