<?xml version="1.0" encoding="UTF-8" standalone="no"?>
<svg
   xmlns:dc="http://purl.org/dc/elements/1.1/"
   xmlns:cc="http://creativecommons.org/ns#"
   xmlns:rdf="http://www.w3.org/1999/02/22-rdf-syntax-ns#"
   xmlns:svg="http://www.w3.org/2000/svg"
   xmlns="http://www.w3.org/2000/svg"
   xmlns:sodipodi="http://sodipodi.sourceforge.net/DTD/sodipodi-0.dtd"
   xmlns:inkscape="http://www.inkscape.org/namespaces/inkscape"
   width="210mm"
   height="297mm"
   viewBox="0 0 210 297"
   version="1.1"
   id="svg8"
   inkscape:version="1.0.2 (e86c8708, 2021-01-15)"
   sodipodi:docname="CandyRain.svg">
  <defs
     id="defs2" />
  <sodipodi:namedview
     id="base"
     pagecolor="#ffffff"
     bordercolor="#666666"
     borderopacity="1.0"
     inkscape:pageopacity="0.0"
     inkscape:pageshadow="2"
     inkscape:zoom="0.35"
     inkscape:cx="-378.57143"
     inkscape:cy="331.42857"
     inkscape:document-units="mm"
     inkscape:current-layer="layer1"
     inkscape:document-rotation="0"
     showgrid="false"
     inkscape:window-width="1842"
     inkscape:window-height="894"
     inkscape:window-x="1687"
     inkscape:window-y="388"
     inkscape:window-maximized="0" />
  <metadata
     id="metadata5">
    <rdf:RDF>
      <cc:Work
         rdf:about="">
        <dc:format>image/svg+xml</dc:format>
        <dc:type
           rdf:resource="http://purl.org/dc/dcmitype/StillImage" />
        <dc:title></dc:title>
      </cc:Work>
    </rdf:RDF>
  </metadata>
  <g
     inkscape:label="Layer 1"
     inkscape:groupmode="layer"
     id="layer1">
    <g
       id="path847"
       style="opacity:1"
       transform="matrix(0.53601096,0,0,0.53601096,206.41597,85.966062)">
      <path
         style="color:#000000;font-style:normal;font-variant:normal;font-weight:normal;font-stretch:normal;font-size:medium;line-height:normal;font-family:sans-serif;font-variant-ligatures:normal;font-variant-position:normal;font-variant-caps:normal;font-variant-numeric:normal;font-variant-alternates:normal;font-variant-east-asian:normal;font-feature-settings:normal;font-variation-settings:normal;text-indent:0;text-align:start;text-decoration:none;text-decoration-line:none;text-decoration-style:solid;text-decoration-color:#000000;letter-spacing:normal;word-spacing:normal;text-transform:none;writing-mode:lr-tb;direction:ltr;text-orientation:mixed;dominant-baseline:auto;baseline-shift:baseline;text-anchor:start;white-space:normal;shape-padding:0;shape-margin:0;inline-size:0;clip-rule:nonzero;display:inline;overflow:visible;visibility:visible;isolation:auto;mix-blend-mode:normal;color-interpolation:sRGB;color-interpolation-filters:linearRGB;solid-color:#000000;solid-opacity:1;vector-effect:none;fill:#ffffff;fill-opacity:1;fill-rule:nonzero;stroke:none;stroke-width:11.965;stroke-linecap:round;stroke-linejoin:round;stroke-miterlimit:4;stroke-dasharray:none;stroke-dashoffset:0;stroke-opacity:1;color-rendering:auto;image-rendering:auto;shape-rendering:auto;text-rendering:auto;enable-background:accumulate;stop-color:#000000;stop-opacity:1"
         d="m -135.14993,-51.609978 c -3.35721,-1.098285 -5.29165,-3.959424 -5.00451,-7.401938 0.18649,-2.235812 0.80086,-3.902938 4.43666,-12.039094 l 3.16564,-7.08405 -7.41524,-17.77941 c -8.4612,-20.2873 -9.11091,-22.03853 -8.90749,-24.00945 0.25737,-2.49367 1.85122,-4.70664 4.15111,-5.76359 1.67879,-0.77151 4.95124,-0.767 6.6412,0.009 1.53804,0.70637 2.96579,2.12851 3.81056,3.79558 0.36253,0.71543 2.63157,6.38976 5.04231,12.60962 2.41074,6.21985 4.48698,11.49435 4.61388,11.7211 0.19163,0.34242 0.27418,0.3002 0.48721,-0.24919 1.82699,-4.71178 9.04191,-21.98889 9.72898,-23.29732 1.04144,-1.98339 2.87252,-3.96373 4.2924,-4.64237 2.20734,-1.055 5.46579,-0.6468 7.64527,0.95775 0.7556,0.55627 1.38282,1.36337 1.94159,2.49839 1.032275,2.09686 1.109485,4.35605 0.24363,7.12973 -0.68045,2.17983 -24.34484,57.704923 -25.32545,59.422572 -1.12206,1.965399 -2.18491,3.164059 -3.31825,3.742243 -1.3892,0.708718 -4.62224,0.906076 -6.2295,0.380272 z M -343.79096,-71.86994 c -13.4185,-1.69435 -23.40666,-9.86783 -27.65025,-22.62665 -1.37444,-4.13242 -1.87904,-7.04213 -2.0643,-11.90361 -0.44739,-11.7402 2.95715,-21.5577 10.00072,-28.83857 3.52963,-3.64853 7.44562,-6.1558 12.34718,-7.90545 8.19322,-2.92463 20.53848,-2.53278 27.45084,0.87132 3.99501,1.9674 6.06118,4.81917 6.05414,8.35603 -0.006,2.94172 -1.29757,5.23155 -3.77156,6.68592 -1.9365,1.13839 -3.70529,1.00065 -8.84427,-0.68873 -5.20329,-1.71054 -7.37883,-2.06331 -10.35508,-1.67911 -7.95001,1.02624 -12.99418,5.8601 -15.15726,14.52529 -0.3355,1.34403 -0.45003,2.98892 -0.4565,6.55663 -0.0101,5.55 0.46587,8.03736 2.22753,11.64167 3.33598,6.82534 9.12796,9.89738 17.20873,9.12743 3.11289,-0.2966 4.78925,-0.70213 8.35263,-2.0206 5.27773,-1.9528 9.02992,-0.97411 10.79256,2.81504 0.42428,0.91209 0.55446,1.71676 0.55644,3.43959 0.002,1.99859 -0.0844,2.40593 -0.77851,3.65904 -2.05352,3.70715 -6.80817,6.36627 -13.57012,7.58934 -2.74413,0.49634 -9.76292,0.7212 -12.34292,0.39542 z m 48.4505,0.006 c -4.8262,-0.88086 -8.93544,-3.16819 -12.57488,-6.99957 -5.06304,-5.33007 -7.72628,-12.45068 -7.72628,-20.65747 0,-8.2068 2.66324,-15.32741 7.72628,-20.65748 3.22037,-3.39021 6.72463,-5.51473 10.92685,-6.62461 2.77891,-0.73397 8.10323,-0.68759 10.58333,0.0922 2.43081,0.76427 4.90825,2.26032 6.42072,3.87727 l 1.2197,1.30396 0.4021,-0.63733 c 0.22116,-0.35052 1.00237,-1.25054 1.73604,-2.00002 3.68613,-3.76562 9.82819,-2.49076 12.14552,2.52094 0.56252,1.21656 0.5655,1.33321 0.5655,22.1251 v 20.90208 l -0.63124,1.39685 c -2.14597,4.74871 -8.2293,6.01392 -11.99223,2.49413 -0.72235,-0.67567 -1.48838,-1.56693 -1.70228,-1.98059 l -0.38893,-0.75209 -1.71682,1.606 c -1.81771,1.70038 -3.79845,2.84367 -6.19037,3.5731 -1.68921,0.51513 -6.91124,0.76283 -8.80301,0.41755 z m 9.46506,-15.32691 c 3.66291,-1.62029 5.86122,-5.05967 6.52613,-10.21052 0.68234,-5.28591 -1.2071,-10.81317 -4.53708,-13.27249 -1.46798,-1.08418 -4.09446,-1.944 -5.93824,-1.944 -6.1854,0 -10.4712,5.36047 -10.4712,13.09688 0,6.51119 2.79387,11.07257 7.80521,12.7431 1.53955,0.5132 5.01137,0.29646 6.61518,-0.41298 z m 102.21611,15.33078 c -7.87238,-1.44363 -14.30707,-6.73901 -17.69753,-14.56404 -1.84368,-4.25514 -2.63064,-8.17306 -2.63064,-13.09687 0,-13.30147 7.16399,-24.02672 18.14638,-27.1671 2.73193,-0.78118 8.30285,-0.85016 10.94026,-0.13545 2.26712,0.61437 4.65749,1.70766 6.03864,2.76191 0.61997,0.47323 1.18048,0.86043 1.24558,0.86043 0.0651,0 0.15336,-4.61368 0.19614,-10.25261 0.0752,-9.91267 0.0967,-10.28769 0.64718,-11.31093 0.77308,-1.43693 2.30152,-2.91017 3.76982,-3.63365 1.80901,-0.89137 4.70189,-0.8393 6.53253,0.11759 1.57202,0.82171 2.86903,2.20646 3.65239,3.89949 0.55686,1.20349 0.55713,1.21956 0.55713,33.61552 v 32.41146 l -0.70398,1.32292 c -2.47967,4.65979 -8.21311,5.77038 -11.91475,2.30793 -0.72496,-0.67812 -1.49312,-1.57138 -1.70703,-1.98504 l -0.38892,-0.75209 -1.71683,1.606 c -1.81771,1.70038 -3.79845,2.84367 -6.19037,3.5731 -1.68039,0.51245 -6.91014,0.76358 -8.776,0.42142 z m 9.17288,-15.20536 c 4.8603,-2.02755 7.68695,-8.19823 6.77125,-14.78188 -0.76026,-5.46609 -3.2677,-8.93851 -7.39444,-10.24017 -3.87207,-1.22133 -7.5436,-0.25147 -10.27208,2.71344 -2.13877,2.3241 -3.25994,5.7128 -3.25994,9.85306 0,6.51119 2.79386,11.07257 7.80521,12.7431 1.37427,0.45811 4.95079,0.29615 6.35,-0.28755 z m -79.0121,98.356242 c -4.82621,-0.88085 -8.93543,-3.16818 -12.57488,-6.99956 -5.06304,-5.33007 -7.72628,-12.45068 -7.72628,-20.65747 0,-8.2068 2.66324,-15.32741 7.72628,-20.65748 3.22038,-3.39021 6.72463,-5.51473 10.92684,-6.62461 2.77892,-0.73397 8.10324,-0.68759 10.58334,0.0922 2.4308,0.76427 4.90825,2.260322 6.42072,3.87727 l 1.2197,1.30396 0.40209,-0.63733 c 0.22117,-0.35052 1.00237,-1.25054 1.73604,-2.00002 3.68615,-3.76562 9.82818,-2.49076 12.14554,2.52094 0.5625,1.21656 0.56549,1.33321 0.56549,22.1251 v 20.90208 l -0.63124,1.39685 c -2.14597,4.748717 -8.22931,6.01392 -11.99224,2.49413 -0.72234,-0.67567 -1.48836,-1.56693 -1.70228,-1.98059 l -0.38891,-0.75209 -1.71683,1.606 c -1.81771,1.700376 -3.79846,2.84367 -6.19037,3.5731 -1.68921,0.51513 -6.91124,0.76283 -8.80301,0.41755 z m 9.46507,-15.32691 c 3.66289,-1.62029 5.86121,-5.05967 6.52611,-10.21052 0.68236,-5.28591 -1.20708,-10.81317 -4.53708,-13.27249 -1.46798,-1.08417 -4.09445,-1.94399 -5.93822,-1.94399 -6.18541,0 -10.47121,5.36047 -10.47121,13.09688 0,6.51119 2.79387,11.07257 7.80521,12.7431 1.53956,0.5132 5.01137,0.29646 6.61519,-0.41298 z m -7.65768,-68.995092 c -2.37757,-0.88644 -4.14985,-2.68799 -4.97631,-5.05854 -0.53311,-1.5291 -0.54699,-40.9276 -0.0151,-42.75635 0.50772,-1.74556 2.04058,-3.617 3.74696,-4.5746 1.28767,-0.72263 1.69854,-0.81669 3.57188,-0.81768 3.1251,-0.002 5.0843,1.00951 7.00427,3.615 l 0.71826,0.97471 0.98415,-1.17735 c 2.98768,-3.57424 8.98225,-5.2465 15.63514,-4.36163 7.74295,1.02986 12.87582,5.11189 14.99352,11.92394 l 0.6169,1.98437 v 17.4625 17.4625 l -0.70398,1.32292 c -0.84467,1.58731 -2.05126,2.7785 -3.66165,3.61493 -1.68724,0.87634 -4.66276,0.87634 -6.35,0 -1.61039,-0.83643 -2.81697,-2.02762 -3.66164,-3.61493 l -0.70398,-1.32292 -0.1398,-14.68437 c -0.14842,-15.59077 -0.12936,-15.36318 -1.46312,-17.4625 -1.64823,-2.59429 -3.94626,-3.81849 -7.15389,-3.81099 -1.79441,0.004 -2.38399,0.12329 -3.63121,0.7335 -1.66133,0.81281 -3.13567,2.34387 -3.98259,4.13582 -0.54763,1.1587 -0.56627,1.58797 -0.69502,16.00729 -0.12822,14.3609 -0.14943,14.85371 -0.68941,16.02074 -1.30203,2.81398 -3.71822,4.48994 -6.71892,4.66048 -1.0667,0.0606 -2.10133,-0.0445 -2.7245,-0.27684 z m -70.92417,83.165962 c -2.51204,-0.83206 -3.67923,-1.851695 -4.74324,-4.14365 l -0.67556,-1.45521 v -29.50104 -29.50104 l 0.62603,-1.34442 c 0.75447,-1.620245 2.17622,-3.05693 3.83304,-3.87322 1.22288,-0.60249 1.23915,-0.6032 13.92431,-0.6032 9.50881,0 13.09889,0.0874 14.2875,0.3477 9.0841,1.98962 14.80952,7.02187 17.12688,15.0533 0.50165,1.73866 0.59523,2.70375 0.5975,6.16254 0.003,4.75978 -0.31451,6.29284 -2.02826,9.78959 -0.88268,1.80098 -1.55438,2.69959 -3.37209,4.51128 -1.88259,1.87634 -2.6987,2.47204 -4.78341,3.49152 -1.38244,0.67606 -3.20971,1.4059 -4.06058,1.62187 -0.85088,0.21597 -1.59967,0.44529 -1.66397,0.50961 -0.0643,0.0643 3.34754,3.85283 7.58193,8.41893 8.66061,9.33909 9.34228,10.30677 9.35818,13.28497 0.0217,4.03484 -3.1515,7.17129 -7.59502,7.50736 -2.57662,0.19486 -4.4603,-0.35666 -6.07627,-1.7791 -0.67045,-0.59015 -5.83927,-6.90343 -11.4863,-14.02952 l -10.26734,-12.95652 -0.13229,11.57698 c -0.12677,11.09352 -0.15574,11.6277 -0.69392,12.79127 -0.72356,1.56431 -2.24486,3.07627 -3.78034,3.7571 -1.50461,0.66714 -4.50776,0.84948 -5.97678,0.3629 z m 24.60625,-40.87223 c 1.6787,-0.76742 2.90295,-1.9396 3.78126,-3.62038 0.58317,-1.11602 0.69308,-1.67464 0.70268,-3.57188 0.013,-2.56377 -0.45937,-3.76299 -2.14699,-5.4506 -1.93944,-1.93945 -2.58132,-2.079736 -9.94372,-2.17294 l -6.54844,-0.0829 v 7.84601 7.84602 l 6.41614,-0.0943 c 6.0121,-0.0883 6.49947,-0.13236 7.73907,-0.69905 z m 88.23854,40.99492 c -2.45786,-0.409642 -4.11308,-2.31661 -5.13141,-4.51748 -0.55158,-1.19209 -0.55714,-1.41207 -0.55714,-22.10615 0,-20.69409 0.006,-20.91407 0.55714,-22.10616 0.78293,-1.6921 2.07973,-3.07719 3.65238,-3.90103 1.86299,-0.97594 4.99357,-1.02065 6.77069,-0.0967 1.53078,0.79587 2.51815,1.731041 3.39704,3.21744 l 0.704,1.19062 0.0723,21.26182 0.0723,21.26181 -0.62529,1.36006 c -1.3268,2.885919 -3.50715,4.41663 -6.50435,4.56634 -0.96039,0.048 -2.02981,-0.06759 -2.4076,-0.13056 z m 21.88175,-0.13384 c -2.37758,-0.88644 -4.14986,-2.68799 -4.97631,-5.05854 -0.53311,-1.5291 -0.547,-40.9276 -0.0151,-42.75635 0.50773,-1.74556 2.04059,-3.617 3.74697,-4.5746 1.28765,-0.72263 1.69852,-0.81669 3.57188,-0.81768 3.1251,-0.002 5.08429,1.009508 7.00426,3.615 l 0.71826,0.97471 0.98415,-1.17735 c 2.98771,-3.574232 8.98226,-5.2465 15.63515,-4.36163 7.74295,1.02986 12.87576,5.11191 14.99351,11.92394 l 0.61691,1.98437 v 17.4625 17.4625 l -0.70398,1.32292 c -0.84467,1.587313 -2.05126,2.7785 -3.66165,3.61493 -1.68725,0.87634 -4.66275,0.87634 -6.35,0 -1.61038,-0.83643 -2.81698,-2.027608 -3.66165,-3.61493 l -0.70397,-1.32292 -0.13981,-14.68437 c -0.1484,-15.59077 -0.12935,-15.36318 -1.46312,-17.4625 -1.64822,-2.59429 -3.94626,-3.81849 -7.15388,-3.81099 -1.7944,0.004 -2.38398,0.12329 -3.63122,0.7335 -1.66132,0.81281 -3.13566,2.34387 -3.98259,4.13582 -0.54763,1.1587 -0.56626,1.58797 -0.69501,16.00729 -0.12821,14.3609 -0.14943,14.85371 -0.68942,16.02074 -1.30202,2.81398 -3.71822,4.48994 -6.71891,4.66048 -1.06669,0.0606 -2.10132,-0.0445 -2.72449,-0.27684 z m -22.41092,-58.07528 c -2.43308,-0.79819 -4.56181,-2.61011 -5.77792,-4.91802 -0.61632,-1.16965 -0.70197,-1.63812 -0.70289,-3.84545 0,-2.02543 0.11086,-2.75592 0.57531,-3.76164 0.85955,-1.8612 2.73799,-3.72016 4.65288,-4.60461 1.41936,-0.65559 1.96326,-0.76015 3.89845,-0.74949 2.79617,0.0154 4.61463,0.79643 6.4683,2.77815 1.87652,2.00617 2.3923,3.34308 2.39389,6.2053 0,2.03186 -0.10274,2.60331 -0.70803,3.89475 -0.84418,1.80115 -2.62217,3.61034 -4.37281,4.44956 -1.36467,0.65419 -5.1294,0.9772 -6.42718,0.55145 z"
         id="path881" />
      <path
         style="color:#000000;font-style:normal;font-variant:normal;font-weight:normal;font-stretch:normal;font-size:medium;line-height:normal;font-family:sans-serif;font-variant-ligatures:normal;font-variant-position:normal;font-variant-caps:normal;font-variant-numeric:normal;font-variant-alternates:normal;font-variant-east-asian:normal;font-feature-settings:normal;font-variation-settings:normal;text-indent:0;text-align:start;text-decoration:none;text-decoration-line:none;text-decoration-style:solid;text-decoration-color:#000000;letter-spacing:normal;word-spacing:normal;text-transform:none;writing-mode:lr-tb;direction:ltr;text-orientation:mixed;dominant-baseline:auto;baseline-shift:baseline;text-anchor:start;white-space:normal;shape-padding:0;shape-margin:0;inline-size:0;clip-rule:nonzero;display:inline;overflow:visible;visibility:visible;isolation:auto;mix-blend-mode:normal;color-interpolation:sRGB;color-interpolation-filters:linearRGB;solid-color:#000000;solid-opacity:1;vector-effect:none;fill:#ffffff;fill-opacity:1;fill-rule:nonzero;stroke:none;stroke-linecap:round;stroke-linejoin:round;stroke-miterlimit:4;stroke-dasharray:none;stroke-dashoffset:0;stroke-opacity:1;color-rendering:auto;image-rendering:auto;shape-rendering:auto;text-rendering:auto;enable-background:accumulate;stop-color:#000000;stop-opacity:1"
         d="m -159.63086,-155.23438 c -1.96141,-0.0375 -3.93749,0.44382 -6.01758,1.46876 -2.88016,1.41914 -4.86906,3.33425 -6.39258,6.16601 -0.40431,0.75154 -1.10432,3.01954 -1.20703,4.81445 -0.1027,1.79492 -0.11667,4.32507 -0.15429,9.28516 -0.003,0.34627 -0.009,0.54907 -0.0117,0.88672 -4.75634,-1.274 -9.38868,-1.16542 -14.07227,0.17383 -7.55809,2.16121 -13.50902,7.26289 -17.41406,13.92578 -3.11032,-7.96237 -10.43436,-13.42007 -19.33203,-14.60352 -6.36405,-0.84645 -12.6074,0.0784 -17.4043,3.33594 -2.36485,-1.48051 -5.08447,-2.44115 -7.73047,-2.43945 -2.07313,0.001 -4.928,0.70203 -6.49609,1.58203 -1.9427,1.09022 -3.4598,2.47246 -4.63867,4.16211 -4.29507,-5.76994 -12.72169,-7.42035 -18.61328,-3.26953 -1.69453,-1.11606 -3.50553,-2.04603 -5.4961,-2.67188 -4.75247,-1.49427 -9.2411,-1.40157 -13.90429,-0.16992 -5.23071,1.38152 -9.88298,4.23249 -13.73633,8.28906 -6.17392,6.49954 -9.37305,15.27627 -9.37305,24.777346 0,1.035453 0.1841,2.020865 0.25977,3.037109 -3.08679,-0.524894 -6.1539,-0.0069 -9.16016,1.105469 -3.36512,1.245111 -4.04155,1.408784 -6.84375,1.675781 -6.31624,0.601823 -8.81828,-0.791613 -11.26563,-5.798828 -1.47151,-3.010687 -1.62861,-3.799197 -1.61914,-9.003907 0.006,-3.44301 0.14215,-4.57753 0.27735,-5.11914 1.76038,-7.05201 4.21613,-9.27902 10.11914,-10.04102 2.14797,-0.27727 2.75558,-0.20255 7.7207,1.42969 2.71711,0.89322 4.74052,1.50747 7.02734,1.68555 2.28683,0.17808 4.97167,-0.49755 6.7168,-1.52344 4.0548,-2.38367 6.7131,-7.14361 6.72266,-11.83008 0.0117,-5.87316 -4.07738,-11.11782 -9.39453,-13.73632 -9.28183,-4.57099 -21.95901,-4.75983 -32.10352,-1.13868 -5.65566,2.01883 -10.52193,5.12746 -14.63672,9.38086 -8.24232,8.52002 -12.17589,20.20548 -11.67969,33.22656 0.19755,5.18379 0.86573,9.048162 2.36719,13.562505 4.88935,14.700353 17.15134,24.726138 32.57617,26.673828 4.25739,0.537586 9.96735,0.314656 14.15821,-0.443359 7.36114,-1.331449 13.57789,-4.27057 17.08203,-9.72461 0.37288,0.437084 0.65119,0.940772 1.04883,1.359375 4.13586,4.353982 9.24535,7.271719 14.89648,8.511719 a 5.9830983,5.9830983 0 0 0 0.94141,0.253906 c 2.15097,0.39259 3.83428,0.299931 5.83398,0.205078 1.99971,-0.09485 3.5532,-0.103916 5.78711,-0.785156 2.01189,-0.613536 3.86024,-1.607271 5.60742,-2.761718 6.01864,4.241288 14.5504,2.657294 18.77149,-3.285157 1.40429,1.963243 3.28334,3.535384 5.46484,4.589844 a 5.9830983,5.9830983 0 0 0 1.16797,0.589844 c 2.10077,0.783241 3.47782,0.739773 5.1543,0.644531 5.03589,-0.286207 9.70224,-3.568799 11.80859,-8.121094 0.19611,-0.423841 0.6006,-1.476851 0.77148,-2.40625 0.17089,-0.929398 0.22591,-1.762053 0.2754,-2.912109 0.099,-2.300112 0.13118,-5.979326 0.19531,-13.162109 0.0643,-7.207608 0.10679,-10.955628 0.18555,-12.769528 0.0281,-0.64723 0.046,-0.73262 0.0605,-0.8711 0.30655,-0.50855 0.85189,-1.07095 1.07813,-1.18164 0.85515,-0.41839 -0.51657,-0.12158 1.01562,-0.125 1.67881,-0.004 1.33647,-0.15176 2.0918,1.03711 0.71244,1.12137 0.12759,-0.66118 0.26367,0.96289 0.13608,1.62407 0.1914,5.55011 0.26563,13.347658 l 0.14062,14.685547 a 5.9830983,5.9830983 0 0 0 0.70117,2.753906 l 0.70313,1.322266 c 1.37148,2.577299 3.59807,4.769356 6.18554,6.113281 1.40679,0.730674 2.7075,1.009449 3.98829,1.160156 -1.06826,1.150702 -2.0255,2.415249 -2.74024,3.962891 -0.77482,1.677802 -1.12695,4.025804 -1.12695,6.269531 a 5.9830983,5.9830983 0 0 0 0,0.002 c 9.8e-4,2.361735 0.5757,5.082553 1.39258,6.632813 1.01461,1.925514 2.3907,3.586096 4.02539,4.9375 -0.52748,0.525376 -0.92374,1.140929 -1.36328,1.742187 -4.31234,-5.711233 -12.69776,-7.324655 -18.56446,-3.191406 -1.69429,-1.115774 -3.50587,-2.046127 -5.49609,-2.671875 -4.75248,-1.494267 -9.2411,-1.399615 -13.9043,-0.167969 -5.23069,1.381522 -9.88297,4.230548 -13.73633,8.28711 -0.48439,0.509942 -0.8297,1.119017 -1.27734,1.65625 -0.0373,-3.046791 -0.24279,-5.122694 -0.80078,-7.056641 -2.86046,-9.913693 -10.96536,-16.91 -21.5957,-19.238281 -1.68717,-0.369482 -2.82036,-0.351305 -5.15821,-0.408203 -2.33785,-0.0569 -5.63547,-0.07813 -10.4082,-0.07813 -6.34269,0 -9.46341,-0.007 -11.51953,0.08203 -2.05612,0.08907 -4.42879,0.831237 -5.04883,1.136719 -2.93605,1.446547 -5.21601,3.714155 -6.61328,6.714843 l -0.625,1.34375 a 5.9830983,5.9830983 0 0 0 -0.55859,2.525391 v 29.501953 29.5000002 a 5.9830983,5.9830983 0 0 0 0.55468,2.5195313 l 0.67578,1.4550781 c 1.48227,3.1929084 4.91728,6.1878534 8.28907,7.3046874 2.10135,0.696027 3.58762,0.642007 5.21875,0.542969 1.63112,-0.09904 3.14848,-0.267652 5.06445,-1.117188 3.19722,-1.417645 5.33688,-3.58372 6.78516,-6.7148434 0.39835,-0.8612565 0.9392,-2.9105782 1.04492,-4.859375 0.0523,-0.9648599 0.0707,-3.50533073 0.0996,-5.1367187 2.77279,3.4967834 5.43499,6.8102343 7.49804,9.3300781 1.05487,1.2884333 1.95672,2.373734 2.66211,3.205078 0.7054,0.831344 0.61574,0.934677 1.89258,2.058594 2.77103,2.439169 6.8388,3.529312 10.48047,3.253906 5.56099,-0.420586 10.51746,-4.160446 12.3418,-9.2597655 0.35619,0.4153731 0.61941,0.8963224 0.99804,1.2949219 4.13246,4.3503866 9.23724,7.2640316 14.88282,8.5058596 a 5.9830983,5.9830983 0 0 0 0.95507,0.257812 c 2.15098,0.39259 3.83428,0.29993 5.83399,0.205078 1.99971,-0.09485 3.55319,-0.103916 5.78711,-0.785156 2.01174,-0.613494 3.86229,-1.605436 5.60937,-2.759765 5.91103,4.163944 14.26471,2.732751 18.5625,-2.951172 1.73557,2.427011 4.35302,4.661377 8.02539,5.273437 1.01266,0.16879 2.0297,0.288032 3.68946,0.205078 4.06939,-0.203266 7.93388,-2.642666 10.3164,-5.988281 1.41296,2.041029 3.34434,3.668938 5.58594,4.755859 a 5.9830983,5.9830983 0 0 0 1.18359,0.597657 c 2.10077,0.78324 3.47783,0.739774 5.1543,0.644531 5.03589,-0.286208 9.70225,-3.568776 11.8086,-8.1210939 0.19611,-0.423836 0.60059,-1.4768418 0.77148,-2.40625 0.17089,-0.9294081 0.2259,-1.762049 0.27539,-2.9121093 0.099,-2.30012073 0.13119,-5.9773709 0.19531,-13.1601558 0.0644,-7.207614 0.10679,-10.957581 0.18555,-12.771485 0.0281,-0.648265 0.0461,-0.733192 0.0605,-0.871094 0.30655,-0.508568 0.85189,-1.070956 1.07812,-1.18164 0.85519,-0.4184 -0.51656,-0.121585 1.01563,-0.125 1.67879,-0.0039 1.33453,-0.151743 2.08984,1.037109 0.71245,1.121373 0.12955,-0.661171 0.26563,0.962891 0.13607,1.624061 0.1914,5.552065 0.26562,13.3496091 l 0.14062,14.6835938 a 5.9830983,5.9830983 0 0 0 0.70118,2.7539062 l 0.70312,1.3222657 c 1.37151,2.5773622 3.59812,4.7693752 6.18555,6.1132812 2.12021,1.101215 4.01637,1.332031 5.93164,1.332031 1.91527,0 3.81338,-0.230816 5.93359,-1.332031 2.58747,-1.343918 4.81406,-3.535958 6.18555,-6.1132812 l 0.70313,-1.3222657 a 5.9830983,5.9830983 0 0 0 0.70117,-2.8105469 V -12.662109 -30.125 a 5.9830983,5.9830983 0 0 0 -0.26953,-1.775391 l -0.61719,-1.984375 c -2.73013,-8.78184 -10.4695,-14.821419 -19.91797,-16.078125 -6.36412,-0.846461 -12.60543,0.08033 -17.40234,3.337891 -2.36493,-1.480652 -5.08434,-2.4431 -7.73047,-2.441406 -2.07315,0.0011 -4.92801,0.703975 -6.4961,1.583984 -1.95812,1.098873 -3.48396,2.492467 -4.66601,4.201172 -0.48526,-0.667666 -0.95936,-1.342223 -1.56446,-1.935547 1.72032,-1.40633 3.19535,-3.03456 4.20899,-5.197265 0.7827,-1.669958 1.27344,-4.200066 1.27344,-6.433594 a 5.9830983,5.9830983 0 0 0 0,-0.0039 c -0.002,-3.579894 -1.59911,-7.711987 -4.00782,-10.28711 -2.44881,-2.617977 -6.26178,-4.301187 -9.90039,-4.570312 0.68485,-0.800714 1.39333,-1.591871 1.88282,-2.511719 l 0.70312,-1.322266 a 5.9830983,5.9830983 0 0 0 0.69727,-2.607422 c 4.49784,6.315568 11.05394,10.772562 18.69531,12.173829 a 5.9830983,5.9830983 0 0 0 1.75195,0.06055 c 1.35529,0.10017 2.67684,0.207633 4.07227,0.140625 1.99577,-0.09584 3.53968,-0.101405 5.77539,-0.783203 2.01101,-0.613269 3.8589,-1.60604 5.60547,-2.759765 6.4861,4.546032 16.04159,2.253673 19.84961,-4.902344 l 0.70312,-1.322266 a 5.9830983,5.9830983 0 0 0 0.70117,-2.810547 v -17.197265 c 0.39053,0.937387 0.3611,0.908633 0.79102,1.939453 l 6.41992,15.394531 -2.11133,4.724609 c -1.82878,4.092442 -2.91974,6.585716 -3.66406,8.605469 -0.74432,2.019753 -1.1452,3.839491 -1.27344,5.376953 -0.49496,5.934103 3.47746,11.744139 9.10742,13.585938 a 5.9830983,5.9830983 0 0 0 1.36133,0.27539 c 1.45865,0.296216 2.75693,0.362663 4.0586,0.283204 1.70583,-0.104131 3.22082,-0.190921 5.38867,-1.296875 2.76614,-1.411172 4.38564,-3.635017 5.79492,-6.103516 0.49731,-0.871089 0.44782,-0.886467 0.69141,-1.423828 0.24358,-0.537361 0.55353,-1.236916 0.92968,-2.091797 0.75231,-1.709763 1.76459,-4.035594 2.95118,-6.783203 2.37317,-5.495218 5.44503,-12.670385 8.50976,-19.861328 3.06473,-7.190944 6.11964,-14.394398 8.455079,-19.947269 1.167721,-2.77643 2.155561,-5.13801 2.878907,-6.89062 0.723345,-1.75262 0.945576,-2.07729 1.423828,-3.60938 1.171353,-3.75231 1.146197,-8.0362 -0.585938,-11.55468 -0.845952,-1.71837 -2.056087,-3.41672 -3.763672,-4.67383 -4.081944,-3.00516 -8.955684,-3.83883 -13.771484,-1.53711 -3.69988,1.76838 -5.38851,4.17018 -7.00977,7.25781 h 0.002 c -0.6876,1.30944 -0.94835,2.06247 -1.75977,3.96289 -0.80011,1.87395 -1.81364,4.28277 -2.86133,6.79102 -0.9504,-2.43818 -1.90937,-4.88812 -2.64843,-6.73633 -0.9246,-2.31219 -1.18161,-3.16738 -1.97071,-4.72461 -1.45319,-2.86774 -3.62087,-5.13599 -6.65039,-6.52734 -2.17177,-0.99724 -3.95072,-1.12833 -5.8125,-1.13086 -1.58776,-0.002 -3.16233,0.19732 -4.93164,0.8457 -0.0103,-1.88247 4.7e-4,-6.7621 -0.0195,-7.96875 -0.0359,-2.16562 -0.0745,-3.36753 -0.20508,-4.49609 -0.13059,-1.12857 -0.69271,-2.72204 -0.83398,-3.02735 -1.3181,-2.84873 -3.49038,-5.21532 -6.31055,-6.68945 -2.02238,-1.05712 -3.97023,-1.61486 -5.93164,-1.65235 z m -0.72852,12.20313 c -0.54214,0.26714 1.50068,0.25319 1.11719,0.0527 0.26674,0.13943 0.57023,0.51305 0.81836,0.91407 0.0308,0.38344 0.0819,1.11473 0.11133,2.89257 0.0676,4.07666 0.0684,12.20829 0.0684,28.40626 v 30.917964 l -0.002,0.0059 c -0.86831,1.631718 -1.56204,1.671198 -2.54688,0.75 -0.17527,-0.163944 -0.43361,-0.436515 -0.5957,-0.625 -0.16209,-0.188485 -0.31286,-0.568086 0.11523,0.259766 l -0.38867,-0.751953 a 5.9830983,5.9830983 0 0 0 -9.40039,-1.621094 l -1.7168,1.607422 c -1.21132,1.133131 -2.24456,1.729283 -3.84961,2.21875 0.55532,-0.169348 -1.3537,0.205042 -2.85937,0.277344 -1.50567,0.0723 -3.38964,-0.0722 -3.0918,-0.01758 -5.88834,-1.079798 -10.60301,-4.863822 -13.28711,-11.058593 -1.55798,-3.595769 -2.13867,-6.432386 -2.13867,-10.71875 0,-11.153406 5.6268,-19.074506 13.80859,-21.414066 0.75448,-0.21574 7.24153,-0.24631 7.73243,-0.11328 1.56239,0.4234 3.65216,1.49756 3.97265,1.74219 0.37565,0.28673 0.72418,0.54303 1.06055,0.77539 0.16819,0.11618 0.3219,0.22156 0.55664,0.36523 0.11737,0.0718 0.24264,0.14911 0.51172,0.28516 0.26908,0.13605 -0.22726,0.66211 2.74609,0.66211 2.6e-4,0 2.89037,-0.744 2.89063,-0.74414 2.5e-4,-1.4e-4 1.5349,-1.21066 1.53515,-1.21094 2.6e-4,-2.8e-4 0.53341,-0.66454 0.68555,-0.91406 0.15214,-0.24952 0.25028,-0.44962 0.32813,-0.61914 0.31139,-0.6781 0.34299,-0.93597 0.39257,-1.14844 0.0992,-0.42494 0.10569,-0.55558 0.1211,-0.68359 0.0308,-0.25604 0.035,-0.36706 0.043,-0.49219 0.0159,-0.25025 0.0251,-0.48173 0.0352,-0.77148 0.0202,-0.57952 0.0385,-1.34833 0.0566,-2.29493 0.0362,-1.89319 0.0703,-4.47225 0.0918,-7.31054 0.0376,-4.95259 0.0703,-7.56679 0.13477,-8.69336 0.002,-0.033 -0.009,0.0148 -0.008,-0.0137 0.26303,-0.26542 0.90426,-0.8929 0.95117,-0.91602 z m -176.75195,4.14844 c 4.35104,0.14986 8.49027,0.85795 10.76172,1.97656 2.67287,1.31629 2.71723,1.776 2.71484,2.97656 -0.002,1.06069 -0.0422,1.07713 -0.65039,1.42383 -0.40833,-0.0409 -1.75275,-0.32102 -4.11523,-1.09766 -5.44145,-1.78883 -9.18375,-2.41885 -12.98828,-1.92773 -9.99701,1.29048 -17.63149,8.7314 -20.19727,19.00977 -0.5358,2.14644 -0.62807,4.30173 -0.63476,7.99414 -0.0107,5.89529 0.78413,10.081357 2.83593,14.279293 4.22462,8.643465 13.3051,13.393156 23.15039,12.455078 3.42359,-0.326203 6.09969,-0.973406 9.86133,-2.365234 1.90108,-0.703413 2.96508,-0.609139 3.12891,-0.566406 0.16383,0.04273 -0.11561,-0.3063 0.16406,0.294921 0.0541,0.116354 -0.004,-0.501731 -0.002,0.921876 7.2e-4,0.717667 0.0849,0.61071 0.14648,0.552734 -0.0367,0.01237 -0.0744,0.01809 -0.17578,0.201172 -0.74443,1.343894 -3.65153,3.561381 -9.40234,4.601562 -1.2974,0.234665 -9.62473,0.461631 -10.52735,0.347656 -11.41216,-1.44101 -19.12482,-7.762791 -22.72265,-18.580078 -1.24741,-3.750494 -1.5907,-5.704964 -1.76367,-10.244144 -0.39858,-10.45932 2.47745,-18.40944 8.32226,-24.45117 2.94447,-3.04365 5.91113,-4.94922 10.0586,-6.42969 3.12096,-1.11405 7.68411,-1.5229 12.03515,-1.37304 z m 171.6875,9.95312 c 0.18651,0.0832 0.2852,0.13046 0.31641,0.20508 -0.0495,-0.0371 -0.0741,-0.053 -0.125,-0.0918 -0.0606,-0.0463 -0.1305,-0.0679 -0.19141,-0.11328 z m -64.03906,7.55664 c 1.12366,-0.0819 2.34963,-0.058 3.65234,0.11524 6.03744,0.80301 8.565,2.92735 10.07032,7.76953 l 0.3457,1.11719 v 16.554684 15.96875 l -0.002,0.0059 c -0.31785,0.597304 -0.50536,0.788248 -1.13868,1.117188 0.43299,-0.224889 9e-5,-0.01758 -0.41601,-0.01758 -0.41611,0 -0.85095,-0.20731 -0.41797,0.01758 -0.6333,-0.328935 -0.82081,-0.519867 -1.13867,-1.117188 l -0.0156,-0.03125 -0.12695,-13.222656 c -0.0742,-7.793228 -0.0817,-11.547768 -0.30664,-14.232418 -0.22494,-2.68466 -1.46852,-5.40291 -2.08985,-6.38086 -2.54113,-3.99971 -7.48034,-6.59702 -12.21679,-6.58594 -0.29333,6.5e-4 -0.62618,0.084 -0.93555,0.10547 1.19148,-0.55233 2.7655,-1.03993 4.73633,-1.1836 z m -65.99805,0.35352 c 0.89462,-0.23629 7.054,-0.0497 7.26172,0.0156 1.40935,0.44312 3.30206,1.67662 3.8457,2.25782 l 1.21875,1.30273 a 5.9830983,5.9830983 0 0 0 9.42969,-0.89453 l 0.40235,-0.63672 c -0.70535,1.11791 0.40726,-0.45218 0.95117,-1.00781 0.83935,-0.85746 1.56285,-0.7463 2.30468,0.6875 0.017,0.1925 0.0516,0.48645 0.0781,1.52344 0.0662,2.58981 0.0703,7.85434 0.0703,18.249996 v 19.613281 l -0.0996,0.222656 c -0.56297,1.245765 -1.56364,1.421723 -2.45507,0.587891 -0.17329,-0.162085 -0.42878,-0.43174 -0.58985,-0.619141 -0.16107,-0.187401 -0.31098,-0.564487 0.11524,0.259766 l -0.38868,-0.751953 a 5.9830983,5.9830983 0 0 0 -9.40039,-1.621094 l -1.71679,1.607422 c -1.21132,1.133131 -2.24457,1.729283 -3.84961,2.21875 0.5447,-0.16611 -1.35673,0.205883 -2.86328,0.277344 -1.50656,0.07146 -3.37835,-0.07075 -3.11914,-0.02344 -3.61671,-0.660107 -6.40287,-2.171292 -9.3125,-5.234375 -3.95217,-4.160606 -6.08008,-9.6246 -6.08008,-16.537109 0,-6.912524 2.12791,-12.376504 6.08008,-16.537104 2.58739,-2.72385 4.94345,-4.1227 8.11718,-4.96094 z m 45.67774,0.62695 c -0.0525,0.0597 -0.19497,0.13705 0.42187,0.13672 a 5.9830983,5.9830983 0 0 0 0.002,0 c 1.83259,-0.001 0.97797,-0.45445 2.1836,1.18164 l 0.71875,0.97461 a 5.9830983,5.9830983 0 0 0 2.90625,2.11914 c -1.10293,1.15916 -2.01714,2.49183 -2.7207,3.98047 -0.19229,0.40684 -0.61591,1.47276 -0.79297,2.41211 -0.17707,0.93935 -0.23142,1.7684 -0.28125,2.91601 -0.0997,2.29524 -0.13092,5.97189 -0.19532,13.183599 -0.0641,7.178116 -0.10687,10.925631 -0.18554,12.753906 -0.0308,0.716003 -0.0562,0.875018 -0.0684,0.988281 -0.40506,0.815915 -0.63514,0.969713 -1.51172,1.019532 -0.19215,0.01092 -0.39416,-0.02997 -0.53711,-0.05469 -0.4633,-0.217861 -0.76784,-0.521236 -0.97656,-0.933594 -0.0147,-0.245895 -0.0297,-0.451969 -0.0449,-0.822265 -0.0469,-1.141632 -0.0895,-2.783025 -0.12305,-4.72461 -0.067,-3.88317 -0.10171,-8.986878 -0.10352,-14.095703 -0.002,-5.108826 0.0295,-10.232656 0.0937,-14.154296 0.0322,-1.96082 0.0729,-3.62533 0.11914,-4.79883 0.0172,-0.43639 0.0341,-0.71337 0.0508,-0.98633 0.10959,-0.0473 0.69778,-0.83748 0.82031,-0.90624 0.19414,-0.10896 0.20808,-0.14927 0.22461,-0.18946 z m 142.25586,0.0488 c -0.40112,0.19171 1.24251,0.17496 1.51953,0.37891 -0.19639,-0.14458 -0.15245,-0.22941 0.11914,0.32226 0.33241,0.67524 0.46075,0.91003 -0.0996,2.70508 0.30814,-0.98713 -0.35763,0.90152 -1.0625,2.60938 -0.70487,1.70785 -1.68583,4.05398 -2.84766,6.8164 -2.32365,5.52484 -5.37263,12.718971 -8.43164,19.896486 -3.059,7.177514 -6.12732,14.341648 -8.48828,19.808593 -1.18048,2.733473 -2.18578,5.042982 -2.91797,6.707032 -0.36609,0.832024 -0.66582,1.504937 -0.87695,1.970703 -0.21113,0.465766 -0.55833,1.08607 -0.1836,0.429687 -0.75331,1.319497 -1.03905,1.391447 -0.75976,1.244141 -0.19821,0.05154 -0.47586,0.129034 -0.76172,0.146484 -0.6598,0.04028 -1.50395,-0.16273 -0.9707,0.01172 -1.08446,-0.354771 -0.98362,-0.265872 -0.9043,-1.216797 0.0583,-0.698349 0.0597,-0.829526 0.57813,-2.236328 0.51843,-1.406802 1.55236,-3.81566 3.35937,-7.859375 l 3.16602,-7.083984 a 5.9830983,5.9830983 0 0 0 0.0586,-4.744141 l -7.41406,-17.779297 c -4.228,-10.137414 -6.50907,-15.670764 -7.61524,-18.652344 -0.53306,-1.43683 -0.75282,-2.20839 -0.82031,-2.5 0.0622,-0.33116 0.30364,-0.72166 0.6543,-0.88281 -0.5048,0.23198 0.1939,-0.0301 0.81054,-0.0293 0.61521,8.4e-4 1.31115,0.25756 0.83594,0.0391 0.0466,0.0214 0.73436,0.5961 0.9707,1.0625 -0.42656,-0.8418 0.63192,1.49902 1.53516,3.75781 0.90324,2.2588 2.06728,5.21875 3.26563,8.31055 1.20858,3.11822 2.33391,5.99804 3.17578,8.136722 0.42093,1.06934 0.77042,1.952371 1.02929,2.597656 0.12944,0.322642 0.23604,0.583583 0.32422,0.796875 0.0882,0.213291 -0.28845,-0.35842 0.44336,0.949219 0.16289,0.291058 0.27876,0.709844 1.25782,1.626953 0.48952,0.458554 1.29953,1.116299 2.6621,1.464844 1.36258,0.348544 3.15411,0.08894 4.25977,-0.476563 2.21132,-1.131002 2.39634,-2.146807 2.66016,-2.638672 0.26381,-0.491864 0.3543,-0.749681 0.44531,-0.984375 0.8449,-2.178979 3.12546,-7.733129 5.23437,-12.783209 1.05446,-2.52503 2.07353,-4.94455 2.86524,-6.79882 0.79171,-1.85428 1.69172,-3.75288 1.34765,-3.09766 0.46163,-0.87915 2.4363,-2.43649 1.57618,-2.02539 z m -182.29688,1.74414 c -4.82091,0 -9.36556,2.31173 -12.22851,5.89258 -2.86296,3.58085 -4.22461,8.21262 -4.22461,13.185546 0,8.222533 4.41654,15.927135 11.89453,18.419922 2.28938,0.76315 3.80892,0.655495 5.54883,0.546874 1.34672,-0.08407 2.65845,-0.301809 4.10937,-0.767578 a 5.9830983,5.9830983 0 0 0 1.26953,-0.398437 c 5.71742,-2.529102 9.2031,-8.438085 10.03906,-14.914063 0.92966,-7.201794 -1.01022,-14.489904 -6.91601,-18.851564 -2.99519,-2.2121 -5.78851,-3.11328 -9.49219,-3.11328 z m 112.08008,0.0937 c -4.48439,-0.0716 -8.96472,1.73934 -12.03906,5.08008 -3.39548,3.68971 -4.8418,8.68401 -4.8418,13.904296 0,8.222527 4.41849,15.927137 11.89648,18.419922 2.36488,0.788327 3.67047,0.62194 5.32813,0.546874 1.65766,-0.07506 3.02706,-0.07675 5.2168,-0.990234 8.08019,-3.370781 11.61191,-12.374252 10.39453,-21.126958 -0.95989,-6.90139 -5.14684,-13.11039 -11.52149,-15.12109 -1.44331,-0.45525 -2.93879,-0.68901 -4.43359,-0.71289 z m -1.42969,11.86719 c 0.60149,-0.15806 1.27822,-0.055 2.26367,0.25586 1.87884,0.59262 2.70891,1.32859 3.26954,5.35937 0.61401,4.414601 -1.50804,7.753183 -3.14844,8.437502 0.79053,-0.32978 -0.32838,0.04081 -1.15235,0.07813 -0.82396,0.03731 -1.99451,-0.27553 -1.0039,0.05469 -2.54471,-0.848276 -3.71289,-2.268507 -3.71289,-7.068359 0,-3.060233 0.79567,-4.842283 1.67773,-5.800783 0.67892,-0.73775 1.20515,-1.15835 1.80664,-1.3164 z m -110.65039,0.004 c -0.0161,0 2.44204,0.81718 2.38281,0.77344 0.75417,0.55698 2.59323,4.32334 2.15821,7.693361 -0.49386,3.825722 -1.40332,4.794382 -3.01172,5.50586 0.4525,-0.200163 -0.50332,0.117206 -1.28516,0.166015 -0.78184,0.04881 -1.76936,-0.206982 -1.01953,0.04297 -2.54469,-0.848274 -3.71289,-2.268513 -3.71289,-7.068359 0,-2.763487 0.77917,-4.679407 1.60547,-5.712897 0.82629,-1.03348 1.51832,-1.40039 2.88281,-1.40039 z m 81.23242,46.689458 c -0.0138,0.01341 0.0475,0.09294 0.9043,0.09766 1.69648,0.0093 1.07685,-0.248047 2.13281,0.880859 1.34434,1.437217 0.78006,-0.0215 0.78125,2.123047 0.002,1.806731 0.28409,0.441242 -0.14258,1.351562 -0.12759,0.272245 -1.39074,1.520775 -1.54296,1.59375 0.90527,-0.433968 -0.30584,0.0416 -1.16407,0.115235 -0.40239,0.03453 -0.88972,-0.03509 -1.17578,-0.06836 -0.77004,-0.368106 -1.57594,-1.027824 -1.98633,-1.806641 -0.41576,-0.78904 -0.0128,0.994332 -0.0137,-1.058594 -4e-4,-1.79595 -0.12844,-0.918834 0.0254,-1.251953 0.10428,-0.225803 1.36049,-1.510753 1.73047,-1.681641 0.55551,-0.256583 0.46502,-0.308333 0.45117,-0.294921 z m -112.34179,5.630859 c -0.006,0.04118 -0.16584,0.09945 0.28125,0.08008 1.42902,-0.06191 4.65948,-0.07031 11.00195,-0.07031 4.73608,0 7.98564,0.02234 10.11719,0.07422 2.13154,0.05188 3.38918,0.243947 2.89062,0.134766 7.53786,1.650959 10.88395,4.719974 12.6582,10.869141 0.39259,1.360574 0.36109,1.157641 0.36329,4.507812 0.003,4.492921 0.12019,4.013872 -1.41797,7.152344 -0.70093,1.430144 -0.58359,1.272605 -2.22266,2.90625 -1.71871,1.713009 -1.37742,1.469334 -3.18945,2.355468 -1.03994,0.508568 -3.18896,1.269519 -2.9043,1.197266 -0.50923,0.129253 -0.97569,0.256809 -1.40625,0.388672 -0.21528,0.06593 -0.41326,0.129623 -0.67773,0.226562 -0.13224,0.04847 -0.27444,0.09999 -0.52735,0.214844 -0.2529,0.114857 -0.37855,-0.184397 -1.81054,1.248047 -2.5e-4,2.51e-4 -1.32798,2.017214 -1.32813,2.017578 -1.4e-4,3.65e-4 -0.40426,1.718272 -0.4043,1.71875 -4e-5,4.78e-4 -0.0186,0.85058 0.0156,1.158203 0.0342,0.307624 0.0836,0.549305 0.13281,0.751954 0.19675,0.810592 0.37237,1.087853 0.49219,1.322265 0.23963,0.468825 0.34541,0.598691 0.43555,0.728516 0.18026,0.259649 0.26512,0.359816 0.35742,0.474609 0.18459,0.229586 0.35556,0.427967 0.56836,0.673828 0.42558,0.491722 0.99149,1.128851 1.69336,1.908203 1.40373,1.558704 3.32949,3.6623716 5.46289,5.962891 4.31346,4.6513872 6.60952,7.25938801 7.41601,8.4042969 0.8065,1.1449088 0.34017,-0.1923907 0.34571,0.84375 0.005,0.881678 -0.19658,1.3686433 -2.0625,1.5097656 -1.51157,0.1143143 -1.21292,0.1029761 -1.67383,-0.3027344 0.94162,0.8288417 -0.045,-0.079247 -0.67383,-0.8203125 -0.62879,-0.7410659 -1.49837,-1.788552 -2.52539,-3.04296872 -2.05404,-2.50883348 -4.74498,-5.85188318 -7.55078,-9.39257808 l -10.26758,-12.9550778 a 5.9830983,5.9830983 0 0 0 -2.69727,-1.923829 l 4.38086,-0.06445 c 3.01829,-0.04433 4.64547,-0.06112 6.10938,-0.193359 0.73162,-0.06609 1.29419,-0.3263 2.01367,-0.523438 0.001,-3.58e-4 0.003,3.59e-4 0.004,0 a 5.9830983,5.9830983 0 0 0 2.01172,-0.523437 c 2.77341,-1.26787 5.18932,-3.599702 6.5957,-6.291016 0.81954,-1.56837 1.37177,-4.188529 1.38281,-6.310547 v -0.002 c 0.0162,-3.307726 -1.60392,-7.416432 -3.89844,-9.710937 -1.15206,-1.15207 -3.50446,-2.870713 -5.89257,-3.392578 -2.38812,-0.521866 -4.49005,-0.484195 -8.20704,-0.53125 l -6.54687,-0.08398 a 5.9830983,5.9830983 0 0 0 -6.05859,5.982422 v 7.845703 7.847657 a 5.9830983,5.9830983 0 0 0 4.57031,5.8125 5.9830983,5.9830983 0 0 0 -4.4375,5.708984 l -0.13281,11.5761719 c -0.0633,5.5426504 -0.1086,8.4826686 -0.1836,9.8652343 -0.075,1.3825658 0.1828,0.1820616 0.043,0.484375 10e-4,-0.0025 -0.90166,0.854814 -0.77539,0.7988282 0.41136,-0.1823952 -0.3256,0.074056 -0.93945,0.1113281 -0.61386,0.037272 -1.36476,-0.1684313 -0.73243,0.041016 -1.65229,-0.547286 -0.55151,0.4085796 -1.19726,-0.9824219 l -0.11914,-0.2578124 V -24.964844 -53.140625 l 0.0664,-0.144531 c 0.11146,-0.239352 0.67321,-0.842043 1.05079,-1.029297 z m 14.75195,14.738281 0.49023,0.0059 c 3.57798,0.0453 5.3841,0.193078 5.69727,0.251953 0.0212,0.05115 -0.0949,-0.01869 0.0918,0.167968 1.08029,1.080288 0.40375,-0.630042 0.39453,1.189453 -0.008,1.672141 0.32508,0.168812 -0.0215,0.832032 -0.35024,0.670246 -0.38281,0.684202 -0.96679,0.951172 -0.40349,0.184457 0.46184,-0.04182 -0.13086,0.01172 -0.59271,0.05354 -2.21517,0.102514 -5.20899,0.146485 l -0.3457,0.0059 v -1.777344 z m 140.51953,1.359375 c 1.12366,-0.08191 2.35159,-0.05999 3.6543,0.113281 6.03742,0.803015 8.56299,2.929265 10.06836,7.771485 l 0.34765,1.115234 v 16.554688 15.9707028 l -0.002,0.00391 c -0.31785,0.5973028 -0.50536,0.7882455 -1.13867,1.1171875 0.43296,-0.2248751 -0.002,-0.015625 -0.41797,-0.015625 -0.4161,0 -0.84898,-0.2092501 -0.41602,0.015625 -0.63333,-0.328954 -0.82083,-0.5199056 -1.13867,-1.1171875 l -0.0176,-0.03125 -0.125,-13.2226562 c -0.0742,-7.7932256 -0.0837,-11.5477556 -0.30859,-14.2324216 -0.22494,-2.684666 -1.46657,-5.402912 -2.08789,-6.38086 -2.54113,-3.999727 -7.48035,-6.597012 -12.2168,-6.585937 -0.29272,6.53e-4 -0.62488,0.08407 -0.93359,0.105469 1.19136,-0.551995 2.76252,-1.038041 4.73242,-1.181641 z m -87.95703,0.353516 c 0.89464,-0.236294 7.05399,-0.05164 7.26172,0.01367 1.40934,0.443112 3.30206,1.676619 3.8457,2.257812 l 1.2207,1.302735 a 5.9830983,5.9830983 0 0 0 9.42774,-0.894532 l 0.40234,-0.636718 c -0.70518,1.117608 0.40728,-0.452202 0.95117,-1.007813 0.83876,-0.856841 1.56342,-0.74504 2.30469,0.685547 0.017,0.191694 0.0516,0.487075 0.0781,1.52539 0.0662,2.589822 0.0703,7.856295 0.0703,18.251954 V 3.2460938 l -0.0996,0.2226562 c -0.56261,1.2449682 -1.56213,1.4218478 -2.45313,0.5898438 -0.17327,-0.1620835 -0.43071,-0.4317231 -0.59179,-0.6191407 -0.16108,-0.1874176 -0.3109,-0.5662003 0.11523,0.2578125 l -0.38867,-0.7519531 A 5.9830983,5.9830983 0 0 0 -240.875,1.3261719 l -1.7168,1.6054687 c -1.21131,1.1331259 -2.24457,1.7292841 -3.84961,2.21875 0.54471,-0.1661096 -1.35672,0.2078365 -2.86328,0.2792969 -1.50655,0.07146 -3.37834,-0.070747 -3.11914,-0.023437 -3.6167,-0.6600982 -6.40285,-2.1712789 -9.3125,-5.234375 -3.95216,-4.1606055 -6.08008,-9.6265531 -6.08008,-16.5390625 0,-6.91252 2.12792,-12.376503 6.08008,-16.537109 2.58741,-2.723858 4.94347,-4.120746 8.11719,-4.958985 z m 67.63867,0.625 c -0.0525,0.05972 -0.19497,0.137044 0.42188,0.136719 a 5.9830983,5.9830983 0 0 0 0.002,0 c 1.83259,-0.0012 0.97796,-0.454457 2.18359,1.18164 l 0.71875,0.97461 a 5.9830983,5.9830983 0 0 0 2.9043,2.121093 c -1.10209,1.158716 -2.01752,2.492668 -2.7207,3.980469 -0.19229,0.406851 -0.61395,1.470807 -0.79102,2.410156 -0.17706,0.93935 -0.23142,1.768398 -0.28125,2.916016 -0.0996,2.295236 -0.13092,5.971887 -0.19531,13.183594 -0.0641,7.1781142 -0.10687,10.92563906 -0.18555,12.7539059 -0.0309,0.7174079 -0.0563,0.8779061 -0.0684,0.9902343 -0.40493,0.815569 -0.63528,0.9677669 -1.51172,1.0175782 -0.19214,0.010916 -0.39415,-0.029974 -0.53711,-0.054687 -0.46259,-0.2175798 -0.76796,-0.5201994 -0.97656,-0.9316407 -0.0147,-0.2460441 -0.0297,-0.4513989 -0.0449,-0.8222656 -0.0469,-1.1416321 -0.0895,-2.7849773 -0.12305,-4.7265625 -0.067,-3.8831703 -0.10171,-8.9868786 -0.10351,-14.0957026 -0.002,-5.108824 0.0294,-10.230704 0.0937,-14.152344 0.0322,-1.96082 0.0729,-3.627281 0.11914,-4.800781 0.0172,-0.435527 0.0342,-0.711573 0.0508,-0.984375 0.10946,-0.0471 0.69776,-0.83943 0.82031,-0.908203 0.19414,-0.108951 0.20809,-0.149271 0.22461,-0.189454 z m -21.25781,0.07617 c 0.66898,0.347811 0.61376,0.367282 0.88281,0.83789 l 0.0684,19.544922 0.0664,19.9414064 -0.0742,0.1601562 c -0.62312,1.3553357 -0.2549,1.0342852 -1.36719,1.0898438 -0.26102,0.013046 -1.38208,-0.099491 -1.125,-0.056641 0.0645,0.010749 -0.22127,-0.3316414 -0.53711,-0.8828126 -0.0161,-0.1766867 -0.0546,-0.5342882 -0.082,-1.6230468 -0.0657,-2.60460436 -0.0703,-7.8683396 -0.0703,-18.214843 0,-10.346467 0.005,-15.612181 0.0703,-18.216797 0.0261,-1.033691 0.0597,-1.330186 0.0781,-1.541016 0.25054,-0.424189 0.57457,-0.804022 0.85546,-0.951172 -0.2554,0.133793 0.25347,-0.07137 0.72657,-0.07813 0.47309,-0.0068 0.92995,0.209714 0.50781,-0.0098 z m -40.74414,1.716797 c -4.82091,-1e-6 -9.36556,2.313682 -12.22852,5.894531 -2.86296,3.580848 -4.22461,8.210664 -4.22461,13.183593 0,8.2225344 4.41655,15.92713629 11.89453,18.4199224 2.28937,0.763141 3.80892,0.6554956 5.54883,0.546875 1.73991,-0.1086206 3.32261,-0.2544706 5.37891,-1.1640625 5.71739,-2.5291059 9.2031,-8.4400243 10.03906,-14.9160159 0.92969,-7.201807 -1.01019,-14.489909 -6.91601,-18.851562 -2.99517,-2.212066 -5.78851,-3.113281 -9.49219,-3.113281 z m 0,11.964843 c -0.0161,0 2.44397,0.817164 2.38476,0.773438 0.75418,0.556987 2.59129,4.325299 2.15625,7.695312 -0.49384,3.825709 -1.40333,4.792432 -3.01171,5.5039065 0.45248,-0.2001519 -0.50332,0.1172062 -1.28516,0.1660156 -0.78184,0.048809 -1.76738,-0.2069723 -1.01758,0.042969 -2.54469,-0.8482741 -3.71484,-2.2685131 -3.71484,-7.0683601 0,-2.76348 0.77917,-4.679401 1.60547,-5.71289 0.82629,-1.033489 1.51831,-1.400391 2.88281,-1.400391 z m -31.52344,3.888672 c -0.0853,1.077892 -0.27539,2.12491 -0.27539,3.224609 0,1.502939 0.21781,2.947647 0.37695,4.408204 -0.88143,-0.958895 -1.05204,-1.280572 -2.17382,-2.490235 -0.76191,-0.821585 -1.24563,-1.362521 -1.9375,-2.115234 1.38937,-0.834919 2.71937,-1.817957 4.00976,-3.027344 z"
         id="path883" />
    </g>
    <path
       style="fill:#000000;stroke-width:0.141819"
       d="m 133.97413,58.302542 c -1.7995,-0.58869 -2.83638,-2.1223 -2.68247,-3.96752 0.1,-1.19842 0.42927,-2.09202 2.37809,-6.45309 l 1.69682,-3.79713 -3.97465,-9.529956 c -4.53529,-10.87421 -4.88355,-11.812889 -4.77451,-12.869323 0.13795,-1.336637 0.99227,-2.522814 2.22504,-3.08935 0.89985,-0.413538 2.65392,-0.411121 3.55976,0.0048 0.8244,0.378622 1.58969,1.140904 2.0425,2.034472 0.19432,0.383479 1.41055,3.424984 2.70273,6.758897 1.29218,3.333908 2.40507,6.161093 2.47309,6.282633 0.10272,0.183541 0.14697,0.16091 0.26115,-0.133569 0.97929,-2.52556 4.84657,-11.78628 5.21484,-12.487616 0.55823,-1.063118 1.53971,-2.124602 2.30078,-2.488361 1.18315,-0.565491 2.92972,-0.346692 4.09794,0.513365 0.40501,0.298166 0.74121,0.730781 1.04072,1.339164 0.55331,1.123943 0.59469,2.334893 0.13059,3.821616 -0.36473,1.168413 -13.04911,30.930468 -13.57472,31.851148 -0.60144,1.05348 -1.17114,1.69597 -1.77862,2.00589 -0.74463,0.37987 -2.47757,0.48566 -3.33908,0.20383 z M 22.140249,47.442982 C 14.947785,46.534782 9.5940216,42.153712 7.3194106,35.314845 6.5826966,33.099822 6.3122246,31.540191 6.2129236,28.934385 5.9731176,22.641509 7.7979886,17.379219 11.57342,13.476593 c 1.89192,-1.955652 3.990933,-3.299577 6.618223,-4.2374076 4.391656,-1.567634 11.008851,-1.357598 14.713951,0.467037 2.141369,1.0545476 3.248859,2.5831276 3.245085,4.4789236 -0.0032,1.576794 -0.695512,2.804168 -2.021597,3.583726 -1.037985,0.610189 -1.986076,0.536359 -4.740625,-0.369167 -2.789021,-0.916868 -3.955134,-1.105957 -5.550437,-0.900021 -4.261292,0.550076 -6.965023,3.141078 -8.124457,7.785717 -0.179832,0.720415 -0.241221,1.602094 -0.244689,3.514425 -0.0054,2.974861 0.249711,4.308114 1.19398,6.240058 1.788122,3.658458 4.892687,5.305108 9.224068,4.892398 1.668543,-0.15898 2.567091,-0.37635 4.477101,-1.08306 2.828921,-1.046722 4.840136,-0.52213 5.78493,1.50889 0.227419,0.48889 0.297197,0.9202 0.298258,1.84366 0.0011,1.07127 -0.04524,1.28961 -0.41729,1.96129 -1.100709,1.98707 -3.649253,3.41239 -7.273732,4.06797 -1.470884,0.26604 -5.233032,0.38657 -6.61594,0.21195 z m 25.969998,0.003 c -2.586896,-0.47194 -4.789494,-1.69797 -6.740274,-3.75164 -2.713845,-2.85697 -4.14137,-6.673696 -4.14137,-11.072625 0,-4.39893 1.427525,-8.215655 4.14137,-11.072631 1.726154,-1.817192 3.604476,-2.955958 5.856912,-3.550866 1.489526,-0.393416 4.34342,-0.368555 5.672781,0.04942 1.302941,0.409658 2.630876,1.211557 3.441576,2.07826 l 0.653773,0.698937 0.21553,-0.341616 c 0.118544,-0.187883 0.537281,-0.670303 0.930536,-1.072033 1.975806,-2.018414 5.268018,-1.335075 6.510132,1.351251 0.301517,0.652093 0.303114,0.714618 0.303114,11.859294 v 11.203739 l -0.338351,0.74873 c -1.150264,2.54536 -4.410995,3.22353 -6.427967,1.33688 -0.387188,-0.36216 -0.797788,-0.83989 -0.912441,-1.06162 l -0.208471,-0.40312 -0.920234,0.86083 c -0.974312,0.91142 -2.036011,1.52424 -3.318106,1.91522 -0.905435,0.27612 -3.704501,0.40889 -4.71851,0.22381 z m 5.073376,-8.21539 c 1.96336,-0.86849 3.141678,-2.712039 3.498077,-5.472951 0.365742,-2.8333 -0.647019,-5.795972 -2.431924,-7.114195 -0.786854,-0.581132 -2.194676,-1.042005 -3.182962,-1.042005 -3.315443,0 -5.612678,2.873271 -5.612678,7.020066 0,3.490069 1.497545,5.935015 4.183678,6.830445 0.825215,0.27508 2.686149,0.1589 3.545809,-0.22137 z m 54.788957,8.21747 c -4.21968,-0.77381 -7.66875,-3.61219 -9.48607,-7.80649 -0.988233,-2.2808 -1.410052,-4.380849 -1.410052,-7.020065 0,-7.129729 3.839972,-12.878583 9.726662,-14.561861 1.46434,-0.418721 4.45041,-0.455695 5.8641,-0.0726 1.2152,0.32931 2.49646,0.915325 3.23677,1.480415 0.33231,0.253656 0.63275,0.461199 0.66765,0.461199 0.0349,0 0.0822,-2.472983 0.10513,-5.495511 0.0403,-5.3132996 0.0518,-5.5143136 0.3469,-6.0627816 0.41438,-0.77021 1.23364,-1.559883 2.02066,-1.947676 0.96965,-0.477785 2.52027,-0.449874 3.50151,0.06303 0.84262,0.440446 1.53783,1.182687 1.95772,2.090169 0.29848,0.645084 0.29863,0.653698 0.29863,18.0182896 v 17.372892 l -0.37734,0.7091 c -1.32913,2.49769 -4.40232,3.09298 -6.38644,1.23707 -0.38859,-0.36348 -0.80033,-0.84228 -0.91499,-1.064 l -0.20846,-0.40313 -0.92024,0.86083 c -0.97431,0.91143 -2.03601,1.52424 -3.31811,1.91522 -0.90071,0.27468 -3.70391,0.40929 -4.70403,0.22589 z m 4.91676,-8.15024 c 2.60518,-1.08679 4.12029,-4.394345 3.62947,-7.923248 -0.40751,-2.929884 -1.75153,-4.79114 -3.9635,-5.488844 -2.07547,-0.654646 -4.04346,-0.13479 -5.50595,1.454434 -1.1464,1.245743 -1.74736,3.062123 -1.74736,5.281343 0,3.490069 1.49754,5.935015 4.18367,6.830445 0.73663,0.24555 2.65368,0.15874 3.40367,-0.15413 z m -42.351349,52.72023 c -2.586902,-0.47215 -4.789489,-1.69818 -6.740274,-3.75184 -2.713845,-2.85698 -4.14137,-6.6737 -4.14137,-11.07263 0,-4.39894 1.427525,-8.21566 4.14137,-11.07264 1.726159,-1.81719 3.604476,-2.95595 5.856906,-3.55086 1.489532,-0.39342 4.343426,-0.36856 5.672786,0.0494 1.302936,0.40966 2.630878,1.21156 3.441579,2.07826 l 0.653772,0.69893 0.215525,-0.34161 c 0.11855,-0.18788 0.537281,-0.6703 0.930537,-1.07203 1.975816,-2.01842 5.268012,-1.33508 6.510142,1.35125 0.301506,0.65209 0.303109,0.71461 0.303109,11.85929 v 11.20375 l -0.338352,0.74872 c -1.150263,2.54537 -4.411,3.22353 -6.427972,1.33688 -0.387182,-0.36216 -0.797777,-0.83989 -0.91244,-1.06161 l -0.20846,-0.40313 -0.92024,0.86083 c -0.974313,0.91142 -2.036018,1.52424 -3.318108,1.91522 -0.905435,0.27612 -3.704501,0.40889 -4.71851,0.22381 z m 5.073381,-8.21539 c 1.963351,-0.8685 3.141675,-2.71204 3.498069,-5.47295 0.365752,-2.83331 -0.647008,-5.79598 -2.431927,-7.1142 -0.786853,-0.58113 -2.19467,-1.042 -3.182951,-1.042 -3.315448,0 -5.612683,2.87327 -5.612683,7.02007 0,3.49007 1.497545,5.93502 4.183678,6.83044 0.825221,0.27508 2.686149,0.1589 3.545814,-0.22136 z m -4.1046,-36.98213 c -1.274404,-0.47514 -2.224365,-1.44079 -2.667357,-2.71143 -0.285753,-0.81961 -0.293193,-21.937637 -0.0081,-22.91787 0.272144,-0.935639 1.093773,-1.938751 2.008412,-2.452036 0.690205,-0.387337 0.910436,-0.437754 1.914567,-0.438285 1.675087,-0.0011 2.72524,0.541108 3.754365,1.93768 l 0.384997,0.522455 0.527516,-0.631073 c 1.601429,-1.915831 4.814584,-2.812181 8.380606,-2.337881 4.150306,0.552016 6.901581,2.740029 8.036691,6.391365 l 0.330665,1.063644 v 9.360086 9.360095 l -0.377341,0.7091 c -0.452752,0.85081 -1.099498,1.4893 -1.962684,1.93764 -0.90438,0.46973 -2.499291,0.46973 -3.40367,0 -0.863187,-0.44834 -1.509927,-1.08683 -1.962679,-1.93764 l -0.377341,-0.7091 -0.07493,-7.870987 c -0.07955,-8.356818 -0.06934,-8.234827 -0.784249,-9.360086 -0.883469,-1.390568 -2.115238,-2.046752 -3.834563,-2.042732 -0.961824,0.0021 -1.277845,0.06609 -1.946369,0.393164 -0.890491,0.435675 -1.680753,1.25634 -2.134711,2.216845 -0.293536,0.621076 -0.303527,0.851169 -0.372539,8.580077 -0.06873,7.697599 -0.0801,7.961749 -0.369533,8.587289 -0.697903,1.50833 -1.993007,2.40666 -3.601415,2.49807 -0.571763,0.0325 -1.126336,-0.0238 -1.460362,-0.14839 z m -38.016133,44.57787 c -1.346481,-0.446 -1.972108,-0.99253 -2.542429,-2.22104 l -0.362107,-0.78001 v -15.81288 -15.81288 l 0.335559,-0.72063 c 0.404404,-0.86846 1.166478,-1.63855 2.054551,-2.07609 0.655477,-0.32294 0.664198,-0.32332 7.463583,-0.32332 5.096826,0 7.021149,0.0468 7.658257,0.18637 4.869177,1.06646 7.938065,3.7638 9.180195,8.06874 0.26889,0.93194 0.31905,1.44924 0.320267,3.30319 0.0016,2.55129 -0.168581,3.37303 -1.08717,5.24732 -0.473126,0.96535 -0.833164,1.44701 -1.807477,2.4181 -1.009089,1.00574 -1.446533,1.32504 -2.56396,1.87149 -0.741003,0.36238 -1.72044,0.75358 -2.176516,0.86934 -0.456081,0.11576 -0.857441,0.23868 -0.891906,0.27316 -0.03446,0.0345 1.794318,2.06516 4.063998,4.51264 4.642182,5.00585 5.007564,5.52454 5.016087,7.12089 0.01163,2.16272 -1.689239,3.84389 -4.071014,4.02402 -1.381097,0.10445 -2.39077,-0.19117 -3.256947,-0.95361 -0.359369,-0.31633 -3.129913,-3.70032 -6.156783,-7.51998 l -5.503407,-6.94484 -0.07091,6.20539 c -0.06795,5.94625 -0.08348,6.23258 -0.371949,6.85626 -0.387836,0.83849 -1.203269,1.64892 -2.026303,2.01385 -0.806488,0.35759 -2.416209,0.45533 -3.20362,0.19452 z m 13.18922,-21.90797 c 0.899801,-0.41134 1.556013,-1.03964 2.026796,-1.94056 0.312586,-0.5982 0.371499,-0.89762 0.376645,-1.91457 0.007,-1.3742 -0.246228,-2.017 -1.150811,-2.92158 -1.039561,-1.03956 -1.383615,-1.11475 -5.329942,-1.16472 l -3.510036,-0.0444 v 4.20555 4.20555 l 3.439121,-0.0505 c 3.222552,-0.0473 3.483787,-0.0709 4.148227,-0.3747 z m 47.296826,21.97373 c -1.31744,-0.21957 -2.204656,-1.24173 -2.750492,-2.42142 -0.295653,-0.63897 -0.298633,-0.75688 -0.298633,-11.84914 0,-11.09226 0.0032,-11.21017 0.298633,-11.84914 0.419659,-0.90698 1.114758,-1.64941 1.957716,-2.09099 0.998583,-0.52312 2.676608,-0.54708 3.629164,-0.0518 0.820515,0.4266 1.349756,0.92786 1.820851,1.72459 l 0.377351,0.63818 0.03875,11.39657 0.03875,11.39656 -0.335163,0.72901 c -0.711179,1.54688 -1.87987,2.36736 -3.486402,2.44761 -0.51478,0.0257 -1.088001,-0.0362 -1.2905,-0.07 z m 11.728855,-0.0717 c -1.27441,-0.47514 -2.22437,-1.44079 -2.66735,-2.71143 -0.28576,-0.81962 -0.2932,-21.93764 -0.008,-22.91787 0.27214,-0.93564 1.09377,-1.93875 2.00841,-2.45204 0.6902,-0.38734 0.91043,-0.43775 1.91457,-0.43828 1.67509,-10e-4 2.72523,0.5411 3.75436,1.93768 l 0.38499,0.52245 0.52752,-0.63107 c 1.60144,-1.91583 4.81459,-2.81218 8.38061,-2.33788 4.15031,0.55201 6.90155,2.74004 8.03669,6.39136 l 0.33067,1.06364 v 9.36009 9.3601 l -0.37734,0.7091 c -0.45276,0.85082 -1.0995,1.4893 -1.96269,1.93764 -0.90438,0.46973 -2.49928,0.46973 -3.40367,0 -0.86318,-0.44834 -1.50993,-1.08682 -1.96268,-1.93764 l -0.37734,-0.7091 -0.0749,-7.87099 c -0.0795,-8.35682 -0.0693,-8.23483 -0.78425,-9.36009 -0.88346,-1.39057 -2.11523,-2.04675 -3.83455,-2.04273 -0.96182,0.002 -1.27784,0.0661 -1.94638,0.39316 -0.89048,0.43568 -1.68075,1.25634 -2.13471,2.21685 -0.29354,0.62107 -0.30352,0.85117 -0.37253,8.58008 -0.0687,7.6976 -0.0801,7.96175 -0.36954,8.58729 -0.6979,1.50833 -1.99301,2.40666 -3.60141,2.49807 -0.57176,0.0325 -1.12633,-0.0239 -1.46036,-0.14839 z M 93.693044,60.263442 c -1.304157,-0.42784 -2.44518,-1.39905 -3.097028,-2.63612 -0.330354,-0.62694 -0.376264,-0.87805 -0.376757,-2.0612 0,-1.08565 0.05942,-1.4772 0.308373,-2.01628 0.460728,-0.99762 1.467592,-1.99405 2.493994,-2.46812 0.760793,-0.35141 1.052329,-0.40745 2.089612,-0.40174 1.498778,0.008 2.473493,0.4269 3.46708,1.48912 1.005835,1.07533 1.282299,1.79193 1.283151,3.32611 0,1.0891 -0.05507,1.3954 -0.379512,2.08763 -0.452489,0.96544 -1.405511,1.93518 -2.343874,2.38501 -0.731478,0.35065 -2.749414,0.52379 -3.445039,0.29559 z"
       id="path847-8"
       sodipodi:nodetypes="csscssscsssccssssssccsssssscsssssssssccssssssssscsssscssscsssssssssssssssssssscsssscssscsssssssssssccssscsccssscssccssccccssssccssscscssscccsssscsscsssssccsscccssscscssssccccsccssssccsssccccccssscssscccscsscscscscssscccssssccscsssscccssccssscsss" />
  </g>
</svg>
