<?xml version="1.0" encoding="UTF-8" standalone="no"?>
<!DOCTYPE svg PUBLIC "-//W3C//DTD SVG 1.1//EN" "http://www.w3.org/Graphics/SVG/1.1/DTD/svg11.dtd">
<svg width="100%" height="100%" viewBox="0 0 3000 3000" version="1.1" xmlns="http://www.w3.org/2000/svg" xmlns:xlink="http://www.w3.org/1999/xlink" xml:space="preserve" xmlns:serif="http://www.serif.com/" style="fill-rule:evenodd;clip-rule:evenodd;stroke-linecap:round;stroke-linejoin:round;stroke-miterlimit:1.5;">
    <g>
        <rect id="Artboard1" x="0" y="0" width="3000" height="3000" style="fill:none;"/>
        <g id="Artboard11" serif:id="Artboard1">
            <g id="Background">
                <circle cx="1500" cy="1500" r="1375.08" style="fill:url(#_Radial1);"/>
                <circle cx="1500" cy="1500" r="1375.08" style="fill:url(#_Radial2);"/>
                <g>
                    <clipPath id="_clip3">
                        <circle cx="1500" cy="1500" r="664.906"/>
                    </clipPath>
                    <g clip-path="url(#_clip3)">
                        <g transform="matrix(1,0,0,1.64838,-1.13687e-13,-541.461)">
                            <path d="M835.094,835.094L2164.91,835.094" style="fill:none;stroke:black;stroke-width:5.04px;stroke-dasharray:0,20.15,0,0;"/>
                        </g>
                        <g transform="matrix(1,0,0,1.64838,-1.13687e-13,-501.163)">
                            <path d="M835.094,835.094L2164.91,835.094" style="fill:none;stroke:black;stroke-width:5.04px;stroke-dasharray:0,20.15,0,0;"/>
                        </g>
                        <g transform="matrix(1,0,0,1.64838,-1.13687e-13,-460.866)">
                            <path d="M835.094,835.094L2164.91,835.094" style="fill:none;stroke:black;stroke-width:5.04px;stroke-dasharray:0,20.15,0,0;"/>
                        </g>
                        <g transform="matrix(1,0,0,1.64838,-1.13687e-13,-420.569)">
                            <path d="M835.094,835.094L2164.91,835.094" style="fill:none;stroke:black;stroke-width:5.04px;stroke-dasharray:0,20.15,0,0;"/>
                        </g>
                        <g transform="matrix(1,0,0,1.64838,-1.13687e-13,-380.271)">
                            <path d="M835.094,835.094L2164.91,835.094" style="fill:none;stroke:black;stroke-width:5.04px;stroke-dasharray:0,20.15,0,0;"/>
                        </g>
                        <g transform="matrix(1,0,0,1.64838,-1.13687e-13,-339.974)">
                            <path d="M835.094,835.094L2164.91,835.094" style="fill:none;stroke:black;stroke-width:5.04px;stroke-dasharray:0,20.15,0,0;"/>
                        </g>
                        <g transform="matrix(1,0,0,1.64838,-1.13687e-13,-299.677)">
                            <path d="M835.094,835.094L2164.91,835.094" style="fill:none;stroke:black;stroke-width:5.04px;stroke-dasharray:0,20.15,0,0;"/>
                        </g>
                        <g transform="matrix(1,0,0,1.64838,-1.13687e-13,-259.379)">
                            <path d="M835.094,835.094L2164.91,835.094" style="fill:none;stroke:black;stroke-width:5.04px;stroke-dasharray:0,20.15,0,0;"/>
                        </g>
                        <g transform="matrix(1,0,0,1.64838,-1.13687e-13,-219.082)">
                            <path d="M835.094,835.094L2164.91,835.094" style="fill:none;stroke:black;stroke-width:5.04px;stroke-dasharray:0,20.15,0,0;"/>
                        </g>
                        <g transform="matrix(1,0,0,1.64838,-1.13687e-13,-178.785)">
                            <path d="M835.094,835.094L2164.91,835.094" style="fill:none;stroke:black;stroke-width:5.04px;stroke-dasharray:0,20.15,0,0;"/>
                        </g>
                        <g transform="matrix(1,0,0,1.64838,-1.13687e-13,-138.487)">
                            <path d="M835.094,835.094L2164.91,835.094" style="fill:none;stroke:black;stroke-width:5.04px;stroke-dasharray:0,20.15,0,0;"/>
                        </g>
                        <g transform="matrix(1,0,0,1.64838,-1.13687e-13,-98.19)">
                            <path d="M835.094,835.094L2164.91,835.094" style="fill:none;stroke:black;stroke-width:5.04px;stroke-dasharray:0,20.15,0,0;"/>
                        </g>
                        <g transform="matrix(1,0,0,1.64838,-1.13687e-13,-57.8927)">
                            <path d="M835.094,835.094L2164.91,835.094" style="fill:none;stroke:black;stroke-width:5.04px;stroke-dasharray:0,20.15,0,0;"/>
                        </g>
                        <g transform="matrix(1,0,0,1.64838,-1.13687e-13,-17.5953)">
                            <path d="M835.094,835.094L2164.91,835.094" style="fill:none;stroke:black;stroke-width:5.04px;stroke-dasharray:0,20.15,0,0;"/>
                        </g>
                        <g transform="matrix(1,0,0,1.64838,-1.13687e-13,22.702)">
                            <path d="M835.094,835.094L2164.91,835.094" style="fill:none;stroke:black;stroke-width:5.04px;stroke-dasharray:0,20.15,0,0;"/>
                        </g>
                        <g transform="matrix(1,0,0,1.64838,-1.13687e-13,62.9994)">
                            <path d="M835.094,835.094L2164.91,835.094" style="fill:none;stroke:black;stroke-width:5.04px;stroke-dasharray:0,20.15,0,0;"/>
                        </g>
                        <g transform="matrix(1,0,0,1.64838,-1.13687e-13,103.297)">
                            <path d="M835.094,835.094L2164.91,835.094" style="fill:none;stroke:black;stroke-width:5.04px;stroke-dasharray:0,20.15,0,0;"/>
                        </g>
                        <g transform="matrix(1,0,0,1.64838,-1.13687e-13,-521.312)">
                            <path d="M835.094,835.094L2164.91,835.094" style="fill:none;stroke:black;stroke-width:5.04px;stroke-dasharray:0,20.15,0,0;stroke-dashoffset:10.08;"/>
                        </g>
                        <g transform="matrix(1,0,0,1.64838,-1.13687e-13,-481.015)">
                            <path d="M835.094,835.094L2164.91,835.094" style="fill:none;stroke:black;stroke-width:5.04px;stroke-dasharray:0,20.15,0,0;stroke-dashoffset:10.08;"/>
                        </g>
                        <g transform="matrix(1,0,0,1.64838,-1.13687e-13,-440.717)">
                            <path d="M835.094,835.094L2164.91,835.094" style="fill:none;stroke:black;stroke-width:5.04px;stroke-dasharray:0,20.15,0,0;stroke-dashoffset:10.08;"/>
                        </g>
                        <g transform="matrix(1,0,0,1.64838,-1.13687e-13,-400.42)">
                            <path d="M835.094,835.094L2164.91,835.094" style="fill:none;stroke:black;stroke-width:5.04px;stroke-dasharray:0,20.15,0,0;stroke-dashoffset:10.08;"/>
                        </g>
                        <g transform="matrix(1,0,0,1.64838,-1.13687e-13,-360.123)">
                            <path d="M835.094,835.094L2164.91,835.094" style="fill:none;stroke:black;stroke-width:5.04px;stroke-dasharray:0,20.15,0,0;stroke-dashoffset:10.08;"/>
                        </g>
                        <g transform="matrix(1,0,0,1.64838,-1.13687e-13,-319.825)">
                            <path d="M835.094,835.094L2164.91,835.094" style="fill:none;stroke:black;stroke-width:5.04px;stroke-dasharray:0,20.15,0,0;stroke-dashoffset:10.08;"/>
                        </g>
                        <g transform="matrix(1,0,0,1.64838,-1.13687e-13,-279.528)">
                            <path d="M835.094,835.094L2164.91,835.094" style="fill:none;stroke:black;stroke-width:5.04px;stroke-dasharray:0,20.15,0,0;stroke-dashoffset:10.08;"/>
                        </g>
                        <g transform="matrix(1,0,0,1.64838,-1.13687e-13,-239.231)">
                            <path d="M835.094,835.094L2164.91,835.094" style="fill:none;stroke:black;stroke-width:5.04px;stroke-dasharray:0,20.15,0,0;stroke-dashoffset:10.08;"/>
                        </g>
                        <g transform="matrix(1,0,0,1.64838,-1.13687e-13,-198.933)">
                            <path d="M835.094,835.094L2164.91,835.094" style="fill:none;stroke:black;stroke-width:5.04px;stroke-dasharray:0,20.15,0,0;stroke-dashoffset:10.08;"/>
                        </g>
                        <g transform="matrix(1,0,0,1.64838,-1.13687e-13,-158.636)">
                            <path d="M835.094,835.094L2164.91,835.094" style="fill:none;stroke:black;stroke-width:5.04px;stroke-dasharray:0,20.15,0,0;stroke-dashoffset:10.08;"/>
                        </g>
                        <g transform="matrix(1,0,0,1.64838,-1.13687e-13,-118.339)">
                            <path d="M835.094,835.094L2164.91,835.094" style="fill:none;stroke:black;stroke-width:5.04px;stroke-dasharray:0,20.15,0,0;stroke-dashoffset:10.08;"/>
                        </g>
                        <g transform="matrix(1,0,0,1.64838,-1.13687e-13,-78.0413)">
                            <path d="M835.094,835.094L2164.91,835.094" style="fill:none;stroke:black;stroke-width:5.04px;stroke-dasharray:0,20.15,0,0;stroke-dashoffset:10.08;"/>
                        </g>
                        <g transform="matrix(1,0,0,1.64838,-1.13687e-13,-37.744)">
                            <path d="M835.094,835.094L2164.91,835.094" style="fill:none;stroke:black;stroke-width:5.04px;stroke-dasharray:0,20.15,0,0;stroke-dashoffset:10.08;"/>
                        </g>
                        <g transform="matrix(1,0,0,1.64838,-1.13687e-13,2.55336)">
                            <path d="M835.094,835.094L2164.91,835.094" style="fill:none;stroke:black;stroke-width:5.04px;stroke-dasharray:0,20.15,0,0;stroke-dashoffset:10.08;"/>
                        </g>
                        <g transform="matrix(1,0,0,1.64838,-1.13687e-13,42.8507)">
                            <path d="M835.094,835.094L2164.91,835.094" style="fill:none;stroke:black;stroke-width:5.04px;stroke-dasharray:0,20.15,0,0;stroke-dashoffset:10.08;"/>
                        </g>
                        <g transform="matrix(1,0,0,1.64838,-1.13687e-13,83.148)">
                            <path d="M835.094,835.094L2164.91,835.094" style="fill:none;stroke:black;stroke-width:5.04px;stroke-dasharray:0,20.15,0,0;stroke-dashoffset:10.08;"/>
                        </g>
                        <g transform="matrix(1,0,0,1.64838,-1.13687e-13,123.445)">
                            <path d="M835.094,835.094L2164.91,835.094" style="fill:none;stroke:black;stroke-width:5.04px;stroke-dasharray:0,20.15,0,0;stroke-dashoffset:10.08;"/>
                        </g>
                    </g>
                </g>
                <g transform="matrix(1.0097,0,0,0.955075,-459.453,37.4726)">
                    <path d="M1813.95,1745.36C1813.95,1728.64 1801.12,1715.07 1785.3,1715.07L1651.69,1715.07C1635.88,1715.07 1623.04,1728.64 1623.04,1745.36L1623.04,1853.39C1623.04,1870.1 1635.88,1883.67 1651.69,1883.67L1785.3,1883.67C1801.12,1883.67 1813.95,1870.1 1813.95,1853.39L1813.95,1745.36Z" style="fill:rgb(96,129,96);"/>
                    <path d="M1813.95,1745.36C1813.95,1728.64 1801.12,1715.07 1785.3,1715.07L1651.69,1715.07C1635.88,1715.07 1623.04,1728.64 1623.04,1745.36L1623.04,1853.39C1623.04,1870.1 1635.88,1883.67 1651.69,1883.67L1785.3,1883.67C1801.12,1883.67 1813.95,1870.1 1813.95,1853.39L1813.95,1745.36Z" style="fill:rgb(96,129,96);"/>
                </g>
            </g>
            <g transform="matrix(1,0,0,1,-296.282,-50.5249)">
                <text x="1557.59px" y="2073.41px" style="font-family:'ArialMT', 'Arial', sans-serif;font-size:50px;fill:rgb(203,203,203);">COLORS</text>
            </g>
            <g>
                <path d="M1702.35,2001.07C1702.35,1998.91 1700.6,1997.15 1698.44,1997.15L1563.13,1997.15C1560.97,1997.15 1559.22,1998.91 1559.22,2001.07L1559.22,2008.89C1559.22,2011.05 1560.97,2012.8 1563.13,2012.8L1698.44,2012.8C1700.6,2012.8 1702.35,2011.05 1702.35,2008.89L1702.35,2001.07Z" style="fill:rgb(48,48,48);"/>
                <path d="M1702.35,2001.07C1702.35,1998.91 1700.6,1997.15 1698.44,1997.15L1563.13,1997.15C1560.97,1997.15 1559.22,1998.91 1559.22,2001.07L1559.22,2008.89C1559.22,2011.05 1560.97,2012.8 1563.13,2012.8L1698.44,2012.8C1700.6,2012.8 1702.35,2011.05 1702.35,2008.89L1702.35,2001.07Z" style="fill:rgb(48,48,48);"/>
            </g>
            <g transform="matrix(1,0,0,1,15.7498,26.7389)">
                <text x="1557.59px" y="2073.41px" style="font-family:'ArialMT', 'Arial', sans-serif;font-size:50px;fill:rgb(203,203,203);">4</text>
            </g>
            <g transform="matrix(1,0,0,1,102.636,26.1286)">
                <text x="1557.59px" y="2073.41px" style="font-family:'ArialMT', 'Arial', sans-serif;font-size:50px;fill:rgb(203,203,203);">6</text>
            </g>
            <g transform="matrix(1,0,0,1,49.6051,-73.7535)">
                <text x="1578.88px" y="1935.88px" style="font-family:'ArialMT', 'Arial', sans-serif;font-size:50px;fill:rgb(203,203,203);">ST<tspan x="1639.06px 1672.41px 1707.61px " y="1935.88px 1935.88px 1935.88px ">ART</tspan></text>
            </g>
            <g transform="matrix(1,0,0,1,1.40768,-42.3708)">
                <text x="1185.61px" y="1931.95px" style="font-family:'ArialMT', 'Arial', sans-serif;font-size:50px;fill:rgb(203,203,203);">SCORE</text>
            </g>
            <g>
                <g transform="matrix(1,0,0,1,167.129,-10.1905)">
                    <ellipse cx="1419.23" cy="2015.17" rx="24.158" ry="50.192" style="fill:rgb(203,0,0);"/>
                    <ellipse cx="1419.23" cy="2015.17" rx="24.158" ry="50.192" style="fill:rgb(203,0,0);"/>
                </g>
            </g>
            <g>
                <g transform="matrix(0.652348,0,0,0.652348,594.122,591.805)">
                    <circle cx="1708.63" cy="1784.63" r="67.478" style="fill:rgb(0,203,17);"/>
                    <circle cx="1708.63" cy="1784.63" r="67.478" style="fill:rgb(0,203,17);"/>
                </g>
            </g>
            <path d="M1589.8,1968.92C1589.8,1967.02 1588.26,1965.48 1586.36,1965.48C1584.45,1965.48 1582.91,1967.02 1582.91,1968.92L1582.91,2041.03C1582.91,2042.93 1584.45,2044.48 1586.36,2044.48C1588.26,2044.48 1589.8,2042.93 1589.8,2041.03L1589.8,1968.92Z" style="fill:rgb(210,210,210);"/>
            <g>
                <g transform="matrix(6.34282,0,0,6.34282,-2618.61,-10193.1)">
                    <text x="591.683px" y="1836.84px" style="font-family:'Pincoyablack-Black', 'Pincoyablack';font-weight:900;font-size:50px;fill:url(#_Linear4);">SIMON</text>
                    <text x="591.683px" y="1836.84px" style="font-family:'Pincoyablack-Black', 'Pincoyablack';font-weight:900;font-size:50px;fill:url(#_Linear5);">SIMON</text>
                </g>
            </g>
            <g id="_6-Colors" serif:id="6 Colors">
                <path d="M939.957,1858.35C1053.12,2034.72 1247.26,2154.23 1469.68,2164.23L1469.68,2805.11C1010.35,2794.6 609.325,2546.39 384.92,2178.8L939.957,1858.35Z" style="fill:url(#_Radial6);"/>
                <path d="M939.957,1858.35C1053.12,2034.72 1247.26,2154.23 1469.68,2164.23L1469.68,2805.11C1010.35,2794.6 609.325,2546.39 384.92,2178.8L939.957,1858.35Z" style="fill:url(#_Radial7);"/>
                <path d="M2060.04,1858.35L2615.08,2178.8C2390.64,2546.42 1989.64,2794.61 1530.32,2805.11L1530.32,2164.23C1752.77,2154.22 1946.91,2034.69 2060.04,1858.35Z" style="fill:url(#_Radial8);"/>
                <path d="M2060.04,1858.35L2615.08,2178.8C2390.64,2546.42 1989.64,2794.61 1530.32,2805.11L1530.32,2164.23C1752.77,2154.22 1946.91,2034.69 2060.04,1858.35Z" style="fill:url(#_Radial9);"/>
                <path d="M2645.46,873.674C2747.45,1059.67 2805.46,1273.11 2805.46,1500C2805.46,1726.89 2747.45,1940.33 2645.46,2126.33L2090.43,1805.87C2138,1714.32 2164.91,1610.28 2164.91,1500C2164.91,1389.73 2138,1285.68 2090.43,1194.13L2645.46,873.674Z" style="fill:url(#_Radial10);"/>
                <path d="M2645.46,873.674C2747.45,1059.67 2805.46,1273.11 2805.46,1500C2805.46,1726.89 2747.45,1940.33 2645.46,2126.33L2090.43,1805.87C2138,1714.32 2164.91,1610.28 2164.91,1500C2164.91,1389.73 2138,1285.68 2090.43,1194.13L2645.46,873.674Z" style="fill:url(#_Radial11);"/>
                <path d="M354.537,873.674L909.574,1194.13C861.997,1285.68 835.094,1389.73 835.094,1500C835.094,1610.28 861.997,1714.32 909.574,1805.87L354.537,2126.33C252.546,1940.33 194.54,1726.89 194.54,1500C194.54,1273.11 252.546,1059.67 354.537,873.674Z" style="fill:url(#_Radial12);"/>
                <path d="M354.537,873.674L909.574,1194.13C861.997,1285.68 835.094,1389.73 835.094,1500C835.094,1610.28 861.997,1714.32 909.574,1805.87L354.537,2126.33C252.546,1940.33 194.54,1726.89 194.54,1500C194.54,1273.11 252.546,1059.67 354.537,873.674Z" style="fill:url(#_Radial13);"/>
                <path d="M1469.68,194.887L1469.68,835.774C1247.23,845.782 1053.09,965.305 939.957,1141.65L384.92,821.2C609.362,453.579 1010.36,205.389 1469.68,194.887Z" style="fill:url(#_Radial14);"/>
                <path d="M1469.68,194.887L1469.68,835.774C1247.23,845.782 1053.09,965.305 939.957,1141.65L384.92,821.2C609.362,453.579 1010.36,205.389 1469.68,194.887Z" style="fill:url(#_Radial15);"/>
                <path d="M1530.32,194.887C1989.65,205.403 2390.68,453.613 2615.08,821.2L2060.04,1141.65C1946.88,965.282 1752.74,845.77 1530.32,835.774L1530.32,194.887Z" style="fill:url(#_Radial16);"/>
                <path d="M1530.32,194.887C1989.65,205.403 2390.68,453.613 2615.08,821.2L2060.04,1141.65C1946.88,965.282 1752.74,845.77 1530.32,835.774L1530.32,194.887Z" style="fill:url(#_Radial17);"/>
                <path d="M939.957,1858.35C1053.12,2034.72 1247.26,2154.23 1469.68,2164.23L1469.68,2805.11C1010.35,2794.6 609.325,2546.39 384.92,2178.8L939.957,1858.35Z" style="fill:url(#_Radial18);"/>
                <path d="M939.957,1858.35C1053.12,2034.72 1247.26,2154.23 1469.68,2164.23L1469.68,2805.11C1010.35,2794.6 609.325,2546.39 384.92,2178.8L939.957,1858.35Z" style="fill:url(#_Radial19);"/>
                <path d="M2060.04,1858.35L2615.08,2178.8C2390.64,2546.42 1989.64,2794.61 1530.32,2805.11L1530.32,2164.23C1752.77,2154.22 1946.91,2034.69 2060.04,1858.35Z" style="fill:url(#_Radial20);"/>
                <path d="M2060.04,1858.35L2615.08,2178.8C2390.64,2546.42 1989.64,2794.61 1530.32,2805.11L1530.32,2164.23C1752.77,2154.22 1946.91,2034.69 2060.04,1858.35Z" style="fill:url(#_Radial21);"/>
                <path d="M2645.46,873.674C2747.45,1059.67 2805.46,1273.11 2805.46,1500C2805.46,1726.89 2747.45,1940.33 2645.46,2126.33L2090.43,1805.87C2138,1714.32 2164.91,1610.28 2164.91,1500C2164.91,1389.73 2138,1285.68 2090.43,1194.13L2645.46,873.674Z" style="fill:url(#_Radial22);"/>
                <path d="M2645.46,873.674C2747.45,1059.67 2805.46,1273.11 2805.46,1500C2805.46,1726.89 2747.45,1940.33 2645.46,2126.33L2090.43,1805.87C2138,1714.32 2164.91,1610.28 2164.91,1500C2164.91,1389.73 2138,1285.68 2090.43,1194.13L2645.46,873.674Z" style="fill:url(#_Radial23);"/>
                <path d="M354.537,873.674L909.574,1194.13C861.997,1285.68 835.094,1389.73 835.094,1500C835.094,1610.28 861.997,1714.32 909.574,1805.87L354.537,2126.33C252.546,1940.33 194.54,1726.89 194.54,1500C194.54,1273.11 252.546,1059.67 354.537,873.674Z" style="fill:url(#_Radial24);"/>
                <path d="M354.537,873.674L909.574,1194.13C861.997,1285.68 835.094,1389.73 835.094,1500C835.094,1610.28 861.997,1714.32 909.574,1805.87L354.537,2126.33C252.546,1940.33 194.54,1726.89 194.54,1500C194.54,1273.11 252.546,1059.67 354.537,873.674Z" style="fill:url(#_Radial25);"/>
                <path d="M1469.68,194.887L1469.68,835.774C1247.23,845.782 1053.09,965.305 939.957,1141.65L384.92,821.2C609.362,453.579 1010.36,205.389 1469.68,194.887Z" style="fill:url(#_Radial26);"/>
                <path d="M1469.68,194.887L1469.68,835.774C1247.23,845.782 1053.09,965.305 939.957,1141.65L384.92,821.2C609.362,453.579 1010.36,205.389 1469.68,194.887Z" style="fill:url(#_Radial27);"/>
                <path d="M1530.32,194.887C1989.65,205.403 2390.68,453.613 2615.08,821.2L2060.04,1141.65C1946.88,965.282 1752.74,845.77 1530.32,835.774L1530.32,194.887Z" style="fill:url(#_Radial28);"/>
                <path d="M1530.32,194.887C1989.65,205.403 2390.68,453.613 2615.08,821.2L2060.04,1141.65C1946.88,965.282 1752.74,845.77 1530.32,835.774L1530.32,194.887Z" style="fill:url(#_Radial29);"/>
            </g>
        </g>
    </g>
    <defs>
        <radialGradient id="_Radial1" cx="0" cy="0" r="1" gradientUnits="userSpaceOnUse" gradientTransform="matrix(1631.63,1758.5,-1758.5,1631.63,934.998,766.995)"><stop offset="0" style="stop-color:rgb(77,77,77);stop-opacity:1"/><stop offset="0.6" style="stop-color:rgb(63,63,63);stop-opacity:1"/><stop offset="0.81" style="stop-color:rgb(32,32,32);stop-opacity:1"/><stop offset="1" style="stop-color:black;stop-opacity:1"/></radialGradient>
        <radialGradient id="_Radial2" cx="0" cy="0" r="1" gradientUnits="userSpaceOnUse" gradientTransform="matrix(1631.63,1758.5,-1758.5,1631.63,934.998,766.995)"><stop offset="0" style="stop-color:rgb(77,77,77);stop-opacity:1"/><stop offset="0.6" style="stop-color:rgb(63,63,63);stop-opacity:1"/><stop offset="0.81" style="stop-color:rgb(32,32,32);stop-opacity:1"/><stop offset="1" style="stop-color:black;stop-opacity:1"/></radialGradient>
        <linearGradient id="_Linear4" x1="0" y1="0" x2="1" y2="0" gradientUnits="userSpaceOnUse" gradientTransform="matrix(115.867,36.6677,-36.6677,115.867,594.028,1801.21)"><stop offset="0" style="stop-color:rgb(142,142,142);stop-opacity:1"/><stop offset="0.28" style="stop-color:rgb(182,182,182);stop-opacity:1"/><stop offset="0.53" style="stop-color:rgb(197,197,197);stop-opacity:1"/><stop offset="0.77" style="stop-color:rgb(183,183,183);stop-opacity:1"/><stop offset="1" style="stop-color:rgb(137,137,137);stop-opacity:1"/></linearGradient>
        <linearGradient id="_Linear5" x1="0" y1="0" x2="1" y2="0" gradientUnits="userSpaceOnUse" gradientTransform="matrix(115.867,36.6677,-36.6677,115.867,594.028,1801.21)"><stop offset="0" style="stop-color:rgb(142,142,142);stop-opacity:1"/><stop offset="0.28" style="stop-color:rgb(182,182,182);stop-opacity:1"/><stop offset="0.53" style="stop-color:rgb(197,197,197);stop-opacity:1"/><stop offset="0.77" style="stop-color:rgb(183,183,183);stop-opacity:1"/><stop offset="1" style="stop-color:rgb(137,137,137);stop-opacity:1"/></linearGradient>
        <radialGradient id="_Radial6" cx="0" cy="0" r="1" gradientUnits="userSpaceOnUse" gradientTransform="matrix(512.226,367.837,-421.452,447.063,1017.18,2331.73)"><stop offset="0" style="stop-color:rgb(190,212,255);stop-opacity:1"/><stop offset="1" style="stop-color:rgb(8,45,255);stop-opacity:1"/></radialGradient>
        <radialGradient id="_Radial7" cx="0" cy="0" r="1" gradientUnits="userSpaceOnUse" gradientTransform="matrix(512.226,367.837,-421.452,447.063,1017.18,2331.73)"><stop offset="0" style="stop-color:rgb(190,212,255);stop-opacity:1"/><stop offset="1" style="stop-color:rgb(8,45,255);stop-opacity:1"/></radialGradient>
        <radialGradient id="_Radial8" cx="0" cy="0" r="1" gradientUnits="userSpaceOnUse" gradientTransform="matrix(513.248,473.382,-542.381,447.955,2099.62,2331.73)"><stop offset="0" style="stop-color:rgb(255,213,216);stop-opacity:1"/><stop offset="1" style="stop-color:rgb(254,0,21);stop-opacity:1"/></radialGradient>
        <radialGradient id="_Radial9" cx="0" cy="0" r="1" gradientUnits="userSpaceOnUse" gradientTransform="matrix(513.248,473.382,-542.381,447.955,2099.62,2331.73)"><stop offset="0" style="stop-color:rgb(255,213,216);stop-opacity:1"/><stop offset="1" style="stop-color:rgb(254,0,21);stop-opacity:1"/></radialGradient>
        <radialGradient id="_Radial10" cx="0" cy="0" r="1" gradientUnits="userSpaceOnUse" gradientTransform="matrix(338.313,626.326,-357.517,592.683,2465.69,1500)"><stop offset="0" style="stop-color:rgb(213,249,255);stop-opacity:1"/><stop offset="1" style="stop-color:rgb(0,228,254);stop-opacity:1"/></radialGradient>
        <radialGradient id="_Radial11" cx="0" cy="0" r="1" gradientUnits="userSpaceOnUse" gradientTransform="matrix(338.313,626.326,-357.517,592.683,2465.69,1500)"><stop offset="0" style="stop-color:rgb(213,249,255);stop-opacity:1"/><stop offset="1" style="stop-color:rgb(0,228,254);stop-opacity:1"/></radialGradient>
        <radialGradient id="_Radial12" cx="0" cy="0" r="1" gradientUnits="userSpaceOnUse" gradientTransform="matrix(393.936,653.866,-373.238,690.128,552.057,1531.61)"><stop offset="0" style="stop-color:rgb(255,253,192);stop-opacity:1"/><stop offset="1" style="stop-color:rgb(255,247,16);stop-opacity:1"/></radialGradient>
        <radialGradient id="_Radial13" cx="0" cy="0" r="1" gradientUnits="userSpaceOnUse" gradientTransform="matrix(393.936,653.866,-373.238,690.128,552.057,1531.61)"><stop offset="0" style="stop-color:rgb(255,253,192);stop-opacity:1"/><stop offset="1" style="stop-color:rgb(255,247,16);stop-opacity:1"/></radialGradient>
        <radialGradient id="_Radial14" cx="0" cy="0" r="1" gradientUnits="userSpaceOnUse" gradientTransform="matrix(-360.408,397.375,-455.295,-314.558,901.115,651.267)"><stop offset="0" style="stop-color:rgb(214,255,218);stop-opacity:1"/><stop offset="1" style="stop-color:rgb(0,249,25);stop-opacity:1"/></radialGradient>
        <radialGradient id="_Radial15" cx="0" cy="0" r="1" gradientUnits="userSpaceOnUse" gradientTransform="matrix(-360.408,397.375,-455.295,-314.558,901.115,651.267)"><stop offset="0" style="stop-color:rgb(214,255,218);stop-opacity:1"/><stop offset="1" style="stop-color:rgb(0,249,25);stop-opacity:1"/></radialGradient>
        <radialGradient id="_Radial16" cx="0" cy="0" r="1" gradientUnits="userSpaceOnUse" gradientTransform="matrix(513.248,473.382,-542.381,447.955,2099.62,668.269)"><stop offset="0" style="stop-color:rgb(255,213,237);stop-opacity:1"/><stop offset="1" style="stop-color:rgb(241,0,254);stop-opacity:1"/></radialGradient>
        <radialGradient id="_Radial17" cx="0" cy="0" r="1" gradientUnits="userSpaceOnUse" gradientTransform="matrix(513.248,473.382,-542.381,447.955,2099.62,668.269)"><stop offset="0" style="stop-color:rgb(255,213,237);stop-opacity:1"/><stop offset="1" style="stop-color:rgb(241,0,254);stop-opacity:1"/></radialGradient>
        <radialGradient id="_Radial18" cx="0" cy="0" r="1" gradientUnits="userSpaceOnUse" gradientTransform="matrix(881.275,481.144,-551.275,769.163,754.242,2189.14)"><stop offset="0" style="stop-color:rgb(75,129,237);stop-opacity:1"/><stop offset="1" style="stop-color:rgb(0,66,199);stop-opacity:1"/></radialGradient>
        <radialGradient id="_Radial19" cx="0" cy="0" r="1" gradientUnits="userSpaceOnUse" gradientTransform="matrix(881.275,481.144,-551.275,769.163,754.242,2189.14)"><stop offset="0" style="stop-color:rgb(75,129,237);stop-opacity:1"/><stop offset="1" style="stop-color:rgb(0,66,199);stop-opacity:1"/></radialGradient>
        <radialGradient id="_Radial20" cx="0" cy="0" r="1" gradientUnits="userSpaceOnUse" gradientTransform="matrix(885.95,750.654,-860.067,773.244,1758.94,2054.46)"><stop offset="0" style="stop-color:rgb(237,76,89);stop-opacity:1"/><stop offset="1" style="stop-color:rgb(199,0,17);stop-opacity:1"/></radialGradient>
        <radialGradient id="_Radial21" cx="0" cy="0" r="1" gradientUnits="userSpaceOnUse" gradientTransform="matrix(885.95,750.654,-860.067,773.244,1758.94,2054.46)"><stop offset="0" style="stop-color:rgb(237,76,89);stop-opacity:1"/><stop offset="1" style="stop-color:rgb(199,0,17);stop-opacity:1"/></radialGradient>
        <radialGradient id="_Radial22" cx="0" cy="0" r="1" gradientUnits="userSpaceOnUse" gradientTransform="matrix(583.984,993.18,-566.923,1023.07,2241.12,1133.15)"><stop offset="0" style="stop-color:rgb(76,237,226);stop-opacity:1"/><stop offset="1" style="stop-color:rgb(0,149,199);stop-opacity:1"/></radialGradient>
        <radialGradient id="_Radial23" cx="0" cy="0" r="1" gradientUnits="userSpaceOnUse" gradientTransform="matrix(583.984,993.18,-566.923,1023.07,2241.12,1133.15)"><stop offset="0" style="stop-color:rgb(76,237,226);stop-opacity:1"/><stop offset="1" style="stop-color:rgb(0,149,199);stop-opacity:1"/></radialGradient>
        <radialGradient id="_Radial24" cx="0" cy="0" r="1" gradientUnits="userSpaceOnUse" gradientTransform="matrix(622.126,790.488,-451.224,1089.89,321.459,1146.85)"><stop offset="0" style="stop-color:rgb(236,230,60);stop-opacity:1"/><stop offset="1" style="stop-color:rgb(186,180,0);stop-opacity:1"/></radialGradient>
        <radialGradient id="_Radial25" cx="0" cy="0" r="1" gradientUnits="userSpaceOnUse" gradientTransform="matrix(622.126,790.488,-451.224,1089.89,321.459,1146.85)"><stop offset="0" style="stop-color:rgb(236,230,60);stop-opacity:1"/><stop offset="1" style="stop-color:rgb(186,180,0);stop-opacity:1"/></radialGradient>
        <radialGradient id="_Radial26" cx="0" cy="0" r="1" gradientUnits="userSpaceOnUse" gradientTransform="matrix(721.553,599.295,-686.647,629.761,773.927,475.666)"><stop offset="0" style="stop-color:rgb(76,237,92);stop-opacity:1"/><stop offset="1" style="stop-color:rgb(0,199,20);stop-opacity:1"/></radialGradient>
        <radialGradient id="_Radial27" cx="0" cy="0" r="1" gradientUnits="userSpaceOnUse" gradientTransform="matrix(721.553,599.295,-686.647,629.761,773.927,475.666)"><stop offset="0" style="stop-color:rgb(76,237,92);stop-opacity:1"/><stop offset="1" style="stop-color:rgb(0,199,20);stop-opacity:1"/></radialGradient>
        <radialGradient id="_Radial28" cx="0" cy="0" r="1" gradientUnits="userSpaceOnUse" gradientTransform="matrix(885.95,750.654,-860.067,773.244,1758.94,390.997)"><stop offset="0" style="stop-color:rgb(237,76,213);stop-opacity:1"/><stop offset="1" style="stop-color:rgb(199,0,146);stop-opacity:1"/></radialGradient>
        <radialGradient id="_Radial29" cx="0" cy="0" r="1" gradientUnits="userSpaceOnUse" gradientTransform="matrix(885.95,750.654,-860.067,773.244,1758.94,390.997)"><stop offset="0" style="stop-color:rgb(237,76,213);stop-opacity:1"/><stop offset="1" style="stop-color:rgb(199,0,146);stop-opacity:1"/></radialGradient>
    </defs>
</svg>
